<?xml version="1.0" encoding="UTF-8"?>
<!-- Created with Inkscape (http://www.inkscape.org/) -->
<svg width="922" height="338" version="1.1" viewBox="0 0 922 338" xml:space="preserve" xmlns="http://www.w3.org/2000/svg"><g transform="translate(-169,-502)"><path d="m169 502v12h64v-12zm134 0v12h216v-12zm286 0v12h502v-12zm-420 25v12h64v-12zm134 0v12h216v-12zm286 0v12h502v-12zm-420 25v12h64v-12zm134 0v12h216v-12zm286 0v12h502v-12zm-420 25v12h64v-12zm286 0v12h64v-12zm286 0v12h64v-12zm286 0v12h64v-12zm-858 25v12h64v-12zm286 0v12h64v-12zm286 0v12h64v-12zm286 0v12h64v-12zm-858 25v12h64v-12zm134 0v12h88v-12zm152 0v12h64v-12zm134 0v12h88v-12zm152 0v12h64v-12zm134 0v12h88v-12zm152 0v12h64v-12zm-858 25v12h64v-12zm134 0v12h88v-12zm152 0v12h64v-12zm134 0v12h88v-12zm152 0v12h64v-12zm134 0v12h88v-12zm152 0v12h64v-12zm-858 25v12h64v-12zm134 0v12h88v-12zm152 0v12h64v-12zm134 0v12h88v-12zm152 0v12h64v-12zm134 0v12h88v-12zm152 0v12h64v-12zm-858 25v12h64v-12zm134 0v12h88v-12zm152 0v12h64v-12zm134 0v12h88v-12zm152 0v12h64v-12zm134 0v12h88v-12zm152 0v12h64v-12zm-858 25v12h64v-12zm286 0v12h64v-12zm286 0v12h64v-12zm134 0v12h88v-12zm152 0v12h64v-12zm-858 25v12h64v-12zm286 0v12h64v-12zm286 0v12h64v-12zm134 0v12h88v-12zm152 0v12h64v-12zm-858 25v12h922v-12zm0 25v12l922 1v-12zm0 25v12l922 1v-12z" fill="#485cc7"/></g></svg>
