<?xml version="1.0" encoding="UTF-8"?>
<!-- Created with Inkscape (http://www.inkscape.org/) -->
<svg width="2737.7" height="988.8" version="1.1" viewBox="0 0 2737.7 988.8" xmlns="http://www.w3.org/2000/svg">
 <defs>
  <clipPath id="clipPath6245">
   <path d="m-1679.9 755.24-8.5875 50 2e-4 200h51.525z"/>
  </clipPath>
 </defs>
 <g transform="translate(-169.43 -913.12)">
  <g transform="matrix(17.742 0 0 3.7248 30736 -1900)" clip-path="url(#clipPath6245)" fill="#003f96" stroke-linecap="round" stroke-linejoin="round" stroke-miterlimit="0" stroke-width="6.5949">
   <path d="m-1726.5 755.24h100v10h-100z"/>
   <path d="m-1726.5 775.24h100v10h-100z"/>
   <path d="m-1726.5 795.24h100v10h-100z"/>
   <path d="m-1726.5 815.24h100v10h-100z"/>
   <path d="m-1726.5 835.24h100v10h-100z"/>
   <path d="m-1726.5 855.24h100v10h-100z"/>
   <path d="m-1726.5 875.24h100v10h-100z"/>
   <path d="m-1726.5 895.24h100v10h-100z"/>
   <path d="m-1726.5 915.24h100v10h-100z"/>
   <path d="m-1726.5 935.24h100v10h-100z"/>
   <path d="m-1726.5 955.24h100v10h-100z"/>
   <path d="m-1726.5 975.24h100v10h-100z"/>
   <path d="m-1726.5 995.24h100v10h-100z"/>
  </g>
  <path d="m778.87 1099.4-609.44 744.97h1218.9z" fill="#003f96"/>
  <path d="m169.44 1866.7h2736.2v35.2h-2736.2z" fill="#003f96"/>
  <path d="m1821.6 1325.1v3.0373c0 16.706-2.7843 43.536-26.83 43.536-21.262 0-30.88-14.681-30.88-72.897 0-58.216 9.6184-71.378 30.88-71.378 20.756-0.7594 25.818 18.477 25.818 35.183v3.0373h28.855v-3.2905c0-18.73-3.0374-56.698-54.42-56.698-45.814 0-59.988 29.361-59.988 93.906 0 64.544 14.174 93.906 59.735 93.906 42.523 0 55.685-31.892 55.685-64.544v-3.7967z"/>
  <path d="m1913 1393.1c36.751 0 52.887-25.994 52.887-83.137s-16.135-83.137-52.887-83.137c-36.749 0-52.885 25.994-52.885 83.137s16.135 83.137 52.885 83.137zm0-19.272c-15.237 0-27.338-9.4117-27.338-64.538 0-53.781 12.101-63.193 27.338-63.193 15.239 0 27.339 9.4118 27.339 63.193 0 55.126-12.1 64.538-27.339 64.538z"/>
  <path d="m1975.5 1389.9h24.201v-133.11h0.45l32.269 133.11h21.512l32.269-133.11h0.45v133.11h24.202v-160h-38.992l-27.787 118.54h-0.45l-28.235-118.54h-39.888z"/>
  <path d="m2148.9 1249.2h16.358c20.392 0 27.339 10.532 27.339 27.787 0 20.168-11.877 27.563-25.546 27.563h-18.151zm-25.547 140.73h25.547v-66.106h22.409c30.028 0 46.834-18.599 46.834-47.283 0-27.339-13.445-46.61-44.145-46.61h-50.645z"/>
  <path d="m2230.5 1229.9v112.72c0 36.975 18.375 50.42 49.076 50.42 30.476 0 48.851-13.445 48.851-50.42v-112.72h-25.546v114.73c0 20.168-8.067 29.132-23.305 29.132-15.462 0-23.53-8.9635-23.53-29.132v-114.73z"/>
  <path d="m2376.4 1389.9h25.546v-138.49h37.423v-21.513h-101.06v21.513h38.095z"/>
  <path d="m2443.9 1389.9h88.291v-21.513h-62.745v-51.092h57.367v-21.512h-57.367v-44.37h60.952v-21.513h-86.498z"/>
  <path d="m2541.6 1389.9h25.546v-69.468h20.84c17.479 0 22.857 7.619 23.306 25.098 0.45 11.652 0.22 20.616 1.12 30.252 0.67 6.2745 1.794 11.204 4.258 14.118h28.907c-3.361-2.2409-7.1709-6.0504-7.6189-13.894-0.45-9.6358-0.67-22.185-0.9-32.493-0.9-22.409-9.188-31.148-25.099-32.717v-0.448c17.48-2.6889 26.666-18.599 26.666-39.216 0-30.028-18.151-41.232-40.56-41.232h-56.469zm25.546-88.739v-51.989h21.737c16.806 0 24.201 8.9636 24.201 25.994 0 16.134-9.186 25.994-25.545 25.994z"/>
  <path d="m1821.6 1552.3v3.0373c0 16.706-2.7843 43.536-26.83 43.536-21.262 0-30.88-14.681-30.88-72.897s9.6184-71.378 30.88-71.378c20.756-0.7594 25.818 18.477 25.818 35.183v3.0373h28.855v-3.2905c0-18.73-3.0374-56.698-54.42-56.698-45.814 0-59.988 29.361-59.988 93.906 0 64.544 14.174 93.906 59.735 93.906 42.523 0 55.685-31.892 55.685-64.544v-3.7967z"/>
  <path d="m1978.4 1617.1h25.546v-69.468h20.841c17.479 0 22.857 7.619 23.305 25.098 0.45 11.652 0.22 20.616 1.12 30.252 0.67 6.2745 1.793 11.204 4.258 14.118h28.908c-3.362-2.2409-7.1709-6.0504-7.6189-13.894-0.45-9.6358-0.67-22.185-0.9-32.493-0.9-22.409-9.187-31.148-25.098-32.717v-0.448c17.479-2.6889 26.667-18.599 26.667-39.216 0-30.028-18.151-41.232-40.56-41.232h-56.471zm25.546-88.739v-51.989h21.737c16.807 0 24.202 8.9636 24.202 25.994 0 16.134-9.188 25.994-25.547 25.994z"/>
  <path d="m2123.3 1476.4h16.359c20.392 0 27.339 10.532 27.339 27.787 0 20.168-11.877 27.563-25.546 27.563h-18.152zm-25.546 140.73h25.546v-66.106h22.409c30.028 0 46.835-18.599 46.835-47.283 0-27.339-13.445-46.61-44.146-46.61h-50.644z"/>
  <path d="m2256 1620.3c36.751 0 52.886-25.994 52.886-83.137s-16.135-83.137-52.886-83.137c-36.75 0-52.885 25.994-52.885 83.137s16.135 83.137 52.885 83.137zm0-19.272c-15.238 0-27.339-9.4117-27.339-64.538 0-53.781 12.101-63.193 27.339-63.193s27.339 9.4117 27.339 63.193c0 55.126-12.101 64.538-27.339 64.538z"/>
  <path d="m1913 1620.3c36.751 0 52.886-25.994 52.886-83.137s-16.135-83.137-52.886-83.137c-36.75 0-52.885 25.994-52.885 83.137s16.135 83.137 52.885 83.137zm0-19.272c-15.238 0-27.339-9.4117-27.339-64.538 0-53.781 12.101-63.193 27.339-63.193 15.238 0 27.339 9.4117 27.339 63.193 0 55.126-12.101 64.538-27.339 64.538z"/>
  <path d="m2322.4 1617.1h25.546v-69.468h20.84c17.479 0 22.857 7.619 23.306 25.098 0.45 11.652 0.22 20.616 1.12 30.252 0.67 6.2745 1.793 11.204 4.258 14.118h28.907c-3.361-2.2409-7.171-6.0504-7.619-13.894-0.45-9.6358-0.67-22.185-0.9-32.493-0.9-22.409-9.1879-31.148-25.098-32.717v-0.448c17.479-2.6889 26.667-18.599 26.667-39.216 0-30.028-18.152-41.232-40.561-41.232h-56.47zm25.546-88.739v-51.989h21.737c16.806 0 24.201 8.9636 24.201 25.994 0 16.134-9.1869 25.994-25.546 25.994z"/>
  <path d="m2476.1 1557.5 19.048-78.879h0.45l18.375 78.879zm-41.681 59.608h26.667l10.308-39.216h46.835l9.86 39.216h26.667l-42.129-160h-32.717z"/>
  <path d="m2571.6 1617.1h25.546v-138.49h37.423v-21.513h-101.06v21.513h38.096z"/>
  <path d="m2648 1617.1h25.546v-160h-25.546z"/>
  <path d="m2741.9 1620.3c36.751 0 52.885-25.994 52.885-83.137s-16.134-83.137-52.885-83.137c-36.751 0-52.885 25.994-52.885 83.137s16.134 83.137 52.885 83.137zm0-19.272c-15.238 0-27.339-9.4117-27.339-64.538 0-53.781 12.101-63.193 27.339-63.193 15.238 0 27.339 9.4117 27.339 63.193 0 55.126-12.101 64.538-27.339 64.538z"/>
  <path d="m2804.9 1617.1h24.202v-122.35h0.45l46.387 122.35h31.148v-160h-24.202v119.22h-0.45l-46.386-119.22h-31.149z"/>
  <path d="m2028 1777 21.515-89.096h0.5062l20.756 89.096zm-47.079 67.329h30.121l11.643-44.295h52.901l11.137 44.295h30.121l-47.586-180.72h-36.955z"/>
  <path d="m1788.3 1847.5c36.751 0 52.885-25.994 52.885-83.137 0-57.143-16.134-83.137-52.885-83.137-36.751 0-52.885 25.994-52.885 83.137 0 57.143 16.134 83.137 52.885 83.137zm0-19.272c-15.238 0-27.339-9.411-27.339-64.537 0-53.781 12.101-63.193 27.339-63.193 15.238 0 27.339 9.4117 27.339 63.193 0 55.126-12.101 64.537-27.339 64.537z"/>
  <path d="m1851.7 1844.3h25.546v-72.605h56.247v-21.512h-56.247v-44.37h59.832v-21.513h-85.378z"/>
  <path d="m2125.9 1844.3h24.202v-133.11h0.45l32.269 133.11h21.513l32.269-133.11h0.45v133.11h24.202v-160h-38.992l-27.787 118.54h-0.45l-28.236-118.54h-39.888z"/>
  <path d="m2275.9 1844.3h88.291v-21.513h-62.745v-51.092h57.367v-21.512h-57.367v-44.37h60.953v-21.513h-86.499z"/>
  <path d="m2376.8 1844.3h25.546v-69.468h20.84c17.479 0 22.858 7.619 23.306 25.098 0.45 11.653 0.22 20.616 1.12 30.252 0.67 6.275 1.793 11.205 4.258 14.118h28.908c-3.362-2.241-7.1709-6.05-7.6189-13.894-0.45-9.6349-0.67-22.185-0.9-32.493-0.9-22.409-9.188-31.148-25.098-32.717v-0.448c17.479-2.6891 26.667-18.6 26.667-39.216 0-30.028-18.151-41.232-40.56-41.232h-56.471zm25.546-88.739v-51.989h21.737c16.807 0 24.202 8.9636 24.202 25.994 0 16.134-9.188 25.994-25.547 25.994z"/>
  <path d="m2497.6 1844.3h25.547v-160h-25.547z"/>
  <path d="m2610.9 1787v2.689c0 14.79-2.465 38.543-23.754 38.543-18.823 0-27.339-12.997-27.339-64.537 0-51.54 8.516-63.193 27.339-63.193 18.376-0.672 22.857 16.358 22.857 31.148v2.6891h25.546v-2.9132c0-16.582-2.689-50.196-48.18-50.196-40.56 0-53.108 25.994-53.108 83.137 0 57.143 12.548 83.137 52.885 83.137 37.647 0 49.3-28.235 49.3-57.143v-3.361z"/>
  <path d="m2674.3 1784.7 19.047-78.879h0.45l18.376 78.879zm-41.681 59.608h26.667l10.308-39.216h46.835l9.8589 39.216h26.667l-42.129-160h-32.717z"/>
 </g>
</svg>
