<?xml version="1.0" encoding="UTF-8" standalone="no"?>
<!-- Created with Inkscape (http://www.inkscape.org/) -->

<svg
   version="1.1"
   id="svg884"
   width="49100.121"
   height="5441.2046"
   viewBox="0 0 49100.121 5441.2046"
   sodipodi:docname="datasaab.svg"
   inkscape:version="1.1.2 (0a00cf5339, 2022-02-04)"
   xmlns:inkscape="http://www.inkscape.org/namespaces/inkscape"
   xmlns:sodipodi="http://sodipodi.sourceforge.net/DTD/sodipodi-0.dtd"
   xmlns="http://www.w3.org/2000/svg"
   xmlns:svg="http://www.w3.org/2000/svg">
  <defs
     id="defs888" />
  <sodipodi:namedview
     id="namedview886"
     pagecolor="#ffffff"
     bordercolor="#666666"
     borderopacity="1.0"
     inkscape:pageshadow="2"
     inkscape:pageopacity="0.0"
     inkscape:pagecheckerboard="0"
     showgrid="false"
     inkscape:zoom="0.02"
     inkscape:cx="18025"
     inkscape:cy="5850"
     inkscape:window-width="1920"
     inkscape:window-height="1043"
     inkscape:window-x="0"
     inkscape:window-y="120"
     inkscape:window-maximized="1"
     inkscape:current-layer="g890"
     width="57599px"
     fit-margin-top="0"
     fit-margin-left="0"
     fit-margin-right="0"
     fit-margin-bottom="0" />
  <g
     inkscape:groupmode="layer"
     inkscape:label="Image"
     id="g890"
     transform="translate(-3245.0194,-2724.4164)">
    <path
       id="path1026"
       style="fill:#000000;fill-opacity:1;stroke:#000000;stroke-width:1px;stroke-linecap:butt;stroke-linejoin:miter;stroke-opacity:1"
       d="m 3245.5215,2748.957 22.3047,5416.1641 5090.4902,-0.8906 c 450.448,-12.5454 879.203,-514.1186 854.1856,-942.6055 l 26.3847,-3424.8965 C 9233.3069,3349.2589 8857.312,2758.6549 8323,2762.1133 Z m 4105.1738,1294.2305 c 76.5737,0.5814 131.1246,65.3631 132.0762,135.1934 l -1.038,2500.4655 c 0.3572,62.6326 -63.9529,124.5 -159.6144,126.9348 l -2330.789,-13.5644 21.6172,-2748.1543 z"
       sodipodi:nodetypes="cccccccccccccc" />
    <path
       id="path4986"
       style="fill:#000000;fill-opacity:1;stroke:#000000;stroke-width:1px;stroke-linecap:butt;stroke-linejoin:miter;stroke-opacity:1"
       d="m 10904.105,2751.2969 -1846.3238,5287.1133 1566.9438,10.5429 291.089,-747.082 3062.733,7.4551 240.236,750.9062 1803.098,-4.6582 -1963.645,-5280.0449 z m 1441.92,185.0156 1147.094,3132.8379 -2211.107,-2.5742 z" />
    <path
       id="path4986-3"
       style="fill:#000000;fill-opacity:1;stroke:#000000;stroke-width:1px;stroke-linecap:butt;stroke-linejoin:miter;stroke-opacity:1"
       d="m 21834.609,2751.1023 -1846.323,5287.1133 1566.943,10.5429 291.089,-747.082 3062.733,7.4551 240.236,750.9062 1803.098,-4.6582 -1963.645,-5280.0449 z m 1441.92,185.0156 1147.094,3132.8379 -2211.107,-2.5742 z" />
    <path
       id="path4986-6"
       style="fill:#000000;fill-opacity:1;stroke:#000000;stroke-width:1px;stroke-linecap:butt;stroke-linejoin:miter;stroke-opacity:1"
       d="m 34477.707,2745.7147 -1846.324,5287.113 1566.944,10.543 291.089,-747.082 3062.733,7.455 240.236,750.906 1803.098,-4.658 -1963.645,-5280.045 z m 1441.92,185.015 1147.094,3132.838 -2211.107,-2.574 z" />
    <path
       id="path4986-7"
       style="fill:#000000;fill-opacity:1;stroke:#000000;stroke-width:1px;stroke-linecap:butt;stroke-linejoin:miter;stroke-opacity:1"
       d="m 41295.867,2724.9191 -1846.324,5287.1129 1566.944,10.543 291.089,-747.082 3062.733,7.455 240.236,750.907 1803.098,-4.659 -1963.645,-5280.0445 z m 1441.92,185.0156 1147.094,3132.8383 -2211.107,-2.575 z" />
    <path
       style="fill:#000000;fill-opacity:1;stroke:#000000;stroke-width:1px;stroke-linecap:butt;stroke-linejoin:miter;stroke-opacity:1"
       d="m 14700.365,2793.4517 -0.447,1266.9149 2473.486,-8.3296 10.308,4005.6098 1712.656,4.5351 31.683,-4006.1298 2382.972,-11.4464 4.623,-1246.391 z"
       id="path5305" />
    <path
       style="fill:#000000;fill-opacity:1;stroke:#000000;stroke-width:1px;stroke-linecap:butt;stroke-linejoin:miter;stroke-opacity:1"
       d="m 32724.826,2783.4101 -4947.759,-3.4008 c -338.192,0.2629 -800.826,273.9487 -799.881,708.0369 l 0.967,1987.5739 c 1.715,340.7201 448.544,650.064 784.002,662.1185 l 3173.625,9.7521 c 82.099,2.6385 126.144,60.3542 127.639,125.6599 l 1.658,336.8639 c -1.902,76.2779 -89.135,153.7505 -174.712,154.8798 l -3912.073,1.7989 0.457,1194.3462 5212.321,-3.6296 c 311.961,5.414 494.604,-449.8021 488.336,-736.319 l 12.118,-1790.402 c -2.174,-440.5045 -337.371,-767.2138 -770.426,-773.6648 l -3100.636,-17.71 c -87.909,-3.0783 -156.683,-61.0664 -161.24,-138.8223 l -0.117,-261.3616 c 5.234,-91.3949 70.552,-159.3088 164.569,-167.014 l 3902.331,-27.9178 z"
       id="path5373"
       sodipodi:nodetypes="ccccccccccccccccccccc" />
    <path
       id="path8521"
       style="fill:#000000;fill-opacity:1;stroke:#000000;stroke-width:1px;stroke-linecap:butt;stroke-linejoin:miter;stroke-opacity:1"
       d="m 51498.65,2782.5215 -4979.433,0.6699 19.599,5251.7988 4967.125,-4.6425 c 506.464,7.1862 839.52,-300.3346 838.698,-773.0135 l -1.884,-1304.8701 c -3.925,-345.9328 -291.629,-520.7936 -606.881,-525.9922 326.753,-66.9503 607.918,-334.9367 603.008,-651.1906 l -5.46,-1240.0254 c 2.041,-405.1553 -415.396,-750.205 -834.772,-752.7344 z m -1019.642,1261.0176 c 92.259,1.4113 169.652,91.4815 169.787,164.0214 l 0.707,430.8731 c 0.421,74.3097 -74.513,159.3446 -174.693,159.0156 l -2241.725,-3.4472 -0.998,-747.6836 z m -2269.59,2010.9902 2253.707,1.6562 c 92.259,1.4113 172.736,117.6203 172.871,190.1602 l -6.631,371.8086 c 0.421,74.3097 -74.511,159.3446 -174.691,159.0156 l -2241.725,-3.4472 z"
       sodipodi:nodetypes="cccccccccccccccccccccccc" />
  </g>
</svg>
