<?xml version="1.0" encoding="UTF-8"?>
<!-- Created with Inkscape (http://www.inkscape.org/) -->
<svg width="3410" height="4484.3" version="1.1" viewBox="0 0 3410 4484.3" xmlns="http://www.w3.org/2000/svg">
 <g transform="translate(-13 -22)">
  <g transform="matrix(10 0 0 10 -117 -198)">
   <path d="m338 256v-218h-156c-60.199 0-109 48.801-109 109 0 60.199 48.801 109 109 109z" fill="none" opacity=".25" stroke="#000" stroke-width="32"/>
   <path d="m30 256v-218h156c60.199 0 109 48.801 109 109 0 60.199-48.801 109-109 109z" fill="none" stroke="#000" stroke-width="32"/>
   <circle cx="184" cy="147" r="88" fill="none" stroke="#000" stroke-linecap="square" stroke-miterlimit="2.3" stroke-width="2" style="paint-order:stroke markers fill"/>
   <circle cx="184" cy="147" r="7" style="paint-order:stroke markers fill"/>
   <path d="m13 301v122h28c9 0 14-6.2187 14-20v-79c0-20-7-23-18-23zm17 15h4c2 0 4 1 4 3v86c0 2-2 3-4 3h-4z"/>
   <path d="m189 301v122h28c9 0 14-6.2187 14-20v-79c0-20-7-23-18-23zm17 15h4c2 0 4 1 4 3v86c0 2-2 3-4 3h-4z"/>
   <path d="m330 299.25c-14 0-20.5 9.1782-20.5 20.5v84.5c0 11.322 4.525 20.5 20.5 20.5s20.5-9.1782 20.5-20.5v-28h-16.5v29.5s0 4-4 4-4-4-4-4v-88s-0.0978-4 4-4c4.0978 0 4 4 4 4v22.5h16.5v-20.5c0-11.322-6.5-20.5-20.5-20.5z"/>
   <path d="m282.5 299.25c-14 0-20.5 9.1782-20.5 20.5v14c0 24.088 24.5 32 24.5 48v23s-0.0422 4-4 4c-3.9578 0-4-4-4-4v-28.5h-16.5v27c0 11.322 4.5 21.5 20.5 21.5s20.5-9.1782 20.5-20.5v-22c0-24-24.5-36-24.5-48v-16.5s-0.0575-4 4-4c4.0575 0 4 4 4 4v22.5h16.5v-20.5c0-11.322-6.5-20.5-20.5-20.5z"/>
   <rect x="238.5" y="301" width="17" height="122"/>
   <rect x="108" y="301" width="17" height="122"/>
   <rect transform="rotate(-90)" x="-317" y="98.5" width="16" height="36"/>
   <path d="m68.918 301-9.918 122h14.045l1.707-21h8.4961l1.707 21h14.045l-9.918-122h-20.164zm10.082 48.76 2.9473 36.24h-5.8945z"/>
   <path d="m144 301-9.918 122h14.045l1.707-21h8.4961l1.707 21h14.045l-9.918-122h-20.164zm10.082 48.76 2.9473 36.24h-5.8945z"/>
   <path d="m32.854 437.34v32.656h2.649v-27.039l16.618 27.039h2.4275v-32.656h-2.6103v27.002l-16.532-27.002z"/>
   <path d="m75.344 436.91c-2.5008 0-4.6711 0.66602-6.5144 1.998-1.8305 1.332-3.2291 3.2585-4.1959 5.7793-0.96679 2.5208-1.4502 5.5287-1.4502 9.0234 0 3.4662 0.48984 6.4525 1.4695 8.959s2.3912 4.4258 4.2346 5.7578 4.0476 1.998 6.6129 1.998c1.7789 0 3.3967-0.3724 4.8533-1.1172 1.4695-0.74479 2.6877-1.7474 3.6545-3.0078 0.97968-1.2747 1.6822-2.6712 2.1076-4.1895l0.12656-0.38867c-0.83989-0.25094-1.6794-0.50334-2.5189-0.75586l-0.06328 0.22071c-0.78632 2.2343-1.8176 3.8815-3.0937 4.9414-1.2762 1.0599-2.8939 1.5898-4.8533 1.5898-3.1195 0-5.4656-1.1888-7.0383-3.5664-1.5726-2.3919-2.359-5.8581-2.359-10.398 0-4.6549 0.77988-8.1856 2.3396-10.592 1.5598-2.4062 3.8156-3.6094 6.7676-3.6094 1.882 0 3.4869 0.5944 4.8146 1.7832 1.3277 1.1888 2.2043 2.7787 2.6297 4.7695l0.08789 0.4121 2.925-0.27539-0.07032-0.4375h-0.0035c-0.19336-1.5612-0.79922-3.0221-1.8176-4.3828-1.0055-1.3607-2.2834-2.4492-3.8303-3.2656-1.5469-0.83073-3.1518-1.2461-4.8146-1.2461z"/>
   <path d="m105.96 470.43q-5.8201 0-9.0685-4.2969-3.2484-4.3184-3.2484-12.289 0-5.3711 1.4889-9.1738 1.4889-3.8027 4.2732-5.7793 2.8037-1.9766 6.5935-1.9766 3.8092 0 6.5548 1.9551 2.765 1.9551 4.2152 5.7363 1.4695 3.7812 1.4695 9.1523 0 8.0137-3.2484 12.354-3.2484 4.3184-9.0298 4.3184zm0.0773-2.6641q4.5633 0 6.8062-3.4375 2.2623-3.4375 2.2623-10.57 0-14.223-9.1072-14.201-9.2232 0-9.2232 14.201 0 13.986 9.2619 14.008z"/>
   <path d="m156.76 437.34v32.656h2.9778c-4e-3 -4.9602-2e-3 -9.6307 0-13.943h7.309c3.1711 0 5.6913-0.77344 7.5604-2.3203 1.882-1.5612 2.8231-3.8958 2.8231-7.0039 0-3.1796-0.97501-5.5358-2.9215-7.0684-1.9336-1.5469-4.5487-2.3203-7.8487-2.3203zm2.9778 2.5996h6.8045c2.5265 0 4.4538 0.51568 5.7815 1.5469 1.3406 1.0313 2.0127 2.7285 2.0127 5.0918 0 2.349-0.66563 4.0749-1.9934 5.1777-1.3148 1.1028-3.1583 1.6543-5.5301 1.6543h-7.0753z"/>
   <path d="m194.82 470.43q-5.8201 0-9.0685-4.2969-3.2484-4.3184-3.2484-12.289 0-5.3711 1.4889-9.1738 1.4889-3.8027 4.2732-5.7793 2.8037-1.9766 6.5935-1.9766 3.8092 0 6.5549 1.9551 2.765 1.9551 4.2152 5.7363 1.4695 3.7812 1.4695 9.1523 0 8.0137-3.2484 12.354-3.2484 4.3184-9.0298 4.3184zm0.0773-2.6641q4.5633 0 6.8062-3.4375 2.2623-3.4375 2.2623-10.57 0-14.223-9.1072-14.201-9.2232 0-9.2232 14.201 0 13.986 9.2619 14.008z"/>
   <path d="m216.31 437.34v32.656h2.9778c-4e-3 -5.55 0-10.229 0-15.189h8.6309l5.727 15.189h3.2379l-6.068-15.752 0.26543-0.082c1.637-0.52996 3.0229-1.4824 4.1573-2.8574 1.1343-1.3892 1.7033-3.2728 1.7033-5.6504 0-2.6926-0.825-4.748-2.475-6.166-1.6499-1.4323-3.9961-2.1484-7.0383-2.1484zm2.9778 2.5566h8.0245c4.357 0 6.5356 2.041 6.5356 6.123 0 2.1628-0.62696 3.7455-1.8774 4.748-1.2504 1.0026-3.1694 1.5039-5.7604 1.5039h-6.9223z"/>
   <path d="m252.44 437.34c-3.5816 10.884-7.1603 21.771-10.74 32.656h2.7615l3.2273-9.8184h12.679l3.1658 9.8184h3.0535l-4e-3 -6e-3c-3.5309-10.884-7.068-21.766-10.598-32.65zm1.6154 3.2012 5.5616 16.951h-11.202z"/>
   <path d="m267.46 437.34c3e-3 0.88592 0 1.7567 0 2.6426h9.7063v30.014h3.0182v-30.014h8.9717v-2.6426h-21.696z"/>
   <path d="m297.4 437.34v32.656h18.581v-2.6426h-15.602v-12.547h11.524v-2.5781h-11.524v-12.246h15.043v-2.6426z"/>
   <path d="m324.41 437.34v32.656h5.5513c5.3497 0 9.333-1.3535 11.95-4.0606 2.6168-2.7213 3.9252-6.8822 3.9252-12.482 0-5.3997-1.2329-9.4102-3.695-12.031-2.4492-2.6354-6.3552-3.9818-11.718-4.0391l-5.5284-0.043zm2.9778 2.6426h2.7668c3.0035 0.0859 5.4013 0.55143 7.1931 1.3965 1.8047 0.83074 3.1454 2.2129 4.0219 4.1465 0.88947 1.9336 1.3342 4.6191 1.3342 8.0566 0 3.3802-0.45294 6.0729-1.3553 8.0781-0.88946 2.0052-2.2882 3.4662-4.196 4.3828-1.895 0.90231-4.428 1.3535-7.5991 1.3535h-2.1656v-27.414z"/>
   <path d="m127.44 437.34v32.656h2.9778c-4e-3 -5.55 0-10.229 0-15.189h8.6309l5.727 15.189h3.2379l-6.068-15.752 0.26543-0.082c1.637-0.52996 3.0229-1.4824 4.1573-2.8574 1.1343-1.3892 1.7033-3.2728 1.7033-5.6504 0-2.6926-0.825-4.748-2.475-6.166-1.6499-1.4323-3.9961-2.1484-7.0383-2.1484zm2.9778 2.5566h8.0245c4.357 0 6.5356 2.041 6.5356 6.123 0 2.1628-0.62696 3.7455-1.8774 4.748-1.2504 1.0026-3.1694 1.5039-5.7604 1.5039h-6.9223z"/>
   <path d="m17.372 437.34 2.8e-5 32.656h2.9799v-32.656z"/>
  </g>
 </g>
</svg>