<?xml version="1.0" encoding="UTF-8"?>
<svg width="2708.1" height="2901.4" version="1.1" viewBox="0 0 2708.1 2901.4" xmlns="http://www.w3.org/2000/svg">
 <g transform="matrix(10 0 0 10 -3349.2 -1446.5)">
  <path d="m480.17 374.65h-141.7v-230h143.08c48.06 0 109.87 41.147 109.87 114.5s-67.354 115.5-111.26 115.5zm-36.045-219.14v208.41l140.02-104.21z"/>
  <path d="m347.98 399.72c5.7424 0 9.5352 2.0022 11.853 4.8993 2.3183 2.8978 3.2664 6.5855 3.2664 9.9038 0 3.7928-1.2117 8.1658-5.268 11.169-2.4234 1.7912-5.2154 2.792-10.799 2.792-1.6329 0-2.4234-0.0526-4.0563-0.36862v-27.816c1.6847-0.36862 3.3176-0.57957 5.0037-0.57957zm-13.065-3.6876c1.8438 1.0008 2.4759 2.1599 2.4759 6.638v23.074c0 4.7409-0.68468 5.4263-2.4759 6.9015h8.7453c9.2716 0 14.066-0.31606 19.018-4.4249 4.3723-3.6351 6.5322-9.0082 6.5322-14.277 0-5.7424-2.4759-10.326-6.2161-13.434-3.0555-2.5811-7.1643-4.5833-14.118-4.5833-2.4759 0-5.0044 0.0526-7.4804 0.10512z"/>
  <path d="m388.61 415.61h-11.326l5.6898-14.54zm-10.747-19.229c1.1591 0.57957 1.6854 1.1066 1.6854 2.1599 0 0.79051-0.31606 1.6861-0.63212 2.5285l-9.8512 24.602c-1.9489 4.7942-2.4759 5.6366-5.1103 7.3227h10.22c-0.68469-0.42119-2.0022-0.94819-2.0022-2.476 0-0.79051 0.2635-1.8438 0.57957-2.6869l3.2139-8.6395h14.066l3.3716 8.7454c0.73724 1.9489 0.84306 2.3183 0.84306 2.8446 0 1.1591-0.73724 1.3694-2.0022 2.2124h11.537c-2.6343-1.4752-3.846-3.6351-5.1628-6.9541l-11.905-29.659z"/>
  <path d="m396.77 402.65c2.3708-1.7912 3.7928-2.1073 7.2176-2.1073 1.5278 0 3.4241 0.0526 4.4781 0.15838v25.603c0 4.5833-0.68468 5.7424-2.4759 6.6906h11.01c-2.0548-1.3694-2.9504-2.476-2.9504-6.2161v-26.078c1.5278-0.0526 3.1081-0.15838 4.6358-0.15838 3.2139 0 4.4782 0.36863 5.3738 2.1073l1.7913-6.638c-0.57956 0.21094-0.94819 0.2635-1.1591 0.2635l-2.1073 0.10512h-21.072c-0.42119 0-1.7913-0.10512-2.6869-0.36862z"/>
  <path d="m444.63 415.61h-11.326l5.6898-14.54zm-10.747-19.229c1.1591 0.57957 1.6861 1.1066 1.6861 2.1599 0 0.79051-0.31606 1.6861-0.63212 2.5285l-9.8519 24.602c-1.9489 4.7942-2.4759 5.6366-5.1103 7.3227h10.22c-0.68469-0.42119-2.0022-0.94819-2.0022-2.476 0-0.79051 0.2635-1.8438 0.57957-2.6869l3.2139-8.6395h14.066l3.3716 8.7454c0.73724 1.9489 0.84307 2.3183 0.84307 2.8446 0 1.1591-0.73725 1.3694-2.0022 2.2124h11.537c-2.6343-1.4752-3.846-3.6351-5.1628-6.9541l-11.906-29.659z"/>
  <path d="m461.18 396.38c1.8438 1.0008 2.476 2.1599 2.476 6.638v23.443c0 4.741-0.79051 5.584-2.476 6.5322h10.958c-2.4234-1.4226-2.8971-3.4241-2.8971-6.2161v-26.13c1.3694-0.31606 2.265-0.47444 3.846-0.47444 5.3205 0 8.1132 2.8446 8.1132 6.9015 0 2.0022-0.73725 4.5307-3.5825 6.5322-1.4752 1.0533-3.1081 1.7913-6.4796 2.1599 1.3168 0.527 2.2124 0.73725 3.9511 0.73725 6.8483 0 12.327-4.741 12.327-10.431 0-3.3716-2.5811-9.7461-12.643-9.7461z"/>
  <path d="m507.12 399.44c5.6366-0.0526 9.6403 2.9504 11.906 6.7957 1.6861 2.8446 2.4234 6.1636 2.4234 9.114 0 8.6395-5.6898 14.593-14.013 14.593-5.4263 0-8.6921-2.476-10.958-5.6898-2.265-3.2664-3.2665-6.9015-3.2665-10.273 0-3.53 1.0533-6.5855 2.5811-8.8505 2.5292-3.7395 7.1125-5.6359 11.327-5.6891zm-20.177 15.436c0 10.642 8.9556 19.018 20.282 19.018 11.485 0 20.546-8.587 20.546-19.44 0-4.1088-1.4226-8.0074-3.53-11.063-3.3716-4.8468-9.641-7.9548-16.278-7.9548-11.958 0-21.019 8.3767-21.019 19.44z"/>
  <path d="m526.44 396.38c1.8438 1.0008 2.476 2.1599 2.476 6.638v23.443c0 4.741-0.79051 5.584-2.476 6.5322h10.536c-2.1073-1.0533-2.4759-2.7394-2.4759-6.9541v-23.021c0-3.7402 0.31606-5.584 2.4759-6.638z"/>
  <path d="m539.98 396.38c1.8964 1.2642 2.8971 2.5285 2.8971 6.2687v24.129c0 2.8446-0.42119 4.6884-2.9504 6.2161h9.9038c-1.9489-1.2117-2.8971-2.792-2.8971-5.795v-22.969l19.756 25.024c2.1073 2.6343 4.1088 4.4781 7.3753 5.5314v-32.188c0-3.6876 0.89562-4.8993 2.9504-6.2161h-9.957c2.0548 1.3694 2.9504 2.6343 2.9504 6.2687v22.021l-20.282-25.813c-1.4226-1.7913-1.5278-2.2124-1.6329-2.476h-8.1132z"/>
  <path d="m576.65 402.65c2.3708-1.7912 3.7928-2.1073 7.2176-2.1073 1.5278 0 3.4241 0.0526 4.4781 0.15838v25.603c0 4.5833-0.68469 5.7424-2.4759 6.6906h11.01c-2.0548-1.3694-2.9504-2.476-2.9504-6.2161v-26.078c1.5278-0.0526 3.1081-0.15838 4.6358-0.15838 3.2139 0 4.4781 0.36863 5.3738 2.1073l1.7913-6.638c-0.57957 0.21094-0.94819 0.2635-1.1591 0.2635l-2.1073 0.10512h-21.073c-0.42118 0-1.7912-0.10512-2.6869-0.36862z"/>
 </g>
</svg>
