<?xml version="1.0" encoding="UTF-8"?>
<!-- Created with Inkscape (http://www.inkscape.org/) -->
<svg width="16769" height="1956.4" version="1.1" viewBox="0 0 16769 1956.4" xml:space="preserve" xmlns="http://www.w3.org/2000/svg"><g transform="translate(268.14 -403.26)"><path d="m1328.1 1386.6c0-316.7-160.9-623.19-429.08-794.31-171.12-109.82-413.76-155.8-615.53-155.8h-551.67v1890h551.67c199.22 0 444.4-45.973 615.53-155.8 263.07-171.12 429.08-469.94 429.08-784.09zm-189-7.6621c0 234.97-102.16 482.71-296.27 623.19-186.45 135.36-385.66 153.24-607.86 153.24h-314.15v-1547.8h273.28c222.2 0 436.74 15.324 623.19 145.58 204.32 140.47 321.81 378 321.81 625.74z"/><path d="m2482.9 2326.5v-171.12h-845.39v-697.25h817.3v-171.12h-817.3v-679.38h845.39v-171.12h-1034.4v1890z"/><path d="m4461.2 1831h-211.99c-160.9 214.54-388.22 357.57-661.5 357.57-426.53 0-796.86-378-796.86-801.97 0-429.08 360.12-809.63 794.31-809.63 260.51 0 510.81 127.7 656.39 344.8h211.99c-28.095-66.405-71.513-125.15-120.04-178.78-189-214.54-459.73-337.13-745.78-337.13-549.12 0-985.86 426.53-985.86 978.2 0 546.57 446.96 975.65 988.42 975.65 365.23 0 697.25-209.43 870.93-528.69z"/><path d="m5723.2 1805.4c0-293.72-191.55-464.84-462.28-546.57-191.55-58.743-449.51-102.16-449.51-355.01 0-191.55 153.24-329.47 342.24-329.47 186.45 0 334.58 158.35 334.58 342.24h189c0-293.72-232.42-513.36-523.58-513.36-291.16 0-531.24 209.43-531.24 508.26 0 326.92 222.2 418.86 490.38 498.04 206.88 61.297 421.42 148.13 421.42 403.54 0 211.99-171.12 375.44-380.55 375.44-237.53 0-383.11-158.35-393.32-390.77h-189c5.1082 339.69 247.74 561.89 582.32 561.89 311.59 0 569.55-240.08 569.55-554.23z"/><path d="m7112.4 436.46h-206.88l-554.23 1059.9-538.9-1059.9h-209.43l656.39 1259.1v630.85h189v-630.85z"/><path d="m8107.1 1805.4c0-293.72-191.55-464.84-462.28-546.57-191.55-58.743-449.51-102.16-449.51-355.01 0-191.55 153.24-329.47 342.24-329.47 186.45 0 334.58 158.35 334.58 342.24h189c0-293.72-232.42-513.36-523.58-513.36s-531.24 209.43-531.24 508.26c0 326.92 222.2 418.86 490.38 498.04 206.88 61.297 421.42 148.13 421.42 403.54 0 211.99-171.12 375.44-380.55 375.44-237.53 0-383.11-158.35-393.32-390.77h-189c5.1081 339.69 247.74 561.89 582.32 561.89 311.59 0 569.55-240.08 569.55-554.23z"/><path d="m9174.4 607.58v-171.12h-1054.8v171.12h434.19v1718.9h189v-1718.9z"/><path d="m10352 2326.5v-171.12h-845.39v-697.25h817.3v-171.12h-817.3v-679.38h845.39v-171.12h-1034.4v1890z"/><path d="m12421 2326.5v-1890h-291.16l-689.59 1609-687.04-1609h-291.16v1890h189v-1683.1h5.108l702.36 1683.1h160.9l707.47-1683.1h5.108v1683.1z"/><path d="m14475 977.92c0-74.067-17.879-148.13-45.973-214.54-94.5-224.76-296.27-360.12-541.46-360.12-81.73 0-163.46 15.324-240.08 45.973-257.96 99.608-367.78 324.36-367.78 592.54v5.1081h189c0-255.4 135.36-472.5 408.65-472.5 219.65 0 408.65 178.78 408.65 400.99 0 224.76-209.43 398.43-357.57 541.46l-664.05 638.51v171.12h1200.4v-171.12h-945l607.86-579.77c176.23-166.01 347.35-339.69 347.35-597.65z"/><path d="m16501 1381.5c0-546.57-459.73-978.2-1001.2-978.2-549.12 0-998.63 436.74-998.63 988.42 0 538.9 469.94 967.98 998.63 967.98 538.9 0 1001.2-431.63 1001.2-978.2zm-189 2.554c0 444.4-370.34 804.52-812.19 804.52-434.19 0-809.63-360.12-809.63-796.86 0-446.96 360.12-817.3 809.63-817.3 444.4 0 812.19 365.23 812.19 809.63z"/></g></svg>
