<?xml version="1.0" encoding="UTF-8"?>
<!-- Created with Inkscape (http://www.inkscape.org/) -->
<svg width="3514.5pt" height="595.34pt" version="1.1" viewBox="0 0 3514.5 595.34" xmlns="http://www.w3.org/2000/svg">
 <g transform="translate(-134.46 -361.06)">
  <path d="m307.08 754.82c-13.86 0-26.46-2.52-37.8-7.56-11.34-5.04-21.42-12.6-30.24-21.42-8.82-8.82-16.38-18.9-21.42-30.24-5.04-11.34-7.56-23.94-7.56-37.8 0-13.23 2.52-25.83 7.56-37.8 5.04-11.34 12.6-21.42 21.42-30.24 8.82-8.82 18.9-15.75 30.24-20.79 11.34-5.04 23.94-8.19 37.8-8.19 13.23 0 25.83 3.15 37.8 8.19 11.34 5.04 21.42 11.97 30.24 20.79 8.82 8.82 15.75 18.9 20.79 30.87 5.04 11.97 8.19 24.57 8.19 37.17 0 13.86-3.15 26.46-8.19 37.8-5.04 11.34-11.97 21.42-20.79 30.24-8.82 8.82-18.9 16.38-30.87 21.42-11.97 5.04-24.57 7.56-37.17 7.56zm98.28 42.84v31.5h74.34v-467.46h-74.34v155.61c-7.56-5.04-15.12-9.45-22.68-13.23-7.56-3.78-15.75-6.93-24.57-10.08-8.82-2.52-17.01-5.04-25.83-6.3-8.82-1.26-17.01-2.52-25.2-2.52-11.97 0-23.31 1.26-34.65 3.78s-22.05 5.67-32.13 10.08c-10.08 4.41-20.16 9.45-28.98 15.75-9.45 6.3-18.27 13.86-25.83 21.42-7.56 8.19-15.12 17.01-21.42 25.83-6.3 9.45-11.97 19.53-15.75 29.61-4.41 10.08-7.56 20.79-10.08 32.13-2.52 11.34-3.78 22.68-3.78 34.02 0 11.97 1.26 23.31 3.78 34.65s5.67 22.05 10.08 32.13c3.78 10.08 9.45 20.16 15.75 28.98 6.3 9.45 13.86 18.27 21.42 25.83 7.56 8.19 16.38 15.12 25.83 21.42 8.82 6.3 18.9 11.97 28.98 15.75 10.08 4.41 20.79 7.56 32.13 10.08s22.68 3.78 34.65 3.78c8.19 0 16.38-0.63 25.2-1.89 8.82-1.26 17.01-3.78 25.83-6.93 8.82-2.52 17.01-6.3 24.57-10.08 7.56-3.78 15.12-8.82 22.68-13.86z"/>
  <path d="m652.32 485.18c-11.97 0-23.318 1.2593-34.658 3.7793-11.34 2.52-22.044 6.2982-32.124 10.078-10.08 4.41-20.155 10.077-28.975 16.377-9.45 6.3-18.28 13.856-25.84 21.416-7.56 7.56-15.116 16.39-21.416 25.21-6.2999 9.45-11.967 19.524-15.747 29.604-4.41 10.08-7.5582 20.784-10.078 32.124-2.52 11.34-3.7793 23.318-3.7793 34.658s1.2593 22.674 3.7793 34.014c2.5199 11.34 5.6681 22.059 10.078 32.139 3.78 10.08 9.4471 20.155 15.747 28.975 6.3 9.45 13.856 18.265 21.416 25.825 7.56 8.19 16.39 15.131 25.84 21.431 8.82 6.3 18.895 11.967 28.975 15.747 10.08 4.41 20.784 7.5581 32.124 10.078 11.34 2.52 22.688 3.7793 34.658 3.7793 15.12 0 29.602-1.8888 44.092-6.2988 14.49-3.78 28.357-10.077 40.957-17.637 12.6-7.56 24.563-17.019 35.903-27.729s20.799-22.673 29.619-35.273l-69.302-37.808c-3.78 7.56-8.8172 14.501-15.117 20.801-6.3 6.3-12.611 11.337-19.541 15.117-7.56 4.41-15.116 7.5581-22.676 10.078-8.19 2.52-16.376 3.1494-23.936 3.1494-9.4499 0-18.895-1.2592-27.715-4.4092-9.45-2.52-17.65-6.9277-25.21-11.968-7.56-5.04-14.486-10.707-20.156-18.267-6.3-7.56-10.707-15.76-13.857-24.58h263.31c2.4217 10.402 5.3983 20.295 9.4776 29.619 4.41 10.08 10.077 20.155 16.377 28.975 6.3 9.45 13.241 18.265 20.801 25.825 7.56 7.56 16.375 14.501 25.825 20.801 8.82 6.3 18.895 11.967 28.975 16.377 10.08 4.41 20.799 7.5581 32.139 10.078 11.34 2.52 22.673 3.1494 34.643 3.1494 15.75 0 30.876-1.8888 45.366-6.2988 14.49-3.78 28.342-9.4469 40.942-17.007 12.6-7.56 24.578-16.39 35.288-27.1s20.155-22.673 27.715-35.903l-64.893-37.808c-3.78 7.56-8.8172 13.871-15.117 20.171-6.3 6.3-13.226 11.967-20.156 15.747-7.56 4.41-15.116 7.5581-23.306 10.078-8.82 2.52-17.02 3.1494-25.84 3.1494-13.86 0-25.823-2.5185-37.163-8.1885-11.97-5.04-22.059-11.966-30.879-20.786-8.82-8.82-16.376-18.909-21.416-30.879-5.04-11.34-7.5586-23.933-7.5586-37.163 0-13.86 2.5186-26.467 7.5586-38.437 5.04-11.34 12.596-22.044 21.416-30.864 8.82-8.82 18.909-15.746 30.879-20.786 11.34-5.04 23.933-7.5586 37.163-7.5586 8.19 0 17.02 1.2593 25.84 3.7793 8.19 2.52 15.746 5.6683 23.306 9.4483 6.93 4.4099 13.226 9.4471 19.526 15.117 5.6699 6.3 10.707 12.596 15.747 20.156l65.522-37.793c-7.56-12.6-17.005-24.578-27.715-35.288-11.34-10.71-23.318-19.525-35.918-27.085-12.6-7.56-26.452-13.227-40.942-17.637-15.12-3.78-30.246-6.2989-45.366-6.2989-11.97 0-23.303 1.2593-34.643 3.7793-11.34 2.52-22.059 6.2982-32.139 10.078-10.08 4.41-20.155 9.4471-28.975 15.747-9.45 6.3-18.265 13.856-25.825 21.416-7.56 8.19-14.501 17.02-20.801 25.84-6.3 8.82-11.967 18.895-16.377 28.975-4.41 10.71-7.5582 21.414-10.078 32.754-2.52 11.34-3.1494 23.318-3.1494 34.658 0-11.97-1.2593-23.318-3.7793-34.658-2.52-11.34-5.6681-22.044-10.078-32.124-4.41-10.08-10.077-20.154-16.377-29.604-6.3-8.82-13.871-17.65-21.431-25.21-7.56-7.56-16.375-15.116-25.195-21.416-9.45-6.3-18.895-11.967-28.975-16.377-10.08-3.7799-21.429-7.5581-32.769-10.078s-22.674-3.7793-34.014-3.7793zm0 75.601c9.45 0 18.895 1.8891 27.715 5.0391 8.82 3.15 17.65 7.5576 25.21 12.598 7.56 5.04 14.486 11.336 20.786 18.896 6.3 7.56 10.707 15.116 14.487 23.936h-176.4c3.78-8.82 8.1873-17.005 14.487-24.565 5.67-7.56 12.596-13.856 20.156-18.896 7.5599-5.0399 15.76-9.4476 25.21-12.598 8.82-2.52 18.265-4.4092 28.345-4.4092z"/>
  <path d="m1294.3 485.18c-10.075 1e-3 -20.13 0.615-29.575 1.875-9.4877 1.265-18.219 3.7845-27.07 6.3135-8.821 2.5203-17.007 5.6688-24.565 9.4482-7.5848 3.7924-14.941 7.4506-21.314 11.895l-0.103 0.07-0.117 0.09c-6.8891 5.016-13.095 9.946-18.164 15.015-5.589 5.5889-9.9476 11.231-13.652 16.758l-0.205 0.293-0.19 0.337c-3.6144 6.0981-6.1558 12.291-8.0274 18.53v0.03c-2.514 6.9128-3.1347 13.839-3.1347 20.771 0 12.512 2.5612 24.034 7.5586 34.658 0.05 0.114 0.11 0.223 0.161 0.337l0.01 0.06c5.0217 11.12 12.538 20.498 21.856 29.194 9.4177 8.7896 20.727 16.341 33.911 22.632l0.04 0.01 0.06 0.03h0.01c12.274 6.1368 26.264 9.8295 40.928 11.191l0.85 0.234h0.835c18.682 1.8843 34.373 4.3716 47.49 6.8701 13.236 2.5213 23.926 5.6649 32.754 9.4483 8.8428 3.7897 15.021 7.4909 19.482 11.309 0.01 5e-3 0.02 0.03 0.03 0.03 4.4016 4.4015 6.9433 9.3452 6.9433 14.473 0 5.1582-2.684 10.65-6.7675 14.839l-0.22 0.22-0.19 0.234c-4.493 5.0533-9.9123 8.709-16.099 12.422l-0.06 0.03c-6.9132 3.7688-14.462 6.8969-22.661 8.789-8.1979 1.892-16.381 2.5196-24.566 2.5196-7.903 0-16.019-1.2872-24.097-4.3213l-0.469-0.176-0.469-0.147c-8.4957-2.4938-15.958-6.1657-23.188-10.957l-0.308-0.205-0.322-0.176c-7.2826-4.2727-13.437-8.5734-18.926-13.418l-0.234-0.22-0.234-0.19c-0.743-0.597-1.9307-2.6133-5.8741-6.4893l-7.2508-7.1338-62.314 35.918 11.675 12.334c3.3105 3.4941 6.7672 8.0379 12.949 13.447 10.099 8.8363 22.019 16.377 34.644 23.32 12.579 6.9187 25.836 12.601 40.928 16.377h0.01c15.089 4.401 29.623 6.2989 44.722 6.2989 9.4639 0 18.923-0.631 28.359-1.8897 9.4681-1.2624 18.227-3.7492 27.1-6.2842 8.802-2.5148 16.885-5.0524 24.99-8.7744l0.205-0.07 0.205-0.117c7.5578-3.7817 14.791-7.3297 21.211-12.466 6.1579-4.9263 12.256-9.8096 17.812-14.722l0.322-0.293 0.308-0.293c4.9476-4.9755 9.3105-10.581 13.052-16.816 3.6699-6.1165 6.0847-12.148 8.4961-18.164l0.234-0.615 0.19-0.615c1.8139-6.2019 3.0469-13.389 3.0469-20.918 0-11.374-3.1374-22.663-8.1885-34.028-5.0366-11.332-12.602-21.435-22.046-30.249-9.4193-8.7913-20.702-15.644-33.794-21.899l-0.249-0.103-0.249-0.117c-12.842-5.4745-26.368-9.2029-41.03-11.118l-0.981-0.249h-0.645c-18.513-2.4812-34.13-4.9608-47.153-7.4414l-0.07-0.01h-0.06c-13.79-2.5095-24.196-4.9645-32.505-8.7744l-0.132-0.06-0.161-0.07c-8.5017-3.6535-14.044-6.9892-18.179-11.602l-0.396-0.454-0.454-0.41c-3.8489-3.5919-6.0351-9.3644-6.0351-13.901 0-4.0089 2.2715-9.5762 6.2109-14.18l0.234-0.264 0.22-0.264c3.8566-5.0119 9.1512-9.1909 15.835-12.861l0.205-0.102 0.19-0.117c6.3768-3.7879 13.726-6.2427 21.841-8.1152 8.2117-1.8951 17.01-3.1641 25.84-3.1641 7.6804 0 15.617 1.8669 24.566 4.4238v-0.01c0.04 0.02 0.08 0.04 0.117 0.06l0.06 0.01c8.1471 3.1424 16.271 6.9023 23.774 11.279 7.4985 4.3742 13.791 8.7804 20.054 13.784l0.103 0.09c1.8101 1.6091 3.4747 3.4559 6.2109 5.9472l7.1631 6.5332 53.027-29.985v-17.329l-0.542-0.644c0.747 0.879 0.674 0.759-0.352-0.439-3.8444-4.4853-8.562-8.5757-13.52-12.92l-0.366-0.322-0.381-0.293c-4.8891-3.6737-10.272-7.8368-15.718-11.484l-0.293-0.205-0.293-0.176c-6.1695-3.6788-12.339-6.792-18.56-9.9023-6.3101-3.1549-13.198-6.2468-20.098-8.7598l-0.161-0.09-0.176-0.06c-7.4641-2.4926-14.285-4.9666-21.782-6.8408-7.5617-1.8905-14.462-3.1354-21.387-4.3945l-0.234-0.03-0.952-0.176h-1.2319c-6.7463-1.0068-13.515-1.6826-20.274-1.6846h-0.01zm0.03 13.359v0.02c6.7515 0 13.522 0.565 20.303 1.6846h0.01c6.923 1.2588 13.507 2.4575 20.552 4.2187 6.6178 1.6544 13.141 3.9997 20.771 6.5479 6.2396 2.2725 12.728 5.1925 18.691 8.1738 6.184 3.092 12.041 6.0558 17.681 9.4189 4.8942 3.2781 10.137 7.3172 15.117 11.06 4.8855 4.2802 9.4238 8.3502 12.173 11.558 0.138 0.161 0.172 0.25 0.308 0.41l-40.444 22.866c-2.1378-1.9465-3.912-3.9168-6.3281-6.0645l-0.264-0.234-0.264-0.22c-6.7247-5.3798-13.663-10.249-21.782-14.985-8.3185-4.8525-17.136-8.8962-25.884-12.261l-0.557-0.22-0.571-0.161c-9.2247-2.6358-18.452-4.9512-28.242-4.9512-10.094 0-19.872 1.4307-28.843 3.501-8.8831 2.05-17.629 4.8953-25.664 9.668-7.7998 4.2832-14.721 9.5328-20.01 16.406-5.5382 6.4719-9.4335 14.636-9.4335 22.866 0 8.284 3.4798 17.339 10.298 23.701 5.9853 6.6763 13.589 10.984 22.866 14.971 10.098 4.6305 21.602 7.2078 35.684 9.7705 13.537 2.5784 29.525 5.13 48.618 7.6758h0.09c13.841 1.7301 26.315 5.1595 38.335 10.283 12.35 5.9013 22.379 12.09 30.425 19.6 8.3347 7.7791 14.737 16.407 18.955 25.898 4.5358 10.206 7.0312 19.732 7.0312 28.594 0 5.9381-1.0589 12.174-2.5195 17.168-2.3924 5.9687-4.5708 11.304-7.5439 16.26-3.2033 5.3388-6.8828 10.053-11.074 14.268-5.2111 4.6067-11.155 9.3812-17.3 14.297-4.7217 3.7773-11.388 7.2221-18.852 10.957-7.1131 3.2665-14.493 5.6015-23.086 8.0566-8.82 2.52-16.981 4.7935-25.195 5.8887-8.8709 1.1831-17.732 1.7871-26.587 1.7871-14.005 0-27.071-1.7172-40.972-5.7715l-0.249-0.06-0.264-0.07c-13.847-3.4619-25.9-8.608-37.734-15.117-12.135-6.6742-23.304-13.807-32.285-21.665-5.1901-4.5415-8.1197-8.4589-12.041-12.598l38.804-22.368c2.3948 2.3539 4.0055 5.0833 6.8701 7.3828 6.2665 5.5314 13.176 10.333 21.006 14.927 8.1604 5.4076 16.909 9.7363 26.807 12.642 9.6768 3.6346 19.435 5.1856 28.814 5.1856 8.8762 0 18.124-0.688 27.583-2.8711 9.606-2.2168 18.296-5.8502 26.074-10.093l0.234-0.132 0.249-0.147c6.5329-3.9198 13.328-8.3872 19.233-15.029 6.0316-6.1871 10.576-14.721 10.576-24.17 0-9.5001-4.657-17.723-10.869-23.936l-0.3519-0.381-0.381-0.322c-5.8442-5.0093-13.301-9.3331-22.969-13.477-9.9509-4.2647-21.598-7.6426-35.537-10.298-13.537-2.5784-29.718-5.1705-49.058-7.1045h-0.103l-0.117-0.03c-13.618-1.1348-26.494-4.5386-37.339-9.9609l-0.234-0.12c-12.158-5.7896-22.31-12.612-30.644-20.391-8.5671-7.9959-14.797-15.931-18.94-25.254l-0.12-0.264c-4.2223-8.9723-6.2842-18.129-6.2842-28.945 0-6.1191 0.558-11.305 2.3437-16.216l0.132-0.366 0.103-0.381c1.6238-5.413 3.7138-10.478 6.7236-15.557 3.3569-5.0082 7.1103-9.8495 11.997-14.736 4.2269-4.2267 10.012-8.8833 16.582-13.667 5.1164-3.568 12.107-7.1375 19.629-10.898 6.7622-3.3811 14.174-6.2428 22.266-8.5547 8.8199-2.52 16.952-4.8081 25.166-5.9033 8.7934-1.1725 18.31-1.7725 27.832-1.7725z"/>
  <path d="m1424 484.55v173.25c0 11.954 1.2467 23.313 3.7646 34.644 0.629 2.8321 1.2978 5.6244 2.0152 8.3771 0.717 2.7528 1.4838 5.4661 2.3091 8.1402 0.825 2.6741 1.7097 5.309 2.6629 7.9051 0.953 2.5962 1.9753 5.1535 3.0763 7.6723l0.06 0.117c3.7944 10.092 9.4072 20.067 15.718 28.901l0.09 0.147 0.351 0.469c6.1866 9.212 12.953 17.818 20.977 25.225l0.102 0.09c7.5558 8.1661 16.322 15.051 25.737 21.328 8.8428 6.3164 18.823 11.961 28.96 15.762l0.161 0.06c10.048 4.3807 20.693 7.5119 31.978 10.02 11.333 2.5183 22.704 3.7646 34.658 3.7646 8.1748 0 16.405-0.636 25.195-2.5195l-0.03 0.03h0.03c8.2616-1.2709 16.306-3.7768 24.551-6.3135 8.2409-2.5356 16.359-6.2824 23.95-10.078 7.5651-3.7825 15.133-8.2037 22.69-13.242v0.01c-1.8799 11.906-5.6829 22.639-11.323 32.681l0.176-0.249-0.19 0.308-0.234 0.40999 0.132-0.29299c-6.2692 10.011-13.189 18.836-21.958 26.352-8.7744 7.5212-18.204 13.784-28.887 17.578l-0.146 0.06-0.176 0.06c-11.265 4.3451-22.577 6.2403-33.779 6.2403-8.7846 0-17.554-1.2517-25.752-3.7647l-0.117-0.04-0.102-0.01c-8.7355-2.5075-16.34-5.6805-23.804-10.034v0.01c-7.4541-4.3483-14.238-9.9466-19.922-16.216l-0.205-0.205-0.205-0.22c-3.8392-3.8679-7.0815-8.7524-10.986-14.59l-3.9744-5.9687h-79.702l7.0312 18.223c3.6083 9.3319 6.8135 20.983 14.692 32.124l0.01 0.04c0.01 0.02 0.03 0.02 0.04 0.04 10.689 15.709 23.302 28.964 38.394 40.283 15.12 11.34 31.537 19.531 49.16 25.825 17.619 6.2926 35.918 9.4482 55.43 9.4482 11.954 0 23.313-1.2468 34.644-3.7646 11.343-2.5207 22.052-5.6653 32.139-10.078l0.176-0.06 0.645-0.293-0.85 0.337c10.092-3.7846 20.071-9.4106 29.502-15.688l0.19-0.117 0.176-0.132c8.7296-6.2485 17.457-13.077 24.976-20.596 7.5714-7.5713 15.106-16.375 21.416-25.84 6.2537-8.755 11.812-18.655 16.201-28.623l0.161-0.381 0.132-0.351c3.5145-9.4251 6.4-19.481 8.8184-30.015l0.483-1.2158 0.19-1.4062c2.3818-10.434 3.6182-21.461 3.6182-33.12v-298.64h-74.341v171.37c0 13.829-3.1687 26.465-8.2032 37.793h0.03c-0.01 0.02-0.03 0.04-0.04 0.06-5.6552 11.296-12.608 21.397-21.401 30.19-8.8335 8.8336-19.508 16.369-31.494 21.416-11.96 5.036-24.562 7.5586-37.163 7.5586-13.8 0-26.412-2.5322-37.72-7.5439l-0.09-0.04-0.117-0.06c-11.918-5.0443-22.002-12.568-30.762-21.328-8.803-8.803-15.752-18.923-20.786-30.249-5.0368-11.333-7.5586-23.931-7.5586-37.163v-173.88zm13.374 13.389h48.823v160.49c0 14.929 2.8394 29.409 8.7011 42.598 5.6936 12.81 13.608 24.331 23.555 34.277 9.6828 9.6829 21.179 18.345 35.01 24.199 13.165 5.8349 27.693 8.6865 43.14 8.6865 14.384 0 28.768-2.8744 42.363-8.5986 13.75-5.7893 25.81-14.341 35.757-24.287 9.9462-9.9463 17.734-21.317 23.936-33.721l0.132-0.264 0.117-0.293c5.6936-12.811 9.3604-27.34 9.3604-43.228v-157.98h47.578v285.25c0 11.031-1.177 21.309-3.4424 30.937v0.103l-0.03 0.07c-2.3653 10.644-5.3023 20.62-8.789 29.971-4.0174 9.1249-9.2112 18.365-14.854 26.265l-0.234 0.352c-5.691 8.5365-12.712 16.755-19.746 23.789-6.7037 6.7038-14.903 13.171-23.291 19.175-8.8445 5.8875-18.108 11.046-26.777 14.297l-0.322 0.147-0.337 0.132c-9.0349 3.9528-18.887 6.8777-29.663 9.2725-10.418 2.3151-20.712 3.457-31.743 3.457-18.091 0-34.718-2.881-50.933-8.6719-16.652-5.947-31.747-13.509-45.63-23.921-13.978-10.484-25.465-22.552-35.391-37.148l-0.07-0.103-0.07-0.117c-6.194-8.7444-9.2699-19.221-13.154-29.268h53.042c3.8131 5.7003 7.5124 11.459 12.598 16.582 6.5795 7.2574 14.39 13.692 23.086 18.765 8.4697 4.9404 17.206 8.5548 26.851 11.323 9.5442 2.9256 19.617 4.3652 29.678 4.3652 12.736 0 25.729-2.19 38.584-7.1484 12.713-4.5153 23.528-11.815 33.105-20.024 10.095-8.6527 17.919-18.686 24.697-29.531l0.176-0.249 0.132-0.278c6.4097-11.395 10.778-23.751 12.905-37.222l4.7461-30.161-25.386 16.934c-7.1316 4.7545-14.227 8.8932-21.255 12.407-7.2939 3.647-14.893 7.1065-21.885 9.2578-8.19 2.52-15.796 4.8033-22.661 5.8594l-0.396 0.06-0.381 0.07c-7.7563 1.6626-14.879 2.2266-22.383 2.2266-11.031 0-21.34-1.142-31.758-3.4571-10.777-2.3948-20.643-5.3196-29.678-9.2724l-0.322-0.161-0.337-0.117c-8.707-3.2651-17.912-8.4167-25.898-14.121l-0.352-0.234c-8.879-5.9194-16.83-12.208-23.423-19.351l-0.366-0.41-0.396-0.352c-7.143-6.5934-13.431-14.544-19.351-23.423l-0.132-0.176-0.117-0.176c-5.7045-7.9862-10.841-17.206-14.106-25.913l-0.132-0.337-0.147-0.337c-3.9528-9.035-6.8776-18.887-9.2724-29.663-2.3151-10.418-3.4571-20.712-3.4571-31.743z"/>
  <path d="m1903.3 485.16v0.03c-10.084 0-20.178 0.614-29.634 1.875-9.4856 1.2647-18.23 3.7834-27.085 6.3135-8.821 2.5203-17.021 5.6687-24.58 9.4482-7.585 3.7925-14.912 7.4506-21.284 11.895l-0.117 0.07-0.117 0.09c-6.8895 5.0161-13.095 9.9463-18.164 15.015-5.5982 5.5983-9.943 11.246-13.638 16.758l-0.205 0.293-0.176 0.337c-3.6054 6.0829-6.1357 12.257-7.998 18.442l-0.03 0.07v0.03c-2.5138 6.9127-3.1494 13.839-3.1494 20.771 0 12.512 2.5613 24.034 7.5585 34.658 0.02 0.04 0.04 0.08 0.06 0.117l0.117 0.278 0.132 0.234c5.0257 11.025 12.493 20.331 21.738 28.96 9.4439 8.8142 20.797 16.39 34.028 22.69 12.274 6.1368 26.264 9.8295 40.928 11.191l0.85 0.22h0.835c18.682 1.8843 34.373 4.3716 47.49 6.8701 13.236 2.5213 23.926 5.6795 32.754 9.4629 8.8216 3.7808 14.994 7.4566 19.453 11.265 0.01 0.01 0.04 0.03 0.06 0.04l0.01 0.01c4.3941 4.3941 6.9287 9.3315 6.9287 14.473 0 5.1807-2.6815 10.685-6.7676 14.868l-0.22 0.205-0.19 0.234c-4.4818 5.0292-9.9269 8.7031-16.099 12.407h-0.04l-0.01 0.04c-6.913 3.7688-14.462 6.8969-22.661 8.789-8.1981 1.892-16.381 2.5196-24.565 2.5196-7.903 0-16.015-1.2857-24.097-4.3213l-0.454-0.176-0.483-0.147c-8.4991-2.4948-15.965-6.1699-23.188-10.957l-0.308-0.22-0.322-0.176c-7.2526-4.2551-13.349-8.5352-18.838-13.374l-0.234-0.22-0.264-0.19c-0.757-0.607-1.9328-2.6454-5.8887-6.5332l-7.251-7.1192-62.358 35.918 11.675 12.319c3.3218 3.5062 6.7765 8.0608 12.949 13.462 10.099 8.8363 22.019 16.377 34.643 23.32 12.568 6.9124 25.818 12.587 40.884 16.362h0.07c15.094 4.4024 29.652 6.3135 44.751 6.3135 9.464 0 18.923-0.646 28.359-1.9043 9.4723-1.2629 18.206-3.7514 27.07-6.2842 8.8022-2.5148 16.9-5.0524 25.005-8.7744l0.19-0.06 0.22-0.117c7.5575-3.7816 14.791-7.3295 21.211-12.466 6.1578-4.9263 12.256-9.8096 17.812-14.722l0.616-0.586c4.9479-4.9756 9.3105-10.581 13.052-16.816 3.6698-6.1165 6.0846-12.148 8.4961-18.164l0.234-0.601 0.19-0.63c1.807-6.1786 3.0615-13.367 3.0615-20.918 0-11.389-3.1565-22.673-8.2031-34.028-5.0319-11.322-12.581-21.429-22.031-30.249-9.4253-8.7969-20.721-15.646-33.809-21.899l-0.498-0.234c-12.832-5.4699-26.333-9.2018-40.986-11.118l-1.0108-0.249h-0.659c-18.513-2.4812-34.13-4.9608-47.153-7.4414l-0.07-0.01h-0.06c-13.805-2.5123-24.186-4.9693-32.505-8.7891l-0.147-0.06-0.146-0.06c-8.4978-3.6533-14.062-6.9972-18.179-11.587l-0.396-0.454-0.439-0.41c-3.8451-3.5844-6.0352-9.3641-6.0352-13.916 0-4.0089 2.2715-9.5762 6.2109-14.18l0.234-0.264 0.205-0.264c3.8589-5.0149 9.169-9.1871 15.864-12.861l0.38-0.234c6.3658-3.7752 13.741-6.2316 21.841-8.1006 8.215-1.8958 16.995-3.1641 25.825-3.1641 7.6803 0 15.617 1.8817 24.566 4.4385v-0.03c0.01 5e-3 0.03 0.02 0.04 0.03h0.06v0.01c0.01 4e-3 0.03-4e-3 0.04 0 8.1606 3.1457 16.288 6.895 23.804 11.279 7.4984 4.3742 13.791 8.7949 20.054 13.799l0.102 0.09c1.8331 1.6293 3.5254 3.4899 6.2402 5.9619l7.1485 6.5186 48.97-27.686v-24.141c-3.1571-3.1991-6.6947-6.2696-10.356-9.4776l-0.381-0.337-0.381-0.293c-4.889-3.6737-10.286-7.8368-15.732-11.484l-0.293-0.19-0.293-0.176c-6.1695-3.6788-12.324-6.7921-18.545-9.9024-6.3101-3.155-13.198-6.2614-20.098-8.7744l-0.161-0.09-0.176-0.06c-7.464-2.4926-14.285-4.9519-21.782-6.8261-7.5617-1.8905-14.462-3.1355-21.387-4.3946l-0.234-0.04-0.952-0.176h-1.2319c-6.7473-1.0074-13.506-1.6846-20.274-1.6846zm-0.01 13.389v0.01l0.01 0.01c6.7515 0 13.493 0.565 20.274 1.6846h0.01c6.9231 1.2588 13.507 2.4575 20.552 4.2187 6.6177 1.6544 13.141 3.9997 20.771 6.5479 6.2396 2.2725 12.729 5.1925 18.691 8.1738 6.1838 3.092 12.041 6.0558 17.681 9.4189 4.8942 3.2781 10.137 7.3172 15.117 11.06 4.8857 4.2803 9.4383 8.3502 12.188 11.558 0.138 0.161 0.172 0.25 0.308 0.41l-40.444 22.866c-2.1396-1.9483-3.9244-3.9149-6.3428-6.0645l-0.264-0.234-0.264-0.22c-6.7247-5.3798-13.663-10.249-21.782-14.985-8.3182-4.8525-17.136-8.8962-25.884-12.261l-0.542-0.22-0.586-0.161c-9.2245-2.6356-18.452-4.9512-28.242-4.9512-10.094 0-19.857 1.4307-28.828 3.501-8.8692 2.0467-17.625 4.8944-25.649 9.6533-7.81 4.286-14.744 9.5401-20.039 16.421-5.5383 6.4719-9.4336 14.636-9.4336 22.866 0 8.2886 3.4721 17.353 10.298 23.716 5.9785 6.6652 13.59 10.96 22.852 14.941 10.106 4.6405 21.6 7.2194 35.698 9.7851 13.537 2.5784 29.525 5.13 48.618 7.6758h0.12c13.84 1.7301 26.301 5.1595 38.32 10.283 12.35 5.9013 22.394 12.09 30.439 19.6 8.3348 7.7791 14.722 16.407 18.94 25.898 4.5357 10.206 7.0459 19.732 7.0459 28.594 0 5.9381-1.0736 12.174-2.5341 17.168-2.3925 5.9687-4.5709 11.304-7.544 16.26-3.2033 5.3388-6.8826 10.053-11.074 14.268-5.2112 4.6067-11.155 9.3812-17.3 14.297-4.7216 3.7773-11.388 7.2221-18.853 10.957-7.1131 3.2665-14.493 5.6015-23.086 8.0566-8.8199 2.52-16.951 4.7935-25.166 5.8887-8.8708 1.1831-17.732 1.7871-26.587 1.7871-14.005 0-27.1-1.7172-41.001-5.7715l-0.234-0.06-0.249-0.07c-13.847-3.4619-25.914-8.608-37.749-15.117-12.135-6.6742-23.304-13.807-32.285-21.665-5.1903-4.5415-8.1344-8.4589-12.056-12.598l38.833-22.368c2.4068 2.3654 4.0329 5.1155 6.914 7.4267 6.2528 5.5123 13.125 10.302 20.933 14.883 8.16 5.4076 16.924 9.7363 26.821 12.642 9.6767 3.6346 19.421 5.1856 28.799 5.1856 8.8761 0 18.123-0.688 27.583-2.8711 9.6061-2.2168 18.296-5.8502 26.074-10.093l0.249-0.132 0.234-0.147c6.5184-3.911 13.322-8.3829 19.219-15 6.0464-6.1894 10.591-14.735 10.591-24.199 0-9.5001-4.6423-17.723-10.854-23.936l-0.352-0.381-0.396-0.322c-5.8442-5.0093-13.301-9.3331-22.969-13.477-9.9509-4.2647-21.598-7.6426-35.537-10.298-13.536-2.5784-29.718-5.1705-49.058-7.1045h-0.102l-0.117-0.03c-13.618-1.1348-26.494-4.5386-37.339-9.9609l-0.102-0.06-0.117-0.06c-12.158-5.7896-22.31-12.612-30.644-20.391-8.5671-7.9959-14.812-15.931-18.955-25.254l-0.07-0.132-0.06-0.132c-4.2222-8.9723-6.2842-18.129-6.2842-28.945 0-6.1191 0.558-11.305 2.3437-16.216l0.132-0.366 0.117-0.381c1.6238-5.4129 3.6991-10.478 6.7089-15.557 3.357-5.0082 7.0958-9.8495 11.982-14.736 4.227-4.2267 10.012-8.8833 16.582-13.667 5.1163-3.568 12.107-7.1375 19.629-10.898 6.7621-3.3811 14.174-6.2428 22.266-8.5547 8.82-2.52 16.966-4.8081 25.181-5.9033 8.7936-1.1725 18.324-1.7725 27.847-1.7725z"/>
  <path d="m2028.9 361.07v296.73c0 11.988 0.63 23.306 3.1495 34.644 2.5246 11.362 5.6494 22.66 10.078 32.783 4.4201 10.103 9.407 20.104 15.732 28.96l0.278 0.41 0.22 0.264c6.1769 9.1908 12.925 17.76 20.933 25.151h0.01c7.5626 7.5627 16.359 14.49 25.825 20.801 8.8303 6.3073 18.856 11.956 28.96 16.377 10.087 4.4129 20.796 7.5574 32.139 10.078 11.341 2.5205 22.67 3.1494 34.658 3.1494 17.636 0 35.257-2.5189 52.266-8.1885 13.2-4.4 23.962-10.905 33.896-16.597l12.891-7.3828-43.857-60.82-10.269 5.376c-6.2265 3.2537-10.766 6.0387-15.117 7.5l-0.19 0.06-0.205 0.07c-9.9683 3.706-19.52 5.0244-29.414 5.0244-13.062 0-25.642-2.5496-37.529-8.1298l-0.22-0.103-0.234-0.09c-11.893-5.0487-21.957-12.567-30.688-21.299-8.7802-8.7803-15.67-19.463-20.713-31.406l-0.04-0.117-0.06-0.117c-5.0204-11.331-8.1591-23.855-8.1591-37.031v-94.482l120.32-1.9189v-74.341h-120.32v-125.36zm13.374 13.374h47.578v125.38h120.34v47.783l-120.34 1.9043v107.67c0 15.305 3.6536 29.685 9.3163 42.466 5.631 13.336 13.442 25.527 23.584 35.669 9.6606 9.6607 21.133 18.287 34.922 24.141 13.778 6.4682 28.392 9.3897 43.213 9.3897 11.119 0 22.418-1.5268 34.072-5.8594 6.2402-2.0956 11.464-5.401 17.051-8.3203l28.389 39.375c-10.068 5.7687-20 11.691-31.465 15.513-15.505 5.1685-31.681 7.5-48.047 7.5-11.5 0-21.801-0.62899-31.758-2.8418-10.776-2.3948-20.628-5.3197-29.663-9.2725-9.2223-4.0349-18.571-9.3102-26.558-15.015l-0.352-0.234c-8.8791-5.9194-17.017-12.359-23.789-19.131l-0.205-0.19-0.19-0.176c-7.1429-6.5934-13.431-14.544-19.351-23.423l-0.147-0.176-0.117-0.176c-5.4592-7.6429-10.148-16.906-14.37-26.558-3.8707-8.8474-6.8549-19.429-9.2724-30.308-2.2128-9.957-2.8418-20.243-2.8418-31.743z"/>
  <path d="m2409 485.18c-11.954 0-23.313 1.2468-34.644 3.7647-11.223 2.4939-21.748 6.2217-31.699 9.9463l-0.352 0.132-0.352 0.161c-9.9698 4.3858-19.927 9.9561-28.711 16.23l-0.146 0.07v0.03c-9.4107 6.2904-18.16 13.795-25.693 21.328-7.5155 7.5155-14.975 16.221-21.24 24.961l-0.132 0.19-0.117 0.19c-6.2693 9.4209-11.906 19.372-15.688 29.458l-0.06 0.161 0.06-0.117 0.03-0.03c-4.408 10.075-7.5841 20.755-10.107 32.109-2.5241 11.359-3.7647 23.305-3.7647 34.658 0 11.333 1.2448 22.674 3.7647 34.014 2.52 11.34 5.6788 22.03 10.078 32.095 0.01 0.01 0.02 0.03 0.03 0.04 3.793 10.106 9.4058 20.117 15.732 28.975 1.6922 2.3796 3.4095 4.708 5.1554 6.985 1.7459 2.2771 3.5204 4.5028 5.3271 6.6772s3.6456 4.2975 5.5203 6.3693c1.8747 2.0718 3.7851 4.0922 5.7349 6.0612 1.9497 1.9691 3.9388 3.8868 5.9708 5.7532 2.032 1.8663 4.1069 3.6813 6.2283 5.4449s4.2892 3.4758 6.5071 5.1366 4.4858 3.2702 6.8073 4.8282c8.8484 6.3203 18.856 11.95 28.975 15.747 0.01 6e-3 0.03 5e-3 0.04 0.01 10.064 4.3993 20.755 7.5582 32.095 10.078 11.33 2.5177 22.689 3.7646 34.644 3.7646 15.108 0 29.638-1.8953 44.106-6.2988l-0.161 0.06 0.161-0.04c14.508-3.7847 28.321-10.072 40.928-17.637 12.608-7.5648 24.604-17.017 35.947-27.729 8.0664-7.6183 13.87-15.989 19.424-23.115l9.6972-12.422-69.111-37.69-6.8701 9.6826c-3.8058 5.3552-5.9669 9.2188-7.9834 11.235-6.2674 6.2673-12.547 11.295-19.453 15.073l-0.161 0.09-0.132 0.07c-7.3588 4.2676-14.716 7.3268-22.017 9.7852l-0.176 0.04-0.454 0.176c-8.1356 2.4733-16.215 3.1201-23.745 3.1201-9.2085 0-18.48-1.2804-27.246-4.3359l-0.41-0.147-0.439-0.117c-9.3276-2.5577-17.454-6.8554-24.814-11.763-7.4185-4.9458-14.298-10.645-19.951-18.105l-0.19-0.234-0.176-0.22c-6.2005-7.5045-10.624-15.629-13.711-24.272v-0.01h253.92l2.1827-10.708c0.491-2.41 1.0222-4.7732 1.582-7.5732 1.2601-6.2985 1.875-12.608 1.875-18.896 0-11.954-1.2467-23.313-3.7647-34.644-2.5231-11.354-5.6994-22.034-10.107-32.109-4.3957-10.047-10.033-20.071-16.289-29.473l-0.132-0.176-0.117-0.19c-6.2628-8.7376-13.73-17.466-21.255-24.99-7.5128-7.5129-16.217-14.993-24.976-21.27l-0.191-0.132-0.176-0.117c-9.3207-6.2062-18.626-11.754-28.521-16.113l-0.351-0.161-0.352-0.132c-9.9749-3.7283-21.123-7.4644-32.358-9.961-11.34-2.52-22.695-3.7646-34.028-3.7646zm0 13.374c10.349 0 20.695 1.142 31.113 3.4571 10.287 2.2859 20.945 5.8302 30.586 9.4336 8.8842 3.9145 17.528 9.0361 26.484 15 8.0708 5.7839 16.343 12.871 23.32 19.849 6.9745 6.9745 14.037 15.253 19.819 23.32 5.8798 8.8361 11.163 18.236 15.176 27.407 3.9528 9.035 6.8924 18.887 9.2871 29.663 2.3152 10.418 3.4571 20.712 3.4571 31.743 0 5.408-0.534 10.801-1.626 16.26-0.526 2.6311-1.0474 4.974-1.5674 7.5293h-261.97l6.3868 17.886c3.5588 9.9645 8.7467 19.542 15.996 28.315 6.8383 9.0241 15.02 15.697 23.203 21.152 8.1413 5.4275 17.588 10.489 28.696 13.535 10.426 3.6342 21.195 5.083 31.64 5.083 8.3033 0 17.889-0.662 27.876-3.7353l0.147-0.06 0.146-0.03c8.1116-2.7039 16.501-6.2141 24.932-11.103 8.2912-4.5358 15.593-10.437 22.5-17.344 3.868-3.868 6.3252-8.596 9.4189-12.949l44.839 24.463c-5.8007 7.4429-11.303 15.195-18.076 21.592-10.779 10.18-22.03 19.034-33.618 25.986-11.7 7.0201-24.449 12.782-37.441 16.172l-0.249 0.06-0.264 0.07c-13.132 3.9966-26.205 5.7276-40.21 5.7276-11.031 0-21.325-1.142-31.743-3.4571-10.776-2.3948-20.628-5.3343-29.663-9.2871l-0.337-0.146-0.322-0.117c-8.707-3.2651-17.942-8.4167-25.928-14.121l-0.352-0.234c-8.8791-5.9194-16.815-12.222-23.408-19.365l-0.176-0.19-0.205-0.19c-7.0344-7.0343-14.055-15.253-19.746-23.789l-0.117-0.176-0.132-0.176c-5.7044-7.9862-10.841-17.221-14.106-25.928l-0.117-0.322-0.147-0.337c-3.9528-9.035-6.8923-18.887-9.2871-29.663-2.3151-10.418-3.4571-20.764-3.4571-31.113 0-10.349 1.1648-21.428 3.4571-31.743 2.3948-10.776 5.3343-20.628 9.2871-29.663l0.147-0.337 0.117-0.337c3.2483-8.6621 8.4012-17.91 14.282-26.748 5.781-8.0639 12.848-16.335 19.819-23.306 7.0344-7.0344 15.253-14.055 23.789-19.746l0.176-0.117 0.176-0.132c7.9108-5.6506 17.2-10.848 26.338-14.868 9.7791-3.6602 19.737-7.1578 29.912-9.4189 10.418-2.3151 20.712-3.4571 31.743-3.4571zm0 48.838c-11.752 0-22.488 2.2085-32.036 4.9366l-0.264 0.07-0.278 0.09c-10.804 3.6013-20.13 8.6492-28.403 14.165-8.6158 5.7438-16.573 13.024-23.203 21.797-7.2344 8.7615-12.269 18.126-16.304 27.539l-8.0127 18.647h217l-7.9981-18.647c-4.1738-9.7388-9.3809-18.66-16.523-27.231-7.049-8.4587-14.926-15.659-23.628-21.46-8.5592-5.7061-18.241-10.562-28.125-14.092-10.074-3.598-20.993-5.8155-32.227-5.8155zm0 13.374c9.4732 0 18.899 1.8852 27.73 5.039 8.8306 3.1538 17.596 7.5754 25.195 12.642 7.5511 5.0341 14.47 11.321 20.772 18.882 6.2666 7.52 10.75 15.166 14.502 23.921h-176.38c3.7122-8.6617 8.1167-16.77 14.312-24.272l0.176-0.234 0.176-0.22c5.6726-7.5058 12.528-13.762 19.966-18.721 7.5077-5.0051 15.704-9.426 25.078-12.568 0.03-0.01 0.04-0.02 0.07-0.03h0.04c8.8351-2.5244 18.283-4.4384 28.359-4.4384z"/>
  <path d="m2740.8 482.66c-8.6813 0-16.656 1.2126-25.283 2.4463l-0.483 0.07-0.469 0.103c-8.3218 1.8057-16.053 4.1711-23.833 6.5625l-0.835 0.161-1.1279 0.425c-8.454 2.5209-16.262 6.095-23.555 9.7412l-0.396 0.176-0.22 0.132c-7.9266 3.7033-15.301 7.9914-22.061 12.905v-29.575h-74.341v340.82h74.341v-170.74c0-5.6145 0.613-11.252 1.8457-17.461l0.04-0.161c1.2903-5.8065 3.7223-11.177 6.3135-17.007 2.4936-5.6108 4.9112-11.034 8.6425-16.099l0.278-0.366 0.249-0.41c3.1158-4.9211 6.7638-9.796 11.602-14.634 4.4305-4.4305 9.4581-8.8148 14.502-12.598 4.9943-3.7459 10.626-6.8779 16.875-9.3897l0.205-0.09 0.22-0.102c5.5935-2.4776 11.674-4.9125 17.827-6.7676 0.02-6e-3 0.04-0.02 0.06-0.03h0.09c6.4045-1.2809 12.578-2.5342 19.526-2.5342 13.199 0 25.785 3.1346 37.734 8.1592 0.02 8e-3 0.04 0.02 0.06 0.03l0.03 0.01h0.01l0.06 0.04c11.286 5.0277 21.355 11.951 30.146 20.742 8.8077 8.8077 15.739 18.912 20.772 30.234 5.0413 11.343 8.2025 23.932 8.8329 37.163l0.01 0.33699v173.55l74.341 0.615v-171.34c0-5.6804 0.62-11.358 1.875-17.007 1.2638-5.6873 2.5326-11.344 5.0391-17.622l0.01-0.01c2.5319-5.6967 5.6727-11.338 9.4628-16.392 3.7493-4.9991 7.4529-9.9649 11.792-14.941l0.07-0.07 0.102-0.09c4.4399-4.44 9.4406-8.8382 14.473-12.612 4.9598-3.7198 10.606-6.8531 16.875-9.375l0.44-0.18c5.7149-2.5334 11.715-4.9416 17.988-6.1963 6.3813-1.2762 12.564-2.5341 19.526-2.5341 13.175 0 25.792 2.5481 37.72 7.5586l0.352 0.176c11.226 5.0274 21.82 11.874 30.586 20.64 8.7955 8.7954 15.728 18.869 20.757 30.161 0.01 0.02 0.03 0.04 0.04 0.06l0.01 0.06c5.0228 11.951 7.5441 24.532 7.544 37.104v173.9h75.6v-172.62c0-11.353-1.2399-23.311-3.7647-34.673-2.5232-11.354-5.6993-22.034-10.107-32.109-4.394-10.044-9.4179-20.01-15.644-29.385l-0.117-0.205-0.132-0.19c-6.2613-8.7533-13.094-17.488-20.64-25.034-7.5243-7.5243-16.252-14.977-24.99-21.24l-0.19-0.132-0.19-0.117c-9.2908-6.1824-19.148-11.736-29.048-16.099l-0.469-0.205-0.483-0.176c-10.494-3.6822-21.032-6.806-32.197-9.2871-11.359-2.5244-23.291-3.7647-34.644-3.7647-12.527 0-25.574 1.8667-38.071 4.3506l-0.322 0.06-0.337 0.09c-12.389 3.12-24.17 7.4535-35.347 12.407l-0.293 0.132-0.293 0.161c-11.231 5.6397-22.441 12.466-32.446 20.596-10.084 8.193-19.522 17.016-27.715 27.1-7.5699-10.093-16.399-19.518-26.47-27.7-10.068-8.18-20.775-15.141-32.124-20.815v0.01c-11.261-5.6307-23.706-9.962-36.152-13.711l-0.396-0.117-0.381-0.102c-13.072-3.0871-26.17-4.9805-39.302-4.9805zm0 13.374h0.01c11.835 0 23.909 1.7202 36.226 4.6289 12.062 3.633 23.87 7.782 34.028 12.861 10.454 5.2265 20.316 11.624 29.663 19.219 9.1352 7.4224 17.228 16.047 24.199 25.342l10.283 13.711 10.811-13.301c7.4222-9.1351 16.159-17.331 25.767-25.137 9.048-7.3517 19.487-13.756 30.015-19.043 10.631-4.7116 21.701-8.766 33.193-11.66 11.983-2.3819 24.312-4.1016 35.464-4.1016 10.349 0 21.428 1.1647 31.743 3.4571 10.588 2.3528 20.572 5.3083 30.659 8.8476 9.0591 3.9926 18.304 9.1812 27.026 14.985 8.0677 5.7826 16.346 12.845 23.32 19.819 6.7251 6.7254 13.199 14.948 19.219 23.364 5.6375 8.4882 10.338 17.765 14.531 27.349 3.9528 9.035 6.8923 18.887 9.2871 29.663 2.2923 10.316 3.457 21.409 3.457 31.758v159.24h-48.852v-160.52c0-14.384-2.8892-28.768-8.6133-42.363l-0.04-0.117-0.06-0.117c-5.6936-12.81-13.608-24.302-23.555-34.248-10.171-10.172-22.25-17.965-34.892-23.584l-0.117-0.03-0.117-0.06c-13.595-5.7241-28.064-8.6133-42.993-8.6133-8.5518 0-15.863 1.5232-22.163 2.7832-7.8645 1.573-14.822 4.4526-20.771 7.0899-7.232 2.9091-13.931 6.5812-19.922 11.074-5.6109 4.2082-11.048 8.9969-15.908 13.857l-0.322 0.308-0.293 0.322c-4.8256 5.5152-8.8176 10.868-12.598 15.908-4.5293 6.0391-8.1155 12.558-10.972 18.984l-0.102 0.22-0.103 0.22c-2.9769 7.4424-4.4236 14.047-5.6836 19.717-1.4652 6.592-2.1972 13.261-2.1972 19.922v157.85l-47.578-0.396v-160.94l-0.03-0.308c-0.712-14.943-4.2674-29.157-9.961-41.968-5.6936-12.811-13.608-24.316-23.555-34.263-9.9464-9.9464-21.437-17.861-34.248-23.555l-0.117-0.06-0.147-0.06c-13.227-5.5694-27.625-9.2431-42.978-9.2431-8.5519 0-15.849 1.5378-22.148 2.7978l-0.63 0.117-0.601 0.176c-6.9725 2.0917-13.606 4.7685-19.541 7.3974-7.2417 2.9107-13.924 6.6053-19.922 11.104-5.6109 4.2081-11.048 8.9822-15.908 13.843-5.6468 5.6468-9.9303 11.379-13.447 16.934-4.7714 6.4766-7.6394 13.036-10.107 18.589-2.52 5.67-5.4787 12.027-7.1484 19.541l-0.03 0.132-0.04 0.161c-1.3946 6.9728-2.1386 13.583-2.1386 20.244v157.35h-47.578v-314.06h47.578v42.495l21.24-15.454c6.1891-4.5009 12.995-8.461 20.435-11.894l0.176-0.102 0.19-0.09c7.2941-3.6471 14.74-7.0345 22.266-9.1846l0.117-0.04 0.147-0.03c8.0641-2.4813 15.724-4.8054 23.686-6.5332 8.6509-1.2372 16.014-2.3145 23.394-2.3145z"/>
  <path d="m3238.3 486.43c0 7.56-2.5188 14.486-6.2988 22.046-3.78 7.56-9.447 13.856-16.377 19.526-7.56 5.67-15.745 10.078-25.195 13.227-10.075 3.7783-20.16 5.6819-30.864 5.6836h-0.01v-0.01h-17.124l18.384 59.224h61.743v224.29h82.529v-343.99z"/>
  <path d="m3475.7 830.42c11.34 0 23.31-0.63 34.65-3.15s22.68-5.67 32.76-10.08c10.08-4.41 20.16-10.08 28.98-16.38 8.82-6.3 17.64-13.23 25.83-20.79 7.56-7.56 15.12-16.38 21.42-25.83 6.3-8.82 11.34-18.9 15.75-28.98 3.78-10.08 7.56-20.79 10.08-32.13s3.78-22.68 3.78-34.65-1.26-23.31-3.78-34.65c-2.52-11.34-6.3-22.05-10.08-32.76-4.41-10.08-9.45-20.16-15.75-28.98-6.3-8.82-13.86-17.64-21.42-25.83-8.19-7.56-17.01-15.12-25.83-21.42-8.8199-6.3-18.9-11.34-28.98-15.75-10.08-3.78-21.42-7.56-32.76-10.08s-23.31-3.78-34.65-3.78c-11.97 0-23.31 1.26-34.65 3.78s-22.05 6.3-32.13 10.08c-10.08 4.41-20.16 9.45-28.98 15.75-9.45 6.3-18.27 13.86-25.83 21.42-7.56 8.19-14.49 17.01-20.79 25.83-6.3 8.82-11.97 18.9-16.38 28.98-4.41 10.71-7.56 21.42-10.08 32.76-2.52 11.34-3.15 23.31-3.15 34.65 0 11.97 0.63 23.31 3.15 34.65s5.67 22.05 10.08 32.13c4.41 10.08 10.08 20.16 16.38 28.98 6.3 9.45 13.23 18.27 20.79 25.83s16.38 14.49 25.83 20.79c8.82 6.3 18.9 11.97 28.98 16.38 10.08 4.41 20.79 7.56 32.13 10.08s22.68 3.15 34.65 3.15zm0-74.97c-13.23 0-25.83-2.52-37.17-7.56-11.97-5.04-22.05-12.6-30.87-21.42-8.82-8.82-16.38-18.9-21.42-30.87-5.04-11.34-7.56-23.94-7.56-37.17 0-13.86 2.52-26.46 7.56-38.43 5.04-11.34 12.6-22.05 21.42-30.87s18.9-15.75 30.87-20.79c11.34-5.04 23.94-8.19 37.17-8.19s25.83 3.15 38.43 8.19c11.34 5.04 22.05 11.97 30.87 20.79s15.75 19.53 20.79 31.5c5.0399 11.97 8.1899 24.57 8.1899 37.8s-3.15 25.83-8.1899 37.17c-5.04 11.97-11.97 22.05-20.79 30.87-8.82 8.82-19.53 16.38-31.5 21.42-11.97 5.04-24.57 7.56-37.8 7.56z"/>
 </g>
</svg>
