<?xml version="1.0" encoding="UTF-8"?>
<!-- Created with Inkscape (http://www.inkscape.org/) -->
<svg width="101" height="173.5" version="1.1" viewBox="0 0 101 173.5" xmlns="http://www.w3.org/2000/svg">
 <g transform="translate(-4,-6.75)">
  <path d="m76 6.75v22h13.5v-22zm13.5 22v48.5h-13.5v-5.0781c-6.1858 3.9873-14.873 7.0781-24.5 7.0781-18.778 0-34-5.6985-34-19s17.003-19 34-19c9.4319 0 18.374 2.0068 24.5 7.0781v-19.578h-72v151.5h101v-151.5zm-34.5 18.5c-16.527 0-20.5 5.8763-20.5 13.125s6.5705 13.125 20.5 13.125 20.5-5.8763 20.5-13.125-9.1782-13.125-20.5-13.125zm-2 39.5c27 0 37.5 9 37.5 19 0 1.0134-0.114 2.0154-0.33594 3h-58.074c1.8682 5.3082 8.3432 9.5 21.41 9.5 7.2946 0 12.532-1.3071 16.062-3.3848l15.32 2.0527c-5.6563 4.6645-15.865 7.832-31.883 7.832-27 0-37.5-9-37.5-19s10.5-19 37.5-19zm0.5 5.5c-14.277 0-20.69 5.0027-21.816 11h43.629c-1.1265-5.9973-7.5354-11-21.812-11zm-0.5 39c22.318 0 33.353 6.1511 36.512 13.932l-14.516 1.3184c-1.751-5.4265-8.224-9.75-21.496-9.75-15.84 0-22 6.1579-22 13s6.1601 13 22 13c12.267 0 18.725-3.6948 21.016-8.5391l14.09 2.9355c-4.0844 6.8942-15.067 12.104-35.605 12.104-27 0-37.5-9-37.5-19 0-10 10.5-19 37.5-19z"/>
 </g>
</svg>
