<?xml version="1.0" encoding="UTF-8"?>
<!-- Created with Inkscape (http://www.inkscape.org/) -->
<svg width="3290" height="327.2" version="1.1" viewBox="0 0 3290 327.2" xmlns="http://www.w3.org/2000/svg">
 <g transform="translate(-30 -40.798)">>
  <path d="m2949 151v76h175v-20h-134.33v-10.334h134.33v-3.332h-137.67v13.666h-7.334v-23h145v-4h-149v27h-6v-36h155v-20zm196 0v76h175v-20h-155v-10.334h138v-3.332h-138v-9.334h149v-4h-149v-9h155v-20zm-196 84v76h175v-20h-134.33v-10.334h134.33v-3.332h-137.67v13.666h-7.334v-23h145v-4h-149v27h-6v-36h155v-20zm196 0v20h155v36h-7v-27h-149v4h145v23h-7.334v-13.666h-137.67v3.332h134.33v10.334h-133.33v20h175v-76zm-181 89v4h160v-4zm181 0v4h160v-4zm-166 14.334v3.332h145v-3.332zm166 0v3.332h145v-3.332zm-151 14.332v2.668h130v-2.668zm151 0v2.668h130v-2.668zm-136 13.334v2h115v-2zm136 0v2h115v-2z"/>
  <path d="m30 110v-69h67.635v8.0879h-58.435v21.079h55.958v8.0879h-55.958v23.657h58.486v8.0879z"/>
  <path d="m108.14 41h10.16l34.171 60.558h3.2352l33.413-60.558h10.262l-38.114 69h-14.204z"/>
  <path d="m272.11 110-8.189-14.558h-55.806l-8.2395 14.558h-10.413l39.125-69h14.71l39.024 69zm-12.587-22.646-21.483-38.266h-3.6901l-21.787 38.266z"/>
  <path d="m289.81 41h15.316l60.457 60.508h2.1231v-60.508h9.2v69h-15.569l-60.305-60.356h-2.022v60.356h-9.2z"/>
  <path d="m388.75 88.415h8.9472q0 1.1626 0.0505 1.5165 0.1011 5.8132 0.80879 7.7846 0.75824 1.9714 3.2352 3.033 3.8418 1.6681 25.123 1.6681 15.418 0 22.141-1.5165 6.622-1.4659 6.622-10.262 0-4.4483-1.0615-6.6725-1.0615-2.2747-3.6396-3.1846-2.578-0.90989-7.2286-1.0615t-30.178-0.15165q-8.5934 0-13.749-1.567-5.156-1.6176-7.9362-5.1055-3.2857-4.145-3.2857-12.587 0-9.3516 5.2066-13.547 2.5275-2.0725 5.611-3.1341 3.0835-1.0615 8.6439-1.7187 9.1494-1.1121 21.736-1.1121 11.677 0 18.046 1.2132 6.3692 1.1626 9.9077 4.0439 2.9319 2.3758 3.9934 5.5604 1.1121 3.1846 1.2132 9.8066h-9.2q0-0.80879 0-1.0615 0-5.0549-1.1121-6.7736-1.6176-2.6791-7.0769-3.8417-5.4088-1.1626-16.176-1.1626-13.396 0-20.119 1.011-6.6725 1.011-9.0483 3.3363-2.2242 2.2242-2.2242 7.3802 0 4.6505 1.1121 6.622 1.1121 1.9714 4.3472 2.9824 4.7011 1.5165 18.097 1.6176 4.5494 0.05055 22.494 0.1011 7.4308 0.05055 11.374 1.4154 3.9934 1.3648 6.5209 4.7011 3.134 4.2461 3.134 12.132 0 7.5318-2.578 11.879-3.0835 5.0549-11.475 6.7736-8.3406 1.7187-30.026 1.7187-11.475 0-16.934-0.65714-5.4088-0.70769-8.5934-2.5275-3.8418-2.1736-5.3077-5.5099-1.4659-3.3868-1.4659-10.059 0-0.3033 0.0505-3.0835z"/>
  <path d="m583.91 76.334h8.8461v4.3472q-0.1011 8.3406-0.85934 14.609l13.547 7.178-2.4264 7.6835-13.901-7.3802q-2.6286 2.8308-4.044 3.8418-1.3648 0.96043-3.8923 1.7692-6.5714 2.0725-31.037 2.0725-14.154 0-21.029-0.85933-6.8747-0.85934-10.312-3.0835-4.0945-2.578-5.8637-6.4703-2.022-4.6-2.022-12.132 0-8.5934 3.3868-12.991 2.3758-2.9824 4.8527-4.0945 2.4769-1.1626 8.189-1.9209-7.0264-4.0945-7.0264-12.941 0-8.9978 6.622-12.385 5.4088-2.7297 21.079-2.7297 25.578 0 32.2 4.3472 3.1846 2.0725 4.3472 5.156 1.1626 3.033 1.1626 9.3516v2.6286h-8.8461v-3.2352q0-5.0549-1.7692-6.9758-1.7187-1.9209-7.8857-2.5275-5.3582-0.55604-16.631-0.55604-9.9582 0-13.497 0.35384-3.4879 0.3033-5.0044 1.3143-2.6791 1.8198-2.6791 5.7121 0 3.7406 2.4264 6.2176 2.4769 2.4264 10.363 6.622l41.349 21.888q0.4044-6.7736 0.35385-7.9868zm-49.842-2.5275q-6.6725 0.45494-9.6044 2.3758-4.4483 2.8813-4.4483 12.081 0 6.1165 1.8703 9.0483 1.8703 2.9319 6.2681 3.6395 7.178 1.2132 28.207 1.2132 12.587 0 17.743-0.80879t6.7231-3.033z"/>
  <path d="m648.99 88.415h8.9472q0 1.1626 0.0506 1.5165 0.1011 5.8132 0.80879 7.7846 0.75824 1.9714 3.2352 3.033 3.8418 1.6681 25.123 1.6681 15.418 0 22.141-1.5165 6.622-1.4659 6.622-10.262 0-4.4483-1.0615-6.6725-1.0615-2.2747-3.6396-3.1846-2.578-0.90989-7.2286-1.0615t-30.178-0.15165q-8.5934 0-13.749-1.567-5.156-1.6176-7.9362-5.1055-3.2857-4.145-3.2857-12.587 0-9.3516 5.2066-13.547 2.5275-2.0725 5.611-3.1341 3.0835-1.0615 8.6439-1.7187 9.1494-1.1121 21.736-1.1121 11.677 0 18.046 1.2132 6.3692 1.1626 9.9077 4.0439 2.9319 2.3758 3.9934 5.5604 1.1121 3.1846 1.2132 9.8066h-9.2q0-0.80879 0-1.0615 0-5.0549-1.1121-6.7736-1.6176-2.6791-7.0769-3.8417-5.4088-1.1626-16.176-1.1626-13.396 0-20.119 1.011-6.6725 1.011-9.0483 3.3363-2.2242 2.2242-2.2242 7.3802 0 4.6505 1.1121 6.622 1.1121 1.9714 4.3472 2.9824 4.7011 1.5165 18.097 1.6176 4.5494 0.05055 22.494 0.1011 7.4308 0.05055 11.374 1.4154 3.9934 1.3648 6.5209 4.7011 3.134 4.2461 3.134 12.132 0 7.5318-2.578 11.879-3.0835 5.0549-11.475 6.7736-8.3406 1.7187-30.026 1.7187-11.475 0-16.934-0.65714-5.4088-0.70769-8.5934-2.5275-3.8417-2.1736-5.3077-5.5099-1.4659-3.3868-1.4659-10.059 0-0.3033 0.0505-3.0835z"/>
  <path d="m740.36 41h9.2v33.919q0 15.013 0.30329 18.097 0.4044 3.9428 2.2747 5.7121 1.8703 1.7692 6.2176 2.3253 7.178 0.85934 20.675 0.85934 18.501 0 25.477-1.1121 4.145-0.65714 5.8132-2.5275 1.7187-1.9209 1.9714-6.2176 0.25275-3.8923 0.35384-17.136v-33.919h9.2v33.919q-0.1011 13.8-0.50549 19.057-0.90989 8.9978-6.622 12.536-3.5385 2.1231-8.5934 2.6791t-24.921 1.011q-17.44-0.25275-20.877-0.4044-3.4374-0.20219-7.5318-1.0615-6.8242-1.4659-10.009-7.6835-1.5165-3.033-1.9209-7.2286-0.35384-4.2461-0.50549-18.905z"/>
  <path d="m831.74 41h78.402v8.0879h-34.525v60.912h-9.2v-60.912h-34.677z"/>
  <path d="m920.7 41h9.2v29.167h63.54v-29.167h9.2v69h-9.2v-31.745h-63.54v31.745h-9.2z"/>
  <path d="m1018.4 110v-69h67.635v8.0879h-58.435v21.079h55.958v8.0879h-55.958v23.657h58.486v8.0879z"/>
  <path d="m1100.1 110v-69h43.017q17.49 0.2022 22.343 0.85934 8.5429 1.1121 11.829 7.6835 2.1736 4.3978 2.1736 12.283 0 5.9648-0.6572 9.0989-0.6571 3.0835-2.3252 4.9538-2.6791 2.9824-8.3912 4.1956 4.4483 0.75824 7.0769 3.4374 1.9714 2.1231 2.5275 5.0549 0.556 2.9319 0.556 11.626v9.8066h-9.2v-6.622q0-8.4417-0.3538-11.677-1.011-6.5714-7.4308-7.6835-2.5274-0.35384-4.5494-0.4044-1.9714-0.1011-13.598-0.15165h-33.818v26.538zm9.1999-34.626h33.818q13.446 0 17.237-0.35384 3.7912-0.4044 6.1671-1.9209 3.5384-2.3253 3.5384-11.424 0-7.8351-3.2857-10.16-2.1231-1.5165-6.6725-1.9714-4.4989-0.45494-16.985-0.45494h-33.818z"/>
  <path d="m1193.5 41h9.2v60.912h54.492v8.0879h-63.692z"/>
  <path d="m1348.3 110-8.189-14.558h-55.806l-8.2395 14.558h-10.413l39.125-69h14.71l39.024 69zm-12.587-22.646-21.484-38.266h-3.6901l-21.787 38.266z"/>
  <path d="m1367 41h15.316l60.457 60.508h2.1231v-60.508h9.1999v69h-15.569l-60.305-60.356h-2.022v60.356h-9.1999z"/>
  <path d="m1469.9 110v-69h47.617q15.822 0 22.242 1.3143 7.7341 1.567 11.778 8.2395 2.0725 3.3868 2.9319 9.0989 0.8593 5.6615 0.8593 15.822 0 12.688-2.2747 20.119-3.5385 11.424-15.064 13.396-5.9648 1.011-19.765 1.011zm9.2-8.0879h38.721q9.9582 0 12.334-0.1011 2.4263-0.15165 5.3076-0.85934 5.611-1.3143 8.0374-7.3296 2.4263-6.0154 2.4263-18.552 0-16.277-4.1955-21.433-1.5671-1.9714-4.1451-2.9319-2.578-1.011-7.0263-1.4154-2.6286-0.2022-13.193-0.2022h-38.266z"/>
  <path d="m1673.2 86.393h8.9472q-0.3538 9.4022-1.112 12.941-1.6682 7.6835-10.262 9.4527-6.9758 1.4154-24.82 1.4154-23.152 0-31.29-1.6176-7.734-1.567-10.413-8.0879-2.6791-6.5714-2.6791-23.91 0-16.53 2.022-24.011 2.4264-8.8461 12.486-10.312 9.7055-1.4659 28.459-1.4659 17.894 0 25.629 1.7692 3.8417 0.85934 6.6219 3.3868 2.8308 2.4769 3.589 5.7626 0.7583 3.0835 0.8594 12.081h-8.5429q-0.051-1.7692-0.051-2.3758 0-4.9538-0.9605-7.0264-0.9604-2.1231-3.7406-3.2352-5.1055-2.0725-23.859-2.0725-13.598 0-20.422 0.75824-6.8242 0.70769-8.8967 2.3253-1.9714 1.6176-2.9319 6.6725-0.9098 5.0549-0.9098 14.053 0 4.2461 0.3538 10.969t0.7077 9.2505q0.556 3.9934 2.5275 5.8132 2.0219 1.7692 6.3186 2.1736 7.8352 0.80879 22.393 0.80879 4.4483 0 11.626-0.25275 7.2286-0.30329 9.2-0.55604 3.8417-0.50549 5.7121-1.5165 1.8703-1.0615 2.578-3.1341 0.6571-1.8198 0.8593-10.059z"/>
  <path d="m1737 40.798q17.692 0 24.921 1.1626 7.2791 1.1121 10.615 4.3978 2.123 2.0725 3.1846 4.9538 1.0615 2.8308 1.6681 7.9868 0.7582 6.5209 0.7582 16.479 0 12.738-1.2132 19.31-1.1626 6.5209-4.0945 9.5538-3.0329 3.2352-10.009 4.4483-6.9253 1.1626-22.747 1.1626-7.7846 0-17.288-0.25275-9.4527-0.25275-12.435-0.50549-5.156-0.5055-8.1384-1.6681-2.9825-1.1626-5.3077-3.6396-3.0835-3.2352-4.1451-9.0989-1.011-5.8637-1.011-19.815 0-16.479 2.2748-23.404 2.7296-8.189 12.486-9.6549 8.9473-1.3648 30.481-1.4154zm-5.3077 8.2901q-14.457 0-21.231 1.1626-3.9429 0.65714-5.7121 2.2747-1.7187 1.567-2.4263 5.156-1.1627 5.7626-1.1627 16.883 0 11.424 0.6066 16.681 0.6571 5.2066 2.3253 6.9758 1.3143 1.4659 3.7912 2.1231 2.4769 0.65714 7.8351 1.011 8.8461 0.60659 20.574 0.60659 16.681 0 24.264-1.3648 5.9648-1.011 7.0769-7.0264 1.1626-6.4703 1.1626-17.591 0-13.598-1.011-19.158-1.011-5.6615-7.8351-6.7231-3.9934-0.60659-8.9978-0.75824-5.0044-0.2022-19.259-0.25275z"/>
  <path d="m1790.5 41h18.4l37.457 58.486 36.85-58.486h18.501v69h-9.2v-60.457h-3.8417l-38.519 60.457h-7.4813l-38.923-60.457h-4.0439v60.457h-9.2z"/>
  <path d="m1917.4 110v-69h43.675q17.187 0.35384 20.725 0.80879 3.2857 0.45494 6.0153 2.3758 2.7802 1.8703 4.1451 4.7011 2.2241 4.5494 2.2241 13.446 0 6.9758-1.2131 11.02-1.1627 3.9934-3.8923 6.3187-2.7803 2.3758-5.8132 3.2352-2.9824 0.80879-9.3011 1.011-2.2747 0.05055-12.89 0.1011h-34.475v25.982zm9.2-34.07h34.475q12.637-0.05055 15.721-0.40439 3.0835-0.35385 5.2065-2.0725 1.5671-1.3143 2.1737-3.6396 0.6066-2.3758 0.6066-7.178 0-5.3077-0.5561-7.5318-0.5055-2.2747-2.0725-3.4879-2.022-1.5165-5.1055-1.8703-3.0329-0.4044-15.974-0.65714h-34.475z"/>
  <path d="m2005.5 41h9.2v33.919q0 15.013 0.3033 18.097 0.4044 3.9428 2.2747 5.7121 1.8703 1.7692 6.2176 2.3253 7.178 0.85934 20.675 0.85934 18.501 0 25.477-1.1121 4.145-0.65714 5.8132-2.5275 1.7186-1.9209 1.9714-6.2176 0.2527-3.8923 0.3538-17.136v-33.919h9.2v33.919q-0.1011 13.8-0.5055 19.057-0.9099 8.9978-6.622 12.536-3.5384 2.1231-8.5933 2.6791-5.055 0.55604-24.921 1.011-17.44-0.25275-20.877-0.4044-3.4374-0.20219-7.5319-1.0615-6.8241-1.4659-10.009-7.6835-1.5165-3.033-1.9209-7.2286-0.3538-4.2461-0.5055-18.905z"/>
  <path d="m2097.9 41h78.402v8.0879h-34.525v60.912h-9.2v-60.912h-34.677z"/>
  <path d="m2186.8 110v-69h67.635v8.0879h-58.435v21.079h55.958v8.0879h-55.958v23.657h58.486v8.0879z"/>
  <path d="m2268.5 110v-69h43.018q17.49 0.2022 22.343 0.85934 8.5428 1.1121 11.828 7.6835 2.1736 4.3978 2.1736 12.283 0 5.9648-0.6571 9.0989-0.6571 3.0835-2.3253 4.9538-2.6791 2.9824-8.3912 4.1956 4.4484 0.75824 7.0769 3.4374 1.9715 2.1231 2.5275 5.0549 0.5561 2.9319 0.5561 11.626v9.8066h-9.2v-6.622q0-8.4417-0.3539-11.677-1.011-6.5714-7.4307-7.6835-2.5275-0.35384-4.5495-0.4044-1.9714-0.1011-13.598-0.15165h-33.818v26.538zm9.2-34.626h33.818q13.446 0 17.237-0.35384 3.7912-0.4044 6.167-1.9209 3.5385-2.3253 3.5385-11.424 0-7.8351-3.2857-10.16-2.1231-1.5165-6.6726-1.9714-4.4988-0.45494-16.984-0.45494h-33.818z"/>
  <path d="m2463.4 86.393h8.9472q-0.3538 9.4022-1.1121 12.941-1.6681 7.6835-10.262 9.4527-6.9758 1.4154-24.82 1.4154-23.152 0-31.29-1.6176-7.7341-1.567-10.413-8.0879-2.6791-6.5714-2.6791-23.91 0-16.53 2.022-24.011 2.4264-8.8461 12.486-10.312 9.7054-1.4659 28.459-1.4659 17.894 0 25.628 1.7692 3.8418 0.85934 6.622 3.3868 2.8308 2.4769 3.589 5.7626 0.7582 3.0835 0.8593 12.081h-8.5428q-0.05-1.7692-0.05-2.3758 0-4.9538-0.9605-7.0264-0.9604-2.1231-3.7406-3.2352-5.1055-2.0725-23.859-2.0725-13.598 0-20.422 0.75824-6.8242 0.70769-8.8967 2.3253-1.9714 1.6176-2.9319 6.6725-0.9099 5.0549-0.9099 14.053 0 4.2461 0.3539 10.969 0.3538 6.7231 0.7077 9.2505 0.556 3.9934 2.5274 5.8132 2.022 1.7692 6.3187 2.1736 7.8352 0.80879 22.393 0.80879 4.4483 0 11.626-0.25275 7.2286-0.30329 9.2-0.55604 3.8417-0.50549 5.712-1.5165 1.8704-1.0615 2.5781-3.1341 0.6571-1.8198 0.8593-10.059z"/>
  <path d="m2529.6 40.798q17.692 0 24.921 1.1626 7.2791 1.1121 10.615 4.3978 2.1231 2.0725 3.1847 4.9538 1.0615 2.8308 1.6681 7.9868 0.7582 6.5209 0.7582 16.479 0 12.738-1.2132 19.31-1.1626 6.5209-4.0945 9.5538-3.0329 3.2352-10.009 4.4483-6.9253 1.1626-22.747 1.1626-7.7846 0-17.288-0.25275-9.4527-0.25275-12.435-0.50549-5.156-0.5055-8.1385-1.6681-2.9824-1.1626-5.3076-3.6396-3.0835-3.2352-4.1451-9.0989-1.011-5.8637-1.011-19.815 0-16.479 2.2748-23.404 2.7296-8.189 12.486-9.6549 8.9473-1.3648 30.481-1.4154zm-5.3077 8.2901q-14.457 0-21.231 1.1626-3.9429 0.65714-5.7121 2.2747-1.7187 1.567-2.4264 5.156-1.1626 5.7626-1.1626 16.883 0 11.424 0.6066 16.681 0.6571 5.2066 2.3253 6.9758 1.3143 1.4659 3.7912 2.1231 2.4769 0.65714 7.8351 1.011 8.8461 0.60659 20.574 0.60659 16.681 0 24.264-1.3648 5.9648-1.011 7.0769-7.0264 1.1626-6.4703 1.1626-17.591 0-13.598-1.011-19.158-1.011-5.6615-7.8351-6.7231-3.9934-0.60659-8.9978-0.75824-5.0044-0.2022-19.259-0.25275z"/>
  <path d="m2580.1 110v-69h43.017q17.49 0.2022 22.343 0.85934 8.5429 1.1121 11.829 7.6835 2.1736 4.3978 2.1736 12.283 0 5.9648-0.6571 9.0989-0.6572 3.0835-2.3253 4.9538-2.6791 2.9824-8.3912 4.1956 4.4483 0.75824 7.0769 3.4374 1.9714 2.1231 2.5275 5.0549 0.556 2.9319 0.556 11.626v9.8066h-9.2v-6.622q0-8.4417-0.3538-11.677-1.011-6.5714-7.4308-7.6835-2.5274-0.35384-4.5494-0.4044-1.9714-0.1011-13.598-0.15165h-33.818v26.538zm9.1999-34.626h33.818q13.446 0 17.237-0.35384 3.7911-0.4044 6.167-1.9209 3.5384-2.3253 3.5384-11.424 0-7.8351-3.2857-10.16-2.1231-1.5165-6.6725-1.9714-4.4989-0.45494-16.985-0.45494h-33.818z"/>
  <path d="m2673.5 110v-69h43.675q17.187 0.35384 20.725 0.80879 3.2858 0.45494 6.0154 2.3758 2.7802 1.8703 4.1451 4.7011 2.2241 4.5494 2.2241 13.446 0 6.9758-1.2132 11.02-1.1626 3.9934-3.8923 6.3187-2.7802 2.3758-5.8131 3.2352-2.9824 0.80879-9.3011 1.011-2.2747 0.05055-12.89 0.1011h-34.475v25.982zm9.2-34.07h34.475q12.637-0.05055 15.721-0.40439 3.0835-0.35385 5.2065-2.0725 1.5671-1.3143 2.1737-3.6396 0.6066-2.3758 0.6066-7.178 0-5.3077-0.5561-7.5318-0.5055-2.2747-2.0725-3.4879-2.022-1.5165-5.1055-1.8703-3.0329-0.4044-15.974-0.65714h-34.475z"/>
  <path d="m2804.1 40.798q17.692 0 24.921 1.1626 7.2791 1.1121 10.615 4.3978 2.1231 2.0725 3.1846 4.9538 1.0616 2.8308 1.6681 7.9868 0.7583 6.5209 0.7583 16.479 0 12.738-1.2132 19.31-1.1626 6.5209-4.0945 9.5538-3.0329 3.2352-10.009 4.4483-6.9252 1.1626-22.747 1.1626-7.7846 0-17.288-0.25275-9.4527-0.25275-12.435-0.50549-5.1561-0.5055-8.1385-1.6681t-5.3077-3.6396q-3.0835-3.2352-4.145-9.0989-1.011-5.8637-1.011-19.815 0-16.479 2.2747-23.404 2.7297-8.189 12.486-9.6549 8.9472-1.3648 30.481-1.4154zm-5.3076 8.2901q-14.457 0-21.231 1.1626-3.9429 0.65714-5.7121 2.2747-1.7187 1.567-2.4264 5.156-1.1626 5.7626-1.1626 16.883 0 11.424 0.6066 16.681 0.6571 5.2066 2.3252 6.9758 1.3143 1.4659 3.7912 2.1231 2.477 0.65714 7.8352 1.011 8.8461 0.60659 20.574 0.60659 16.681 0 24.264-1.3648 5.9648-1.011 7.0769-7.0264 1.1627-6.4703 1.1627-17.591 0-13.598-1.011-19.158-1.011-5.6615-7.8352-6.7231-3.9934-0.60659-8.9977-0.75824-5.0044-0.2022-19.259-0.25275z"/>
  <path d="m2856.6 110v-69h43.018q17.49 0.2022 22.343 0.85934 8.5428 1.1121 11.828 7.6835 2.1737 4.3978 2.1737 12.283 0 5.9648-0.6572 9.0989-0.6571 3.0835-2.3253 4.9538-2.6791 2.9824-8.3911 4.1956 4.4483 0.75824 7.0769 3.4374 1.9714 2.1231 2.5274 5.0549 0.5561 2.9319 0.5561 11.626v9.8066h-9.2v-6.622q0-8.4417-0.3538-11.677-1.011-6.5714-7.4308-7.6835-2.5275-0.35384-4.5494-0.4044-1.9715-0.1011-13.598-0.15165h-33.818v26.538zm9.2-34.626h33.818q13.446 0 17.237-0.35384 3.7912-0.4044 6.167-1.9209 3.5385-2.3253 3.5385-11.424 0-7.8351-3.2857-10.16-2.1231-1.5165-6.6725-1.9714-4.4989-0.45494-16.985-0.45494h-33.818z"/>
  <path d="m3026.5 110-8.1889-14.558h-55.806l-8.2395 14.558h-10.413l39.125-69h14.71l39.024 69zm-12.587-22.646-21.484-38.266h-3.6901l-21.787 38.266z"/>
  <path d="m3025 41h78.402v8.0879h-34.525v60.912h-9.2v-60.912h-34.677z"/>
  <path d="m3114 41h9.1999v69h-9.1999z"/>
  <path d="m3178.8 40.798q17.692 0 24.921 1.1626 7.2791 1.1121 10.615 4.3978 2.1231 2.0725 3.1846 4.9538 1.0616 2.8308 1.6682 7.9868 0.7582 6.5209 0.7582 16.479 0 12.738-1.2132 19.31-1.1626 6.5209-4.0945 9.5538-3.0329 3.2352-10.009 4.4483-6.9253 1.1626-22.747 1.1626-7.7846 0-17.288-0.25275-9.4527-0.25275-12.435-0.50549-5.1561-0.5055-8.1385-1.6681t-5.3076-3.6396q-3.0835-3.2352-4.1451-9.0989-1.011-5.8637-1.011-19.815 0-16.479 2.2747-23.404 2.7297-8.189 12.486-9.6549 8.9473-1.3648 30.481-1.4154zm-5.3077 8.2901q-14.457 0-21.231 1.1626-3.9429 0.65714-5.7121 2.2747-1.7187 1.567-2.4264 5.156-1.1626 5.7626-1.1626 16.883 0 11.424 0.6066 16.681 0.6571 5.2066 2.3253 6.9758 1.3142 1.4659 3.7912 2.1231 2.4769 0.65714 7.8351 1.011 8.8461 0.60659 20.574 0.60659 16.681 0 24.264-1.3648 5.9649-1.011 7.077-7.0264 1.1626-6.4703 1.1626-17.591 0-13.598-1.011-19.158-1.011-5.6615-7.8351-6.7231-3.9934-0.60659-8.9978-0.75824-5.0044-0.2022-19.259-0.25275z"/>
  <path d="m3232.3 41h15.316l60.457 60.508h2.1231v-60.508h9.1999v69h-15.569l-60.305-60.356h-2.022v60.356h-9.1999z"/>
 </g>
</svg>
