<?xml version="1.0" encoding="UTF-8" standalone="no"?>
<!-- Created with Inkscape (http://www.inkscape.org/) -->

<svg
   version="1.1"
   id="svg35690"
   width="385.41602"
   height="472.63754"
   viewBox="0 0 385.41602 472.63754"
   sodipodi:docname="fabri-tek.svg"
   inkscape:version="1.1.2 (0a00cf5339, 2022-02-04)"
   xmlns:inkscape="http://www.inkscape.org/namespaces/inkscape"
   xmlns:sodipodi="http://sodipodi.sourceforge.net/DTD/sodipodi-0.dtd"
   xmlns="http://www.w3.org/2000/svg"
   xmlns:svg="http://www.w3.org/2000/svg">
  <defs
     id="defs35694" />
  <sodipodi:namedview
     id="namedview35692"
     pagecolor="#ffffff"
     bordercolor="#666666"
     borderopacity="1.0"
     inkscape:pageshadow="2"
     inkscape:pageopacity="0.0"
     inkscape:pagecheckerboard="0"
     showgrid="false"
     inkscape:zoom="1.4142136"
     inkscape:cx="188.44396"
     inkscape:cy="212.83914"
     inkscape:window-width="1920"
     inkscape:window-height="1043"
     inkscape:window-x="0"
     inkscape:window-y="120"
     inkscape:window-maximized="1"
     inkscape:current-layer="g35696"
     fit-margin-top="0"
     fit-margin-left="0"
     fit-margin-right="0"
     fit-margin-bottom="0" />
  <g
     inkscape:groupmode="layer"
     inkscape:label="Image"
     id="g35696"
     transform="translate(-10.208983,-18.054687)">
    <path
       id="path35813"
       style="fill:#000000;fill-opacity:1;stroke:#000000;stroke-width:0;stroke-linecap:butt;stroke-linejoin:miter;stroke-miterlimit:4;stroke-dasharray:none;stroke-opacity:1"
       d="M 10.208984,18.054688 15.746094,407.49023 395.625,408.02539 389.71094,18.511719 Z m 25.463065,25.805297 234.804441,-0.02716 0.6089,77.694125 -160.27279,2.24832 0.8505,99.93711 81.53026,-0.0815 0.81641,66.80469 -80.37471,1.00835 1.19936,90.59454 -74.453632,-0.1913 z m 288.536931,1.229859 c 22.46283,0.115769 39.77152,18.39322 39.3379,39.443359 -0.4092,19.864517 -15.63674,34.635787 -39.27735,34.298827 -20.07102,-0.28608 -36.2511,-16.77941 -35.54297,-39.164061 0.62045,-19.613155 14.35223,-34.687026 35.48242,-34.578125 z m 42.13795,91.242986 1.20971,69.25897 -93.62109,0.11523 3.01562,174.86328 -67.03125,-0.11328 -4.12304,-172.11328 -79.0465,0.60797 -1.16509,-70.18717 z m 0.46648,87.11735 3.56533,155.89262 -77.67446,0.60219 -2.41326,-155.92351 z"
       sodipodi:nodetypes="ccccccccccccccccssssscccccccccccccc" />
    <path
       id="path50321"
       style="fill:#000000;fill-opacity:1;stroke:#000000;stroke-width:0;stroke-linecap:butt;stroke-linejoin:miter;stroke-miterlimit:4;stroke-dasharray:none;stroke-opacity:1"
       d="m 368.77344,422.32227 -19.70703,16.86132 -0.26953,-16.80468 -10.00782,0.17968 0.25391,36.53125 9.79492,0.14063 -0.084,-9.47656 8.5039,-6.66993 12.23242,16.01563 11.30665,-0.0215 -15.98438,-21.92187 14.95703,-14.66797 z m -73.50782,0.47265 0.14258,36.27735 35.89649,-0.13868 -0.0488,-7.70507 -25.84961,0.0371 0.14258,-7.84374 21.33789,-0.0723 0.006,-8.125 -21.66992,-0.0566 0.041,-4.86133 24.95313,-0.13476 -0.0723,-7.31055 z m -6.49414,0.63672 -37.16406,0.33398 0.22656,7.03907 13.94727,0.0137 0.39063,28.66406 9.68945,-0.002 -0.25586,-28.96094 13.26367,-0.0762 z m -71.34765,0.0684 -9.83203,0.0176 0.0898,36.46289 10.20898,-0.008 z m -26.16797,0.25586 -32.6582,0.0508 0.041,36.29883 9.73633,-0.12109 0.0254,-15.50977 9.01563,0.0371 11.07617,15.36133 11.6289,0.008 -10.66211,-15.46289 c 4.49525,-0.62782 9.14531,-2.50133 9.21875,-9.88477 0.0592,-5.95284 -2.94993,-10.75203 -7.42187,-10.77734 z m -49.39648,0.27344 -31.42579,0.11328 0.17383,35.75 32.45117,-0.006 c 2.77269,-0.0725 8.24002,-3.03312 8.29102,-10.25977 0.0528,-7.48767 -6.66602,-8.96484 -6.66602,-8.96484 0,0 5.41097,-2.21163 5.32227,-8.26953 -0.0737,-5.03523 -3.95006,-8.36728 -8.14648,-8.36328 z m -65.625005,0.0664 -15.818359,35.94141 10.158203,0.0312 3.970703,-7.01563 15.326172,0.0488 3.138672,6.90625 10.341794,-0.0332 -15.396482,-35.79883 z m -13.294922,0.82032 -35.257812,0.0293 0.333984,35.44922 9.724609,-0.16797 -0.210937,-15.09765 21.572265,-0.15235 -0.06445,-7.05468 -21.236328,0.0742 0.03906,-5.86523 25.255859,-0.0137 z m 124.427737,5.85742 c 1.85434,0.0752 2.61707,2.02894 2.5625,3.49023 -0.0706,1.891 -0.80731,2.90001 -2.78907,3.04883 l -18.82421,-0.31445 -0.0215,-6.10352 z m -66.70703,0.64258 16.74023,0.0312 c 0.88797,0.0355 2.17879,1.12978 2.17383,2.86132 -0.006,1.93128 -0.70912,3.07387 -2.26953,3.09766 l -16.58985,-0.006 z m -38.714848,2.35742 5.595704,13.64648 -11.310547,-0.0117 z m 146.087888,4.56445 0.0645,6.07227 18.85937,0.10156 -0.0117,-6.12305 z m -107.29882,6.2207 17.2246,0.0977 c 1.80671,-0.004 3.65186,1.51528 3.63477,3.91406 -0.0172,2.41333 -1.67807,4.10703 -3.67773,4.10157 l -17.14063,-0.0449 z" />
    <path
       id="path73440"
       style="fill:#000000;fill-opacity:1;stroke:#000000;stroke-width:0;stroke-linecap:butt;stroke-linejoin:miter;stroke-miterlimit:4;stroke-dasharray:none;stroke-opacity:1"
       d="m 212.04492,472.68359 c -4.72605,-0.0865 -8.77954,4.71837 -8.75781,8.875 0.0247,4.72207 4.32277,8.54218 9.15234,8.52539 5.03559,-0.0175 8.67229,-4.4979 8.69922,-8.6289 0.0307,-4.71735 -4.14521,-8.68092 -9.09375,-8.77149 z m -88.19336,9.45118 c 0.1344,4.08824 3.68471,8.43581 8.91406,8.43359 4.90955,-0.002 7.20286,-3.2698 8.16016,-4.81055 l -2.0957,-1.30859 c 0,0 -2.04001,3.37011 -5.94141,3.3164 -3.74933,-0.0516 -6.25598,-2.95426 -6.42187,-5.84374 -0.23057,-4.01599 2.70449,-6.11232 5.65234,-6.16016 4.33074,-0.0703 6.57617,3.13281 6.57617,3.13281 l 1.84406,-1.83222 c -1.90009,-2.20722 -4.0207,-3.78374 -8.51515,-3.82982 -4.90208,-0.0503 -8.34111,3.77823 -8.17266,8.90228 z m 127.65821,-8.86915 -2.78516,0.002 -7.27734,15.8789 3.01562,0.0156 1.91406,-3.74414 7.78907,-0.002 2.11328,3.57421 3.57617,0.10352 z m 24.46289,0.0156 0.0176,15.26172 h 13.29883 l -0.002,-2.27539 -10.61523,-0.0137 -0.006,-4.89258 8.5039,0.008 -0.0273,-2.68164 -8.4707,-0.0254 -0.0137,-2.66016 9.45899,0.01 0.008,-2.69727 z m -18.66407,0.0312 -0.0254,2.72656 6.5,-0.0156 0.0742,13.02148 3.05664,0.0371 -0.0332,-13.08398 6.51562,-0.0234 0.0469,-2.66211 z m -104.67578,0.0645 c -4.95168,-0.0662 -8.78547,4.47517 -8.75781,8.875 0.0299,4.75476 4.71572,8.5051 8.88477,8.43946 4.08409,-0.0643 8.98406,-3.90632 8.96679,-8.54297 -0.0196,-5.26708 -4.88251,-8.71523 -9.09375,-8.77149 z m 151.00196,0.0176 -11.57813,0.008 -0.008,15.36133 10.95703,0.0234 c 3.44748,-0.0756 5.65308,-3.70162 5.67338,-7.79394 0.0193,-3.88576 -2.12926,-7.63244 -5.04447,-7.59864 z m -80.41407,0.23047 0.0293,15.69141 2.61133,-0.0703 0.11133,-7.17773 5.52343,0.0176 4.93164,7.11523 3.12891,-0.0605 -5.18945,-7.01171 c 1.82062,0.0518 4.83957,-1.27976 4.82617,-4.45703 -0.007,-1.54137 -1.96303,-3.90814 -3.93164,-3.95704 z m -57.86132,0.31836 0.0293,15.69141 2.61133,-0.0703 0.11133,-7.17773 5.52148,0.0195 4.9336,7.11328 3.1289,-0.0605 -5.18945,-7.01171 c 1.82062,0.0518 4.83957,-1.27977 4.82617,-4.45704 -0.007,-1.54137 -1.96303,-3.90813 -3.93164,-3.95703 z m 19.84765,0.0273 0.0293,15.69141 2.75781,-0.01 -0.0352,-7.23828 8.84571,-0.0176 c 1.64257,0.0152 3.36387,-1.61375 3.43359,-3.92773 0.0565,-1.87478 -1.06342,-4.43598 -3.39258,-4.48828 z m -85.228514,0.46485 -2.607422,0.0254 -0.04687,14.90429 2.765626,-0.0469 z m 20.515624,0.0977 -2.34375,0.082 -0.0586,11.89649 -10.28711,-11.92774 -2.94531,0.0332 0.0859,14.86133 2.43164,-0.006 -0.0703,-11.94141 10.3125,11.95898 2.61719,0.0234 z m 91.70313,0.68555 c 3.5651,0.0343 6.29447,3.41136 6.25585,6.39258 -0.0379,2.92896 -3.14643,6.07187 -6.07421,5.98047 -2.95524,-0.0923 -6.38709,-3.16742 -6.3086,-6.12305 0.0749,-2.82016 2.85975,-6.28145 6.12696,-6.25 z m 22.91211,0.61719 c 1.04551,0.0107 1.65832,0.79332 1.70898,1.76172 0.0462,0.88382 -0.48852,2.00217 -1.60352,2.04296 l -9.21289,0.0313 -0.004,-3.74219 z m -82.32422,0.0762 c 2.98136,0.0247 6.28866,3.41129 6.25586,6.39258 -0.0379,3.44443 -3.32418,5.97226 -6.25196,5.88086 -2.95524,-0.0923 -6.10192,-3.36664 -6.02344,-6.32227 0.0749,-2.82016 3.19848,-5.97447 6.01954,-5.95117 z m 149.69992,0.16345 c 2.16984,0.0605 3.45829,1.80675 3.50906,4.81899 0.058,3.44455 -0.80198,5.03411 -3.33398,5.13867 l -8.01563,0.0449 0.0645,-10.02343 z m -125.23703,0.0788 c 1.04551,0.0107 1.65832,0.79332 1.70898,1.76172 0.0462,0.88382 -0.48851,2.00213 -1.60351,2.04296 l -9.2129,0.0312 -0.006,-3.74023 z m 18.70312,0.32422 c 1.04551,0.0107 1.61145,1.02769 1.66211,1.99609 0.0462,0.88382 -0.46312,1.80683 -1.57812,1.84766 l -8.04493,0.11328 0.0176,-3.89844 z m 54.10547,0.75586 3.16602,5.82226 -5.89649,-0.0215 z"
       sodipodi:nodetypes="sssssssccsssccsscccccccccccccccccccccccccccccccsssssccccsccccccccccccccccccccccccccccsccccccccscccccccccscssscsccccscsssccscccccccccccccccccccc" />
  </g>
</svg>
