<?xml version="1.0" encoding="UTF-8"?>
<!-- Created with Inkscape (http://www.inkscape.org/) -->
<svg width="853" height="249" version="1.1" viewBox="0 0 853 249" xmlns="http://www.w3.org/2000/svg">
 <g transform="translate(-18,-25)">
  <path d="m458 78a2.0002 2.0002 0 0 0-2 2v147a2.0002 2.0002 0 0 0 2 2h32a2.0002 2.0002 0 0 0 2-2v-78.146l63.01 79.391a2.0002 2.0002 0 0 0 1.5664 0.75586h33.424a2.0002 2.0002 0 0 0 2-2v-147a2.0002 2.0002 0 0 0-2-2h-32a2.0002 2.0002 0 0 0-2 2v85.146l-68.564-86.391a2.0002 2.0002 0 0 0-1.5664-0.75586z"/>
  <path d="m165 78c-11.04 0-20 8.9601-20 20v111c0 11.04 8.9601 20 20 20h98c11.04 0 20-8.9601 20-20v-111c0-11.04-8.9601-20-20-20zm25 35h50c6.62 0 12 5.38 12 12v56c0 6.62-5.38 12-12 12h-50c-6.62 0-12-5.38-12-12v-56c0-6.62 5.38-12 12-12z"/>
  <path d="m319 78c-11.04 0-20 8.9601-20 20v111c0 11.04 8.9601 20 20 20h98c11.04 0 20-8.9601 20-20v-111c0-11.04-8.9601-20-20-20zm25 35h50c6.62 0 12 5.38 12 12v56c0 6.62-5.38 12-12 12h-50c-6.62 0-12-5.38-12-12v-56c0-6.62 5.38-12 12-12z"/>
  <path d="m52 25c-18.774 0-34 15.226-34 34v206.17a2.0002 2.0002 0 0 0 3.4141 1.4141l37-37a2.0002 2.0002 0 0 0 0.58594-1.4141v-70.172h77a2.0002 2.0002 0 0 0 2-2v-33a2.0002 2.0002 0 0 0-2-2h-77v-45c0-8.2781 6.7219-15 15-15h754.17a2.0002 2.0002 0 0 0 1.4141-0.58594l32-32a2.0002 2.0002 0 0 0-1.4141-3.4141z"/>
  <path d="m869.77 31.98a2.0002 2.0002 0 0 0-2.1797 0.43359l-37 37a2.0002 2.0002 0 0 0-0.58594 1.4141v88.172h-47.395c-8.0577 0-14.602-6.5417-14.605-14.6-8e-3 -21.134-5e-4 -60.875 0-63.4a2.0002 2.0002 0 0 0-2-2h-32a2.0002 2.0002 0 0 0-2 2v91c0 14.908 12.092 27 27 27h71v24c0 8.2781-6.7219 15-15 15h-754.17a2.0002 2.0002 0 0 0-1.4141 0.58594l-32 32a2.0002 2.0002 0 0 0 1.4141 3.4141h808.17c18.774 0 34-15.226 34-34v-206.17a2.0002 2.0002 0 0 0-1.2344-1.8477z"/>
  <path d="m608 78a2.0002 2.0002 0 0 0-2 2v147a2.0002 2.0002 0 0 0 2 2h118a2.0002 2.0002 0 0 0 2-2v-29a2.0002 2.0002 0 0 0-2-2h-84v-116a2.0002 2.0002 0 0 0-2-2z"/>
 </g>
</svg>
