<?xml version="1.0" encoding="UTF-8" standalone="no"?>
<!-- Created with Inkscape (http://www.inkscape.org/) -->

<svg
   width="210mm"
   height="297mm"
   viewBox="0 0 210 297"
   version="1.1"
   id="svg7761"
   inkscape:version="1.1.2 (0a00cf5339, 2022-02-04)"
   sodipodi:docname="full-dec-orange.svg"
   xmlns:inkscape="http://www.inkscape.org/namespaces/inkscape"
   xmlns:sodipodi="http://sodipodi.sourceforge.net/DTD/sodipodi-0.dtd"
   xmlns="http://www.w3.org/2000/svg"
   xmlns:svg="http://www.w3.org/2000/svg">
  <sodipodi:namedview
     id="namedview7763"
     pagecolor="#ffffff"
     bordercolor="#666666"
     borderopacity="1.0"
     inkscape:pageshadow="2"
     inkscape:pageopacity="0"
     inkscape:pagecheckerboard="true"
     inkscape:document-units="mm"
     showgrid="false"
     inkscape:zoom="0.90583672"
     inkscape:cx="304.1387"
     inkscape:cy="505.60989"
     inkscape:window-width="1920"
     inkscape:window-height="1043"
     inkscape:window-x="0"
     inkscape:window-y="0"
     inkscape:window-maximized="1"
     inkscape:current-layer="layer1" />
  <defs
     id="defs7758" />
  <g
     inkscape:label="Layer 1"
     inkscape:groupmode="layer"
     id="layer1">
    <path
       id="path2124-56-6-6-66-4-94-9"
       style="fill:#e35f03;fill-opacity:1;stroke:#e35f03;stroke-width:0;stroke-linecap:round;stroke-linejoin:round;stroke-opacity:1"
       inkscape:label="Period"
       d="m 140.68503,110.87158 c -0.0612,5e-4 -0.13639,0.0715 -0.13499,0.13848 l 0.009,0.5999 c -0.004,0.0844 0.0631,0.11305 0.12271,0.11521 l 1.17349,2.9e-4 c 0.0716,2e-5 0.11699,-0.0383 0.11712,-0.13393 l 9.9e-4,-0.5745 c 1.4e-4,-0.0862 -0.0395,-0.14322 -0.13285,-0.14339 z"
       sodipodi:nodetypes="ccccssssc"
       inkscape:export-filename="/home/lars/src/t-shirts/svg/full-dec-orange.png"
       inkscape:export-xdpi="392.86325"
       inkscape:export-ydpi="392.86325" />
    <path
       id="path2124-56-6-6-66-4-94-9-0"
       style="fill:#e35f03;fill-opacity:1;stroke:#e35f03;stroke-width:0;stroke-linecap:round;stroke-linejoin:round;stroke-opacity:1"
       inkscape:label="Period"
       d="m 142.91665,110.87107 c -0.0612,4.9e-4 -0.1364,0.0715 -0.13499,0.13848 l 0.009,0.5999 c -0.004,0.0843 0.0631,0.11305 0.1227,0.11521 l 1.1735,2.9e-4 c 0.0716,10e-6 0.11699,-0.0383 0.11711,-0.13393 l 9.9e-4,-0.5745 c 1.5e-4,-0.0863 -0.0395,-0.14323 -0.13284,-0.14339 z"
       sodipodi:nodetypes="ccccssssc"
       inkscape:export-filename="/home/lars/src/t-shirts/svg/full-dec-orange.png"
       inkscape:export-xdpi="392.86325"
       inkscape:export-ydpi="392.86325" />
    <path
       id="path2124-56-6-6-66-4-94-9-9"
       style="fill:#e35f03;fill-opacity:1;stroke:#e35f03;stroke-width:0;stroke-linecap:round;stroke-linejoin:round;stroke-opacity:1"
       inkscape:label="Period"
       d="m 145.03765,110.87295 c -0.0612,4.9e-4 -0.13639,0.0715 -0.13498,0.13848 l 0.009,0.5999 c -0.004,0.0843 0.0631,0.11305 0.1227,0.11521 l 1.1735,2.9e-4 c 0.0716,10e-6 0.11698,-0.0383 0.11711,-0.13393 l 9.9e-4,-0.5745 c 1.4e-4,-0.0863 -0.0395,-0.14323 -0.13285,-0.14339 z"
       sodipodi:nodetypes="ccccssssc"
       inkscape:export-filename="/home/lars/src/t-shirts/svg/full-dec-orange.png"
       inkscape:export-xdpi="392.86325"
       inkscape:export-ydpi="392.86325" />
    <path
       id="path2124-56-27-9-9-4-5"
       style="fill:#e35f03;fill-opacity:1;stroke:#e35f03;stroke-width:0;stroke-linecap:round;stroke-linejoin:round;stroke-opacity:1"
       inkscape:label="Letter C"
       d="m 135.95287,104.45035 c -0.65293,-0.0106 -1.20322,0.57152 -1.19666,1.01199 l -0.0234,5.2308 c -0.0171,0.62623 0.40713,1.03575 1.01033,1.04265 l 3.63951,9.9e-4 c 0.0941,-0.002 0.14537,-0.0437 0.14852,-0.12912 l 9.9e-4,-0.56819 c 0.009,-0.0799 -0.0618,-0.13935 -0.17261,-0.13404 l -2.30753,0.0176 c -0.30494,9.9e-4 -0.48668,-0.21515 -0.48626,-0.45597 l 9.9e-4,-4.72077 c -0.001,-0.20131 0.2601,-0.47951 0.50576,-0.48568 l 2.3233,0.0169 c 0.0941,-0.002 0.14537,-0.0437 0.14853,-0.12912 l 9.8e-4,-0.56819 c 9.9e-4,-0.0757 -0.0537,-0.13347 -0.15225,-0.13418 0,0 -3.36131,3e-4 -3.43979,0.004 z"
       sodipodi:nodetypes="cccccccccccccccccc"
       inkscape:export-filename="/home/lars/src/t-shirts/svg/full-dec-orange.png"
       inkscape:export-xdpi="392.86325"
       inkscape:export-ydpi="392.86325" />
    <path
       id="path2124-56-1-8-4-8"
       style="fill:#e35f03;fill-opacity:1;stroke:#e35f03;stroke-width:0;stroke-linecap:round;stroke-linejoin:round;stroke-opacity:1"
       inkscape:label="Letter E"
       d="m 133.0674,104.49286 -3.18178,0.0195 c -0.61655,-0.0111 -0.97065,0.42733 -0.96946,1.00305 l 0.0207,0.96544 c 0.006,0.41652 0.32523,0.7484 0.88711,0.7441 l 2.38056,-0.005 c 0.0668,-1e-5 0.12103,0.0346 0.12106,0.0774 -3e-5,0.0427 -0.0542,0.0774 -0.12106,0.0774 l -2.40022,0.0107 c -0.5551,0.002 -0.89481,0.38092 -0.89052,0.84069 l 0.0255,2.53737 c -0.005,0.55669 0.30567,1.00225 0.9995,1.0091 l 3.2957,-0.0232 c 0.0581,-0.002 0.11387,-0.046 0.1144,-0.10201 l 0.0113,-0.64023 c -0.002,-0.0562 -0.0577,-0.11115 -0.11718,-0.11207 l -2.16479,0.01 c -0.31359,-9.9e-4 -0.43296,-0.17899 -0.43249,-0.4181 l -0.005,-1.45598 c -4e-4,-0.24558 0.14336,-0.41793 0.45059,-0.4246 l 1.69871,-0.0211 c 0.33539,-9.9e-4 0.54916,-0.26586 0.54658,-0.52289 l 0.004,-0.88495 c 0.003,-0.26079 -0.20299,-0.48957 -0.53837,-0.49086 l -1.73102,-0.002 c -0.34004,-9.8e-4 -0.43142,-0.1597 -0.43092,-0.3743 L 130.629,105.709 c -0.002,-0.19988 0.10087,-0.36676 0.38342,-0.37289 l 2.0634,0.007 c 0.0572,-9.9e-4 0.11104,-0.0426 0.11254,-0.098 l -0.01,-0.65151 c -4.1e-4,-0.0552 -0.0541,-0.0981 -0.10991,-0.10046 z"
       sodipodi:nodetypes="ccccccccccccccccccccccccccccccccc"
       inkscape:export-filename="/home/lars/src/t-shirts/svg/full-dec-orange.png"
       inkscape:export-xdpi="392.86325"
       inkscape:export-ydpi="392.86325" />
    <path
       id="path2124-56-27-9-4-7"
       style="fill:#e35f03;fill-opacity:1;stroke:#e35f03;stroke-width:0;stroke-linecap:round;stroke-linejoin:round;stroke-opacity:1"
       inkscape:label="Letter D"
       d="m 122.83862,104.39572 c -0.0779,4.1e-4 -0.14077,0.0645 -0.14099,0.14334 l 0.0496,7.03442 c 9.8e-4,0.0788 0.0642,0.14195 0.14131,0.14161 l 1.42534,-0.003 c 0.0772,9.9e-4 0.13818,-0.0516 0.13717,-0.13375 0.007,-2.13029 -0.0213,-4.05688 -0.0348,-6.20503 0.005,-0.0891 0.033,-0.16377 0.16468,-0.1685 l 1.60425,-0.005 c 0.22114,0.006 0.45666,0.28433 0.45514,0.48569 l 0.002,4.72185 c 4e-4,0.24087 -0.16317,0.45747 -0.43767,0.45616 l -1.31026,0.0165 c -0.0997,-0.005 -0.16313,0.054 -0.15524,0.13388 l 3.4e-4,0.5684 c 0.003,0.0855 0.0491,0.12643 0.13381,0.12907 l 1.78697,-0.029 c 0.54299,-0.007 0.92498,-0.41641 0.90957,-1.04278 l -0.0211,-5.232 c 0.006,-0.44055 -0.48937,-1.02276 -1.07713,-1.01222 z"
       sodipodi:nodetypes="ccccccccccccccccccccc"
       inkscape:export-filename="/home/lars/src/t-shirts/svg/full-dec-orange.png"
       inkscape:export-xdpi="392.86325"
       inkscape:export-ydpi="392.86325" />
    <path
       id="path2124-3"
       style="fill:#e35f03;fill-opacity:1;stroke:#e35f03;stroke-width:0;stroke-linecap:round;stroke-linejoin:round;stroke-opacity:1"
       d="m 113.8046,104.49271 c -0.0795,9.9e-4 -0.14373,0.0649 -0.14397,0.14411 l 0.0905,6.1971 c 9.9e-4,0.56367 0.38776,1.02403 1.01269,1.02039 l 3.28448,-0.044 c 0.0577,-0.002 0.11273,-0.0478 0.11268,-0.10453 l 0.014,-0.67539 c -0.002,-0.0569 -0.0581,-0.0993 -0.11726,-0.0997 l -2.12145,0.01 c -0.29223,-0.003 -0.47407,-0.25148 -0.4741,-0.45686 l -0.0685,-5.86746 c -9.9e-4,-0.0766 -0.0692,-0.12313 -0.13432,-0.12425 z"
       sodipodi:nodetypes="ccccccccccccc"
       inkscape:label="Letter L"
       inkscape:export-filename="/home/lars/src/t-shirts/svg/full-dec-orange.png"
       inkscape:export-xdpi="392.86325"
       inkscape:export-ydpi="392.86325" />
    <path
       id="path2124-3-1"
       style="fill:#e35f03;fill-opacity:1;stroke:#e35f03;stroke-width:0;stroke-linecap:round;stroke-linejoin:round;stroke-opacity:1"
       d="m 108.55116,104.45693 c -0.0795,9.9e-4 -0.14374,0.0649 -0.14398,0.1441 l 0.0905,6.19711 c 9.9e-4,0.56367 0.38777,1.02403 1.01269,1.02039 l 3.28448,-0.044 c 0.0577,-0.002 0.11274,-0.0478 0.11268,-0.10453 l 0.014,-0.67539 c -0.002,-0.0568 -0.0581,-0.0993 -0.11726,-0.0997 l -2.12144,0.01 c -0.29223,-0.003 -0.47408,-0.25148 -0.47411,-0.45686 l -0.0685,-5.86746 c -9.9e-4,-0.0766 -0.0692,-0.12313 -0.13432,-0.12426 z"
       sodipodi:nodetypes="ccccccccccccc"
       inkscape:label="Letter L"
       inkscape:export-filename="/home/lars/src/t-shirts/svg/full-dec-orange.png"
       inkscape:export-xdpi="392.86325"
       inkscape:export-ydpi="392.86325" />
    <path
       id="rect69759-6-7-4"
       style="fill:#e35f03;fill-opacity:1;stroke:#e35f03;stroke-width:0;stroke-linecap:round;stroke-linejoin:round;stroke-opacity:1"
       d="m 102.67514,104.40953 c -0.0779,-0.002 -0.14364,0.0636 -0.14429,0.12272 l 0.0766,6.21721 c 0.008,0.65244 0.41394,1.03296 1.00976,1.03624 l 3.06545,-0.0225 c 0.56993,-0.007 0.97058,-0.4196 0.9544,-1.05144 l -0.0113,-6.20815 c 0,-0.0454 -0.0399,-0.066 -0.0741,-0.0662 h -0.79224 c -0.0438,-2.7e-4 -0.0799,0.0242 -0.0801,0.0801 l 0.0554,5.95504 c 3.2e-4,0.24296 -0.24246,0.46625 -0.53058,0.46492 l -1.42168,0.019 c -0.30366,3.1e-4 -0.39277,-0.19665 -0.41239,-0.41065 l -0.0377,-6.03282 c -4.9e-4,-0.054 -0.0603,-0.0962 -0.12244,-0.0986 z"
       sodipodi:nodetypes="ccccccccccccccccc"
       inkscape:label="Letter U"
       inkscape:export-filename="/home/lars/src/t-shirts/svg/full-dec-orange.png"
       inkscape:export-xdpi="392.86325"
       inkscape:export-ydpi="392.86325" />
    <path
       id="path2124-56-2-6-8"
       style="fill:#e35f03;fill-opacity:1;stroke:#e35f03;stroke-width:0;stroke-linecap:round;stroke-linejoin:round;stroke-opacity:1"
       inkscape:label="Letter F"
       d="m 101.49084,104.39694 -3.212448,0.0197 c -0.622491,-0.0112 -0.980011,0.43146 -0.978816,1.01273 l 0.02095,0.97475 c 0.0061,0.42053 0.328373,0.75561 0.89567,0.75127 l 2.403514,-0.005 c 0.0675,-1e-5 0.12219,0.035 0.12221,0.0781 -2e-5,0.0431 -0.0547,0.0781 -0.12221,0.0781 l -2.423362,0.0108 c -0.560458,0.002 -0.903432,0.38458 -0.899109,0.84878 l 0.0085,3.45875 c 0.0015,0.0838 0.0458,0.1119 0.13374,0.11092 l 1.508606,-0.0104 c 0.05866,-0.002 0.11497,-0.0464 0.115499,-0.10299 l -0.02298,-2.64374 c -4.94e-4,-0.24794 0.144744,-0.42195 0.454945,-0.42869 l 1.715071,-0.0212 c 0.33862,-9.9e-4 0.55446,-0.26843 0.55184,-0.52793 l 0.003,-0.89348 c 0.002,-0.26331 -0.20493,-0.49429 -0.54355,-0.49558 l -1.7477,-0.002 c -0.343324,-9.9e-4 -0.435591,-0.16123 -0.435077,-0.3779 l -0.01146,-0.60712 c -0.002,-0.20182 0.101832,-0.37029 0.387116,-0.37649 l 2.083281,0.007 c 0.0577,-9.9e-4 0.11211,-0.043 0.11362,-0.0989 l -0.01,-0.6578 c -4.9e-4,-0.0557 -0.0546,-0.099 -0.11096,-0.10143 z"
       sodipodi:nodetypes="ccccccccccccccccccccccccccccc"
       inkscape:export-filename="/home/lars/src/t-shirts/svg/full-dec-orange.png"
       inkscape:export-xdpi="392.86325"
       inkscape:export-ydpi="392.86325" />
    <path
       id="path2124-56-5-3-8"
       style="fill:#e35f03;fill-opacity:1;stroke:#e35f03;stroke-width:0;stroke-linecap:round;stroke-linejoin:round;stroke-opacity:1"
       inkscape:label="Letter A"
       d="m 89.53555,104.50113 c -0.626103,-0.0113 -0.870985,0.37613 -0.869785,0.96077 l 0.02046,1.04864 c 0.0061,0.42297 0.202968,0.69456 0.857333,0.68709 l 1.669235,-0.01 c 0.06787,0 0.122906,0.0352 0.122925,0.0786 -1.9e-5,0.0434 -0.05505,0.0786 -0.122925,0.0786 l -1.793731,0.0179 c -0.497358,-0.004 -0.736716,0.25713 -0.732363,0.72403 l 0.01744,3.59533 c 4.94e-4,0.0623 0.0633,0.13128 0.137258,0.12904 l 1.457151,-0.005 c 0.059,-0.002 0.115638,-0.0467 0.116166,-0.10358 l 0.02283,-2.72794 c -4.94e-4,-0.24938 0.13719,-0.39951 0.449194,-0.40628 l 0.976153,-9.9e-4 c 0.340587,-9.9e-4 0.571634,-0.22687 0.569006,-0.48788 l 0.0035,-0.92706 c 0.003,-0.26483 -0.218092,-0.50205 -0.558674,-0.50335 l -1.040637,0.003 c -0.27887,-0.003 -0.396953,-0.17222 -0.398514,-0.35148 l -0.0095,-0.58183 c -0.002,-0.20298 0.145322,-0.365 0.432261,-0.37122 l 1.252997,-0.006 c 0.32745,9.8e-4 0.472248,0.25045 0.467085,0.43999 l 0.06184,5.91671 c 1.63e-4,0.0589 0.03488,0.0845 0.07624,0.0842 l 0.752003,-3e-5 c 0.03246,-1.6e-4 0.0704,-0.0216 0.07037,-0.0695 l -0.03162,-6.29372 c -0.0064,-0.52453 -0.375663,-0.93473 -0.959971,-0.93337 l -3.01356,0.0157 z"
       sodipodi:nodetypes="ccccccccccccccccccccccccccccccccc"
       inkscape:export-filename="/home/lars/src/t-shirts/svg/full-dec-orange.png"
       inkscape:export-xdpi="392.86325"
       inkscape:export-ydpi="392.86325" />
    <path
       id="path2124-56-5-7-5-6"
       style="fill:#e35f03;fill-opacity:1;stroke:#e35f03;stroke-width:0;stroke-linecap:round;stroke-linejoin:round;stroke-opacity:1"
       inkscape:label="Letter H"
       d="m 81.296785,104.47894 -1.469088,0.009 c -0.0799,9.9e-4 -0.144403,0.0643 -0.14464,0.14276 l 0.100201,6.48992 c 0.01295,0.38965 0.335904,0.68054 0.638743,0.67773 l 1.189017,-9.8e-4 c 0.313264,0.003 0.696828,-0.29206 0.698695,-0.69493 l -0.04526,-4.63575 c -0.0015,-0.19884 0.199075,-0.36557 0.395363,-0.37168 l 0.924465,0.0195 c 0.224002,9.9e-4 0.4186,0.29313 0.415067,0.47879 l 0.06603,5.05327 c 4.49e-4,0.0759 0.04906,0.12603 0.130396,0.12722 l 0.705306,-0.004 c 0.05753,-4.1e-4 0.106679,-0.0888 0.106655,-0.14318 l -0.0573,-5.47144 c -4.5e-4,-0.48652 -0.389849,-0.90967 -0.933281,-0.91396 l -1.606391,0.008 c -0.407927,-0.007 -0.799317,0.28464 -0.788625,0.78339 l 0.05366,4.78668 c -5.9e-5,0.0803 -0.02663,0.11846 -0.07798,0.11845 -0.05135,-7e-5 -0.0793,-0.0268 -0.07924,-0.10713 l -0.08846,-6.22809 c -9.88e-4,-0.0752 -0.0684,-0.12119 -0.133326,-0.12305 z"
       sodipodi:nodetypes="ccccccccccccccccccccccccc"
       inkscape:export-filename="/home/lars/src/t-shirts/svg/full-dec-orange.png"
       inkscape:export-xdpi="392.86325"
       inkscape:export-ydpi="392.86325" />
    <path
       id="path2124-56-6-6-66-4-5-4"
       style="fill:#e35f03;fill-opacity:1;stroke:#e35f03;stroke-width:0;stroke-linecap:round;stroke-linejoin:round;stroke-opacity:1"
       inkscape:label="Letter T"
       d="m 78.716381,104.55174 -5.083707,-0.005 c -0.06134,4.9e-4 -0.13002,0.0577 -0.128607,0.12104 l 0.0085,0.5678 c -0.0035,0.0799 0.06318,0.10709 0.122965,0.10914 l 4.554816,0.005 c 0.10539,0.006 0.167858,0.0756 0.170036,0.15873 0.0025,0.10733 -0.06615,0.14874 -0.169404,0.15435 l -2.204687,0.008 c -0.458251,-0.003 -0.678467,0.23675 -0.67445,0.66693 l -0.02135,5.42012 c 3.06e-4,0.0574 0.05862,0.12129 0.12672,0.11923 l 1.34265,-0.006 c 0.05444,-0.002 0.106832,-0.0424 0.107326,-0.0947 l 0.05768,-4.62082 c -3.07e-4,-0.22975 0.126626,-0.36831 0.414083,-0.37455 l 1.376535,0.002 c 0.313803,-5e-4 0.544495,-0.23571 0.542069,-0.47619 l 4.94e-4,-1.25544 c 0.0035,-0.24401 -0.227653,-0.49945 -0.541446,-0.50065 z"
       sodipodi:nodetypes="cccccccccccccccccccsc"
       inkscape:export-filename="/home/lars/src/t-shirts/svg/full-dec-orange.png"
       inkscape:export-xdpi="392.86325"
       inkscape:export-ydpi="392.86325" />
    <path
       id="path2124-5-4-0"
       style="fill:#e35f03;fill-opacity:1;stroke:#e35f03;stroke-width:0;stroke-linecap:round;stroke-linejoin:round;stroke-opacity:1"
       inkscape:label="Letter I"
       d="m 71.418174,104.55692 c -0.08026,9.9e-4 -0.145055,0.0646 -0.145292,0.1434 l 0.05122,7.03517 c 9.88e-4,0.0788 0.06605,0.14206 0.1455,0.14171 l 1.504698,0.002 c 0.06239,-2e-4 0.11375,-0.0476 0.1137,-0.10402 l -0.06014,-7.10419 c -9.88e-4,-0.0756 -0.06871,-0.12173 -0.133923,-0.1236 z"
       sodipodi:nodetypes="ccccccccc"
       inkscape:export-filename="/home/lars/src/t-shirts/svg/full-dec-orange.png"
       inkscape:export-xdpi="392.86325"
       inkscape:export-ydpi="392.86325" />
    <path
       id="path2124-56-6-6-5-7-4"
       style="fill:#e35f03;fill-opacity:1;stroke:#e35f03;stroke-width:0;stroke-linecap:round;stroke-linejoin:round;stroke-opacity:1"
       inkscape:label="Letter W"
       d="m 67.81286,111.85903 c -0.396385,0.007 -0.776727,-0.2762 -0.766342,-0.75987 l -0.04042,-2.98295 h -0.0049 l -0.04901,-2.78846 c 0,-0.0675 -0.029,-0.0898 -0.08256,-0.0898 -0.0536,-1e-5 -0.08124,0.0322 -0.08136,0.0998 l 0.05876,5.50235 c 0.006,0.4393 -0.438674,1.01084 -1.025917,1.00035 l -2.898076,0.003 c -0.07787,-4e-4 -0.140125,-0.064 -0.140352,-0.14255 l 0.04901,-7.01484 c 9.88e-4,-0.0786 0.06441,-0.14101 0.141587,-0.14068 l 1.348974,0.01 c 0.07716,-4.9e-4 0.13763,0.0514 0.136627,0.13327 0.0072,2.12418 -0.03473,6.1874 -0.03473,6.1874 0.0049,0.0888 0.03291,0.16324 0.164562,0.16795 l 1.163774,-0.003 c 0.220939,-0.006 0.456102,-0.28388 0.454595,-0.48468 l -0.02174,-5.44922 c 0.002,-0.33871 0.34411,-0.59492 0.670606,-0.59204 0.315803,0.003 0.651914,0.20564 0.647112,0.57329 l 0.03029,5.58573 c -0.002,0.19282 0.193076,0.3548 0.383795,0.36071 l 1.079641,-0.0232 c 0.217662,-4.9e-4 0.406464,-0.28417 0.40305,-0.46423 l 0.01966,-5.87907 c 2.72e-4,-0.0737 0.04768,-0.12219 0.126685,-0.12334 l 0.633821,0.01 c 0.056,4.1e-4 0.103715,0.0861 0.103715,0.13885 l -0.002,6.27962 c -2.92e-4,0.47181 -0.380224,0.88216 -0.900102,0.88004 z"
       sodipodi:nodetypes="ccccccccccccccccccccccccccccccccc"
       inkscape:export-filename="/home/lars/src/t-shirts/svg/full-dec-orange.png"
       inkscape:export-xdpi="392.86325"
       inkscape:export-ydpi="392.86325" />
    <path
       id="path2124-56-8-0-6"
       style="fill:#e35f03;fill-opacity:1;stroke:#e35f03;stroke-width:0;stroke-linecap:round;stroke-linejoin:round;stroke-opacity:1"
       inkscape:label="Letter G"
       d="m 147.3826,94.449278 -3.28354,0.01892 c -0.60793,-0.01166 -1.01292,0.391083 -1.01182,0.934515 l 0.0601,5.176677 c -0.004,0.55278 0.34061,1.02715 1.05485,1.03396 l 2.51366,-0.006 c 0.72068,-0.002 1.0442,-0.43856 1.03959,-0.97204 l -0.002,-3.327613 c 0.0184,-0.302997 -0.38571,-0.695731 -0.73096,-0.697005 l -1.44541,-0.0035 c -0.0982,-0.002 -0.14158,0.06145 -0.14218,0.137451 l -5e-4,0.898748 c 0.001,0.07618 0.0668,0.133781 0.13877,0.136735 l 0.85931,0.002 c 0.22496,-0.002 0.39544,0.178169 0.39871,0.373983 l -0.002,2.140241 c 3e-4,0.22914 -0.20542,0.43339 -0.49894,0.43437 l -1.04227,0.0104 c -0.34925,-10e-4 -0.45962,-0.14314 -0.45526,-0.42219 l -0.0306,-4.551524 c 0.001,-0.242396 0.16684,-0.434168 0.4577,-0.44026 l 2.13773,-0.0294 c 0.0588,-4.94e-4 0.13833,-0.04669 0.13986,-0.118132 l 5e-4,-0.609127 c -4e-4,-0.05474 -0.0502,-0.122895 -0.1557,-0.121373 z"
       sodipodi:nodetypes="ccccccccccccccccccccccccsc"
       inkscape:export-filename="/home/lars/src/t-shirts/svg/full-dec-orange.png"
       inkscape:export-xdpi="392.86325"
       inkscape:export-ydpi="392.86325" />
    <path
       id="path91454-7-1-7"
       style="fill:#e35f03;fill-opacity:1;stroke:#e35f03;stroke-width:0;stroke-linecap:round;stroke-linejoin:round;stroke-opacity:1"
       d="m 137.83452,94.330172 c -0.0762,4.94e-4 -0.13719,0.0627 -0.13742,0.139853 l 0.048,6.882245 c 0.002,0.077 0.0631,0.13837 0.13864,0.13805 l 1.32075,-0.01 c 0.0755,9.8e-4 0.13476,-0.0504 0.13378,-0.13074 0.007,-2.084037 -0.034,-6.070459 -0.034,-6.070459 0.005,-0.08702 0.0323,-0.16016 0.16114,-0.16479 l 1.67002,9.88e-4 c 0.21311,4.94e-4 0.398,0.278797 0.39464,0.455464 l -0.0205,5.808667 c 2.7e-4,0.0722 0.0467,0.11987 0.12405,0.121 l 0.60671,-0.007 c 0.0548,-4e-4 0.10154,-0.0845 0.10154,-0.1362 l -0.0435,-6.15237 c -2.8e-4,-0.462885 -0.37207,-0.865565 -0.8811,-0.86348 z"
       sodipodi:nodetypes="ccccccccccccccccc"
       inkscape:label="Letter N"
       inkscape:export-filename="/home/lars/src/t-shirts/svg/full-dec-orange.png"
       inkscape:export-xdpi="392.86325"
       inkscape:export-ydpi="392.86325" />
    <path
       id="path2124-5-4-0-9"
       style="fill:#e35f03;fill-opacity:1;stroke:#e35f03;stroke-width:0;stroke-linecap:round;stroke-linejoin:round;stroke-opacity:1"
       inkscape:label="Letter I"
       d="m 135.11703,94.346907 c -0.0803,9.88e-4 -0.14505,0.06457 -0.14529,0.143395 l 0.0512,7.035178 c 9.9e-4,0.0788 0.066,0.14206 0.1455,0.14171 l 1.5047,0.002 c 0.0624,-2e-4 0.11375,-0.0476 0.1137,-0.10402 l -0.0601,-7.104194 c -9.9e-4,-0.07555 -0.0687,-0.121729 -0.13392,-0.123602 z"
       sodipodi:nodetypes="ccccccccc"
       inkscape:export-filename="/home/lars/src/t-shirts/svg/full-dec-orange.png"
       inkscape:export-xdpi="392.86325"
       inkscape:export-ydpi="392.86325" />
    <path
       id="path2124-56-6-6-6-5-8"
       style="fill:#e35f03;fill-opacity:1;stroke:#e35f03;stroke-width:0;stroke-linecap:round;stroke-linejoin:round;stroke-opacity:1"
       inkscape:label="Letter Y"
       d="m 132.76598,94.270772 c -0.26945,-0.0025 -0.59927,0.214604 -0.60086,0.510274 l 0.0321,3.162692 c 0.001,0.141868 -0.16122,0.261103 -0.32539,0.27178 h -0.002 l -0.73583,-4.05e-4 c -0.28777,-0.0061 -0.41286,-0.115203 -0.4123,-0.348814 l -0.0228,-3.489939 c -3.2e-4,-0.05328 -0.0522,-0.09445 -0.10662,-0.09672 l -1.34409,-0.0061 c -0.0682,-0.0025 -0.12577,0.06308 -0.12633,0.121398 l -0.0172,4.270135 c -0.004,0.437429 0.21674,0.682385 0.67543,0.678516 l 2.28817,0.02219 c 0.35085,0.0049 0.68709,-0.208937 0.6779,-0.57498 l -0.0357,-3.80177 c 6e-5,-0.0589 0.0229,-0.08694 0.0672,-0.08694 0.0442,4.4e-5 0.0684,0.01932 0.0684,0.07823 l 0.0752,4.521573 0.001,0.624278 c 3.1e-4,0.25064 -0.16666,0.52196 -0.50966,0.52321 l -3.12212,-4e-4 c -0.065,4.1e-4 -0.1383,0.0676 -0.13682,0.14175 l 0.008,0.66372 c -0.004,0.0934 0.0665,0.12508 0.13003,0.12756 l 3.46684,0.0323 c 0.85713,0.0173 1.19222,-0.44175 1.19063,-1.07169 l -0.0189,-5.773106 c -0.0119,-0.285975 -0.28923,-0.499383 -0.54971,-0.497333 z"
       sodipodi:nodetypes="ccccccccccccccccsccccccccccccc"
       inkscape:export-filename="/home/lars/src/t-shirts/svg/full-dec-orange.png"
       inkscape:export-xdpi="392.86325"
       inkscape:export-ydpi="392.86325" />
    <path
       id="path2124-56-5-3-8-6"
       style="fill:#e35f03;fill-opacity:1;stroke:#e35f03;stroke-width:0;stroke-linecap:round;stroke-linejoin:round;stroke-opacity:1"
       inkscape:label="Letter A"
       d="m 124.02093,94.243039 c -0.6261,-0.01126 -0.87098,0.376132 -0.86978,0.960772 l 0.0205,1.048636 c 0.006,0.422972 0.20297,0.694559 0.85733,0.687094 l 1.66924,-0.0096 c 0.0679,-5e-6 0.1229,0.03518 0.12292,0.0786 -2e-5,0.04343 -0.0551,0.0786 -0.12292,0.0786 l -1.79374,0.01793 c -0.49736,-0.004 -0.73672,0.25713 -0.73236,0.724032 l 0.0174,3.595327 c 4.9e-4,0.0623 0.0633,0.13128 0.13726,0.12904 l 1.45715,-0.005 c 0.059,-0.003 0.11564,-0.0467 0.11617,-0.10358 l 0.0228,-2.727938 c -5e-4,-0.249383 0.13719,-0.399513 0.44919,-0.406282 l 0.97615,-9.88e-4 c 0.34059,-9.89e-4 0.57163,-0.226873 0.56901,-0.487886 l 0.003,-0.927055 c 0.003,-0.264833 -0.21809,-0.502052 -0.55868,-0.503356 l -1.04063,0.003 c -0.27887,-0.0035 -0.39696,-0.17222 -0.39852,-0.351477 l -0.01,-0.581828 c -0.002,-0.202987 0.14533,-0.365005 0.43226,-0.371226 l 1.253,-0.0065 c 0.32745,9.88e-4 0.47225,0.25045 0.46708,0.439993 l 0.0618,5.916713 c 1.6e-4,0.0589 0.0349,0.0845 0.0762,0.0842 l 0.752,-4e-5 c 0.0325,-1.6e-4 0.0704,-0.0216 0.0704,-0.0695 l -0.0316,-6.293714 c -0.006,-0.524528 -0.37566,-0.934733 -0.95997,-0.93337 l -3.01356,0.01571 z"
       sodipodi:nodetypes="ccccccccccccccccccccccccccccccccc"
       inkscape:export-filename="/home/lars/src/t-shirts/svg/full-dec-orange.png"
       inkscape:export-xdpi="392.86325"
       inkscape:export-ydpi="392.86325" />
    <path
       id="path2124-3-1-0"
       style="fill:#e35f03;fill-opacity:1;stroke:#e35f03;stroke-width:0;stroke-linecap:round;stroke-linejoin:round;stroke-opacity:1"
       d="m 117.80573,94.193398 c -0.0795,9.88e-4 -0.14374,0.06488 -0.14397,0.144102 l 0.0905,6.19711 c 9.8e-4,0.56367 0.38775,1.02403 1.01268,1.02039 l 3.28448,-0.044 c 0.0577,-0.003 0.11273,-0.0478 0.11268,-0.10454 l 0.014,-0.67538 c -0.002,-0.0568 -0.0581,-0.0993 -0.11726,-0.0997 l -2.12145,0.01 c -0.29223,-0.004 -0.47407,-0.25148 -0.4741,-0.45686 l -0.0685,-5.867469 c -9.9e-4,-0.07658 -0.0692,-0.123128 -0.13432,-0.124254 z"
       sodipodi:nodetypes="ccccccccccccc"
       inkscape:label="Letter L"
       inkscape:export-filename="/home/lars/src/t-shirts/svg/full-dec-orange.png"
       inkscape:export-xdpi="392.86325"
       inkscape:export-ydpi="392.86325" />
    <path
       id="path2124-56-6-2-9-2"
       style="fill:#e35f03;fill-opacity:1;stroke:#e35f03;stroke-width:0;stroke-linecap:round;stroke-linejoin:round;stroke-opacity:1"
       inkscape:label="Letter P"
       d="m 115.51781,94.321328 -3.6174,0.02777 c -0.0802,9.88e-4 -0.145,0.06449 -0.14524,0.143133 l 0.0514,7.018429 c 9.9e-4,0.0786 0.066,0.14179 0.14545,0.14145 l 1.50413,0.003 c 0.0624,-2.1e-4 0.11372,-0.0475 0.11367,-0.10377 l -0.0518,-6.092837 h 0.006 l 2.1e-4,-0.114298 c -2.1e-4,-0.08264 0.0457,-0.14512 0.16144,-0.155337 h 1.58475 2.2e-4 c 0.22316,0.0035 0.39613,0.241018 0.39508,0.408762 l 0.004,2.135169 c 2.1e-4,0.212755 -0.1269,0.475504 -0.38079,0.47703 l -1.32874,0.01295 c -0.1568,-0.0044 -0.21807,0.09322 -0.21644,0.193535 l 0.003,0.881648 c -0.004,0.126359 0.0729,0.167453 0.17986,0.168653 l 1.72437,-0.0044 c 0.65541,-0.0077 1.02401,-0.537686 1.01122,-1.161284 l -0.0148,-2.96216 c -0.0101,-0.510687 -0.26553,-1.017323 -1.12947,-1.016726 z"
       sodipodi:nodetypes="ccccccccccccscccccccccccc"
       inkscape:export-filename="/home/lars/src/t-shirts/svg/full-dec-orange.png"
       inkscape:export-xdpi="392.86325"
       inkscape:export-ydpi="392.86325" />
    <path
       id="path2124-56-6-6-66-4-5-0"
       style="fill:#e35f03;fill-opacity:1;stroke:#e35f03;stroke-width:0;stroke-linecap:round;stroke-linejoin:round;stroke-opacity:1"
       inkscape:label="Letter T"
       d="m 106.86141,94.39434 -5.08371,-0.005 c -0.0613,4.94e-4 -0.13002,0.05767 -0.12861,0.121042 l 0.008,0.567801 c -0.004,0.07989 0.0632,0.107089 0.12297,0.109145 l 4.55481,0.005 c 0.10539,0.0061 0.16786,0.07564 0.17004,0.158732 0.002,0.107327 -0.0661,0.148741 -0.1694,0.154349 l -2.20469,0.0085 c -0.45825,-0.0035 -0.67847,0.236744 -0.67445,0.666925 l -0.0213,5.420126 c 3e-4,0.0574 0.0586,0.12129 0.12672,0.11923 l 1.34265,-0.006 c 0.0544,-0.002 0.10683,-0.0424 0.10733,-0.0947 l 0.0577,-4.62082 c -3.1e-4,-0.229757 0.12662,-0.368315 0.41408,-0.374556 l 1.37653,0.0025 c 0.31381,-4.94e-4 0.5445,-0.235712 0.54207,-0.476191 l 5e-4,-1.255438 c 0.004,-0.244012 -0.22766,-0.499453 -0.54145,-0.500654 z"
       sodipodi:nodetypes="cccccccccccccccccccsc"
       inkscape:export-filename="/home/lars/src/t-shirts/svg/full-dec-orange.png"
       inkscape:export-xdpi="392.86325"
       inkscape:export-ydpi="392.86325" />
    <path
       id="path2124-56-27-9-8-2-6-9"
       style="fill:#e35f03;fill-opacity:1;stroke:#e35f03;stroke-width:0;stroke-linecap:round;stroke-linejoin:round;stroke-opacity:1"
       inkscape:label="Letter O"
       d="m 97.1483,94.33201 c -0.500599,-0.01126 -0.852723,0.425972 -0.851755,1.008313 l 0.01878,5.308367 c -0.0049,0.5631 0.334712,1.00122 0.898076,1.00815 l 2.722458,-0.01 c 0.472071,0.0105 0.869961,-0.57403 0.865211,-1.01633 l 0.0167,-5.25263 c 0.0123,-0.628841 -0.28249,-1.041857 -0.7186,-1.048789 l -0.658704,0.0035 c -0.06821,0.003 -0.123459,0.0422 -0.125762,0.12801 l 4.94e-4,0.583932 c 0.0015,0.07031 0.04259,0.111675 0.126913,0.113053 l 0.108078,-0.0035 c 0.220486,-9.88e-4 0.538721,0.174187 0.532631,0.451595 l -0.0109,4.745509 c 9.8e-4,0.20216 -0.233748,0.47531 -0.41135,0.48153 l -1.168322,-0.0134 c -0.255035,-9.8e-4 -0.414558,-0.19904 -0.414192,-0.4409 l -0.0292,-4.851952 c -9.88e-4,-0.202197 0.123222,-0.360989 0.352648,-0.367189 l 0.647547,0.0015 c 0.06076,-9.88e-4 0.102159,-0.03548 0.09844,-0.110696 l -0.004,-0.596577 c -4.89e-4,-0.05585 -0.05222,-0.126502 -0.117164,-0.130835 z"
       sodipodi:nodetypes="ccccccccccccccccccccccccc"
       inkscape:export-filename="/home/lars/src/t-shirts/svg/full-dec-orange.png"
       inkscape:export-xdpi="392.86325"
       inkscape:export-ydpi="392.86325" />
    <path
       id="path91454-7-1"
       style="fill:#e35f03;fill-opacity:1;stroke:#e35f03;stroke-width:0;stroke-linecap:round;stroke-linejoin:round;stroke-opacity:1"
       d="m 90.992345,94.374156 c -0.07625,4.94e-4 -0.137199,0.0627 -0.137426,0.139853 l 0.04803,6.882241 c 0.0015,0.077 0.06308,0.13837 0.138642,0.13805 l 1.320753,-0.01 c 0.07554,9.9e-4 0.134753,-0.0504 0.133775,-0.13073 0.007,-2.084043 -0.03404,-6.070465 -0.03404,-6.070465 0.0049,-0.08702 0.03226,-0.16016 0.161138,-0.16479 l 1.670021,9.88e-4 c 0.213112,4.95e-4 0.398006,0.278797 0.394641,0.455464 l -0.02055,5.808673 c 2.71e-4,0.0722 0.04669,0.11987 0.124051,0.121 l 0.606706,-0.007 c 0.05483,-4.1e-4 0.101545,-0.0845 0.101545,-0.1362 l -0.04353,-6.152376 c -2.82e-4,-0.462885 -0.372076,-0.865565 -0.881104,-0.86348 z"
       sodipodi:nodetypes="ccccccccccccccccc"
       inkscape:label="Letter N"
       inkscape:export-filename="/home/lars/src/t-shirts/svg/full-dec-orange.png"
       inkscape:export-xdpi="392.86325"
       inkscape:export-ydpi="392.86325" />
    <path
       id="path2124-56-1-8-4-2"
       style="fill:#e35f03;fill-opacity:1;stroke:#e35f03;stroke-width:0;stroke-linecap:round;stroke-linejoin:round;stroke-opacity:1"
       inkscape:label="Letter E"
       d="m 85.234465,94.310517 -3.181773,0.01952 c -0.616553,-0.01112 -0.970654,0.42734 -0.969468,1.003061 l 0.0207,0.96544 c 0.006,0.416515 0.325236,0.748396 0.887118,0.744098 l 2.380559,-0.0051 c 0.06684,-5e-6 0.121028,0.03464 0.121053,0.0774 -2.5e-5,0.04274 -0.05421,0.0774 -0.121053,0.07739 l -2.400219,0.01067 c -0.555107,0.002 -0.89481,0.38092 -0.890527,0.840687 l 0.02554,2.537377 c -0.0049,0.55669 0.305675,1.00224 0.999503,1.0091 l 3.295702,-0.0232 c 0.0581,-0.002 0.113868,-0.046 0.114397,-0.10201 l 0.01132,-0.64023 c -0.0015,-0.0562 -0.05772,-0.11115 -0.117179,-0.11207 l -2.164785,0.01 c -0.31359,-9.9e-4 -0.432963,-0.17899 -0.432493,-0.41809 l -0.0052,-1.455985 c -4.1e-4,-0.245578 0.143361,-0.417932 0.450592,-0.424602 l 1.698708,-0.0211 c 0.33539,-9.88e-4 0.549158,-0.265861 0.546574,-0.522893 l 0.0035,-0.884948 c 0.003,-0.260791 -0.202988,-0.489566 -0.538367,-0.490855 l -1.731017,-0.0025 c -0.340039,-9.88e-4 -0.431426,-0.159705 -0.430922,-0.374299 l -0.01131,-0.60132 c -0.002,-0.199885 0.100869,-0.366764 0.383426,-0.372896 l 2.063396,0.0073 c 0.05715,-9.88e-4 0.111038,-0.04264 0.112535,-0.09799 l -0.0099,-0.65152 c -4.05e-4,-0.0552 -0.05406,-0.09807 -0.1099,-0.100463 z"
       sodipodi:nodetypes="ccccccccccccccccccccccccccccccccc"
       inkscape:export-filename="/home/lars/src/t-shirts/svg/full-dec-orange.png"
       inkscape:export-xdpi="392.86325"
       inkscape:export-ydpi="392.86325" />
    <path
       id="path2124-56-27-0-1-6"
       style="fill:#e35f03;fill-opacity:1;stroke:#e35f03;stroke-width:0;stroke-linecap:round;stroke-linejoin:round;stroke-opacity:1"
       inkscape:label="Letter R"
       d="m 79.156226,94.231453 -2.204,0.01967 c -0.01275,-0.004 -0.02594,-0.0063 -0.03908,-0.0067 l -1.450787,0.0091 c -0.0789,9.88e-4 -0.142595,0.06456 -0.142827,0.143302 l 0.02895,7.042845 c 9.89e-4,0.0787 0.06503,0.14176 0.143139,0.14142 l 1.500596,-0.0122 c 0.03879,-1.6e-4 0.07307,-0.0191 0.09314,-0.0473 h 0.01092 v -0.97605 l -0.01813,-2.175561 0.01813,3.01e-4 v -1.936929 l -0.03424,9.88e-4 -0.01092,-1.306077 1.69019,-0.02406 c 0.289612,-0.002 0.428605,0.19318 0.429267,0.406924 l -0.002,0.483488 c 2.37e-4,0.221803 -0.206051,0.433141 -0.442083,0.433956 l -0.933543,0.01201 c -0.284088,0.003 -0.544538,0.245677 -0.542715,0.515219 l -0.0077,0.839472 c -0.0035,0.287996 0.233968,0.552118 0.466774,0.553338 l 1.136999,0.01107 c 0.172527,0.0056 0.317943,0.170788 0.313472,0.357693 l 0.03142,2.738268 c 4.94e-4,0.0565 0.03656,0.0953 0.09408,0.0931 l 0.832856,0.002 c 0.04743,-0.002 0.08088,-0.0381 0.08085,-0.0786 l -0.0044,-3.514368 c 0.003,-0.475207 -0.320394,-0.828893 -0.705702,-0.831344 l -1.059654,-0.0169 c -0.0464,5e-6 -0.100152,-0.01858 -0.100167,-0.06282 1.5e-5,-0.04427 0.04565,-0.05938 0.09204,-0.05938 l 0.875096,-0.0127 c 0.460711,-0.0035 0.826838,-0.369462 0.812124,-0.852437 l 0.01047,-0.913699 c 9.88e-4,-0.581097 -0.421149,-0.984112 -1.03324,-0.972921 z"
       sodipodi:nodetypes="cccccccccccccccccccccccccccccccccccccccc"
       inkscape:export-filename="/home/lars/src/t-shirts/svg/full-dec-orange.png"
       inkscape:export-xdpi="392.86325"
       inkscape:export-ydpi="392.86325" />
    <path
       id="path2124-56-6-6-66-4-94-1-71"
       style="fill:#e35f03;fill-opacity:1;stroke:#e35f03;stroke-width:0;stroke-linecap:round;stroke-linejoin:round;stroke-opacity:1"
       inkscape:label="Apostrophe"
       d="m 72.973916,94.27682 c -0.06181,4.94e-4 -0.137757,0.0641 -0.136334,0.124106 l 0.0091,0.537706 c -0.0035,0.0756 0.06376,0.101328 0.123928,0.10326 l 0.459431,0.0069 c 0,0 -0.01141,0.24335 -0.474209,0.362411 -0.04654,0.0293 -0.05021,0.08038 -9.88e-4,0.105879 0,0 0.223897,0.09495 0.428837,0.07787 0.375435,-0.03133 0.889899,-0.245939 0.89064,-0.672558 l 9.88e-4,-0.514947 c 1.38e-4,-0.0773 -0.03997,-0.128375 -0.134171,-0.128509 z"
       sodipodi:nodetypes="cccccccssssc"
       inkscape:export-filename="/home/lars/src/t-shirts/svg/full-dec-orange.png"
       inkscape:export-xdpi="392.86325"
       inkscape:export-ydpi="392.86325" />
    <path
       id="rect69759-6-7"
       style="fill:#e35f03;fill-opacity:1;stroke:#e35f03;stroke-width:0;stroke-linecap:round;stroke-linejoin:round;stroke-opacity:1"
       d="m 66.72653,94.346581 c -0.07792,-0.0025 -0.143638,0.06364 -0.14429,0.122723 l 0.07664,6.217216 c 0.0078,0.65243 0.41394,1.03296 1.00976,1.03624 l 3.065445,-0.0225 c 0.569935,-0.007 0.970579,-0.4196 0.954408,-1.05144 l -0.01126,-6.208153 c 0,-0.04541 -0.03992,-0.06597 -0.07413,-0.06621 h -0.792242 c -0.04383,-2.72e-4 -0.07991,0.02421 -0.08009,0.08013 l 0.05536,5.955033 c 3.21e-4,0.24296 -0.242466,0.46625 -0.530585,0.46493 l -1.421681,0.019 c -0.303654,3.1e-4 -0.392768,-0.19666 -0.412384,-0.41066 l -0.0377,-6.032822 c -4.94e-4,-0.05403 -0.06032,-0.09625 -0.122441,-0.0986 z"
       sodipodi:nodetypes="ccccccccccccccccc"
       inkscape:label="Letter U"
       inkscape:export-filename="/home/lars/src/t-shirts/svg/full-dec-orange.png"
       inkscape:export-xdpi="392.86325"
       inkscape:export-ydpi="392.86325" />
    <path
       id="path2124-56-27-9-8-2-6"
       style="fill:#e35f03;fill-opacity:1;stroke:#e35f03;stroke-width:0;stroke-linecap:round;stroke-linejoin:round;stroke-opacity:1"
       inkscape:label="Letter O"
       d="m 62.425613,94.349466 c -0.500599,-0.01127 -0.852723,0.425972 -0.851755,1.008314 l 0.01878,5.30837 c -0.0049,0.5631 0.334712,1.00121 0.898076,1.00815 l 2.722456,-0.01 c 0.472075,0.0105 0.869962,-0.57404 0.865214,-1.01634 l 0.0167,-5.252624 c 0.01235,-0.628841 -0.282492,-1.041857 -0.718607,-1.048789 l -0.658698,0.0035 c -0.06822,0.003 -0.123459,0.04219 -0.125762,0.128009 l 4.94e-4,0.583933 c 0.0015,0.07031 0.04259,0.111674 0.126918,0.113053 l 0.108073,-0.0035 c 0.220483,-9.88e-4 0.538723,0.174187 0.532626,0.451595 l -0.01092,4.745513 c 9.88e-4,0.20216 -0.233745,0.4753 -0.411346,0.48153 l -1.168315,-0.0134 c -0.25504,-9.9e-4 -0.414563,-0.19904 -0.414197,-0.4409 l -0.0292,-4.851956 c -9.88e-4,-0.202197 0.123222,-0.360988 0.352648,-0.367189 l 0.647542,0.0015 c 0.06076,-9.88e-4 0.102164,-0.03548 0.09845,-0.110696 l -0.004,-0.596577 c -4.89e-4,-0.05585 -0.05222,-0.126502 -0.117164,-0.130835 z"
       sodipodi:nodetypes="ccccccccccccccccccccccccc"
       inkscape:export-filename="/home/lars/src/t-shirts/svg/full-dec-orange.png"
       inkscape:export-xdpi="392.86325"
       inkscape:export-ydpi="392.86325" />
    <path
       id="path2124-56-6-6-6-5-8-5"
       style="fill:#e35f03;fill-opacity:1;stroke:#e35f03;stroke-width:0;stroke-linecap:round;stroke-linejoin:round;stroke-opacity:1"
       inkscape:label="Letter Y"
       d="m 59.777325,94.360104 c -0.269448,-0.0025 -0.599274,0.214604 -0.600865,0.510274 l 0.03207,3.162692 c 0.0015,0.141868 -0.161223,0.261103 -0.32539,0.27178 h -0.0025 l -0.735826,-4.05e-4 c -0.287769,-0.0061 -0.412864,-0.115203 -0.412305,-0.348814 l -0.02283,-3.489939 c -3.16e-4,-0.05328 -0.05224,-0.09445 -0.106615,-0.09672 l -1.344088,-0.0061 c -0.06815,-0.0025 -0.125772,0.06308 -0.126335,0.121398 l -0.01724,4.270135 c -0.004,0.437429 0.216744,0.682385 0.675434,0.678516 l 2.288169,0.02219 c 0.35085,0.0049 0.687089,-0.208937 0.677894,-0.57498 l -0.03572,-3.80177 c 6.5e-5,-0.0589 0.02293,-0.08694 0.06718,-0.08694 0.04422,4.4e-5 0.06841,0.01932 0.06841,0.07823 l 0.07519,4.521573 0.0015,0.624276 c 3.16e-4,0.25064 -0.166652,0.52196 -0.509656,0.52321 l -3.122122,-4e-4 c -0.06499,4.1e-4 -0.138301,0.0676 -0.136814,0.14175 l 0.008,0.66372 c -0.0035,0.0934 0.06649,0.12509 0.13003,0.12757 l 3.466841,0.0322 c 0.857131,0.0173 1.192219,-0.44175 1.190633,-1.07169 L 60.9415,94.858786 C 60.92959,94.57281 60.652268,94.359402 60.391788,94.361453 Z"
       sodipodi:nodetypes="ccccccccccccccccsccccccccccccc"
       inkscape:export-filename="/home/lars/src/t-shirts/svg/full-dec-orange.png"
       inkscape:export-xdpi="392.86325"
       inkscape:export-ydpi="392.86325" />
    <path
       id="path2124-56-6-4-4"
       style="fill:#e35f03;fill-opacity:1;stroke:#e35f03;stroke-width:0;stroke-linecap:round;stroke-linejoin:round;stroke-opacity:1"
       inkscape:label="Letter S"
       d="m 149.59979,83.861879 -3.13394,0.02594 c -0.47726,-9.88e-4 -0.89303,0.29229 -0.89187,0.99644 l 0.0211,1.535084 c -4.9e-4,0.407695 0.29114,0.774499 0.97384,0.772414 l 2.04634,0.01107 c 0.15222,-4.05e-4 0.38996,0.154873 0.38475,0.318813 l 0.004,2.1976 c 3.3e-4,0.225478 -0.14983,0.469995 -0.45839,0.471116 l -2.80865,-0.0015 c -0.0585,4.1e-4 -0.12446,0.06116 -0.12312,0.127871 l 0.007,0.596972 c -0.002,0.08402 0.0597,0.112722 0.11686,0.114955 l 3.18643,-0.0086 c 0.68271,-0.0064 1.07275,-0.397606 1.07132,-0.964295 l -0.0121,-3.202212 c -0.007,-0.41397 -0.36624,-0.874968 -0.89727,-0.872769 l -1.41808,-0.02431 c -0.16271,0.0089 -0.36561,-0.130015 -0.37072,-0.318042 l -0.006,-0.485623 c -9.9e-4,-0.278367 0.13698,-0.441842 0.41403,-0.449342 l 1.91165,-0.02268 c 0.0771,-2.92e-4 0.12682,-0.03869 0.12829,-0.106398 l -0.009,-0.583908 c -4.9e-4,-0.06752 -0.0542,-0.128508 -0.13733,-0.128602 z"
       sodipodi:nodetypes="ccccccccccccccccccccccccsc"
       inkscape:export-filename="/home/lars/src/t-shirts/svg/full-dec-orange.png"
       inkscape:export-xdpi="392.86325"
       inkscape:export-ydpi="392.86325" />
    <path
       id="path2124-56-6-6-66-4-5"
       style="fill:#e35f03;fill-opacity:1;stroke:#e35f03;stroke-width:0;stroke-linecap:round;stroke-linejoin:round;stroke-opacity:1"
       inkscape:label="Letter T"
       d="m 144.29979,83.915711 -5.08371,-0.005 c -0.0613,4.94e-4 -0.13002,0.05768 -0.1286,0.121043 l 0.008,0.5678 c -0.004,0.07989 0.0632,0.10709 0.12296,0.109145 l 4.55482,0.005 c 0.10539,0.0061 0.16786,0.07564 0.17003,0.158732 0.002,0.107326 -0.0661,0.148741 -0.1694,0.154349 l -2.20469,0.0085 c -0.45825,-0.0035 -0.67846,0.236744 -0.67445,0.666926 l -0.0213,5.420121 c 3.1e-4,0.05741 0.0586,0.121295 0.12672,0.119229 l 1.34265,-0.0061 c 0.0544,-0.0025 0.10683,-0.04239 0.10733,-0.0947 l 0.0577,-4.620815 c -3.1e-4,-0.229758 0.12662,-0.368316 0.41408,-0.374556 l 1.37654,0.0025 c 0.3138,-4.94e-4 0.54449,-0.235711 0.54207,-0.476191 l 4.9e-4,-1.255438 c 0.004,-0.244012 -0.22765,-0.499452 -0.54145,-0.500653 z"
       sodipodi:nodetypes="cccccccccccccccccccsc"
       inkscape:export-filename="/home/lars/src/t-shirts/svg/full-dec-orange.png"
       inkscape:export-xdpi="392.86325"
       inkscape:export-ydpi="392.86325" />
    <path
       id="path2124-5-4"
       style="fill:#e35f03;fill-opacity:1;stroke:#e35f03;stroke-width:0;stroke-linecap:round;stroke-linejoin:round;stroke-opacity:1"
       inkscape:label="Letter I"
       d="m 136.72611,83.922396 c -0.0803,9.88e-4 -0.14506,0.06457 -0.14529,0.143395 l 0.0512,7.03518 c 9.8e-4,0.07879 0.0661,0.142056 0.1455,0.14171 l 1.50469,0.0025 c 0.0624,-2.07e-4 0.11375,-0.04758 0.1137,-0.104021 l -0.0601,-7.104194 c -9.8e-4,-0.07555 -0.0687,-0.121729 -0.13392,-0.123602 z"
       sodipodi:nodetypes="ccccccccc"
       inkscape:export-filename="/home/lars/src/t-shirts/svg/full-dec-orange.png"
       inkscape:export-xdpi="392.86325"
       inkscape:export-ydpi="392.86325" />
    <path
       id="path2124-56-27-9-7-2"
       style="fill:#e35f03;fill-opacity:1;stroke:#e35f03;stroke-width:0;stroke-linecap:round;stroke-linejoin:round;stroke-opacity:1"
       inkscape:label="Letter B"
       d="m 131.06888,83.851355 c -0.0778,4.6e-4 -0.14066,0.06446 -0.14089,0.143232 l 0.0495,7.029048 c 0.001,0.07868 0.0641,0.141854 0.1412,0.141513 l 1.4242,-0.0025 c 0.0771,0.0015 0.13814,-0.05162 0.13714,-0.133697 0.007,-2.128671 -0.0196,-4.096938 -0.033,-6.243451 -0.002,-0.0635 0.0691,-0.146123 0.16544,-0.145876 l 1.56651,0.004 c 0.30102,0.006 0.41426,0.178649 0.41224,0.38131 l 0.01,0.621237 c 4.7e-4,0.217558 -0.0869,0.375159 -0.44924,0.376068 l -0.86956,0.02579 c -0.35729,0.0015 -0.56674,0.264908 -0.56401,0.529291 l -3.1e-4,0.86223 c -0.002,0.260574 0.23148,0.479516 0.58878,0.480727 l 0.92019,0.01275 c 0.3273,0.0073 0.3962,0.173811 0.39566,0.422764 l 0.0177,1.62147 c 3e-4,0.21743 -0.0777,0.384077 -0.37527,0.403391 l -1.34355,0.0061 c -0.0997,-0.0049 -0.16302,0.05402 -0.15513,0.13385 l 0.001,0.511518 c 0.002,0.08548 0.0492,0.126359 0.13385,0.129013 l 1.75172,0.006 c 0.73915,-0.0073 1.01563,-0.420616 1.01047,-0.984992 l -0.0209,-2.576969 c 0.005,-0.466126 -0.28258,-0.847383 -0.87394,-0.849809 l -1.25967,-0.02209 c -0.0712,0 -0.11741,-4.65e-4 -0.11741,-0.04407 2e-5,-0.04353 0.068,-0.06156 0.1392,-0.06156 l 1.27107,-0.03271 c 0.38089,1.92e-4 0.7569,-0.282922 0.74159,-0.631109 l -0.008,-1.209907 c 0.001,-0.583661 -0.29718,-0.912766 -0.90691,-0.914787 z"
       sodipodi:nodetypes="cccccccccccccccccccccccccccccccccccc"
       inkscape:export-filename="/home/lars/src/t-shirts/svg/full-dec-orange.png"
       inkscape:export-xdpi="392.86325"
       inkscape:export-ydpi="392.86325" />
    <path
       id="path2124-56-8-5"
       style="fill:#e35f03;fill-opacity:1;stroke:#e35f03;stroke-width:0;stroke-linecap:round;stroke-linejoin:round;stroke-opacity:1"
       inkscape:label="Digit 6"
       d="m 127.23851,83.752967 -3.35184,0.01927 c -0.6206,-0.01127 -1.034,0.399202 -1.03288,0.953938 l 0.0615,5.28438 c -0.005,0.564268 0.34772,1.048522 1.07681,1.055464 l 2.56594,-0.0058 c 0.73568,-0.002 1.06592,-0.447687 1.06122,-0.992265 l -9.8e-4,-3.396831 c 0.0188,-0.309296 -0.39373,-0.710202 -0.74616,-0.711502 l -1.93518,-0.0092 c -0.1002,-0.0025 -0.14453,0.06273 -0.14513,0.140317 l -9.8e-4,0.917444 c 0.002,0.0778 0.0682,0.136577 0.14168,0.139572 l 1.33686,0.0082 c 0.22962,-0.0025 0.40365,0.181895 0.40698,0.38177 l -0.003,2.184773 c 3.3e-4,0.233909 -0.20966,0.442396 -0.50929,0.443403 l -1.06396,0.01018 c -0.35652,-9.88e-4 -0.46918,-0.146123 -0.46474,-0.430972 l -0.0313,-4.646211 c 10e-4,-0.247426 0.17031,-0.443195 0.46723,-0.449411 l 2.1822,-0.03004 c 0.0601,-9.88e-4 0.14119,-0.04768 0.14277,-0.120593 l 9.8e-4,-0.621799 c -3.9e-4,-0.05596 -0.0513,-0.125445 -0.15891,-0.123904 z"
       sodipodi:nodetypes="ccccccccccccccccccccccccsc"
       inkscape:export-filename="/home/lars/src/t-shirts/svg/full-dec-orange.png"
       inkscape:export-xdpi="392.86325"
       inkscape:export-ydpi="392.86325" />
    <path
       id="path2124-56-27-5"
       style="fill:#e35f03;fill-opacity:1;stroke:#e35f03;stroke-width:0;stroke-linecap:round;stroke-linejoin:round;stroke-opacity:1"
       inkscape:label="Digit 3"
       d="m 121.04594,83.803255 c 0.65759,-0.01131 1.01821,0.390896 1.01695,0.975249 l 0.004,1.056803 c -0.006,0.42276 -0.3664,0.781989 -0.91382,0.763649 l -1.42119,0.0088 c -0.0713,-5e-6 -0.12512,-0.004 -0.12514,0.03948 2e-5,0.04338 0.0463,0.04407 0.11757,0.04407 l 1.48433,0.01403 c 0.59205,0.0025 0.92306,0.421065 0.91849,0.887729 l 0.0319,2.504936 c 0.005,0.565043 -0.32602,1.01728 -1.06604,1.024227 l -3.55677,0.01858 c -0.062,-0.0025 -0.13199,-0.03706 -0.13255,-0.09394 l -3.4e-4,-0.688419 c 0.001,-0.057 0.0616,-0.112816 0.12498,-0.113754 l 3.07381,-0.03943 c 0.33446,-9.88e-4 0.48987,-0.206723 0.48937,-0.449421 l -0.0178,-1.333379 c 4e-4,-0.24926 -0.15291,-0.424198 -0.4806,-0.430967 l -2.41229,-0.03617 c -0.35771,-9.88e-4 -0.58571,-0.269854 -0.58295,-0.530734 l 2.5e-4,-0.863174 c -0.003,-0.264695 0.20701,-0.528732 0.56473,-0.530037 l 2.43339,-0.05112 c 0.36268,-9.89e-4 0.45037,-0.158772 0.44983,-0.376582 l -0.0152,-0.519454 c 0.002,-0.202884 -0.10757,-0.372264 -0.40894,-0.378484 l -2.92926,-0.0015 c -0.061,-9.88e-4 -0.11842,-0.04328 -0.12002,-0.09946 l 0.007,-0.671461 c 4e-4,-0.05603 0.0577,-0.09954 0.11722,-0.101961 z"
       sodipodi:nodetypes="cccccccccccccccccccccccccccccccc"
       inkscape:export-filename="/home/lars/src/t-shirts/svg/full-dec-orange.png"
       inkscape:export-xdpi="392.86325"
       inkscape:export-ydpi="392.86325" />
    <path
       id="path2124-56-1-8-4"
       style="fill:#e35f03;fill-opacity:1;stroke:#e35f03;stroke-width:0;stroke-linecap:round;stroke-linejoin:round;stroke-opacity:1"
       inkscape:label="Letter E"
       d="m 112.5627,83.667583 -3.18177,0.01952 c -0.61655,-0.01112 -0.97065,0.42734 -0.96947,1.003061 l 0.0207,0.965441 c 0.006,0.416514 0.32524,0.748396 0.88712,0.744097 l 2.38056,-0.0051 c 0.0668,-5e-6 0.12103,0.03464 0.12105,0.0774 -2e-5,0.04274 -0.0542,0.0774 -0.12105,0.07739 l -2.40022,0.01067 c -0.55511,0.002 -0.89481,0.38092 -0.89053,0.840688 l 0.0255,2.537372 c -0.005,0.556688 0.30568,1.002245 0.99951,1.009098 l 3.2957,-0.02322 c 0.0581,-0.0025 0.11387,-0.046 0.1144,-0.10201 l 0.0113,-0.640225 c -0.001,-0.05615 -0.0577,-0.11115 -0.11718,-0.112069 l -2.16479,0.0099 c -0.31359,-9.88e-4 -0.43296,-0.178989 -0.43249,-0.418095 l -0.005,-1.455978 c -4.1e-4,-0.245579 0.14336,-0.417933 0.45059,-0.424603 l 1.69871,-0.0211 c 0.33539,-9.88e-4 0.54916,-0.265861 0.54657,-0.522892 l 0.003,-0.884949 c 0.003,-0.260791 -0.20298,-0.489565 -0.53836,-0.490855 l -1.73102,-0.0025 c -0.34004,-9.88e-4 -0.43143,-0.159705 -0.43092,-0.374299 l -0.0113,-0.60132 c -0.002,-0.199884 0.10087,-0.366764 0.38342,-0.372896 l 2.0634,0.0073 c 0.0571,-9.89e-4 0.11104,-0.04264 0.11253,-0.09799 l -0.01,-0.651519 c -4e-4,-0.05521 -0.0541,-0.09807 -0.1099,-0.100464 z"
       sodipodi:nodetypes="ccccccccccccccccccccccccccccccccc"
       inkscape:export-filename="/home/lars/src/t-shirts/svg/full-dec-orange.png"
       inkscape:export-xdpi="392.86325"
       inkscape:export-ydpi="392.86325" />
    <path
       id="rect69759-1-5"
       style="fill:#e35f03;fill-opacity:1;stroke:#e35f03;stroke-width:0;stroke-linecap:round;stroke-linejoin:round;stroke-opacity:1"
       d="m 103.06985,83.740204 c -0.0727,-0.0025 -0.134,0.06176 -0.1346,0.119126 l 0.0123,5.563808 c -0.0262,0.880008 2.06064,1.599707 2.56626,1.591105 0.80852,-0.03617 2.20464,-0.939897 2.17555,-1.57773 l -9.8e-4,-5.604971 c 0,-0.04407 -0.0373,-0.06399 -0.0692,-0.06423 h -0.7391 c -0.0409,-2.72e-4 -0.0746,0.02357 -0.0747,0.07778 l 0.0159,5.126829 c 0.0212,0.617056 -0.79541,1.103964 -1.17431,1.082703 -0.65388,-0.03666 -1.06372,-0.516632 -1.07896,-0.972921 l 0.0478,-5.240934 c -5e-4,-0.05245 -0.0563,-0.09346 -0.1142,-0.0957 z"
       sodipodi:nodetypes="ccccccccccscccc"
       inkscape:label="Letter V"
       inkscape:export-filename="/home/lars/src/t-shirts/svg/full-dec-orange.png"
       inkscape:export-xdpi="392.86325"
       inkscape:export-ydpi="392.86325" />
    <path
       id="path2124-56-5-3"
       style="fill:#e35f03;fill-opacity:1;stroke:#e35f03;stroke-width:0;stroke-linecap:round;stroke-linejoin:round;stroke-opacity:1"
       inkscape:label="Letter A"
       d="m 98.14185,83.650744 c -0.626109,-0.01127 -0.870985,0.376132 -0.869785,0.960771 l 0.02046,1.048636 c 0.0061,0.422973 0.202963,0.69456 0.857333,0.687094 l 1.669238,-0.0096 c 0.06787,-5e-6 0.122905,0.03518 0.122925,0.0786 -2e-5,0.04343 -0.05506,0.07859 -0.122925,0.07859 l -1.793734,0.01794 c -0.497363,-0.004 -0.736721,0.25713 -0.732368,0.724032 l 0.01744,3.595327 c 4.95e-4,0.06229 0.06331,0.13128 0.137259,0.129042 l 1.457156,-0.0055 c 0.059,-0.0025 0.115637,-0.04669 0.116166,-0.103587 l 0.02283,-2.727933 c -4.94e-4,-0.249383 0.13719,-0.399513 0.449189,-0.406282 l 0.976156,-9.89e-4 c 0.34059,-9.88e-4 0.57163,-0.226872 0.56901,-0.487886 l 0.004,-0.927054 c 0.003,-0.264834 -0.21809,-0.502052 -0.55868,-0.503356 l -1.040634,0.003 c -0.27887,-0.0035 -0.396953,-0.172221 -0.39852,-0.351477 l -0.0095,-0.581828 c -0.002,-0.202988 0.145323,-0.365005 0.432267,-0.371226 l 1.252997,-0.0065 c 0.32745,9.88e-4 0.47225,0.25045 0.46708,0.439993 l 0.0618,5.916709 c 1.6e-4,0.05894 0.0349,0.08446 0.0762,0.08416 l 0.752,-3.5e-5 c 0.0325,-1.63e-4 0.0704,-0.02159 0.0704,-0.0695 l -0.0316,-6.293716 c -0.006,-0.524527 -0.37566,-0.934732 -0.95997,-0.933369 l -3.013559,0.01571 z"
       sodipodi:nodetypes="ccccccccccccccccccccccccccccccccc"
       inkscape:export-filename="/home/lars/src/t-shirts/svg/full-dec-orange.png"
       inkscape:export-xdpi="392.86325"
       inkscape:export-ydpi="392.86325" />
    <path
       id="path2124-56-5-7-5"
       style="fill:#e35f03;fill-opacity:1;stroke:#e35f03;stroke-width:0;stroke-linecap:round;stroke-linejoin:round;stroke-opacity:1"
       inkscape:label="Letter H"
       d="m 92.839621,83.708528 -1.469083,0.0092 c -0.0799,9.89e-4 -0.144403,0.06429 -0.144645,0.142758 l 0.100206,6.489925 c 0.01295,0.389651 0.335899,0.680532 0.638738,0.677731 l 1.189022,-9.88e-4 c 0.313259,0.0035 0.696823,-0.292053 0.698695,-0.694926 l -0.04526,-4.635746 c -0.0015,-0.198842 0.19907,-0.365573 0.395358,-0.37168 l 0.92447,0.01952 c 0.224002,9.89e-4 0.4186,0.29313 0.415067,0.478795 l 0.06603,5.053264 c 4.49e-4,0.07593 0.04906,0.126028 0.130396,0.127223 l 0.705306,-0.0044 c 0.05753,-4.06e-4 0.106674,-0.08878 0.10665,-0.143178 l -0.05728,-5.471434 c -4.49e-4,-0.486517 -0.389848,-0.909667 -0.93328,-0.913961 l -1.606391,0.0076 c -0.407932,-0.0072 -0.799317,0.284636 -0.788625,0.783387 l 0.05366,4.786681 c -5.9e-5,0.08029 -0.02663,0.118459 -0.07798,0.118444 -0.05135,-6.4e-5 -0.07931,-0.02683 -0.07924,-0.107124 l -0.08847,-6.22809 c -9.88e-4,-0.07521 -0.0684,-0.121191 -0.133321,-0.123054 z"
       sodipodi:nodetypes="ccccccccccccccccccccccccc"
       inkscape:export-filename="/home/lars/src/t-shirts/svg/full-dec-orange.png"
       inkscape:export-xdpi="392.86325"
       inkscape:export-ydpi="392.86325" />
    <path
       id="path2124-56-6-6-66-4-9"
       style="fill:#e35f03;fill-opacity:1;stroke:#e35f03;stroke-width:0;stroke-linecap:round;stroke-linejoin:round;stroke-opacity:1"
       inkscape:label="Letter T"
       d="m 85.648015,83.805988 -5.083706,-0.005 c -0.06134,4.94e-4 -0.13002,0.05768 -0.128607,0.121043 l 0.0085,0.5678 c -0.0035,0.07989 0.06318,0.107085 0.122965,0.109145 l 4.554815,0.005 c 0.10539,0.0061 0.167858,0.07564 0.170037,0.158732 0.0025,0.107326 -0.06615,0.148741 -0.169404,0.154349 l -2.204688,0.0085 c -0.45825,-0.0035 -0.678467,0.236744 -0.67445,0.666926 l -0.02134,5.420121 c 3.07e-4,0.05741 0.05862,0.121295 0.12672,0.119229 l 1.34265,-0.0061 c 0.05444,-0.0025 0.106833,-0.04239 0.107327,-0.0947 l 0.05768,-4.620815 c -3.06e-4,-0.229758 0.126626,-0.368316 0.414084,-0.374556 l 1.376535,0.0025 c 0.313803,-4.94e-4 0.544494,-0.235711 0.542068,-0.476191 l 4.94e-4,-1.255438 c 0.0035,-0.244012 -0.227653,-0.499452 -0.541445,-0.500653 z"
       sodipodi:nodetypes="cccccccccccccccccccsc"
       inkscape:export-filename="/home/lars/src/t-shirts/svg/full-dec-orange.png"
       inkscape:export-xdpi="392.86325"
       inkscape:export-ydpi="392.86325" />
    <path
       id="path2124-56-6-6-66-4-94-1"
       style="fill:#e35f03;fill-opacity:1;stroke:#e35f03;stroke-width:0;stroke-linecap:round;stroke-linejoin:round;stroke-opacity:1"
       inkscape:label="Apostrophe"
       d="m 78.288917,83.813898 c -0.06182,4.94e-4 -0.137758,0.0641 -0.136335,0.124106 l 0.0091,0.537705 c -0.0035,0.0756 0.06375,0.101329 0.123923,0.103261 l 0.459431,0.0069 c 0,0 -0.01141,0.243351 -0.47421,0.362412 -0.04654,0.0293 -0.05021,0.08038 -9.88e-4,0.105879 0,0 0.223898,0.09495 0.428842,0.07787 0.375431,-0.03133 0.889899,-0.245939 0.890641,-0.672558 l 9.88e-4,-0.514948 c 1.33e-4,-0.0773 -0.03997,-0.128375 -0.134176,-0.128508 z"
       sodipodi:nodetypes="cccccccssssc"
       inkscape:export-filename="/home/lars/src/t-shirts/svg/full-dec-orange.png"
       inkscape:export-xdpi="392.86325"
       inkscape:export-ydpi="392.86325" />
    <path
       id="path91454-7"
       style="fill:#e35f03;fill-opacity:1;stroke:#e35f03;stroke-width:0;stroke-linecap:round;stroke-linejoin:round;stroke-opacity:1"
       d="m 72.816988,83.757201 c -0.07625,4.94e-4 -0.1372,0.0627 -0.137422,0.139853 l 0.04803,6.882243 c 0.0015,0.07705 0.06308,0.138365 0.138642,0.138044 l 1.320747,-0.0099 c 0.07554,9.89e-4 0.134754,-0.05045 0.133775,-0.130731 0.007,-2.084038 -0.03404,-6.070461 -0.03404,-6.070461 0.0049,-0.08702 0.03226,-0.160159 0.161143,-0.164789 l 1.670015,9.88e-4 c 0.213117,4.94e-4 0.398011,0.278796 0.394646,0.455464 l -0.02055,5.808666 c 2.72e-4,0.07223 0.04669,0.119871 0.124047,0.121003 l 0.60671,-0.0066 c 0.05483,-4.05e-4 0.101546,-0.0845 0.101546,-0.136201 l -0.04353,-6.152371 c -2.81e-4,-0.462885 -0.37208,-0.865565 -0.881109,-0.86348 z"
       sodipodi:nodetypes="ccccccccccccccccc"
       inkscape:label="Letter N"
       inkscape:export-filename="/home/lars/src/t-shirts/svg/full-dec-orange.png"
       inkscape:export-xdpi="392.86325"
       inkscape:export-ydpi="392.86325" />
    <path
       id="path2124-56-6-4"
       style="fill:#e35f03;fill-opacity:1;stroke:#e35f03;stroke-width:0;stroke-linecap:round;stroke-linejoin:round;stroke-opacity:1"
       inkscape:label="Letter S"
       d="m 71.855139,83.772755 -3.133946,0.02594 c -0.477258,-9.88e-4 -0.893031,0.29229 -0.89187,0.99644 l 0.0211,1.535084 c -4.89e-4,0.407695 0.291143,0.774499 0.973835,0.772414 l 2.046351,0.01107 c 0.152225,-4.05e-4 0.389962,0.154874 0.384754,0.318813 l 0.0044,2.1976 c 3.26e-4,0.225479 -0.149829,0.469995 -0.458394,0.471117 l -2.808655,-0.0015 c -0.0585,4.1e-4 -0.124462,0.06116 -0.123118,0.127871 l 0.0072,0.596971 c -0.0025,0.08402 0.0597,0.112722 0.116862,0.114956 l 3.186433,-0.0086 c 0.682707,-0.0064 1.072748,-0.397606 1.07132,-0.964295 l -0.0121,-3.202212 c -0.0069,-0.41397 -0.366236,-0.874968 -0.897271,-0.872769 l -1.418083,-0.02431 c -0.16271,0.0089 -0.365604,-0.130016 -0.370717,-0.318042 l -0.0055,-0.485624 c -9.88e-4,-0.278366 0.136977,-0.441841 0.414034,-0.449342 l 1.911652,-0.02268 c 0.07706,-2.92e-4 0.126823,-0.03869 0.128291,-0.106398 l -0.0093,-0.583908 c -4.94e-4,-0.06752 -0.05417,-0.128508 -0.137328,-0.128602 z"
       sodipodi:nodetypes="ccccccccccccccccccccccccsc"
       inkscape:export-filename="/home/lars/src/t-shirts/svg/full-dec-orange.png"
       inkscape:export-xdpi="392.86325"
       inkscape:export-ydpi="392.86325" />
    <path
       id="path2124-56-1-8"
       style="fill:#e35f03;fill-opacity:1;stroke:#e35f03;stroke-width:0;stroke-linecap:round;stroke-linejoin:round;stroke-opacity:1"
       inkscape:label="Letter E"
       d="m 66.849104,83.804817 -3.181779,0.01947 c -0.616547,-0.01107 -0.970648,0.42734 -0.969467,1.003061 l 0.0207,0.96544 c 0.006,0.416515 0.325236,0.748396 0.887117,0.744098 l 2.380565,-0.0051 c 0.06684,-5e-6 0.121028,0.03468 0.121047,0.07739 -1.9e-5,0.04274 -0.05421,0.0774 -0.121047,0.07739 l -2.400224,0.01067 c -0.555103,0.002 -0.894806,0.380915 -0.890527,0.840682 l 0.02559,2.537373 c -0.0049,0.556688 0.30568,1.002245 0.999503,1.009098 l 3.295707,-0.02322 c 0.05809,-0.0025 0.113863,-0.046 0.114392,-0.10201 l 0.01131,-0.64022 c -0.0015,-0.05616 -0.05772,-0.111156 -0.117179,-0.112075 l -2.164785,0.0099 c -0.31359,-9.88e-4 -0.432962,-0.17899 -0.432493,-0.418091 l -0.0052,-1.455983 c -4.1e-4,-0.245573 0.14336,-0.417927 0.450597,-0.424602 l 1.698707,-0.0211 c 0.33539,-9.88e-4 0.549159,-0.265866 0.546575,-0.522893 l 0.0035,-0.884953 c 0.003,-0.260786 -0.202988,-0.489561 -0.538372,-0.49085 l -1.731012,-0.0025 c -0.340048,-9.88e-4 -0.431436,-0.159705 -0.430927,-0.374299 l -0.01131,-0.601325 c -0.002,-0.199885 0.100868,-0.366764 0.383425,-0.372896 l 2.063397,0.0073 c 0.05715,-9.88e-4 0.111037,-0.04264 0.112534,-0.09798 l -0.0099,-0.651524 c -4.05e-4,-0.05521 -0.05406,-0.09806 -0.109901,-0.100464 z"
       sodipodi:nodetypes="ccccccccccccccccccccccccccccccccc"
       inkscape:export-filename="/home/lars/src/t-shirts/svg/full-dec-orange.png"
       inkscape:export-xdpi="392.86325"
       inkscape:export-ydpi="392.86325" />
    <path
       id="path2124-56-27-9-8-2-7"
       style="fill:#e35f03;fill-opacity:1;stroke:#e35f03;stroke-width:0;stroke-linecap:round;stroke-linejoin:round;stroke-opacity:1"
       inkscape:label="Letter O"
       d="m 58.328322,83.82128 c -0.500599,-0.01127 -0.852724,0.425971 -0.851755,1.008313 l 0.01878,5.308363 c -0.0049,0.563101 0.334712,1.001218 0.898076,1.00815 l 2.722456,-0.0099 c 0.472076,0.01052 0.869963,-0.574031 0.865215,-1.016332 l 0.0167,-5.252625 c 0.01235,-0.62884 -0.282497,-1.041857 -0.718612,-1.048789 l -0.658694,0.0035 c -0.06821,0.003 -0.123459,0.04219 -0.125761,0.128014 l 4.94e-4,0.583933 c 0.0015,0.07031 0.04259,0.111674 0.126912,0.113053 l 0.108078,-0.0035 c 0.220484,-9.88e-4 0.538723,0.174182 0.532621,0.451595 l -0.01092,4.745509 c 9.88e-4,0.202162 -0.23374,0.475306 -0.411342,0.481532 l -1.168319,-0.01339 c -0.255036,-9.88e-4 -0.414558,-0.199045 -0.414193,-0.440903 l -0.0292,-4.851951 c -9.89e-4,-0.202197 0.123221,-0.360988 0.352648,-0.367189 l 0.647542,0.0015 c 0.06076,-9.88e-4 0.102163,-0.03548 0.09845,-0.110696 l -0.004,-0.596581 c -4.89e-4,-0.05584 -0.05222,-0.126498 -0.117164,-0.130831 z"
       sodipodi:nodetypes="ccccccccccccccccccccccccc"
       inkscape:export-filename="/home/lars/src/t-shirts/svg/full-dec-orange.png"
       inkscape:export-xdpi="392.86325"
       inkscape:export-ydpi="392.86325" />
    <path
       id="path2124-56-27-9-4"
       style="fill:#e35f03;fill-opacity:1;stroke:#e35f03;stroke-width:0;stroke-linecap:round;stroke-linejoin:round;stroke-opacity:1"
       inkscape:label="Letter D"
       d="m 52.291789,83.768353 c -0.07793,4.1e-4 -0.140772,0.06453 -0.140999,0.143341 l 0.04961,7.034418 c 9.88e-4,0.07876 0.06417,0.141958 0.14131,0.141617 l 1.425341,-0.003 c 0.0772,9.88e-4 0.138183,-0.05157 0.13718,-0.13375 0.0068,-2.130292 -0.0213,-4.056878 -0.03478,-6.205022 0.0051,-0.08905 0.03296,-0.163771 0.164681,-0.1685 l 1.604247,-0.0053 c 0.221136,0.0062 0.456654,0.28433 0.455143,0.485697 l 0.0015,4.721847 c 3.9e-4,0.240869 -0.163174,0.457469 -0.437677,0.456155 l -1.310257,0.0165 c -0.09972,-0.0053 -0.16313,0.05399 -0.155234,0.133874 l 3.31e-4,0.568403 c 0.003,0.08547 0.04911,0.126429 0.133815,0.129072 l 1.786967,-0.029 c 0.542997,-0.0069 0.924975,-0.416406 0.909564,-1.042776 l -0.0211,-5.232001 c 0.0059,-0.440552 -0.489359,-1.022761 -1.077125,-1.012227 z"
       sodipodi:nodetypes="ccccccccccccccccccccc"
       inkscape:export-filename="/home/lars/src/t-shirts/svg/full-dec-orange.png"
       inkscape:export-xdpi="392.86325"
       inkscape:export-ydpi="392.86325" />
    <path
       id="path2124-56-27-0-1-9"
       style="fill:#e35f03;fill-opacity:1;stroke:#e35f03;stroke-width:0;stroke-linecap:round;stroke-linejoin:round;stroke-opacity:1"
       inkscape:label="Letter R"
       d="m 140.81222,73.120668 -2.204,0.01967 c -0.0127,-0.004 -0.026,-0.0063 -0.0391,-0.0067 l -1.45078,0.0091 c -0.0789,9.88e-4 -0.14259,0.06455 -0.14283,0.143302 l 0.029,7.042845 c 9.9e-4,0.07869 0.065,0.141764 0.14314,0.141414 l 1.50059,-0.0122 c 0.0388,-1.63e-4 0.0731,-0.01912 0.0931,-0.04733 h 0.0109 V 79.43472 l -0.0181,-2.175561 0.0181,3.01e-4 v -1.936976 l -0.0342,9.89e-4 -0.0109,-1.306083 1.69019,-0.02406 c 0.28962,-0.002 0.42861,0.193175 0.42927,0.406919 l -0.002,0.483489 c 2.4e-4,0.221808 -0.20605,0.43314 -0.44208,0.433956 l -0.93354,0.01201 c -0.28409,0.003 -0.54454,0.245673 -0.54272,0.515219 l -0.008,0.839467 c -0.004,0.287997 0.23397,0.552118 0.46678,0.553344 l 1.137,0.01112 c 0.17252,0.0056 0.31795,0.170788 0.31347,0.357693 l 0.0314,2.738272 c 9.9e-4,0.0565 0.0366,0.09528 0.0941,0.09309 l 0.83285,0.0015 c 0.0474,-0.0015 0.0809,-0.03814 0.0808,-0.07861 l -0.004,-3.514367 c 0.004,-0.475208 -0.32039,-0.828893 -0.70571,-0.831344 l -1.05964,-0.0169 c -0.0464,5e-6 -0.10016,-0.01858 -0.10018,-0.06282 2e-5,-0.04427 0.0457,-0.05939 0.092,-0.05939 l 0.8751,-0.0127 c 0.46072,-0.0035 0.82684,-0.369462 0.81212,-0.852437 l 0.0105,-0.913694 c 9.9e-4,-0.581102 -0.42114,-0.984113 -1.03324,-0.972926 z"
       sodipodi:nodetypes="cccccccccccccccccccccccccccccccccccccccc"
       inkscape:export-filename="/home/lars/src/t-shirts/svg/full-dec-orange.png"
       inkscape:export-xdpi="392.86325"
       inkscape:export-ydpi="392.86325" />
    <path
       id="path2124-56-1"
       style="fill:#e35f03;fill-opacity:1;stroke:#e35f03;stroke-width:0;stroke-linecap:round;stroke-linejoin:round;stroke-opacity:1"
       inkscape:label="Letter E"
       d="m 135.91335,73.140051 -3.18178,0.01952 c -0.61654,-0.01112 -0.97064,0.42734 -0.96946,1.00306 l 0.0207,0.965441 c 0.006,0.416515 0.32523,0.748396 0.88711,0.744098 l 2.38057,-0.0051 c 0.0668,-5e-6 0.12103,0.03464 0.12105,0.0774 -2e-5,0.04274 -0.0542,0.0774 -0.12105,0.07739 l -2.40023,0.01067 c -0.5551,0.002 -0.89481,0.38092 -0.89052,0.840687 l 0.0255,2.537374 c -0.005,0.556689 0.30567,1.002246 0.9995,1.009099 l 3.2957,-0.02322 c 0.0581,-0.0025 0.11387,-0.046 0.1144,-0.102011 l 0.0113,-0.640224 c -0.001,-0.05615 -0.0577,-0.111151 -0.11718,-0.11207 l -2.16479,0.0099 c -0.31358,-9.88e-4 -0.43296,-0.17899 -0.43249,-0.418091 l -0.005,-1.455985 c -4.1e-4,-0.245578 0.14336,-0.417932 0.4506,-0.424603 l 1.6987,-0.0211 c 0.33539,-9.89e-4 0.54916,-0.265861 0.54658,-0.522893 l 0.004,-0.884948 c 0.003,-0.260787 -0.20299,-0.489566 -0.53838,-0.490851 l -1.73101,-0.0025 c -0.34004,-9.88e-4 -0.43143,-0.159706 -0.43092,-0.374295 l -0.0113,-0.601324 c -0.002,-0.199885 0.10086,-0.366765 0.38342,-0.372896 l 2.06339,0.0073 c 0.0572,-9.88e-4 0.11104,-0.04264 0.11254,-0.09798 l -0.01,-0.651525 c -4.1e-4,-0.05521 -0.0541,-0.09807 -0.10991,-0.100464 z"
       sodipodi:nodetypes="ccccccccccccccccccccccccccccccccc"
       inkscape:export-filename="/home/lars/src/t-shirts/svg/full-dec-orange.png"
       inkscape:export-xdpi="392.86325"
       inkscape:export-ydpi="392.86325" />
    <path
       id="path2124-56-6-6-66-4"
       style="fill:#e35f03;fill-opacity:1;stroke:#e35f03;stroke-width:0;stroke-linecap:round;stroke-linejoin:round;stroke-opacity:1"
       inkscape:label="Letter T"
       d="m 130.61934,73.173748 -5.08371,-0.005 c -0.0613,4.94e-4 -0.13002,0.05768 -0.1286,0.121042 l 0.008,0.567801 c -0.004,0.07989 0.0632,0.107084 0.12296,0.109145 l 4.55482,0.005 c 0.10539,0.0061 0.16786,0.07564 0.17003,0.158732 0.002,0.107327 -0.0661,0.148741 -0.1694,0.154349 l -2.20469,0.0085 c -0.45825,-0.0035 -0.67846,0.236744 -0.67445,0.666925 l -0.0213,5.420124 c 3.1e-4,0.05741 0.0586,0.121294 0.12672,0.119229 l 1.34265,-0.0061 c 0.0544,-0.0025 0.10684,-0.04239 0.10733,-0.0947 l 0.0577,-4.620816 c -3.1e-4,-0.229758 0.12663,-0.368316 0.41408,-0.374557 l 1.37654,0.0025 c 0.3138,-4.94e-4 0.54449,-0.235712 0.54207,-0.476191 l 4.9e-4,-1.255438 c 0.004,-0.244012 -0.22765,-0.499453 -0.54144,-0.500654 z"
       sodipodi:nodetypes="cccccccccccccccccccsc"
       inkscape:export-filename="/home/lars/src/t-shirts/svg/full-dec-orange.png"
       inkscape:export-xdpi="392.86325"
       inkscape:export-ydpi="392.86325" />
    <path
       id="rect69759-6-1"
       style="fill:#e35f03;fill-opacity:1;stroke:#e35f03;stroke-width:0;stroke-linecap:round;stroke-linejoin:round;stroke-opacity:1"
       d="m 119.90061,73.151726 c -0.0779,-0.0025 -0.14364,0.06364 -0.14429,0.122723 l 0.0766,6.217212 c 0.008,0.652434 0.41394,1.032964 1.00976,1.036239 l 3.06545,-0.02253 c 0.56993,-0.0074 0.97058,-0.419598 0.9544,-1.051442 l -0.0113,-6.208146 c 0,-0.04541 -0.0399,-0.06597 -0.0741,-0.06622 h -0.79224 c -0.0438,-2.66e-4 -0.0799,0.02421 -0.0801,0.08013 l 0.0554,5.955038 c 3.1e-4,0.24296 -0.24247,0.46625 -0.53059,0.464915 l -1.42168,0.01907 c -0.30365,3.12e-4 -0.39276,-0.196658 -0.41238,-0.410654 l -0.0377,-6.032822 c -9.9e-4,-0.05404 -0.0603,-0.09625 -0.12244,-0.0986 z"
       sodipodi:nodetypes="ccccccccccccccccc"
       inkscape:label="Letter U"
       inkscape:export-filename="/home/lars/src/t-shirts/svg/full-dec-orange.png"
       inkscape:export-xdpi="392.86325"
       inkscape:export-ydpi="392.86325" />
    <path
       id="path2124-56-6-2-9"
       style="fill:#e35f03;fill-opacity:1;stroke:#e35f03;stroke-width:0;stroke-linecap:round;stroke-linejoin:round;stroke-opacity:1"
       inkscape:label="Letter P"
       d="m 118.10833,73.160205 -3.61741,0.02777 c -0.0802,9.88e-4 -0.145,0.06449 -0.14523,0.143133 l 0.0514,7.018432 c 9.9e-4,0.0786 0.066,0.14179 0.14544,0.141449 l 1.50413,0.0025 c 0.0624,-2.12e-4 0.11372,-0.04748 0.11367,-0.103769 l -0.0518,-6.092839 h 0.006 l 2.1e-4,-0.114299 c -2.1e-4,-0.08264 0.0457,-0.145119 0.16145,-0.155337 h 1.58474 2.2e-4 c 0.22316,0.0035 0.39613,0.241018 0.39508,0.408762 l 0.004,2.135169 c 2.2e-4,0.212755 -0.1269,0.475504 -0.38079,0.47703 l -1.32874,0.01295 c -0.15679,-0.0044 -0.21807,0.09322 -0.21644,0.193535 l 0.002,0.881648 c -0.004,0.126359 0.0729,0.167453 0.17986,0.168653 l 1.72437,-0.0044 c 0.65542,-0.0077 1.02401,-0.537686 1.01123,-1.161284 l -0.0148,-2.96216 c -0.0101,-0.510605 -0.26552,-1.017241 -1.12947,-1.016644 z"
       sodipodi:nodetypes="ccccccccccccscccccccccccc"
       inkscape:export-filename="/home/lars/src/t-shirts/svg/full-dec-orange.png"
       inkscape:export-xdpi="392.86325"
       inkscape:export-ydpi="392.86325" />
    <path
       id="path2124-56-6-6-5-7"
       style="fill:#e35f03;fill-opacity:1;stroke:#e35f03;stroke-width:0;stroke-linecap:round;stroke-linejoin:round;stroke-opacity:1"
       inkscape:label="Letter M"
       d="m 111.11547,73.16815 c -0.39638,-0.0072 -0.77672,0.276751 -0.76634,0.761381 l -0.0404,2.988855 h -0.005 l -0.049,2.793971 c 0,0.06766 -0.029,0.09001 -0.0826,0.09001 -0.0536,1e-5 -0.0812,-0.03231 -0.0814,-0.09998 l 0.0588,-5.513255 c 0.006,-0.440157 -0.43867,-1.012839 -1.02592,-1.002325 l -2.89807,-0.0035 c -0.0779,4.05e-4 -0.14013,0.06405 -0.14036,0.142837 l 0.049,7.028719 c 9.9e-4,0.07871 0.0644,0.141296 0.14159,0.14096 l 1.34898,-0.0096 c 0.0772,9.88e-4 0.13763,-0.05144 0.13662,-0.133519 0.007,-2.128389 -0.0347,-6.199647 -0.0347,-6.199647 0.005,-0.08893 0.0329,-0.163569 0.16457,-0.168288 l 1.16377,0.0035 c 0.22094,0.006 0.4561,0.284449 0.45459,0.485633 l -0.0217,5.460007 c 0.002,0.339372 0.34411,0.596102 0.67061,0.593216 0.3158,-0.0035 0.65192,-0.206046 0.64711,-0.574431 l 0.0303,-5.596781 c -0.002,-0.193205 0.19308,-0.355504 0.3838,-0.361428 l 1.07964,0.02317 c 0.21766,9.89e-4 0.40646,0.284746 0.40305,0.465148 l 0.0197,5.890717 c 2.7e-4,0.07379 0.0477,0.122421 0.12669,0.123572 l 0.63382,-0.0096 c 0.056,-4.11e-4 0.10371,-0.08629 0.10371,-0.139117 l -0.002,-6.292062 c -3e-4,-0.47281 -0.38024,-0.883973 -0.90011,-0.881849 z"
       sodipodi:nodetypes="ccccccccccccccccccccccccccccccccc"
       inkscape:export-filename="/home/lars/src/t-shirts/svg/full-dec-orange.png"
       inkscape:export-xdpi="392.86325"
       inkscape:export-ydpi="392.86325" />
    <path
       id="path2124-56-27-9-8-2-3"
       style="fill:#e35f03;fill-opacity:1;stroke:#e35f03;stroke-width:0;stroke-linecap:round;stroke-linejoin:round;stroke-opacity:1"
       inkscape:label="Letter O"
       d="m 101.80291,73.191283 c -0.5006,-0.01126 -0.85272,0.425977 -0.85175,1.008318 l 0.0188,5.308365 c -0.005,0.563097 0.33471,1.001218 0.89807,1.00815 l 2.72246,-0.0099 c 0.47208,0.01052 0.86996,-0.574031 0.86521,-1.016333 l 0.0167,-5.252626 c 0.0123,-0.628841 -0.28249,-1.041857 -0.71861,-1.048789 l -0.65869,0.0035 c -0.0682,0.003 -0.12346,0.0422 -0.12576,0.128015 l 9.9e-4,0.583932 c 0.002,0.07032 0.0426,0.111675 0.12691,0.113053 l 0.10808,-0.0035 c 0.22048,-9.88e-4 0.53872,0.174187 0.53262,0.4516 l -0.0109,4.74551 c 10e-4,0.202158 -0.23375,0.475302 -0.41135,0.481532 l -1.16831,-0.01339 c -0.25503,-9.69e-4 -0.41456,-0.199026 -0.41419,-0.440888 l -0.0292,-4.851953 c -9.9e-4,-0.202197 0.12322,-0.360989 0.35264,-0.367184 l 0.64755,0.0015 c 0.0608,-9.88e-4 0.10216,-0.03548 0.0984,-0.110701 l -0.004,-0.596577 c -4.1e-4,-0.05585 -0.0522,-0.126502 -0.11716,-0.13083 z"
       sodipodi:nodetypes="ccccccccccccccccccccccccc"
       inkscape:export-filename="/home/lars/src/t-shirts/svg/full-dec-orange.png"
       inkscape:export-xdpi="392.86325"
       inkscape:export-ydpi="392.86325" />
    <path
       id="path2124-56-27-9-9-4"
       style="fill:#e35f03;fill-opacity:1;stroke:#e35f03;stroke-width:0;stroke-linecap:round;stroke-linejoin:round;stroke-opacity:1"
       inkscape:label="Letter C"
       d="m 96.905805,73.215163 c -0.652938,-0.01062 -1.203223,0.571526 -1.196661,1.011989 l -0.02342,5.230797 c -0.0171,0.626242 0.407122,1.03575 1.010329,1.042653 l 3.639507,9.88e-4 c 0.0941,-0.002 0.14537,-0.04368 0.14852,-0.129121 l 9.9e-4,-0.568196 c 0.009,-0.07985 -0.0618,-0.139344 -0.1726,-0.134032 l -2.307538,0.01759 c -0.304939,9.88e-4 -0.486681,-0.215153 -0.486261,-0.455978 l 9.89e-4,-4.720766 c -0.0015,-0.201313 0.260099,-0.479507 0.505757,-0.485683 l 2.323303,0.01695 c 0.0941,-0.002 0.14537,-0.04368 0.14853,-0.129131 l 9.9e-4,-0.568186 c 9.8e-4,-0.0757 -0.0537,-0.133469 -0.15226,-0.134186 0,0 -3.361313,3.07e-4 -3.439795,0.0044 z"
       sodipodi:nodetypes="cccccccccccccccccc"
       inkscape:export-filename="/home/lars/src/t-shirts/svg/full-dec-orange.png"
       inkscape:export-xdpi="392.86325"
       inkscape:export-ydpi="392.86325" />
    <path
       id="path2124-56-27-0-1"
       style="fill:#e35f03;fill-opacity:1;stroke:#e35f03;stroke-width:0;stroke-linecap:round;stroke-linejoin:round;stroke-opacity:1"
       inkscape:label="Letter R"
       d="m 90.46213,73.575356 -2.203995,0.01967 c -0.01275,-0.004 -0.02594,-0.0063 -0.03908,-0.0067 l -1.450787,0.0091 c -0.07891,9.88e-4 -0.142595,0.06456 -0.142832,0.143302 l 0.02895,7.042845 c 9.88e-4,0.0787 0.06504,0.141769 0.143143,0.141419 l 1.500592,-0.0122 c 0.03879,-1.59e-4 0.07307,-0.01912 0.09314,-0.04733 h 0.01092 v -0.976049 l -0.01813,-2.175561 0.01813,3.06e-4 v -1.936934 l -0.03424,9.89e-4 -0.01092,-1.306083 1.69019,-0.02406 c 0.289612,-0.002 0.42861,0.193175 0.429267,0.406919 l -0.002,0.483489 c 2.43e-4,0.221807 -0.206046,0.43314 -0.442078,0.433956 l -0.933543,0.01201 c -0.284088,0.003 -0.544543,0.245672 -0.54272,0.515214 l -0.0077,0.839472 c -0.0035,0.287997 0.233972,0.552118 0.466773,0.553339 l 1.137004,0.01107 c 0.172522,0.0056 0.317944,0.170793 0.313472,0.357693 l 0.03142,2.738272 c 4.94e-4,0.05651 0.03656,0.09528 0.09408,0.09309 l 0.832851,0.0015 c 0.04743,-0.0015 0.08088,-0.03814 0.08085,-0.07861 l -0.0044,-3.514366 c 0.003,-0.475213 -0.320394,-0.828899 -0.705707,-0.831349 l -1.059649,-0.0169 c -0.04639,5e-6 -0.100157,-0.01858 -0.100167,-0.06281 1e-5,-0.04427 0.04565,-0.05939 0.09204,-0.05938 l 0.875101,-0.0127 c 0.460711,-0.0035 0.826833,-0.369463 0.812124,-0.852437 l 0.01047,-0.9137 c 10e-4,-0.581168 -0.421118,-0.984184 -1.033214,-0.972993 z"
       sodipodi:nodetypes="cccccccccccccccccccccccccccccccccccccccc"
       inkscape:export-filename="/home/lars/src/t-shirts/svg/full-dec-orange.png"
       inkscape:export-xdpi="392.86325"
       inkscape:export-ydpi="392.86325" />
    <path
       id="rect69759-6"
       style="fill:#e35f03;fill-opacity:1;stroke:#e35f03;stroke-width:0;stroke-linecap:round;stroke-linejoin:round;stroke-opacity:1"
       d="m 80.86782,73.53232 c -0.07792,-0.0025 -0.143638,0.06364 -0.144285,0.122723 l 0.07664,6.217212 c 0.0078,0.652439 0.413945,1.032969 1.00976,1.036239 l 3.06545,-0.02253 c 0.56993,-0.0074 0.970579,-0.419598 0.954403,-1.051438 l -0.01127,-6.20815 c 0,-0.04541 -0.03992,-0.06597 -0.07413,-0.06621 h -0.792242 c -0.04383,-2.71e-4 -0.07991,0.02421 -0.08009,0.08013 l 0.05535,5.955038 c 3.21e-4,0.24296 -0.242461,0.46625 -0.530586,0.46492 l -1.42168,0.01902 c -0.303649,3.11e-4 -0.392763,-0.196654 -0.412384,-0.410655 l -0.0377,-6.032817 c -4.94e-4,-0.05404 -0.06032,-0.09625 -0.122441,-0.0986 z"
       sodipodi:nodetypes="ccccccccccccccccc"
       inkscape:label="Letter U"
       inkscape:export-filename="/home/lars/src/t-shirts/svg/full-dec-orange.png"
       inkscape:export-xdpi="392.86325"
       inkscape:export-ydpi="392.86325" />
    <path
       id="path2124-56-27-9-8-2"
       style="fill:#e35f03;fill-opacity:1;stroke:#e35f03;stroke-width:0;stroke-linecap:round;stroke-linejoin:round;stroke-opacity:1"
       inkscape:label="Letter O"
       d="m 76.572259,73.505506 c -0.500599,-0.01126 -0.852723,0.425971 -0.851755,1.008313 l 0.01878,5.308365 c -0.0049,0.563102 0.334718,1.001218 0.898077,1.00815 l 2.722456,-0.0099 c 0.47208,0.01052 0.869967,-0.574031 0.865214,-1.016327 l 0.0167,-5.252626 c 0.01235,-0.628846 -0.282492,-1.041862 -0.718607,-1.048794 l -0.658694,0.0035 c -0.06822,0.003 -0.123458,0.0422 -0.125761,0.128009 l 4.94e-4,0.583933 c 0.0015,0.07031 0.04259,0.111675 0.126913,0.113053 l 0.108077,-0.0035 c 0.220479,-9.89e-4 0.538724,0.174187 0.532622,0.451595 l -0.01092,4.74551 c 9.88e-4,0.202163 -0.233745,0.475307 -0.411346,0.481532 l -1.168315,-0.01339 c -0.255035,-9.88e-4 -0.414558,-0.199045 -0.414197,-0.440903 l -0.0292,-4.851952 c -9.88e-4,-0.202197 0.123221,-0.360989 0.352643,-0.36719 l 0.647547,0.0015 c 0.06076,-9.89e-4 0.102159,-0.03548 0.09845,-0.110697 l -0.004,-0.596576 c -4.89e-4,-0.05585 -0.05222,-0.126502 -0.117169,-0.130831 z"
       sodipodi:nodetypes="ccccccccccccccccccccccccc"
       inkscape:export-filename="/home/lars/src/t-shirts/svg/full-dec-orange.png"
       inkscape:export-xdpi="392.86325"
       inkscape:export-ydpi="392.86325" />
    <path
       id="path2124-56-6-6-6-5-8-1"
       style="fill:#e35f03;fill-opacity:1;stroke:#e35f03;stroke-width:0;stroke-linecap:round;stroke-linejoin:round;stroke-opacity:1"
       inkscape:label="Letter Y"
       d="m 73.942381,73.50143 c -0.269448,-0.0025 -0.599274,0.214604 -0.600865,0.510273 l 0.03207,3.162692 c 0.0015,0.141869 -0.161222,0.261103 -0.325389,0.27178 h -0.0025 L 72.30987,77.44577 c -0.287769,-0.0061 -0.412863,-0.115202 -0.412304,-0.348814 l -0.02283,-3.489939 c -3.17e-4,-0.05328 -0.05224,-0.09445 -0.106616,-0.09672 l -1.344088,-0.0061 c -0.06816,-0.0025 -0.125771,0.06308 -0.126334,0.121398 l -0.01724,4.270135 c -0.004,0.437429 0.216744,0.682385 0.675434,0.678517 l 2.288169,0.02218 c 0.35085,0.0049 0.687089,-0.208936 0.677894,-0.574979 l -0.03572,-3.80177 c 6.4e-5,-0.0589 0.02293,-0.08694 0.06718,-0.08694 0.04422,4.5e-5 0.06841,0.01932 0.06841,0.07823 l 0.07519,4.521573 0.0015,0.62428 c 3.16e-4,0.250638 -0.166652,0.521954 -0.509656,0.523209 l -3.122122,-4.01e-4 c -0.06499,4.1e-4 -0.138301,0.06762 -0.136814,0.14175 l 0.008,0.663714 c -0.0035,0.09338 0.06649,0.125089 0.130031,0.12757 l 3.466835,0.03226 c 0.857131,0.01734 1.192219,-0.441758 1.190633,-1.07169 l -0.01888,-5.773079 c -0.01191,-0.285975 -0.289231,-0.499383 -0.549711,-0.497333 z"
       sodipodi:nodetypes="ccccccccccccccccsccccccccccccc"
       inkscape:export-filename="/home/lars/src/t-shirts/svg/full-dec-orange.png"
       inkscape:export-xdpi="392.86325"
       inkscape:export-ydpi="392.86325" />
    <path
       id="path2124-56-2-6"
       style="fill:#e35f03;fill-opacity:1;stroke:#e35f03;stroke-width:0;stroke-linecap:round;stroke-linejoin:round;stroke-opacity:1"
       inkscape:label="Letter F"
       d="m 66.671997,73.735768 -3.212442,0.01971 c -0.622487,-0.01117 -0.980012,0.431461 -0.978816,1.012725 l 0.02095,0.974755 c 0.0061,0.420526 0.328379,0.755604 0.895675,0.751261 l 2.40351,-0.0052 c 0.06748,-5e-6 0.122194,0.03498 0.122214,0.07814 -2e-5,0.04313 -0.05474,0.07815 -0.122214,0.07815 l -2.423357,0.01082 c -0.560459,0.002 -0.903437,0.384577 -0.899109,0.848781 l 0.0085,3.458747 c 0.0015,0.08376 0.0458,0.111897 0.133736,0.110918 l 1.508611,-0.01042 c 0.05866,-0.002 0.114965,-0.04645 0.115494,-0.102993 l -0.02298,-2.643738 c -4.95e-4,-0.24794 0.144744,-0.421954 0.454945,-0.428689 l 1.715076,-0.02125 c 0.338621,-9.88e-4 0.554451,-0.268425 0.551842,-0.527932 l 0.003,-0.893481 c 0.0025,-0.263307 -0.204944,-0.494285 -0.54356,-0.495579 l -1.747692,-0.002 c -0.343325,-9.88e-4 -0.435591,-0.161232 -0.435082,-0.377896 l -0.01146,-0.60712 c -0.002,-0.201822 0.101837,-0.370297 0.387121,-0.376493 l 2.083279,0.0074 c 0.0577,-9.88e-4 0.112109,-0.04304 0.113621,-0.09893 l -0.01,-0.657805 c -4.89e-4,-0.05574 -0.05458,-0.09901 -0.110963,-0.101427 z"
       sodipodi:nodetypes="ccccccccccccccccccccccccccccc"
       inkscape:export-filename="/home/lars/src/t-shirts/svg/full-dec-orange.png"
       inkscape:export-xdpi="392.86325"
       inkscape:export-ydpi="392.86325" />
    <path
       id="path2124-5-3"
       style="fill:#e35f03;fill-opacity:1;stroke:#e35f03;stroke-width:0;stroke-linecap:round;stroke-linejoin:round;stroke-opacity:1"
       inkscape:label="Letter I"
       d="m 60.230615,73.786051 c -0.08032,9.89e-4 -0.145164,0.06462 -0.145401,0.143504 l 0.05126,7.040489 c 9.88e-4,0.07885 0.0661,0.142165 0.145613,0.141819 l 1.505829,0.0025 c 0.06244,-2.12e-4 0.113844,-0.04763 0.11379,-0.104095 l -0.06018,-7.109587 c -9.88e-4,-0.0756 -0.06876,-0.121818 -0.134022,-0.123696 z"
       sodipodi:nodetypes="ccccccccc"
       inkscape:export-filename="/home/lars/src/t-shirts/svg/full-dec-orange.png"
       inkscape:export-xdpi="392.86325"
       inkscape:export-ydpi="392.86325" />
    <path
       style="fill:none;stroke:#e35f03;stroke-width:0.865;stroke-linecap:butt;stroke-linejoin:miter;stroke-miterlimit:4;stroke-dasharray:none;stroke-opacity:1"
       d="m 158.61374,53.486545 c 6.3269,-0.05398 11.88445,6.443183 11.92105,12.637734 l 0.0754,55.541741 c 0.12135,6.68376 -6.30253,10.92253 -12.68842,10.97831 L 44.00029,132.59051 C 37.472679,132.54431 33.782992,128.15 33.674692,122.26924 l -0.04411,-57.004493 c 0.01734,-5.138189 4.569961,-11.839657 11.40944,-11.842505 z"
       id="path9603"
       sodipodi:nodetypes="ccccccccc"
       inkscape:export-filename="/home/lars/src/t-shirts/svg/full-dec-orange.png"
       inkscape:export-xdpi="392.86325"
       inkscape:export-ydpi="392.86325" />
    <path
       style="opacity:1;fill:none;stroke:#e35f03;stroke-width:2.265;stroke-linecap:butt;stroke-linejoin:miter;stroke-miterlimit:4;stroke-dasharray:none;stroke-opacity:1"
       d="m 171.32582,45.457617 c 4.16048,2.02e-4 7.70153,3.647852 7.54672,7.805444 l -3.37644,90.677129 c -1.02915,16.22556 -6.86775,28.36224 -17.55694,28.33272 L 46.98711,172.4929 c -11.914093,-0.06 -15.859924,-12.17144 -17.080041,-25.46898 l -5.48391,-94.220885 c -0.230047,-3.952509 3.744789,-7.352387 7.703987,-7.352194 z"
       id="path16101"
       sodipodi:nodetypes="ssccccsss"
       inkscape:export-filename="/home/lars/src/t-shirts/svg/full-dec-orange.png"
       inkscape:export-xdpi="392.86325"
       inkscape:export-ydpi="392.86325" />
    <path
       style="fill:none;stroke:#e35f03;stroke-width:0.865;stroke-linecap:butt;stroke-linejoin:miter;stroke-miterlimit:4;stroke-dasharray:none;stroke-opacity:1"
       d="M 28.695038,139.10764 175.75869,138.65456"
       id="path19905"
       sodipodi:nodetypes="cc"
       inkscape:export-filename="/home/lars/src/t-shirts/svg/full-dec-orange.png"
       inkscape:export-xdpi="392.86325"
       inkscape:export-ydpi="392.86325" />
    <path
       style="fill:none;stroke:#e35f03;stroke-width:0.652593;stroke-linecap:butt;stroke-linejoin:miter;stroke-miterlimit:4;stroke-dasharray:none;stroke-opacity:1"
       d="m 42.281031,146.55231 1.137583,-4.43426 9.06792,0.003 1.06234,4.42724 z"
       id="path21105"
       sodipodi:nodetypes="ccccc"
       inkscape:export-filename="/home/lars/src/t-shirts/svg/full-dec-orange.png"
       inkscape:export-xdpi="392.86325"
       inkscape:export-ydpi="392.86325" />
    <path
       style="fill:none;stroke:#e35f03;stroke-width:0.652593;stroke-linecap:butt;stroke-linejoin:miter;stroke-miterlimit:4;stroke-dasharray:none;stroke-opacity:1"
       d="m 56.108408,146.50786 1.137583,-4.43426 9.06792,0.003 1.06234,4.42724 z"
       id="path21105-2"
       sodipodi:nodetypes="ccccc"
       inkscape:export-filename="/home/lars/src/t-shirts/svg/full-dec-orange.png"
       inkscape:export-xdpi="392.86325"
       inkscape:export-ydpi="392.86325" />
    <path
       style="fill:none;stroke:#e35f03;stroke-width:0.652593;stroke-linecap:butt;stroke-linejoin:miter;stroke-miterlimit:4;stroke-dasharray:none;stroke-opacity:1"
       d="m 69.176904,146.44851 1.137583,-4.43426 9.06792,0.003 1.06234,4.42724 z"
       id="path21105-3"
       sodipodi:nodetypes="ccccc"
       inkscape:export-filename="/home/lars/src/t-shirts/svg/full-dec-orange.png"
       inkscape:export-xdpi="392.86325"
       inkscape:export-ydpi="392.86325" />
    <path
       style="fill:none;stroke:#e35f03;stroke-width:0.652593;stroke-linecap:butt;stroke-linejoin:miter;stroke-miterlimit:4;stroke-dasharray:none;stroke-opacity:1"
       d="m 82.518846,146.38591 1.137583,-4.43426 9.06792,0.003 1.06234,4.42724 z"
       id="path21105-7"
       sodipodi:nodetypes="ccccc"
       inkscape:export-filename="/home/lars/src/t-shirts/svg/full-dec-orange.png"
       inkscape:export-xdpi="392.86325"
       inkscape:export-ydpi="392.86325" />
    <path
       style="fill:none;stroke:#e35f03;stroke-width:0.652593;stroke-linecap:butt;stroke-linejoin:miter;stroke-miterlimit:4;stroke-dasharray:none;stroke-opacity:1"
       d="m 95.757947,146.42115 1.137583,-4.43426 9.06792,0.003 1.06234,4.42724 z"
       id="path21105-5"
       sodipodi:nodetypes="ccccc"
       inkscape:export-filename="/home/lars/src/t-shirts/svg/full-dec-orange.png"
       inkscape:export-xdpi="392.86325"
       inkscape:export-ydpi="392.86325" />
    <path
       style="fill:none;stroke:#e35f03;stroke-width:0.652593;stroke-linecap:butt;stroke-linejoin:miter;stroke-miterlimit:4;stroke-dasharray:none;stroke-opacity:1"
       d="m 109.09045,146.4312 1.13758,-4.43426 9.06792,0.003 1.06234,4.42724 z"
       id="path21105-9"
       sodipodi:nodetypes="ccccc"
       inkscape:export-filename="/home/lars/src/t-shirts/svg/full-dec-orange.png"
       inkscape:export-xdpi="392.86325"
       inkscape:export-ydpi="392.86325" />
    <path
       style="fill:none;stroke:#e35f03;stroke-width:0.652593;stroke-linecap:butt;stroke-linejoin:miter;stroke-miterlimit:4;stroke-dasharray:none;stroke-opacity:1"
       d="m 122.34434,146.44156 1.13758,-4.43426 9.06792,0.003 1.06234,4.42724 z"
       id="path21105-22"
       sodipodi:nodetypes="ccccc"
       inkscape:export-filename="/home/lars/src/t-shirts/svg/full-dec-orange.png"
       inkscape:export-xdpi="392.86325"
       inkscape:export-ydpi="392.86325" />
    <path
       style="fill:none;stroke:#e35f03;stroke-width:0.652593;stroke-linecap:butt;stroke-linejoin:miter;stroke-miterlimit:4;stroke-dasharray:none;stroke-opacity:1"
       d="m 135.46782,146.4568 1.13758,-4.43426 9.06792,0.003 1.06234,4.42724 z"
       id="path21105-8"
       sodipodi:nodetypes="ccccc"
       inkscape:export-filename="/home/lars/src/t-shirts/svg/full-dec-orange.png"
       inkscape:export-xdpi="392.86325"
       inkscape:export-ydpi="392.86325" />
    <path
       style="fill:none;stroke:#e35f03;stroke-width:0.652593;stroke-linecap:butt;stroke-linejoin:miter;stroke-miterlimit:4;stroke-dasharray:none;stroke-opacity:1"
       d="m 149.10025,146.44283 1.13758,-4.43426 9.06792,0.003 1.06234,4.42724 z"
       id="path21105-97"
       sodipodi:nodetypes="ccccc"
       inkscape:export-filename="/home/lars/src/t-shirts/svg/full-dec-orange.png"
       inkscape:export-xdpi="392.86325"
       inkscape:export-ydpi="392.86325" />
    <path
       style="fill:none;stroke:#e35f03;stroke-width:0.652593;stroke-linecap:butt;stroke-linejoin:miter;stroke-miterlimit:4;stroke-dasharray:none;stroke-opacity:1"
       d="m 48.745135,153.27825 1.137583,-4.43426 9.06792,0.003 1.06234,4.42724 z"
       id="path21105-74"
       sodipodi:nodetypes="ccccc"
       inkscape:export-filename="/home/lars/src/t-shirts/svg/full-dec-orange.png"
       inkscape:export-xdpi="392.86325"
       inkscape:export-ydpi="392.86325" />
    <path
       style="fill:none;stroke:#e35f03;stroke-width:0.652593;stroke-linecap:butt;stroke-linejoin:miter;stroke-miterlimit:4;stroke-dasharray:none;stroke-opacity:1"
       d="m 62.572512,153.2338 1.137583,-4.43426 9.06792,0.003 1.06234,4.42724 z"
       id="path21105-2-5"
       sodipodi:nodetypes="ccccc"
       inkscape:export-filename="/home/lars/src/t-shirts/svg/full-dec-orange.png"
       inkscape:export-xdpi="392.86325"
       inkscape:export-ydpi="392.86325" />
    <path
       style="fill:none;stroke:#e35f03;stroke-width:0.652593;stroke-linecap:butt;stroke-linejoin:miter;stroke-miterlimit:4;stroke-dasharray:none;stroke-opacity:1"
       d="m 75.641008,153.17445 1.137583,-4.43426 9.06792,0.003 1.06234,4.42724 z"
       id="path21105-3-2"
       sodipodi:nodetypes="ccccc"
       inkscape:export-filename="/home/lars/src/t-shirts/svg/full-dec-orange.png"
       inkscape:export-xdpi="392.86325"
       inkscape:export-ydpi="392.86325" />
    <path
       style="fill:none;stroke:#e35f03;stroke-width:0.652593;stroke-linecap:butt;stroke-linejoin:miter;stroke-miterlimit:4;stroke-dasharray:none;stroke-opacity:1"
       d="m 88.98295,153.11185 1.137583,-4.43426 9.06792,0.003 1.062327,4.42724 z"
       id="path21105-7-5"
       sodipodi:nodetypes="ccccc"
       inkscape:export-filename="/home/lars/src/t-shirts/svg/full-dec-orange.png"
       inkscape:export-xdpi="392.86325"
       inkscape:export-ydpi="392.86325" />
    <path
       style="fill:none;stroke:#e35f03;stroke-width:0.652593;stroke-linecap:butt;stroke-linejoin:miter;stroke-miterlimit:4;stroke-dasharray:none;stroke-opacity:1"
       d="m 102.22204,153.14709 1.13759,-4.43426 9.06791,0.003 1.06234,4.42724 z"
       id="path21105-5-4"
       sodipodi:nodetypes="ccccc"
       inkscape:export-filename="/home/lars/src/t-shirts/svg/full-dec-orange.png"
       inkscape:export-xdpi="392.86325"
       inkscape:export-ydpi="392.86325" />
    <path
       style="fill:none;stroke:#e35f03;stroke-width:0.652593;stroke-linecap:butt;stroke-linejoin:miter;stroke-miterlimit:4;stroke-dasharray:none;stroke-opacity:1"
       d="m 115.55454,153.15714 1.13758,-4.43426 9.06792,0.003 1.06234,4.42724 z"
       id="path21105-9-7"
       sodipodi:nodetypes="ccccc"
       inkscape:export-filename="/home/lars/src/t-shirts/svg/full-dec-orange.png"
       inkscape:export-xdpi="392.86325"
       inkscape:export-ydpi="392.86325" />
    <path
       style="fill:none;stroke:#e35f03;stroke-width:0.652593;stroke-linecap:butt;stroke-linejoin:miter;stroke-miterlimit:4;stroke-dasharray:none;stroke-opacity:1"
       d="m 128.80843,153.1675 1.13758,-4.43426 9.06792,0.003 1.06234,4.42724 z"
       id="path21105-22-4"
       sodipodi:nodetypes="ccccc"
       inkscape:export-filename="/home/lars/src/t-shirts/svg/full-dec-orange.png"
       inkscape:export-xdpi="392.86325"
       inkscape:export-ydpi="392.86325" />
    <path
       style="fill:none;stroke:#e35f03;stroke-width:0.652593;stroke-linecap:butt;stroke-linejoin:miter;stroke-miterlimit:4;stroke-dasharray:none;stroke-opacity:1"
       d="m 141.93191,153.18274 1.13758,-4.43426 9.06792,0.003 1.06234,4.42724 z"
       id="path21105-8-4"
       sodipodi:nodetypes="ccccc"
       inkscape:export-filename="/home/lars/src/t-shirts/svg/full-dec-orange.png"
       inkscape:export-xdpi="392.86325"
       inkscape:export-ydpi="392.86325" />
    <path
       style="fill:none;stroke:#e35f03;stroke-width:0.652593;stroke-linecap:butt;stroke-linejoin:miter;stroke-miterlimit:4;stroke-dasharray:none;stroke-opacity:1"
       d="m 42.013008,159.76674 1.137583,-4.43426 9.06792,0.003 1.06234,4.42724 z"
       id="path21105-0"
       sodipodi:nodetypes="ccccc"
       inkscape:export-filename="/home/lars/src/t-shirts/svg/full-dec-orange.png"
       inkscape:export-xdpi="392.86325"
       inkscape:export-ydpi="392.86325" />
    <path
       style="fill:none;stroke:#e35f03;stroke-width:0.652593;stroke-linecap:butt;stroke-linejoin:miter;stroke-miterlimit:4;stroke-dasharray:none;stroke-opacity:1"
       d="m 55.840385,159.72229 1.137583,-4.43426 9.06792,0.003 1.06234,4.42724 z"
       id="path21105-2-7"
       sodipodi:nodetypes="ccccc"
       inkscape:export-filename="/home/lars/src/t-shirts/svg/full-dec-orange.png"
       inkscape:export-xdpi="392.86325"
       inkscape:export-ydpi="392.86325" />
    <path
       style="fill:none;stroke:#e35f03;stroke-width:0.652593;stroke-linecap:butt;stroke-linejoin:miter;stroke-miterlimit:4;stroke-dasharray:none;stroke-opacity:1"
       d="m 68.908881,159.66294 1.137583,-4.43426 9.06792,0.003 1.06234,4.42724 z"
       id="path21105-3-8"
       sodipodi:nodetypes="ccccc"
       inkscape:export-filename="/home/lars/src/t-shirts/svg/full-dec-orange.png"
       inkscape:export-xdpi="392.86325"
       inkscape:export-ydpi="392.86325" />
    <path
       style="fill:none;stroke:#e35f03;stroke-width:0.652593;stroke-linecap:butt;stroke-linejoin:miter;stroke-miterlimit:4;stroke-dasharray:none;stroke-opacity:1"
       d="m 82.250823,159.60034 1.137583,-4.43426 9.06792,0.003 1.06234,4.42724 z"
       id="path21105-7-6"
       sodipodi:nodetypes="ccccc"
       inkscape:export-filename="/home/lars/src/t-shirts/svg/full-dec-orange.png"
       inkscape:export-xdpi="392.86325"
       inkscape:export-ydpi="392.86325" />
    <path
       style="fill:none;stroke:#e35f03;stroke-width:0.652593;stroke-linecap:butt;stroke-linejoin:miter;stroke-miterlimit:4;stroke-dasharray:none;stroke-opacity:1"
       d="m 95.489924,159.63558 1.137583,-4.43426 9.067923,0.003 1.06234,4.42724 z"
       id="path21105-5-8"
       sodipodi:nodetypes="ccccc"
       inkscape:export-filename="/home/lars/src/t-shirts/svg/full-dec-orange.png"
       inkscape:export-xdpi="392.86325"
       inkscape:export-ydpi="392.86325" />
    <path
       style="fill:none;stroke:#e35f03;stroke-width:0.652593;stroke-linecap:butt;stroke-linejoin:miter;stroke-miterlimit:4;stroke-dasharray:none;stroke-opacity:1"
       d="m 108.82243,159.64563 1.13758,-4.43426 9.06792,0.003 1.06234,4.42724 z"
       id="path21105-9-8"
       sodipodi:nodetypes="ccccc"
       inkscape:export-filename="/home/lars/src/t-shirts/svg/full-dec-orange.png"
       inkscape:export-xdpi="392.86325"
       inkscape:export-ydpi="392.86325" />
    <path
       style="fill:none;stroke:#e35f03;stroke-width:0.652593;stroke-linecap:butt;stroke-linejoin:miter;stroke-miterlimit:4;stroke-dasharray:none;stroke-opacity:1"
       d="m 122.07632,159.65599 1.13758,-4.43426 9.06792,0.003 1.06234,4.42724 z"
       id="path21105-22-43"
       sodipodi:nodetypes="ccccc"
       inkscape:export-filename="/home/lars/src/t-shirts/svg/full-dec-orange.png"
       inkscape:export-xdpi="392.86325"
       inkscape:export-ydpi="392.86325" />
    <path
       style="fill:none;stroke:#e35f03;stroke-width:0.652593;stroke-linecap:butt;stroke-linejoin:miter;stroke-miterlimit:4;stroke-dasharray:none;stroke-opacity:1"
       d="m 135.1998,159.67123 1.13758,-4.43426 9.06792,0.003 1.06234,4.42724 z"
       id="path21105-8-1"
       sodipodi:nodetypes="ccccc"
       inkscape:export-filename="/home/lars/src/t-shirts/svg/full-dec-orange.png"
       inkscape:export-xdpi="392.86325"
       inkscape:export-ydpi="392.86325" />
    <path
       style="fill:none;stroke:#e35f03;stroke-width:0.652593;stroke-linecap:butt;stroke-linejoin:miter;stroke-miterlimit:4;stroke-dasharray:none;stroke-opacity:1"
       d="m 148.83223,159.65726 1.13758,-4.43426 9.06792,0.003 1.06234,4.42724 z"
       id="path21105-97-4"
       sodipodi:nodetypes="ccccc"
       inkscape:export-filename="/home/lars/src/t-shirts/svg/full-dec-orange.png"
       inkscape:export-xdpi="392.86325"
       inkscape:export-ydpi="392.86325" />
    <path
       style="fill:none;stroke:#e35f03;stroke-width:0.652593;stroke-linecap:butt;stroke-linejoin:miter;stroke-miterlimit:4;stroke-dasharray:none;stroke-opacity:1"
       d="m 54.548199,166.79803 1.137583,-4.43426 91.164338,-0.0419 1.06235,4.42724 z"
       id="path21105-93"
       sodipodi:nodetypes="ccccc"
       inkscape:export-filename="/home/lars/src/t-shirts/svg/full-dec-orange.png"
       inkscape:export-xdpi="392.86325"
       inkscape:export-ydpi="392.86325" />
  </g>
</svg>
