<?xml version="1.0" encoding="UTF-8" standalone="no"?>
<!-- Created with Inkscape (http://www.inkscape.org/) -->

<svg
   width="197.2475mm"
   height="213.66974mm"
   viewBox="0 0 197.2475 213.66974"
   version="1.1"
   id="svg16172"
   inkscape:version="1.1.2 (0a00cf5339, 2022-02-04)"
   sodipodi:docname="gti+squiral.svg"
   xmlns:inkscape="http://www.inkscape.org/namespaces/inkscape"
   xmlns:sodipodi="http://sodipodi.sourceforge.net/DTD/sodipodi-0.dtd"
   xmlns="http://www.w3.org/2000/svg"
   xmlns:svg="http://www.w3.org/2000/svg">
  <sodipodi:namedview
     id="namedview16174"
     pagecolor="#ffffff"
     bordercolor="#666666"
     borderopacity="1.0"
     inkscape:pageshadow="2"
     inkscape:pageopacity="0.0"
     inkscape:pagecheckerboard="0"
     inkscape:document-units="mm"
     showgrid="false"
     inkscape:zoom="0.64052329"
     inkscape:cx="145.9744"
     inkscape:cy="530.81598"
     inkscape:window-width="1920"
     inkscape:window-height="1043"
     inkscape:window-x="0"
     inkscape:window-y="120"
     inkscape:window-maximized="1"
     inkscape:current-layer="layer1"
     fit-margin-top="0"
     fit-margin-left="0"
     fit-margin-right="0"
     fit-margin-bottom="0" />
  <defs
     id="defs16169" />
  <g
     inkscape:label="Layer 1"
     inkscape:groupmode="layer"
     id="layer1"
     transform="translate(-7.2028902,-7.6672274)">
    <path
       style="fill:none;stroke:#000000;stroke-width:3.90739;stroke-linecap:round;stroke-linejoin:round;stroke-miterlimit:4;stroke-dasharray:none;stroke-opacity:1"
       d="m 101.31382,105.93944 3.25466,0.60535 1.25485,-4.1044 -8.727665,-3.463713 -4.555553,7.959123 8.304048,9.75373 12.72411,-7.0262 -4.02811,-16.930165 -19.909742,0.547081 -5.150966,20.332524 21.757558,12.38073 17.71354,-20.06827 L 108.20199,81.156768 78.311329,91.833597 80.870004,125.9405 117.63767,131.88434 132.43534,95.690923 99.714317,70.837562 64.872637,99.25855 84.676156,140.59886 132.65791,130.58179 136.33897,79.386565 83.682122,65.235509 54.90171,113.22494 97.569418,153.68186 149.19016,121.79923 129.80532,61.562428 64.617909,65.253994 51.77829,133.30187 116.29955,161.32533 161.00293,104.05995 116.82484,44.997813 44.237962,76.776423 56.992648,155.05278 139.99362,159.3474 166.37567,82.705612 93.543058,36.368951 28.333175,95.214224 74.019446,174.39961 164.57872,149.9864 162.4993,55.363228 65.541196,32.722894 19.531094,123.58704 98.970064,189.00092 184.90265,128.57085 145.67223,29.27227 35.869456,43.198283 23.119207,154.23648 131.05422,193.98814 196.4223,98.461754 119.11513,9.6208757 9.1565548,64.289523 37.696027,185.03088 l 127.163333,0.70449 33.21711,-123.02046 4.08324,1.389582 -0.0579,-19.003009 -9.19442,15.190588 5.15304,2.412993"
       id="path1012"
       sodipodi:nodetypes="ccccccccccccccccccccccccccccccccccccccccccccccccccccccccccc" />
    <path
       id="path129346-2"
       style="fill:#000000;fill-opacity:1;stroke:#000000;stroke-width:0;stroke-linecap:butt;stroke-linejoin:miter;stroke-miterlimit:4;stroke-dasharray:none;stroke-opacity:1"
       d="m 16.401249,203.73493 c -4.677596,0.0154 -8.580962,2.47993 -8.577935,8.32788 0.0034,5.84793 3.737755,8.28404 8.376867,8.28839 1.98968,0.002 5.13852,-0.71401 5.724228,-0.97902 0,0 -0.04025,-1.00097 -0.04313,-1.80888 -0.0047,-1.31664 0.068,-3.94971 0.068,-3.94971 0,0 -0.693338,0.0552 -1.040437,0.049 -0.341749,-0.006 -1.022158,-0.0848 -1.022158,-0.0848 0,0 0.06733,2.21614 0.08189,3.32457 0.0076,0.58064 0.0029,1.74234 0.0029,1.74235 -0.795605,0.41537 -1.790636,0.72775 -3.448869,0.73262 -3.147831,0.009 -6.469121,-1.69217 -6.5614032,-7.28306 -0.08829,-5.34747 3.1305502,-7.53302 6.3347442,-7.49802 2.867625,0.0314 4.336364,1.69378 4.85927,2.2739 l 0.238357,-0.001 c 0,0 0.142823,-0.69975 0.22666,-0.99583 0.0859,-0.30336 0.287344,-0.76333 0.287344,-0.76333 -0.76413,-0.5591 -2.575498,-1.38421 -5.506338,-1.37461 z m 79.463611,0.4482 c 0,0 0.104309,0.32755 0.103056,0.56884 -0.0011,0.24129 -0.08916,0.71653 -0.08916,0.71653 0,0 2.104744,-0.14672 4.928004,-0.19449 0.0114,0.82432 0.0825,2.59564 0.10021,6.35303 0.0251,5.31007 -0.17621,8.45875 -0.17621,8.45875 0,0 0.73155,-0.11112 1.10259,-0.10966 0.37105,10e-4 1.13768,0.1104 1.13768,0.1104 0,0 -0.24181,-4.26339 -0.2208,-8.43024 0.0167,-3.31137 0.0225,-5.56637 0.022,-6.43199 2.91778,0.0392 4.88853,0.25444 4.88853,0.25444 0,0 -0.11577,-0.47855 -0.11406,-0.72019 0.001,-0.24165 0.14842,-0.514 0.14842,-0.514 0,0 -2.70564,0.25958 -5.64454,0.26395 -2.938908,0.004 -6.185594,-0.32537 -6.185594,-0.32537 z m 31.93621,0.15646 c -0.0451,7e-4 -0.0885,0.002 -0.13088,0.004 -0.96074,0.038 -2.2848,0.12337 -2.80837,0.11918 -0.6869,-0.006 -1.09312,-0.0862 -1.99606,-0.1221 0,0 0.14063,1.98999 0.16305,7.30425 0.0226,5.31426 -0.15939,8.47046 -0.15939,8.47046 0,0 0.74131,-0.0965 1.0046,-0.0965 0.2633,-5e-5 1.00607,0.0907 1.00607,0.0907 0,0 -0.0988,-3.73427 -0.10749,-7.60623 l 0.6171,0.007 c 2.15237,2.65676 3.92741,4.8333 5.63357,7.60477 0,0 0.83554,-0.117 1.16838,-0.11553 0.33286,0.002 1.25321,0.0841 1.25321,0.0841 -2.13666,-2.83385 -4.08616,-4.98126 -6.01669,-7.72979 2.24517,-0.26885 4.39205,-1.99677 4.38475,-4.38914 -0.008,-2.91074 -2.44483,-3.60811 -3.87222,-3.62434 -0.0475,-5.6e-4 -0.0945,-6.9e-4 -0.13964,0 z m 16.91092,0.004 c 0,0 0.12056,1.88195 0.15575,7.14852 0.0351,5.26657 -0.16233,8.33812 -0.16233,8.33812 0,0 2.78121,-0.0652 4.16103,-0.0585 1.37979,0.007 1.2857,0.0259 3.51832,0.057 0,0 -0.0771,-0.25971 -0.0776,-0.48476 -3.5e-4,-0.22504 0.038,-0.46647 0.038,-0.46647 -1.30896,0.13701 -5.72276,0.0475 -5.72276,0.0475 0,0 -0.15667,-2.96613 -0.0695,-7.4812 0.0893,-4.62501 0.19669,-7.09807 0.19669,-7.09807 0,0 -0.65495,0.11313 -0.99291,0.11114 -0.33797,-0.002 -1.04483,-0.11333 -1.04483,-0.11333 z m -24.27441,0.0292 c 0,0 0.2027,5.64944 0.13088,7.28306 -0.13639,3.10297 0.0454,7.72592 -4.94262,7.68519 -4.98788,-0.0407 -5.10939,-3.91774 -5.09178,-7.44537 0.0207,-4.15736 0.30709,-7.51849 0.30709,-7.51849 0,0 -0.62793,0.11462 -0.9951,0.1126 -0.3672,-0.002 -1.12672,-0.11479 -1.12672,-0.11479 0,0 0.12429,4.53763 0.0885,6.96135 -0.0502,3.40009 -0.44727,6.3531 2.23954,8.1195 2.35083,1.5455 7.41262,1.2797 9.07292,-0.99584 1.27117,-1.74224 1.42272,-2.2966 1.55955,-6.56652 0.22663,-7.07158 0.34583,-7.51849 0.34583,-7.51849 0,0 -0.32665,0.1117 -0.69386,0.10966 -0.36718,-0.002 -0.89421,-0.11186 -0.89421,-0.11186 z m 32.78873,0.019 c 0,0 0.13611,1.96423 0.16014,7.1924 0.024,5.22816 -0.16891,8.34176 -0.16891,8.34176 0,0 3.76041,-0.1133 4.11716,-0.11186 0.35675,0.002 3.71134,0.13893 3.71134,0.13893 0,0 -0.0739,-0.43885 -0.0724,-0.66097 0.001,-0.22212 0.10017,-0.49865 0.10017,-0.49865 -2.35797,0.33795 -5.86605,0.14916 -5.86605,0.14916 0,0 0.0146,-5.0273 0.004,-6.87873 2.44323,-0.0175 4.50969,0.10426 5.06838,0.1009 0,0 -0.0887,-0.34003 -0.0892,-0.53594 -3.9e-4,-0.1959 0.0863,-0.61198 0.0863,-0.61198 -1.05747,0.0965 -2.43782,0.14066 -5.06399,0.12942 -0.0114,-2.54957 0.0189,-5.89605 0.0189,-5.89605 2.9123,-0.0196 4.69331,0.0486 5.40032,0.087 0,0 -0.0752,-0.27074 -0.0775,-0.42261 -0.002,-0.15186 0.12437,-0.50888 0.12437,-0.50888 0,0 -2.51442,0.0857 -3.47445,0.0987 -0.99692,0.0112 -3.97823,-0.1126 -3.97823,-0.1126 z m -21.04123,0.0285 c 0,0 0.0882,0.47884 0.0871,0.71727 -0.001,0.23842 -0.0263,0.57688 -0.0263,0.57688 0,0 2.15004,-0.15387 4.84832,-0.20107 0.0114,0.81453 0.0591,2.50424 0.076,6.21703 0.0239,5.24704 -0.1689,8.35859 -0.1689,8.35859 0,0 0.45916,-0.13014 0.81379,-0.12868 0.35461,0.002 1.08721,0.10967 1.08721,0.10967 0,0 -0.18313,-4.20684 -0.16304,-8.32422 0.016,-3.27206 3.6e-4,-5.41653 0,-6.27187 2.78861,0.0387 4.68745,0.24494 4.68745,0.24494 0,0 -0.0901,-0.33519 -0.0885,-0.57396 0.001,-0.23878 0.1163,-0.71654 0.1163,-0.71654 0,0 -2.70192,0.17483 -5.51072,0.17914 -2.80882,0.005 -5.7586,-0.18718 -5.7586,-0.18718 z m -58.105778,0.0329 -0.405794,7.3e-4 c -3.210708,6.47723 -4.849897,9.74035 -7.808755,15.64092 0,0 0.548092,-0.10088 0.82255,-0.0994 0.274479,0.001 0.800616,0.10016 0.800616,0.10017 0.775864,-2.21942 1.638462,-4.41062 2.489589,-6.22361 0.406666,-0.0104 2.196615,-0.0376 3.009445,-0.0351 0.812854,0.002 2.467824,0.0323 2.61681,0.0358 0,0 0.75803,2.33045 0.973169,3.04673 0.215141,0.71629 0.849182,2.37022 0.943193,3.17542 0,0 0.870961,-0.0928 1.267826,-0.0914 0.396874,0.001 1.106242,0.0943 1.106242,0.0943 -2.276741,-5.67933 -3.431322,-9.08429 -5.814891,-15.64462 z m -42.586972,0.0132 c 0,0 0.07459,2.51471 0.08628,6.28503 0.01558,5.0234 -0.340719,9.47872 -0.340719,9.47872 0,0 0.588653,-0.0929 0.858377,-0.0914 0.269719,0.002 0.746513,0.0899 0.746513,0.0899 0,0 -0.355309,-4.20274 -0.376547,-8.26646 -0.0076,-1.5438 0.08701,-3.86709 0.08701,-3.86709 3.509252,3.68494 8.389103,8.79387 11.485744,12.37117 l 0.281496,-0.001 c 0,0 -0.01751,-4.29627 -0.03875,-8.35712 -0.01501,-2.85197 0.209111,-7.30133 0.209111,-7.30133 0,0 -0.346603,0.0707 -0.595161,0.0687 -0.248555,-0.002 -0.757479,-0.10456 -0.757479,-0.10456 0,0 0.14341,2.9246 0.160123,8.06392 0.004,1.21991 0.04368,2.84888 0.0307,3.73402 -3.835542,-3.89823 -7.611356,-7.88797 -11.507674,-12.10008 z m -8.509206,0.0234 c 0,0 0.12741,1.97165 0.149887,7.22091 0.02246,5.24925 -0.157929,8.37614 -0.157929,8.37614 0,0 3.517937,-0.11404 3.851736,-0.1126 0.33379,0.001 3.563658,0.10235 3.563658,0.10235 0,0 -0.03348,-0.39189 -0.03217,-0.6149 0.0011,-0.22303 0.04607,-0.72093 0.04607,-0.72093 -2.206232,0.33931 -5.550211,0.28589 -5.550211,0.28589 0,0 -0.0027,-4.80706 -0.01316,-6.66596 2.286008,-0.0176 4.462294,0.17958 4.985027,0.17621 0,0 -0.04915,-0.47159 -0.04972,-0.66828 -3.19e-4,-0.1967 0.05192,-0.68583 0.05192,-0.68583 -0.989439,0.0969 -2.532992,0.2372 -4.990145,0.22593 -0.01127,-2.55986 0.06287,-5.8573 0.06287,-5.8573 2.724894,-0.0197 4.727834,0.24222 5.389359,0.28077 0,0 -0.03884,-0.57064 -0.04095,-0.72312 -0.0018,-0.15248 0.06361,-0.61929 0.06361,-0.61929 0,0 -2.674768,0.10213 -3.607527,0.11333 -0.932767,0.0113 -3.72232,-0.11333 -3.72232,-0.11333 z m 150.741906,0.0139 c 0,0 0.10421,2.55379 0.0496,6.3077 -0.0734,5.05858 -0.45842,9.48457 -0.45842,9.48457 0,0 0.57465,-0.0935 0.83789,-0.0921 0.26327,0.002 0.72897,0.0907 0.72897,0.0907 0,0 -0.14378,-4.19285 -0.16451,-8.28547 -0.008,-1.55478 0.0468,-3.87294 0.0468,-3.87294 3.42521,3.71115 8.18325,8.87809 11.20574,12.48085 l 0.27491,-0.002 c 0,0 -0.0311,-4.28495 -0.052,-8.37467 -0.0147,-2.87226 0.36118,-7.42564 0.36118,-7.42563 0,0 -0.48199,0.10213 -0.72456,0.10017 -0.24261,-0.002 -0.73921,-0.10528 -0.73921,-0.10528 0,0 0.14008,2.94507 0.15648,8.12096 0.004,1.22858 0.0427,2.86964 0.0299,3.76107 -3.74368,-3.92579 -7.42903,-7.94412 -11.23204,-12.18619 z m -114.519658,0.0402 c -0.900072,0.006 -1.874112,0.11895 -2.804717,0.11992 -0.705287,-0.006 -1.229042,-0.0801 -2.156181,-0.11553 0,0 0.144409,2.01342 0.167435,7.25162 0.02294,5.23818 -0.163779,8.34981 -0.163779,8.34981 0,0 0.872449,-0.0709 1.142798,-0.0709 0.270357,-4e-5 1.033123,0.0907 1.033123,0.0907 0,0 -0.02547,-3.62007 -0.03436,-7.43659 l 0.591507,0.019 c 2.210039,2.61872 3.769099,4.70992 5.520964,7.44171 0,0 0.858791,-0.11477 1.200559,-0.11333 0.341772,0.001 1.286841,0.0826 1.286836,0.0826 -2.193932,-2.79328 -4.2611,-5.0579 -6.243347,-7.76708 2.305333,-0.265 4.779032,-1.72518 4.79639,-4.19757 0.021,-2.98584 -3.313641,-3.62815 -3.956291,-3.6492 -0.125216,-0.004 -0.252351,-0.006 -0.380933,-0.005 z m -6.294529,0.007 c 0,0 -0.0037,0.0194 -0.0066,0.0336 0.0053,-1.9e-4 0.09359,-0.003 0.09359,-0.003 z m -0.0066,0.0336 c -0.162345,0.006 -2.659021,0.0996 -3.578284,0.11041 -0.949264,0.0112 -3.788123,-0.11333 -3.788122,-0.11333 0,0 0.129929,1.96719 0.15281,7.20336 0.02288,5.23615 -0.160854,8.35493 -0.160854,8.35493 0,0 3.580766,-0.11404 3.920464,-0.1126 0.339713,10e-4 3.613378,0.0468 3.613378,0.0468 0,0 -0.08909,-0.34126 -0.08774,-0.56372 0.0011,-0.22247 0.0329,-0.57835 0.0329,-0.57835 -2.245292,0.33845 -5.566299,0.14989 -5.566299,0.14989 0,0 0.02392,-4.89213 0.01316,-6.74639 2.326466,-0.0174 4.48229,0.17666 5.014275,0.17329 0,0 -0.01772,-0.37118 -0.01828,-0.56738 -3.66e-4,-0.1962 0.05337,-0.68363 0.05337,-0.68363 -1.006945,0.0966 -2.545797,0.12896 -5.046446,0.11771 -0.01145,-2.55346 -0.02266,-5.92383 -0.02266,-5.92383 2.773112,-0.0195 4.775339,0.26133 5.44858,0.29977 0,0 -0.03951,-0.56955 -0.04167,-0.72165 -0.0016,-0.12813 0.04582,-0.369 0.06143,-0.44527 z m 117.429687,0.0336 c 0,0 0.11502,1.97177 0.13526,7.26844 0.0202,5.29667 -0.13668,8.44486 -0.13668,8.44486 0,0 0.65376,-0.095 0.95342,-0.0936 0.29969,0.002 0.83791,0.0907 0.83791,0.0907 0,0 -0.15365,-4.24978 -0.13668,-8.40611 0.017,-4.15634 0.14184,-7.29622 0.14184,-7.29622 0,0 -0.58018,0.10147 -0.8803,0.0994 -0.30012,-0.002 -0.91467,-0.10748 -0.91467,-0.10748 z m 25.2505,0.002 c -4.97621,0.0148 -8.48965,2.92113 -8.53043,8.2014 -0.0408,5.28026 3.53462,8.24452 8.42659,8.25549 2.0687,0.005 3.8572,-0.76383 4.57631,-1.29781 l 0.20984,-1.41113 -0.11474,-0.03 c -1.2944,0.99885 -2.60559,1.82899 -4.59605,1.89004 -3.39517,-0.0331 -6.28039,-2.18211 -6.2865,-7.37957 -0.006,-5.28959 2.97227,-7.38494 6.28868,-7.3781 2.45132,0.005 3.34237,1.55957 3.71793,2.03993 l 0.12353,-0.0205 c 0,0 0.12889,-0.61846 0.22519,-1.02801 0.0646,-0.26222 0.18237,-0.54505 0.26103,-0.77941 -1.1306,-0.5324 -2.12128,-1.06887 -4.30141,-1.06238 z m -115.07974,0.007 c 0,0 0.117236,1.88262 0.151346,7.14925 0.03407,5.26663 -0.119176,8.32862 -0.119176,8.32862 0,0 2.65672,-0.0835 3.995772,-0.0768 1.339045,0.007 1.228077,0.0931 3.394762,0.12429 0,0 -0.04055,-0.29626 -0.04095,-0.52131 -3.49e-4,-0.22505 0.0446,-0.39336 0.0446,-0.39336 -1.205724,0.23424 -5.480022,-0.0278 -5.480022,-0.0278 0,0 -0.119401,-4.49302 -0.130155,-7.39566 -0.01715,-4.62589 0.161586,-7.18508 0.161586,-7.18508 0,0 -0.63495,0.11315 -0.962932,0.11115 -0.327984,-0.002 -1.014838,-0.11336 -1.014838,-0.11336 z m 46.10015,0.57316 c 0.57698,0.004 1.10786,0.0504 1.49376,0.16962 0.93661,0.28935 1.45876,0.88575 1.62974,1.50692 0.57539,2.09052 -0.21418,3.43934 -1.28244,4.07035 -1.00681,0.59469 -2.59314,0.68255 -3.74134,0.46502 -0.0224,-1.70544 0.0988,-4.62576 0.12875,-6.12052 0.57096,-0.0549 1.19462,-0.095 1.7716,-0.0914 z m -68.333219,0.23616 c 0.454666,-0.002 0.86849,0.0339 1.215185,0.13673 0.961725,0.28521 1.598235,0.96117 1.773787,1.57345 0.590821,2.0606 -0.298142,3.46665 -1.39505,4.08863 -1.033773,0.58617 -2.42198,0.73939 -3.600948,0.52497 -0.02294,-1.68102 0.08119,-4.72393 0.11186,-6.19729 0.659536,-0.0609 1.31059,-0.12446 1.89516,-0.12648 z m 14.904637,2.0041 c 1.298846,3.42366 1.540079,3.90661 2.183235,5.62114 0,0 -1.915158,0.0512 -2.461809,0.0526 -0.546648,0.001 -2.445719,-0.0607 -2.445719,-0.0607 0.929723,-1.92906 1.847897,-3.69087 2.724293,-5.61309 z m 130.086722,11.50628 c -0.79251,0.003 -1.21382,0.57706 -1.21224,1.19617 0.001,0.6191 0.46185,1.19833 1.18664,1.19398 0.72479,-0.004 1.21057,-0.58014 1.213,-1.19325 0.002,-0.61312 -0.39489,-1.19996 -1.1874,-1.1969 z" />
  </g>
</svg>
