<?xml version="1.0" encoding="UTF-8" standalone="no"?>
<!-- Created with Inkscape (http://www.inkscape.org/) -->

<svg
   version="1.1"
   id="svg854"
   width="522"
   height="507"
   viewBox="0 0 522 507"
   sodipodi:docname="gti-squiral.svg"
   inkscape:version="1.1.2 (0a00cf5339, 2022-02-04)"
   xmlns:inkscape="http://www.inkscape.org/namespaces/inkscape"
   xmlns:sodipodi="http://sodipodi.sourceforge.net/DTD/sodipodi-0.dtd"
   xmlns="http://www.w3.org/2000/svg"
   xmlns:svg="http://www.w3.org/2000/svg">
  <defs
     id="defs858" />
  <sodipodi:namedview
     id="namedview856"
     pagecolor="#ffffff"
     bordercolor="#666666"
     borderopacity="1.0"
     inkscape:pageshadow="2"
     inkscape:pageopacity="0.0"
     inkscape:pagecheckerboard="0"
     showgrid="false"
     inkscape:zoom="0.55229642"
     inkscape:cx="249.86582"
     inkscape:cy="447.22361"
     inkscape:window-width="1920"
     inkscape:window-height="1043"
     inkscape:window-x="0"
     inkscape:window-y="120"
     inkscape:window-maximized="1"
     inkscape:current-layer="g860" />
  <g
     inkscape:groupmode="layer"
     inkscape:label="Image"
     id="g860">
    <path
       style="fill:none;stroke:#000000;stroke-width:8.93858;stroke-linecap:round;stroke-linejoin:round;stroke-miterlimit:4;stroke-dasharray:none;stroke-opacity:1"
       d="m 288.92429,248.49923 -6.03469,-4.57538 -6.77491,7.10628 14.29527,16.03275 17.47737,-11.60406 -6.97891,-28.46078 -33.22448,1.31985 -9.12408,38.75106 41.27431,19.2978 31.38329,-36.29576 -31.79604,-47.62871 -56.80142,22.87305 6.80518,66.79834 72.07187,8.81857 29.74288,-72.36886 -69.09084,-49.8581 -67.37447,58.83738 41.42507,84.37644 100.39204,-22.38933 1.89651,-104.84425 -108.38967,-28.71924 -60.02585,100.91406 93.16646,82.93467 108.06394,-68.6203 -45.7642,-126.484 -138.25323,12.26187 -22.1302,143.05621 137.08695,59.29794 L 418.27821,243.34242 315.0758,119.87371 164.93899,191.1341 194.71296,357.21259 375.73303,366.66328 429.91997,193.51697 264.59563,99.621157 132.05437,229.29195 233.47325,398.73215 427.1638,345.26957 414.9413,136.49455 204.72237,93.552502 111.94273,289.1793 286.99524,434.90259 474.25818,296.27627 378.89286,81.050678 141.20138,116.50376 119.59722,359.78797 358.41285,443.90858 498.35053,229.9219 318.39829,37.951473 86.76937,166.2608 l 66.9827,260.94531 280.91401,0.966 L 500.12072,152.00276 240.80749,20.161852 46.730006,237.66309 l -6.924867,-7.02874 -19.368424,38.91849 34.378886,-21.6347 -8.063003,-10.21852"
       id="path1012"
       sodipodi:nodetypes="ccccccccccccccccccccccccccccccccccccccccccccccccccccccccccc" />
  </g>
</svg>
