<?xml version="1.0" encoding="UTF-8" standalone="no"?>
<!-- Created with Inkscape (http://www.inkscape.org/) -->

<svg
   width="210mm"
   height="297mm"
   viewBox="0 0 210 297"
   version="1.1"
   id="svg191130"
   inkscape:version="1.1.2 (0a00cf5339, 2022-02-04)"
   sodipodi:docname="gti.svg"
   xmlns:inkscape="http://www.inkscape.org/namespaces/inkscape"
   xmlns:sodipodi="http://sodipodi.sourceforge.net/DTD/sodipodi-0.dtd"
   xmlns="http://www.w3.org/2000/svg"
   xmlns:svg="http://www.w3.org/2000/svg">
  <sodipodi:namedview
     id="namedview191132"
     pagecolor="#ffffff"
     bordercolor="#666666"
     borderopacity="1.0"
     inkscape:pageshadow="2"
     inkscape:pageopacity="0.0"
     inkscape:pagecheckerboard="0"
     inkscape:document-units="mm"
     showgrid="false"
     inkscape:zoom="0.90583672"
     inkscape:cx="30.910648"
     inkscape:cy="120.33074"
     inkscape:window-width="1920"
     inkscape:window-height="1043"
     inkscape:window-x="0"
     inkscape:window-y="120"
     inkscape:window-maximized="1"
     inkscape:current-layer="layer1" />
  <defs
     id="defs191127" />
  <g
     inkscape:label="Layer 1"
     inkscape:groupmode="layer"
     id="layer1">
    <path
       id="path129346-2"
       style="fill:#000000;fill-opacity:1;stroke:#000000;stroke-width:0;stroke-linecap:butt;stroke-linejoin:miter;stroke-miterlimit:4;stroke-dasharray:none;stroke-opacity:1"
       d="m 14.800777,27.213515 c -4.677596,0.01535 -8.5809615,2.479936 -8.5779348,8.327878 0.00342,5.84793 3.7377546,8.28404 8.3768668,8.288396 1.98968,0.0022 5.13852,-0.714013 5.724228,-0.979021 0,0 -0.04025,-1.000976 -0.04313,-1.808883 -0.0047,-1.316634 0.068,-3.949709 0.068,-3.949709 0,0 -0.693338,0.05518 -1.040437,0.04898 -0.341749,-0.006 -1.022158,-0.08481 -1.022158,-0.08481 0,0 0.06733,2.216139 0.08189,3.32457 0.0076,0.580643 0.0029,1.742345 0.0029,1.742348 -0.795605,0.415375 -1.790636,0.727757 -3.448869,0.732619 -3.147831,0.0093 -6.4691205,-1.692165 -6.5614027,-7.283055 -0.088288,-5.347475 3.1305497,-7.533026 6.3347437,-7.498017 2.867625,0.03137 4.336364,1.693777 4.85927,2.2739 l 0.238357,-0.0013 c 0,0 0.142823,-0.699758 0.22666,-0.995833 0.0859,-0.303361 0.287344,-0.763331 0.287344,-0.763331 -0.76413,-0.559103 -2.575498,-1.384209 -5.506338,-1.374615 z m 79.463611,0.448202 c 0,0 0.104309,0.327545 0.103056,0.568838 -0.0011,0.24129 -0.08916,0.716534 -0.08916,0.716534 0,0 2.104744,-0.146724 4.927996,-0.194488 0.01139,0.824317 0.08245,2.595637 0.100214,6.353022 0.02505,5.310069 -0.176211,8.458753 -0.176211,8.458753 0,0 0.731546,-0.111119 1.102587,-0.109662 0.37105,0.0011 1.13768,0.110402 1.13768,0.110402 0,0 -0.24181,-4.263394 -0.2208,-8.43024 0.0167,-3.311367 0.0225,-5.566374 0.022,-6.431988 2.91778,0.03917 4.88853,0.254439 4.88853,0.254439 0,0 -0.11577,-0.478546 -0.11406,-0.720188 0.001,-0.24165 0.14842,-0.514002 0.14842,-0.514002 0,0 -2.70564,0.259584 -5.64454,0.263949 -2.938901,0.0041 -6.185586,-0.325365 -6.185586,-0.325365 z m 31.936202,0.156464 c -0.0451,6.95e-4 -0.0885,0.0022 -0.13088,0.0037 -0.96074,0.03805 -2.2848,0.123361 -2.80837,0.119173 -0.6869,-0.0055 -1.09312,-0.08617 -1.99606,-0.122102 0,0 0.14063,1.989992 0.16305,7.304258 0.0226,5.314252 -0.15939,8.470453 -0.15939,8.470453 0,0 0.74131,-0.09646 1.0046,-0.09651 0.2633,-4.4e-5 1.00607,0.09067 1.00607,0.09067 0,0 -0.0988,-3.734262 -0.10749,-7.606225 l 0.6171,0.0066 c 2.15237,2.656762 3.92741,4.833302 5.63357,7.604767 0,0 0.83554,-0.116996 1.16838,-0.115525 0.33286,0.0016 1.25321,0.08408 1.25321,0.08408 -2.13666,-2.833851 -4.08616,-4.981261 -6.01669,-7.729794 2.24517,-0.268848 4.39205,-1.996765 4.38475,-4.389135 -0.008,-2.910741 -2.44483,-3.608116 -3.87222,-3.624346 -0.0475,-5.61e-4 -0.0945,-6.9e-4 -0.13964,0 z m 16.91092,0.0037 c 0,0 0.12056,1.881947 0.15575,7.14852 0.0351,5.266568 -0.16233,8.338115 -0.16233,8.338115 0,0 2.78121,-0.06524 4.16103,-0.05849 1.37979,0.0068 1.2857,0.0259 3.51832,0.05703 0,0 -0.0771,-0.259706 -0.0776,-0.484755 -3.5e-4,-0.225043 0.038,-0.466477 0.038,-0.466477 -1.30896,0.137017 -5.72276,0.04752 -5.72276,0.04752 0,0 -0.15667,-2.966124 -0.0695,-7.481196 0.0893,-4.625008 0.19669,-7.098072 0.19669,-7.098072 0,0 -0.65495,0.113134 -0.99291,0.111141 -0.33797,-0.0018 -1.04483,-0.113328 -1.04483,-0.113328 z m -24.27441,0.02924 c 0,0 0.2027,5.649438 0.13088,7.283051 -0.13639,3.10297 0.0454,7.725927 -4.94262,7.685193 -4.98788,-0.04073 -5.10939,-3.917737 -5.09178,-7.445371 0.0207,-4.157359 0.30709,-7.51849 0.30709,-7.51849 0,0 -0.62793,0.114619 -0.9951,0.1126 -0.3672,-0.0018 -1.12672,-0.114788 -1.12672,-0.114788 0,0 0.12429,4.537627 0.0885,6.961348 -0.0502,3.400097 -0.44727,6.353104 2.23954,8.119498 2.35083,1.545506 7.41262,1.279701 9.07292,-0.995838 1.27117,-1.74224 1.42272,-2.296593 1.55955,-6.566518 0.22663,-7.071581 0.34583,-7.51849 0.34583,-7.51849 0,0 -0.32665,0.1117 -0.69386,0.109662 -0.36718,-0.0018 -0.89421,-0.11186 -0.89421,-0.11186 z m 32.78873,0.01902 c 0,0 0.13611,1.964226 0.16014,7.192391 0.024,5.228165 -0.16891,8.341768 -0.16891,8.341768 0,0 3.76041,-0.113305 4.11716,-0.111859 0.35675,0.0018 3.71134,0.138926 3.71134,0.138926 0,0 -0.0739,-0.43885 -0.0724,-0.660969 10e-4,-0.222125 0.10017,-0.498649 0.10017,-0.498649 -2.35797,0.337943 -5.86605,0.149157 -5.86605,0.149157 0,0 0.0146,-5.027301 0.004,-6.878725 2.44323,-0.01751 4.50969,0.104253 5.06838,0.100895 0,0 -0.0887,-0.340034 -0.0892,-0.535938 -3.9e-4,-0.195897 0.0863,-0.611979 0.0863,-0.611979 -1.05747,0.09651 -2.43782,0.140653 -5.06399,0.129419 -0.0114,-2.549573 0.0189,-5.896047 0.0189,-5.896049 2.9123,-0.01959 4.69331,0.04862 5.40032,0.08701 0,0 -0.0752,-0.270744 -0.0775,-0.42261 -0.002,-0.151865 0.12437,-0.508884 0.12437,-0.508884 0,0 -2.51442,0.0857 -3.47445,0.0987 -0.99692,0.01116 -3.97823,-0.1126 -3.97823,-0.1126 z m -21.04123,0.02852 c 0,0 0.0882,0.478831 0.0871,0.717262 -10e-4,0.238423 -0.0263,0.576885 -0.0263,0.576885 0,0 2.15004,-0.153873 4.84832,-0.201068 0.0114,0.81453 0.0591,2.504241 0.076,6.217028 0.0239,5.247035 -0.1689,8.358589 -0.1689,8.358589 0,0 0.45916,-0.13014 0.81379,-0.128684 0.35461,0.0016 1.08721,0.109673 1.08721,0.109673 0,0 -0.18313,-4.206841 -0.16304,-8.324223 0.016,-3.272061 3.6e-4,-5.416525 0,-6.271866 2.78861,0.03872 4.68745,0.244938 4.68745,0.244938 0,0 -0.0901,-0.33519 -0.0885,-0.573956 0.001,-0.238781 0.1163,-0.716538 0.1163,-0.716538 0,0 -2.70192,0.174825 -5.51072,0.179137 -2.80882,0.0045 -5.7586,-0.187177 -5.7586,-0.187177 z m -58.10577,0.0329 -0.405794,7.3e-4 c -3.210708,6.477228 -4.849897,9.740342 -7.808755,15.640911 0,0 0.548092,-0.100875 0.82255,-0.09943 0.274479,0.0011 0.800616,0.100163 0.800616,0.100173 0.775864,-2.219422 1.638462,-4.410615 2.489589,-6.223608 0.406666,-0.01036 2.196615,-0.03764 3.009445,-0.03511 0.812854,0.0022 2.467824,0.03227 2.61681,0.03583 0,0 0.75803,2.330447 0.973169,3.046729 0.215141,0.716295 0.849182,2.37022 0.943193,3.175416 0,0 0.870961,-0.09282 1.267826,-0.09141 0.396874,0.0011 1.106242,0.09432 1.106242,0.09432 C 76.01698,37.896787 74.862399,34.491829 72.47883,27.931499 Z m -42.586972,0.01316 c 0,0 0.07459,2.514708 0.08628,6.285024 0.01558,5.023401 -0.340719,9.478718 -0.340719,9.478718 0,0 0.588653,-0.09291 0.858377,-0.0914 0.269719,0.0018 0.746513,0.08993 0.746513,0.08993 0,0 -0.355309,-4.202734 -0.376547,-8.26646 -0.0076,-1.543794 0.08701,-3.867091 0.08701,-3.867091 3.509252,3.684944 8.389103,8.793872 11.485744,12.371178 l 0.281496,-0.0013 c 0,0 -0.01751,-4.296278 -0.03875,-8.357126 -0.01501,-2.851965 0.209111,-7.301332 0.209111,-7.301332 0,0 -0.346603,0.0707 -0.595161,0.06873 -0.248555,-0.0018 -0.757479,-0.10456 -0.757479,-0.10456 0,0 0.14341,2.924602 0.160123,8.063928 0.004,1.219905 0.04368,2.848874 0.0307,3.734018 C 37.893014,36.148743 34.1172,32.159011 30.220882,27.9469 Z m -8.509206,0.0234 c 0,0 0.12741,1.971643 0.149887,7.220907 0.02246,5.249248 -0.157929,8.376134 -0.157929,8.376134 0,0 3.517937,-0.11404 3.851736,-0.1126 0.33379,0.0011 3.563658,0.102351 3.563658,0.102351 0,0 -0.03348,-0.391883 -0.03217,-0.614899 0.0011,-0.223025 0.04607,-0.720925 0.04607,-0.720925 -2.206232,0.339312 -5.550211,0.285886 -5.550211,0.285886 0,0 -0.0027,-4.807063 -0.01316,-6.665958 2.286008,-0.0176 4.462294,0.179577 4.985027,0.176207 0,0 -0.04915,-0.471589 -0.04972,-0.668279 -3.19e-4,-0.196695 0.05192,-0.685825 0.05192,-0.685825 -0.989439,0.09691 -2.532992,0.237199 -4.990145,0.22593 -0.01127,-2.559862 0.06287,-5.857301 0.06287,-5.857301 2.724894,-0.01966 4.727834,0.242216 5.389359,0.280765 0,0 -0.03884,-0.570633 -0.04095,-0.723115 -0.0018,-0.152481 0.06361,-0.619288 0.06361,-0.619288 0,0 -2.674768,0.102124 -3.607527,0.113329 -0.932767,0.01127 -3.72232,-0.113329 -3.72232,-0.113329 z m 150.741898,0.01387 c 0,0 0.10421,2.553783 0.0496,6.307692 -0.0734,5.058586 -0.45842,9.48457 -0.45842,9.48457 0,0 0.57465,-0.09355 0.83789,-0.09213 0.26327,0.0016 0.72897,0.09067 0.72897,0.09067 0,0 -0.14378,-4.192848 -0.16451,-8.285471 -0.008,-1.554775 0.0468,-3.872937 0.0468,-3.872937 3.42521,3.71115 8.18325,8.878095 11.20574,12.48085 l 0.27491,-0.0022 c 0,0 -0.0311,-4.284949 -0.052,-8.37467 -0.0147,-2.872257 0.36118,-7.425636 0.36118,-7.425631 0,0 -0.48199,0.102135 -0.72456,0.100174 -0.24261,-0.0018 -0.73921,-0.105278 -0.73921,-0.105278 0,0 0.14008,2.94507 0.15648,8.12096 0.004,1.228577 0.0427,2.869635 0.0299,3.76107 -3.74368,-3.925793 -7.42903,-7.94412 -11.23204,-12.186191 z M 57.6049,28.022158 c -0.900072,0.0063 -1.874112,0.118949 -2.804717,0.119911 -0.705287,-0.0055 -1.229042,-0.08011 -2.156181,-0.115524 0,0 0.144409,2.013423 0.167435,7.251616 0.02294,5.238183 -0.163779,8.349815 -0.163779,8.349815 0,0 0.872449,-0.07088 1.142798,-0.07093 0.270357,-4.5e-5 1.033123,0.09067 1.033123,0.09067 0,0 -0.02547,-3.620071 -0.03436,-7.436597 l 0.591507,0.01902 c 2.210039,2.618726 3.769099,4.709923 5.520964,7.441714 0,0 0.858791,-0.114774 1.200559,-0.113328 0.341772,0.0011 1.286841,0.08262 1.286836,0.08262 -2.193932,-2.793286 -4.2611,-5.057901 -6.243347,-7.767078 2.305333,-0.265007 4.779032,-1.725181 4.79639,-4.197576 0.021,-2.985835 -3.313641,-3.628144 -3.956291,-3.649202 -0.125216,-0.0041 -0.252351,-0.0059 -0.380933,-0.0051 z m -6.294529,0.0074 c 0,0 -0.0037,0.01935 -0.0066,0.03363 0.0053,-1.98e-4 0.09359,-0.0029 0.09359,-0.0029 z m -0.0066,0.03363 c -0.162345,0.006 -2.659021,0.09957 -3.578284,0.110402 -0.949264,0.01116 -3.788123,-0.113328 -3.788122,-0.113328 0,0 0.129929,1.967195 0.15281,7.203358 0.02288,5.236153 -0.160854,8.354931 -0.160854,8.354931 0,0 3.580766,-0.11404 3.920464,-0.1126 0.339713,0.0011 3.613378,0.04679 3.613378,0.04679 0,0 -0.08909,-0.341259 -0.08774,-0.563718 0.0011,-0.222471 0.0329,-0.578347 0.0329,-0.578347 -2.245292,0.33845 -5.566299,0.149885 -5.566299,0.149885 0,0 0.02392,-4.892123 0.01316,-6.746383 2.326466,-0.01744 4.48229,0.176652 5.014275,0.173283 0,0 -0.01772,-0.371178 -0.01828,-0.567378 -3.66e-4,-0.196197 0.05337,-0.683632 0.05337,-0.683632 -1.006945,0.09664 -2.545797,0.128964 -5.046446,0.117717 -0.01145,-2.553469 -0.02266,-5.923834 -0.02266,-5.923834 2.773112,-0.0195 4.775339,0.261328 5.44858,0.299773 0,0 -0.03951,-0.56955 -0.04167,-0.721653 -0.0016,-0.128131 0.04582,-0.369003 0.06143,-0.445273 z m 117.429679,0.03363 c 0,0 0.11502,1.971764 0.13526,7.268434 0.0202,5.296667 -0.13668,8.444862 -0.13668,8.444862 0,0 0.65376,-0.09505 0.95342,-0.09359 0.29969,0.0016 0.83791,0.09066 0.83791,0.09066 0,0 -0.15365,-4.249779 -0.13668,-8.406112 0.017,-4.156337 0.14184,-7.296214 0.14184,-7.296214 0,0 -0.58018,0.101465 -0.8803,0.09943 -0.30012,-0.0022 -0.91467,-0.107487 -0.91467,-0.107487 z m 25.2505,0.0022 c -4.97621,0.01479 -8.48965,2.921128 -8.53043,8.201391 -0.0408,5.280267 3.53462,8.244524 8.42659,8.255493 2.0687,0.0046 3.8572,-0.763826 4.57631,-1.297805 l 0.20984,-1.411133 -0.11474,-0.02998 c -1.2944,0.99885 -2.60559,1.828988 -4.59605,1.890038 -3.39517,-0.03309 -6.28039,-2.182111 -6.2865,-7.379567 -0.006,-5.289596 2.97227,-7.384937 6.28868,-7.378105 2.45132,0.0051 3.34237,1.559569 3.71793,2.03993 l 0.12353,-0.02047 c 0,0 0.12889,-0.618453 0.22519,-1.028005 0.0646,-0.262225 0.18237,-0.545054 0.26103,-0.779413 -1.1306,-0.532396 -2.12128,-1.068866 -4.30141,-1.062375 z m -115.079732,0.0074 c 0,0 0.117236,1.882617 0.151346,7.149249 0.03407,5.266626 -0.119176,8.328612 -0.119176,8.328612 0,0 2.65672,-0.08351 3.995772,-0.07677 1.339045,0.0068 1.228077,0.09314 3.394762,0.124298 0,0 -0.04055,-0.296263 -0.04095,-0.521315 -3.49e-4,-0.225047 0.0446,-0.393363 0.0446,-0.393363 -1.205724,0.234241 -5.480022,-0.02778 -5.480022,-0.02778 0,0 -0.119401,-4.493019 -0.130155,-7.395654 -0.01715,-4.625887 0.161586,-7.185081 0.161586,-7.185077 0,0 -0.63495,0.113146 -0.962932,0.111143 -0.327984,-0.0019 -1.014838,-0.113361 -1.014838,-0.113361 z m 46.100142,0.573153 c 0.57698,0.0036 1.10786,0.05041 1.49376,0.169626 0.93661,0.289345 1.45876,0.885745 1.62974,1.506914 0.57539,2.090518 -0.21418,3.439339 -1.28244,4.070353 -1.00681,0.594685 -2.59314,0.682548 -3.74134,0.465016 -0.0224,-1.705432 0.0988,-4.625752 0.12875,-6.120515 0.57096,-0.05492 1.19462,-0.09497 1.7716,-0.09139 z M 56.671149,28.91573 c 0.454666,-0.0016 0.86849,0.03394 1.215185,0.136734 0.961725,0.285208 1.598235,0.961172 1.773787,1.573446 0.590821,2.060602 -0.298142,3.466654 -1.39505,4.088633 -1.033773,0.586172 -2.42198,0.73939 -3.600948,0.524968 -0.02294,-1.681021 0.08119,-4.723925 0.11186,-6.197283 0.659536,-0.0609 1.31059,-0.124466 1.89516,-0.126489 z m 14.904637,2.004103 c 1.298846,3.423658 1.540079,3.906611 2.183235,5.621138 0,0 -1.915158,0.05118 -2.461809,0.05265 -0.546648,0.0011 -2.445719,-0.06068 -2.445719,-0.06068 0.929723,-1.929061 1.847897,-3.690871 2.724293,-5.613092 z M 201.6625,42.426112 c -0.79251,0.0029 -1.21382,0.577065 -1.21224,1.196173 0.001,0.619104 0.46185,1.198336 1.18664,1.193978 0.72479,-0.0042 1.21057,-0.580141 1.213,-1.193247 0.002,-0.613116 -0.39489,-1.199962 -1.1874,-1.196904 z" />
  </g>
</svg>
