<?xml version="1.0" encoding="UTF-8" standalone="no"?>
<!-- Created with Inkscape (http://www.inkscape.org/) -->

<svg
   version="1.1"
   id="svg65273"
   width="896"
   height="140"
   viewBox="0 0 896 140"
   sodipodi:docname="imlac4.svg"
   inkscape:version="1.2 (1:1.2+202205211822+da316b6974)"
   xmlns:inkscape="http://www.inkscape.org/namespaces/inkscape"
   xmlns:sodipodi="http://sodipodi.sourceforge.net/DTD/sodipodi-0.dtd"
   xmlns="http://www.w3.org/2000/svg"
   xmlns:svg="http://www.w3.org/2000/svg">
  <defs
     id="defs65277" />
  <sodipodi:namedview
     id="namedview65275"
     pagecolor="#ffffff"
     bordercolor="#666666"
     borderopacity="1.0"
     inkscape:showpageshadow="2"
     inkscape:pageopacity="0.0"
     inkscape:pagecheckerboard="0"
     inkscape:deskcolor="#d1d1d1"
     showgrid="true"
     inkscape:zoom="0.70710678"
     inkscape:cx="493.56053"
     inkscape:cy="43.133513"
     inkscape:window-width="1920"
     inkscape:window-height="1029"
     inkscape:window-x="0"
     inkscape:window-y="0"
     inkscape:window-maximized="1"
     inkscape:current-layer="g65279">
    <inkscape:grid
       type="xygrid"
       id="grid65400"
       units="px"
       spacingx="1"
       spacingy="1"
       originx="-16"
       originy="-27" />
  </sodipodi:namedview>
  <g
     inkscape:groupmode="layer"
     inkscape:label="Image"
     id="g65279"
     transform="translate(-16,-27)">
    <g
       id="g71389">
      <path
         id="rect65402"
         style="opacity:1;fill:#000000;fill-opacity:1;stroke:none;stroke-width:283.34;stroke-linecap:square;stroke-miterlimit:9;paint-order:fill markers stroke"
         d="M 16,27 V 167 H 240 V 99 h -87 v 53 H 103 V 47 45 h 50 v 50 h 87 V 27 Z m 91,22 v 27 h 42 V 49 Z m 0,31 v 68 h 42 V 80 Z" />
      <path
         d="M 333.90338,29.99994 V 164 H 298 V 29.99994 Z"
         style="font-weight:bold;font-size:200.902px;line-height:1.25;font-family:'Eurostile URW Black';-inkscape-font-specification:'Eurostile URW Black,  Bold';font-variant-ligatures:no-common-ligatures;fill:#000000;fill-opacity:1;stroke:none;stroke-width:5.58061;stroke-linecap:square;stroke-miterlimit:9;paint-order:fill markers stroke"
         id="path69076" />
      <path
         d="M 524.68528,29.99994 V 164 h -35.3148 v -40.21964 q 0,-6.47438 0.39239,-16.67643 0.39238,-10.300153 0.58858,-14.616407 l 0.19619,-5.199124 0.39239,-5.101027 0.19619,-5.199124 0.19619,-5.199124 0.39239,-5.199123 0.19619,-5.297221 h -1.17716 q -6.76867,22.267946 -8.24012,26.878489 -1.37335,4.610544 -11.28111,34.235741 L 457.39096,164 H 426.6867 l -14.32211,-41.78918 q -3.43338,-10.49635 -6.08199,-18.14789 -2.55052,-7.749637 -4.31626,-12.94876 -1.66764,-5.297221 -4.12006,-12.948762 -2.35432,-7.749637 -5.29722,-16.872628 h -1.27526 l 0.39239,5.297221 0.19619,5.199123 0.49049,5.199124 0.19619,5.199124 0.39239,5.101027 q 1.37335,26.093721 1.37335,36.491961 V 164 H 359 V 29.99994 h 56.0132 l 12.45828,38.355801 q 4.12006,12.654471 9.41728,30.508066 l 0.98097,3.825773 1.07906,3.82577 1.17716,3.82577 0.98097,3.82577 h 1.47145 l 2.9429,-11.47731 q 4.02196,-15.008794 4.80673,-17.657404 0.88287,-2.746707 5.10103,-16.480242 L 467.49492,29.99994 Z"
         style="font-weight:bold;font-size:200.902px;line-height:1.25;font-family:'Eurostile URW Black';-inkscape-font-specification:'Eurostile URW Black,  Bold';font-variant-ligatures:no-common-ligatures;fill:#000000;fill-opacity:1;stroke:none;stroke-width:5.58061;stroke-linecap:square;stroke-miterlimit:9;paint-order:fill markers stroke"
         id="path69079" />
      <path
         d="m 582.90338,29.99994 v 103.2958 h 56.30749 V 164 H 547 V 29.99994 Z"
         style="font-weight:bold;font-size:200.902px;line-height:1.25;font-family:'Eurostile URW Black';-inkscape-font-specification:'Eurostile URW Black,  Bold';font-variant-ligatures:no-common-ligatures;fill:#000000;fill-opacity:1;stroke:none;stroke-width:5.58061;stroke-linecap:square;stroke-miterlimit:9;paint-order:fill markers stroke"
         id="path69082" />
      <path
         d="M 738.44514,140.84918 H 690.37776 L 684.00148,164 H 646.62665 L 686.74819,29.99994 h 54.44365 L 782.00006,164 H 745.41 Z M 731.38217,114.95166 714.50955,56.682236 698.0293,114.95166 Z"
         style="font-weight:bold;font-size:200.902px;line-height:1.25;font-family:'Eurostile URW Black';-inkscape-font-specification:'Eurostile URW Black,  Bold';font-variant-ligatures:no-common-ligatures;fill:#000000;fill-opacity:1;stroke:none;stroke-width:5.58061;stroke-linecap:square;stroke-miterlimit:9;paint-order:fill markers stroke"
         id="path69085" />
      <path
         d="m 876.39093,113.38212 h 35.60909 v 4.02196 q 0,12.55637 -1.37335,20.10982 -1.37335,7.55344 -4.80674,12.16399 -3.33528,4.61054 -10.10395,8.7306 -5.00294,3.13909 -9.51538,4.41435 -4.41435,1.27526 -11.7716,1.66764 -7.25916,0.49049 -21.48318,0.49049 -11.37921,0 -17.75549,-0.39239 -6.37629,-0.39239 -10.69254,-1.47145 -4.31626,-1.07906 -8.33822,-3.13909 -10.10396,-5.19913 -15.10689,-14.32212 -5.00293,-9.22109 -5.98389,-24.03368 -0.58858,-5.78771 -0.78478,-23.543206 l -0.29429,-7.455348 v -7.35725 q 0,-15.695469 2.84481,-25.308943 2.8448,-9.613474 9.61347,-16.087855 8.14202,-7.651541 18.44217,-10.202054 10.39825,-2.64861 34.03955,-2.64861 17.26502,0 24.62227,1.275256 7.45534,1.17716 13.53734,5.101028 4.31625,2.746706 7.25915,6.964864 3.041,4.12006 4.61055,9.907764 1.66764,5.689607 1.96193,13.243051 0.19619,3.923867 0.29429,6.376284 0.0981,2.35432 0.19619,6.081994 h -35.60909 q 0,-1.079063 -0.0981,-1.569547 0,-0.490483 -0.0981,-0.980967 -0.1962,-6.866767 -1.86384,-10.005861 -1.66764,-3.139093 -6.37628,-4.316253 -4.70864,-1.17716 -14.02783,-1.17716 -9.71157,0 -14.32211,2.158126 -4.51245,2.158127 -6.18009,7.651541 -1.07907,3.727674 -1.47145,11.379215 -0.39239,7.553444 -0.39239,27.663261 0,10.59444 1.86384,15.98976 1.86383,5.39532 6.57247,7.45535 4.70864,2.06003 14.51831,2.06003 9.12299,0 13.92973,-1.37336 4.90483,-1.47145 6.76867,-5.00293 1.96193,-3.53148 1.96193,-10.49634 0,-2.25622 -0.19619,-4.02196 z"
         style="font-weight:bold;font-size:200.902px;line-height:1.25;font-family:'Eurostile URW Black';-inkscape-font-specification:'Eurostile URW Black,  Bold';font-variant-ligatures:no-common-ligatures;fill:#000000;fill-opacity:1;stroke:none;stroke-width:5.58061;stroke-linecap:square;stroke-miterlimit:9;paint-order:fill markers stroke"
         id="path69088" />
    </g>
  </g>
</svg>
