<?xml version="1.0" encoding="UTF-8"?>
<!-- Created with Inkscape (http://www.inkscape.org/) -->
<svg width="16284" height="4242.3" version="1.1" viewBox="0 0 16284 4242.3" xmlns="http://www.w3.org/2000/svg">
 <g transform="translate(-16 -23)">
  <g transform="matrix(10 0 0 10 -144 -207)">
   <path d="m84.5 79.5v89.5h66v-89.5zm33 21a26 26 0 0 1 26 26 26 26 0 0 1-26 26 26 26 0 0 1-26-26 26 26 0 0 1 26-26z"/>
   <path d="m84.5 173v16.5a26 26 0 0 1 26 26 26 26 0 0 1-26 26v21h66v-21.16a26 26 0 0 1-23.75-25.84 26 26 0 0 1 23.75-25.84v-16.66z"/>
   <path d="m155 173v16.604a26 26 0 0 1 23.75 25.896 26 26 0 0 1-23.75 25.84v21.16h66v-21.16a26 26 0 0 1-23.75-25.84 26 26 0 0 1 23.75-25.84v-16.66z"/>
   <path transform="scale(-1,1)" d="m-225.5 173v16.604a26 26 0 0 0-23.75 25.896 26 26 0 0 0 23.75 25.84v21.16h-66v-21a26 26 0 0 0 26-26 26 26 0 0 0-26-26v-16.5z"/>
   <path d="m155 79.5v89.5h66v-89.5zm33 21a26 26 0 0 1 26 26 26 26 0 0 1-26 26 26 26 0 0 1-26-26 26 26 0 0 1 26-26z"/>
   <path d="m225.5 79.5v89.5h66v-89.5zm33 21a26 26 0 0 1 26 26 26 26 0 0 1-26 26 26 26 0 0 1-26-26 26 26 0 0 1 26-26z"/>
   <path d="m21 396.5h16.007v50h-16.007z"/>
   <path d="m49.004 396.5h26.703l26.19 37.289h1.5751l-0.3663-37.289h15.494v50h-26.484l-26.3-37.289h-1.6484l0.32967 37.289h-15.495z"/>
   <path d="m130.6 396.5h52.857v11.758h-37.619v9.4506h35.788v11.502h-35.788v17.289h-15.238z"/>
   <path d="m224.27 395.77q16.19 0 22.271 0.80586 8.7546 1.1722 10.733 8.315 1.3553 4.9084 1.3553 16.593 0 11.722-1.3553 16.63-1.978 7.1429-10.733 8.315-6.0806 0.80586-22.125 0.80586-16.337 0-22.418-0.80586-8.7546-1.1722-10.733-8.315-1.3553-4.9084-1.3553-16.923 0-11.429 1.3553-16.3 1.978-7.1429 10.733-8.315 6.044-0.80586 22.271-0.80586zm0.0366 13.004q-12.125 0-14.579 0.62271-2.8205 0.7326-3.6996 3.2967-0.87912 2.5275-0.87912 10.11 0 4.5788 0.47619 6.63 0.91575 3.8095 5.5311 4.359 3.4066 0.43956 13.223 0.43956 9.1941 0 12.234-0.32967 3.0403-0.32967 4.5055-1.4652 1.3187-1.0256 1.7949-3.0037 0.47619-2.0147 0.47619-6.5568 0-5.3846-0.3663-7.9121-0.3663-2.5275-1.3187-3.8095-1.2088-1.6117-3.9927-1.978-2.7839-0.40293-13.407-0.40293z"/>
   <path d="m268.63 446.5v-50h36.813q12.967 0.0366 15.531 0.29304 2.5641 0.21978 4.945 1.685 2.8572 1.7216 3.9194 4.7619 1.0623 3.0037 1.0623 9.4872 0 5.4579-0.69597 8.022-0.65934 2.5641-2.5275 4.1026-2.0147 1.6484-6.0806 2.2711 4.7985 0.3663 6.8864 2.7473 1.2088 1.4286 1.5385 3.4798 0.32967 2.0146 0.32967 8.4982v4.652h-15.018v-2.674q0-4.1758-0.32967-5.9341-0.29304-1.7949-1.1355-2.7472-0.84249-0.87912-2.3443-1.0989-1.4652-0.25641-6.1905-0.25641h-21.465v12.711zm15.238-25.201h21.429q5.6044-0.10989 6.6667-0.18315 1.0989-0.10989 1.8681-0.58608 0.98902-0.62271 1.392-1.8315 0.40293-1.2454 0.40293-3.7363 0-2.4542-0.47619-3.663-0.43956-1.2088-1.5751-1.7582-0.80586-0.3663-1.9414-0.43956-1.0989-0.0733-6.3736-0.10989h-21.392z"/>
   <path d="m340.14 396.5h27.619l14.872 32.454 14.872-32.454h27.473v50h-15.018l0.3663-37.436h-2.4908l-18.864 37.436h-12.637l-18.864-37.436h-2.674l0.3663 37.436h-15.018z"/>
   <path d="m490.26 446.5-4.2857-8.4615h-33.077l-4.2857 8.4615h-17.399l26.52-50h23.663l26.154 50zm-9.6337-19.414-9.6337-18.938h-3.0403l-9.6337 18.938z"/>
   <path d="m500.3 396.5h60.513v12.747h-22.234v37.253h-16.007v-37.253h-22.271z"/>
   <path d="m568.33 396.5h16.007v50h-16.007z"/>
   <path d="m629.67 395.77q16.19 0 22.271 0.80586 8.7546 1.1722 10.733 8.315 1.3553 4.9084 1.3553 16.593 0 11.722-1.3553 16.63-1.978 7.1429-10.733 8.315-6.0806 0.80586-22.125 0.80586-16.337 0-22.418-0.80586-8.7546-1.1722-10.733-8.315-1.3553-4.9084-1.3553-16.923 0-11.429 1.3553-16.3 1.978-7.1429 10.733-8.315 6.044-0.80586 22.271-0.80586zm0.0366 13.004q-12.125 0-14.579 0.62271-2.8205 0.7326-3.6996 3.2967-0.87912 2.5275-0.87912 10.11 0 4.5788 0.47619 6.63 0.91575 3.8095 5.5311 4.359 3.4066 0.43956 13.223 0.43956 9.1941 0 12.234-0.32967t4.5055-1.4652q1.3187-1.0256 1.7949-3.0037 0.47619-2.0147 0.47619-6.5568 0-5.3846-0.3663-7.9121-0.3663-2.5275-1.3187-3.8095-1.2088-1.6117-3.9927-1.978-2.7839-0.40293-13.407-0.40293z"/>
   <path d="m673.04 396.5h26.703l26.19 37.289h1.5751l-0.3663-37.289h15.494v50h-26.484l-26.3-37.289h-1.6484l0.32967 37.289h-15.494z"/>
   <path d="m798.38 396.5h16.007v50h-16.007z"/>
   <path d="m826.39 396.5h26.703l26.19 37.289h1.5751l-0.3663-37.289h15.494v50h-26.484l-26.3-37.289h-1.6484l0.32967 37.289h-15.495z"/>
   <path d="m904.47 396.5h60.513v12.747h-22.234v37.253h-16.007v-37.253h-22.271z"/>
   <path d="m972.49 396.5h55.385v11.758h-40.366v7.2161h38.315v10.989h-38.315v8.022h40.659v12.015h-55.678z"/>
   <path d="m1037.9 446.5v-50h36.813q12.967 0.0366 15.531 0.29304 2.5641 0.21978 4.9451 1.685 2.8571 1.7216 3.9194 4.7619 1.0623 3.0037 1.0623 9.4872 0 5.4579-0.696 8.022-0.6594 2.5641-2.5275 4.1026-2.0146 1.6484-6.0806 2.2711 4.7986 0.3663 6.8865 2.7473 1.2088 1.4286 1.5384 3.4798 0.3297 2.0146 0.3297 8.4982v4.652h-15.018v-2.674q0-4.1758-0.3297-5.9341-0.293-1.7949-1.1355-2.7472-0.8425-0.87912-2.3443-1.0989-1.4652-0.25641-6.1905-0.25641h-21.465v12.711zm15.238-25.201h21.429q5.6044-0.10989 6.6666-0.18315 1.0989-0.10989 1.8682-0.58608 0.989-0.62271 1.3919-1.8315 0.4029-1.2454 0.4029-3.7363 0-2.4542-0.4762-3.663-0.4395-1.2088-1.5751-1.7582-0.8058-0.3663-1.9413-0.43956-1.0989-0.0733-6.3737-0.10989h-21.392z"/>
   <path d="m1109.4 396.5h26.703l26.19 37.289h1.5751l-0.3663-37.289h15.494v50h-26.484l-26.3-37.289h-1.6484l0.3297 37.289h-15.494z"/>
   <path d="m1244.3 446.5-4.2857-8.4615h-33.077l-4.2857 8.4615h-17.399l26.52-50h23.663l26.154 50zm-9.6337-19.414-9.6337-18.938h-3.0403l-9.6337 18.938z"/>
   <path d="m1255.4 396.5h60.513v12.747h-22.234v37.253h-16.007v-37.253h-22.271z"/>
   <path d="m1324.4 396.5h16.007v50h-16.007z"/>
   <path d="m1385.7 395.77q16.19 0 22.271 0.80586 8.7546 1.1722 10.733 8.315 1.3553 4.9084 1.3553 16.593 0 11.722-1.3553 16.63-1.978 7.1429-10.733 8.315-6.0806 0.80586-22.124 0.80586-16.337 0-22.418-0.80586-8.7546-1.1722-10.733-8.315-1.3553-4.9084-1.3553-16.923 0-11.429 1.3553-16.3 1.978-7.1429 10.733-8.315 6.044-0.80586 22.271-0.80586zm0.037 13.004q-12.124 0-14.579 0.62271-2.8206 0.7326-3.6997 3.2967-0.8791 2.5275-0.8791 10.11 0 4.5788 0.4762 6.63 0.9157 3.8095 5.5311 4.359 3.4066 0.43956 13.224 0.43956 9.1941 0 12.234-0.32967t4.5055-1.4652q1.3187-1.0256 1.7949-3.0037 0.4762-2.0147 0.4762-6.5568 0-5.3846-0.3663-7.9121-0.3663-2.5275-1.3187-3.8095-1.2088-1.6117-3.9927-1.978-2.7839-0.40293-13.407-0.40293z"/>
   <path d="m1431.1 396.5h26.703l26.19 37.289h1.5751l-0.3663-37.289h15.494v50h-26.484l-26.3-37.289h-1.6483l0.3297 37.289h-15.494z"/>
   <path d="m1568.2 446.5-4.2857-8.4615h-33.077l-4.2857 8.4615h-17.399l26.52-50h23.663l26.154 50zm-9.6337-19.414-9.6337-18.938h-3.0403l-9.6337 18.938z"/>
   <path d="m1592.8 396.5h16.007v37.253h35.568v12.747h-51.575z"/>
   <path d="m51.4 23c-9.5647 0-18.234 3.8505-24.643 10.277-6.4081 6.4269-10.758 15.717-10.758 26.723v223c0 11.005 4.3497 20.296 10.758 26.723 6.4081 6.4269 15.078 10.277 24.643 10.277h274.2c9.5647 0 18.234-3.8505 24.643-10.277 6.4081-6.4269 10.758-15.717 10.758-26.723v-223c0-11.005-4.3497-20.296-10.758-26.723s-15.078-10.277-24.643-10.277zm0 6h274.2c9.1582 4e-6 17.437 3.7619 23.299 9.6406 5.8616 5.8787 9.1016 13.587 9.1016 21.359v223c0 7.7722-3.24 15.481-9.1016 21.359-5.8616 5.8787-14.141 9.6406-23.299 9.6406h-274.2c-9.1582 0-17.437-3.7619-23.299-9.6406-5.8616-5.8787-9.1016-13.587-9.1016-21.359v-223c0-7.7722 3.24-15.481 9.1016-21.359 5.8616-5.8787 14.141-9.6406 23.299-9.6406z"/>
  </g>
 </g>
</svg>
