<?xml version="1.0" encoding="UTF-8"?>
<!-- Created with Inkscape (http://www.inkscape.org/) -->
<svg width="3350" height="890" version="1.1" viewBox="0 0 3350 890" xml:space="preserve" xmlns="http://www.w3.org/2000/svg"><g transform="translate(2571,113)"><g stroke-miterlimit="9"><path d="m-2571-113h3350v890h-3350z" fill="#fff"/><path d="m145 462a1.0001 1.0001 0 0 0-1 1v4a1.0001 1.0001 0 0 0 1 1h30a1.0001 1.0001 0 0 0 1-1v-4a1.0001 1.0001 0 0 0-1-1zm67 0a1.0001 1.0001 0 0 0-1 1v4a1.0001 1.0001 0 0 0 1 1h106a1.0001 1.0001 0 0 0 1-1v-4a1.0001 1.0001 0 0 0-1-1zm143 0a1.0001 1.0001 0 0 0-1 1v4a1.0001 1.0001 0 0 0 1 1h249a1.0001 1.0001 0 0 0 1-1v-4a1.0001 1.0001 0 0 0-1-1zm-210 12.5a1.0001 1.0001 0 0 0-1 1v4a1.0001 1.0001 0 0 0 1 1h30a1.0001 1.0001 0 0 0 1-1v-4a1.0001 1.0001 0 0 0-1-1zm67 0a1.0001 1.0001 0 0 0-1 1v4a1.0001 1.0001 0 0 0 1 1h106a1.0001 1.0001 0 0 0 1-1v-4a1.0001 1.0001 0 0 0-1-1zm143 0a1.0001 1.0001 0 0 0-1 1v4a1.0001 1.0001 0 0 0 1 1h249a1.0001 1.0001 0 0 0 1-1v-4a1.0001 1.0001 0 0 0-1-1zm-210 12.5a1.0001 1.0001 0 0 0-1 1v4a1.0001 1.0001 0 0 0 1 1h30a1.0001 1.0001 0 0 0 1-1v-4a1.0001 1.0001 0 0 0-1-1zm67 0a1.0001 1.0001 0 0 0-1 1v4a1.0001 1.0001 0 0 0 1 1h106a1.0001 1.0001 0 0 0 1-1v-4a1.0001 1.0001 0 0 0-1-1zm143 0a1.0001 1.0001 0 0 0-1 1v4a1.0001 1.0001 0 0 0 1 1h249a1.0001 1.0001 0 0 0 1-1v-4a1.0001 1.0001 0 0 0-1-1zm-210 12.5a1.0001 1.0001 0 0 0-1 1v4a1.0001 1.0001 0 0 0 1 1h30a1.0001 1.0001 0 0 0 1-1v-4a1.0001 1.0001 0 0 0-1-1zm143 0a1.0001 1.0001 0 0 0-1 1v4a1.0001 1.0001 0 0 0 1 1h30a1.0001 1.0001 0 0 0 1-1v-4a1.0001 1.0001 0 0 0-1-1zm143 0a1.0001 1.0001 0 0 0-1 1v4a1.0001 1.0001 0 0 0 1 1h30a1.0001 1.0001 0 0 0 1-1v-4a1.0001 1.0001 0 0 0-1-1zm143 0a1.0001 1.0001 0 0 0-1 1v4a1.0001 1.0001 0 0 0 1 1h30a1.0001 1.0001 0 0 0 1-1v-4a1.0001 1.0001 0 0 0-1-1zm-429 12.5a1.0001 1.0001 0 0 0-1 1v4a1.0001 1.0001 0 0 0 1 1h30a1.0001 1.0001 0 0 0 1-1v-4a1.0001 1.0001 0 0 0-1-1zm143 0a1.0001 1.0001 0 0 0-1 1v4a1.0001 1.0001 0 0 0 1 1h30a1.0001 1.0001 0 0 0 1-1v-4a1.0001 1.0001 0 0 0-1-1zm143 0a1.0001 1.0001 0 0 0-1 1v4a1.0001 1.0001 0 0 0 1 1h30a1.0001 1.0001 0 0 0 1-1v-4a1.0001 1.0001 0 0 0-1-1zm143 0a1.0001 1.0001 0 0 0-1 1v4a1.0001 1.0001 0 0 0 1 1h30a1.0001 1.0001 0 0 0 1-1v-4a1.0001 1.0001 0 0 0-1-1zm-429 12.5a1.0001 1.0001 0 0 0-1 1v4a1.0001 1.0001 0 0 0 1 1h30a1.0001 1.0001 0 0 0 1-1v-4a1.0001 1.0001 0 0 0-1-1zm67 0a1.0001 1.0001 0 0 0-1 1v4a1.0001 1.0001 0 0 0 1 1h42a1.0001 1.0001 0 0 0 1-1v-4a1.0001 1.0001 0 0 0-1-1zm76 0a1.0001 1.0001 0 0 0-1 1v4a1.0001 1.0001 0 0 0 1 1h30a1.0001 1.0001 0 0 0 1-1v-4a1.0001 1.0001 0 0 0-1-1zm67 0a1.0001 1.0001 0 0 0-1 1v4a1.0001 1.0001 0 0 0 1 1h42a1.0001 1.0001 0 0 0 1-1v-4a1.0001 1.0001 0 0 0-1-1zm76 0a1.0001 1.0001 0 0 0-1 1v4a1.0001 1.0001 0 0 0 1 1h30a1.0001 1.0001 0 0 0 1-1v-4a1.0001 1.0001 0 0 0-1-1zm67 0a1.0001 1.0001 0 0 0-1 1v4a1.0001 1.0001 0 0 0 1 1h42a1.0001 1.0001 0 0 0 1-1v-4a1.0001 1.0001 0 0 0-1-1zm76 0a1.0001 1.0001 0 0 0-1 1v4a1.0001 1.0001 0 0 0 1 1h30a1.0001 1.0001 0 0 0 1-1v-4a1.0001 1.0001 0 0 0-1-1zm-429 12.5a1.0001 1.0001 0 0 0-1 1v4a1.0001 1.0001 0 0 0 1 1h30a1.0001 1.0001 0 0 0 1-1v-4a1.0001 1.0001 0 0 0-1-1zm67 0a1.0001 1.0001 0 0 0-1 1v4a1.0001 1.0001 0 0 0 1 1h42a1.0001 1.0001 0 0 0 1-1v-4a1.0001 1.0001 0 0 0-1-1zm76 0a1.0001 1.0001 0 0 0-1 1v4a1.0001 1.0001 0 0 0 1 1h30a1.0001 1.0001 0 0 0 1-1v-4a1.0001 1.0001 0 0 0-1-1zm67 0a1.0001 1.0001 0 0 0-1 1v4a1.0001 1.0001 0 0 0 1 1h42a1.0001 1.0001 0 0 0 1-1v-4a1.0001 1.0001 0 0 0-1-1zm76 0a1.0001 1.0001 0 0 0-1 1v4a1.0001 1.0001 0 0 0 1 1h30a1.0001 1.0001 0 0 0 1-1v-4a1.0001 1.0001 0 0 0-1-1zm67 0a1.0001 1.0001 0 0 0-1 1v4a1.0001 1.0001 0 0 0 1 1h42a1.0001 1.0001 0 0 0 1-1v-4a1.0001 1.0001 0 0 0-1-1zm76 0a1.0001 1.0001 0 0 0-1 1v4a1.0001 1.0001 0 0 0 1 1h30a1.0001 1.0001 0 0 0 1-1v-4a1.0001 1.0001 0 0 0-1-1zm-429 12.5a1.0001 1.0001 0 0 0-1 1v4a1.0001 1.0001 0 0 0 1 1h30a1.0001 1.0001 0 0 0 1-1v-4a1.0001 1.0001 0 0 0-1-1zm67 0a1.0001 1.0001 0 0 0-1 1v4a1.0001 1.0001 0 0 0 1 1h42a1.0001 1.0001 0 0 0 1-1v-4a1.0001 1.0001 0 0 0-1-1zm76 0a1.0001 1.0001 0 0 0-1 1v4a1.0001 1.0001 0 0 0 1 1h30a1.0001 1.0001 0 0 0 1-1v-4a1.0001 1.0001 0 0 0-1-1zm67 0a1.0001 1.0001 0 0 0-1 1v4a1.0001 1.0001 0 0 0 1 1h42a1.0001 1.0001 0 0 0 1-1v-4a1.0001 1.0001 0 0 0-1-1zm76 0a1.0001 1.0001 0 0 0-1 1v4a1.0001 1.0001 0 0 0 1 1h30a1.0001 1.0001 0 0 0 1-1v-4a1.0001 1.0001 0 0 0-1-1zm67 0a1.0001 1.0001 0 0 0-1 1v4a1.0001 1.0001 0 0 0 1 1h42a1.0001 1.0001 0 0 0 1-1v-4a1.0001 1.0001 0 0 0-1-1zm76 0a1.0001 1.0001 0 0 0-1 1v4a1.0001 1.0001 0 0 0 1 1h30a1.0001 1.0001 0 0 0 1-1v-4a1.0001 1.0001 0 0 0-1-1zm-429 12.5a1.0001 1.0001 0 0 0-1 1v4a1.0001 1.0001 0 0 0 1 1h30a1.0001 1.0001 0 0 0 1-1v-4a1.0001 1.0001 0 0 0-1-1zm67 0a1.0001 1.0001 0 0 0-1 1v4a1.0001 1.0001 0 0 0 1 1h42a1.0001 1.0001 0 0 0 1-1v-4a1.0001 1.0001 0 0 0-1-1zm76 0a1.0001 1.0001 0 0 0-1 1v4a1.0001 1.0001 0 0 0 1 1h30a1.0001 1.0001 0 0 0 1-1v-4a1.0001 1.0001 0 0 0-1-1zm67 0a1.0001 1.0001 0 0 0-1 1v4a1.0001 1.0001 0 0 0 1 1h42a1.0001 1.0001 0 0 0 1-1v-4a1.0001 1.0001 0 0 0-1-1zm76 0a1.0001 1.0001 0 0 0-1 1v4a1.0001 1.0001 0 0 0 1 1h30a1.0001 1.0001 0 0 0 1-1v-4a1.0001 1.0001 0 0 0-1-1zm67 0a1.0001 1.0001 0 0 0-1 1v4a1.0001 1.0001 0 0 0 1 1h42a1.0001 1.0001 0 0 0 1-1v-4a1.0001 1.0001 0 0 0-1-1zm76 0a1.0001 1.0001 0 0 0-1 1v4a1.0001 1.0001 0 0 0 1 1h30a1.0001 1.0001 0 0 0 1-1v-4a1.0001 1.0001 0 0 0-1-1zm-429 12.5a1.0001 1.0001 0 0 0-1 1v4a1.0001 1.0001 0 0 0 1 1h30a1.0001 1.0001 0 0 0 1-1v-4a1.0001 1.0001 0 0 0-1-1zm143 0a1.0001 1.0001 0 0 0-1 1v4a1.0001 1.0001 0 0 0 1 1h30a1.0001 1.0001 0 0 0 1-1v-4a1.0001 1.0001 0 0 0-1-1zm143 0a1.0001 1.0001 0 0 0-1 1v4a1.0001 1.0001 0 0 0 1 1h30a1.0001 1.0001 0 0 0 1-1v-4a1.0001 1.0001 0 0 0-1-1zm67 0a1.0001 1.0001 0 0 0-1 1v4a1.0001 1.0001 0 0 0 1 1h42a1.0001 1.0001 0 0 0 1-1v-4a1.0001 1.0001 0 0 0-1-1zm76 0a1.0001 1.0001 0 0 0-1 1v4a1.0001 1.0001 0 0 0 1 1h30a1.0001 1.0001 0 0 0 1-1v-4a1.0001 1.0001 0 0 0-1-1zm-429 12.5a1.0001 1.0001 0 0 0-1 1v4a1.0001 1.0001 0 0 0 1 1h30a1.0001 1.0001 0 0 0 1-1v-4a1.0001 1.0001 0 0 0-1-1zm143 0a1.0001 1.0001 0 0 0-1 1v4a1.0001 1.0001 0 0 0 1 1h30a1.0001 1.0001 0 0 0 1-1v-4a1.0001 1.0001 0 0 0-1-1zm143 0a1.0001 1.0001 0 0 0-1 1v4a1.0001 1.0001 0 0 0 1 1h30a1.0001 1.0001 0 0 0 1-1v-4a1.0001 1.0001 0 0 0-1-1zm67 0a1.0001 1.0001 0 0 0-1 1v4a1.0001 1.0001 0 0 0 1 1h42a1.0001 1.0001 0 0 0 1-1v-4a1.0001 1.0001 0 0 0-1-1zm76 0a1.0001 1.0001 0 0 0-1 1v4a1.0001 1.0001 0 0 0 1 1h30a1.0001 1.0001 0 0 0 1-1v-4a1.0001 1.0001 0 0 0-1-1zm-429 12.5a1.0001 1.0001 0 0 0-1 1v4a1.0001 1.0001 0 0 0 1 1h459a1.0001 1.0001 0 0 0 1-1v-4a1.0001 1.0001 0 0 0-1-1zm0 12.5a1.0001 1.0001 0 0 0-1 1v4a1.0001 1.0001 0 0 0 1 1h459a1.0001 1.0001 0 0 0 1-1v-4a1.0001 1.0001 0 0 0-1-1zm0 12.5a1.0001 1.0001 0 0 0-1 1v4a1.0001 1.0001 0 0 0 1 1h459a1.0001 1.0001 0 0 0 1-1v-4a1.0001 1.0001 0 0 0-1-1z" color="#000000"/><path d="m-836 66h21.075c13.8 0 22.275-10.35 22.275-27.375 0-16.95-8.4-27.3-22.275-27.3h-21.075zm6.975-6.15v-42.375h12.9c10.8 0 16.5 7.275 16.5 21.225 0 13.875-5.7 21.15-16.5 21.15z"/><path d="m-749.28 48.45c0-6-0.45-9.6-1.575-12.525-2.55-6.45-8.55-10.35-15.9-10.35-10.95 0-18 8.325-18 21.3s6.75 20.85 17.85 20.85c9 0 15.225-5.1 16.8-13.65h-6.3c-1.725 5.175-5.25 7.875-10.275 7.875-3.975 0-7.35-1.8-9.45-5.1-1.5-2.25-2.025-4.5-2.1-8.4zm-28.8-5.1c0.525-7.275 4.95-12 11.25-12 6.375 0 10.8 4.95 10.8 12z"/><path d="m-724.8 66 15.075-39.3h-7.05l-11.1 31.875-10.5-31.875h-7.05l13.8 39.3z"/><path d="m-670.7 48.45c0-6-0.45-9.6-1.575-12.525-2.55-6.45-8.55-10.35-15.9-10.35-10.95 0-18 8.325-18 21.3s6.75 20.85 17.85 20.85c9 0 15.225-5.1 16.8-13.65h-6.3c-1.725 5.175-5.25 7.875-10.275 7.875-3.975 0-7.35-1.8-9.45-5.1-1.5-2.25-2.025-4.5-2.1-8.4zm-28.8-5.1c0.525-7.275 4.95-12 11.25-12 6.375 0 10.8 4.95 10.8 12z"/><path d="m-655.38 11.325h-6.3v54.675h6.3z"/><path d="m-628.73 25.575c-11.1 0-17.7 7.875-17.7 21.075 0 13.275 6.6 21.075 17.775 21.075 11.1 0 17.775-7.875 17.775-20.775 0-13.65-6.45-21.375-17.85-21.375zm0.075 5.775c7.05 0 11.25 5.775 11.25 15.525 0 9.3-4.35 15.075-11.25 15.075-6.975 0-11.25-5.775-11.25-15.3s4.275-15.3 11.25-15.3z"/><path d="m-602.38 82.35h6.3v-20.475c3.3 4.05 6.975 5.85 12.075 5.85 10.2 0 16.8-8.175 16.8-20.7 0-13.2-6.45-21.45-16.875-21.45-5.325 0-9.6 2.4-12.525 7.05v-5.925h-5.775zm17.25-50.925c6.9 0 11.4 6.075 11.4 15.45 0 8.925-4.575 15-11.4 15-6.675 0-10.95-6-10.95-15.225s4.275-15.225 10.95-15.225z"/><path d="m-525.25 48.45c0-6-0.45-9.6-1.575-12.525-2.55-6.45-8.55-10.35-15.9-10.35-10.95 0-18 8.325-18 21.3s6.75 20.85 17.85 20.85c9 0 15.225-5.1 16.8-13.65h-6.3c-1.725 5.175-5.25 7.875-10.275 7.875-3.975 0-7.35-1.8-9.45-5.1-1.5-2.25-2.025-4.5-2.1-8.4zm-28.8-5.1c0.525-7.275 4.95-12 11.25-12 6.375 0 10.8 4.95 10.8 12z"/><path d="m-483.9 11.325h-6.225v20.325c-2.625-3.975-6.825-6.075-12.075-6.075-10.2 0-16.875 8.175-16.875 20.7 0 13.275 6.45 21.45 17.1 21.45 5.4 0 9.15-2.025 12.525-6.9v5.175h5.55zm-17.25 20.1c6.75 0 11.025 5.925 11.025 15.375 0 9.075-4.35 15.075-10.95 15.075-6.9 0-11.475-6.075-11.475-15.225s4.575-15.225 11.4-15.225z"/><path d="m-425.13 26.7h-6.525v-6.15c0-2.625 1.425-3.975 4.35-3.975 0.525 0 0.75 0 2.175 0.075v-5.175c-1.425-0.3-2.25-0.375-3.525-0.375-5.775 0-9.225 3.3-9.225 8.925v6.675h-5.25v5.1h5.25v34.2h6.225v-34.2h6.525z"/><path d="m-399.98 25.575c-11.1 0-17.7 7.875-17.7 21.075 0 13.275 6.6 21.075 17.775 21.075 11.1 0 17.775-7.875 17.775-20.775 0-13.65-6.45-21.375-17.85-21.375zm0.075 5.775c7.05 0 11.25 5.775 11.25 15.525 0 9.3-4.35 15.075-11.25 15.075-6.975 0-11.25-5.775-11.25-15.3s4.275-15.3 11.25-15.3z"/><path d="m-369.5 26.7v39.3h6.3v-20.4c0.075-9.45 3.975-13.65 12.6-13.425v-6.375c-1.05-0.15-1.65-0.225-2.4-0.225-4.05 0-7.125 2.4-10.725 8.25v-7.125z"/><path d="m-817 102.7h-6.45v-10.8h-6.225v10.8h-5.325v5.1h5.325v29.7c0 4.05 2.7 6.225 7.575 6.225 1.65 0 3-0.15 5.1-0.525v-5.25c-0.9 0.225-1.725 0.3-3 0.3-2.7 0-3.45-0.75-3.45-3.525v-26.925h6.45z"/><path d="m-806.9 87.325v54.675h6.225v-21.675c0-8.025 4.2-13.275 10.65-13.275 2.1 0 4.05 0.6 5.55 1.725 1.8 1.35 2.55 3.225 2.55 6v27.225h6.225v-29.7c0-6.6-4.725-10.725-12.375-10.725-5.55 0-8.925 1.725-12.6 6.525v-20.775z"/><path d="m-728.48 124.45c0-6-0.45-9.6-1.575-12.525-2.55-6.45-8.55-10.35-15.9-10.35-10.95 0-18 8.325-18 21.3s6.75 20.85 17.85 20.85c9 0 15.225-5.1 16.8-13.65h-6.3c-1.725 5.175-5.25 7.875-10.275 7.875-3.975 0-7.35-1.8-9.45-5.1-1.5-2.25-2.025-4.5-2.1-8.4zm-28.8-5.1c0.525-7.275 4.95-12 11.25-12 6.375 0 10.8 4.95 10.8 12z"/><path d="m-655.85 125.58 5.625 16.425h7.8l-19.2-54.675h-9l-19.5 54.675h7.425l5.775-16.425zm-1.95-5.85h-17.4l9-24.9z"/><path d="m-603.53 87.325h-6.225v20.325c-2.625-3.975-6.825-6.075-12.075-6.075-10.2 0-16.875 8.175-16.875 20.7 0 13.275 6.45 21.45 17.1 21.45 5.4 0 9.15-2.025 12.525-6.9v5.175h5.55zm-17.25 20.1c6.75 0 11.025 5.925 11.025 15.375 0 9.075-4.35 15.075-10.95 15.075-6.9 0-11.475-6.075-11.475-15.225s4.575-15.225 11.4-15.225z"/><path d="m-576.03 142 15.075-39.3h-7.05l-11.1 31.875-10.5-31.875h-7.05l13.8 39.3z"/><path d="m-519.8 138.32c-0.675 0.15-0.975 0.15-1.35 0.15-2.175 0-3.375-1.125-3.375-3.075v-23.1c0-6.975-5.1-10.725-14.775-10.725-5.775 0-10.35 1.65-13.05 4.575-1.8 2.025-2.55 4.275-2.7 8.175h6.3c0.525-4.8 3.375-6.975 9.225-6.975 5.7 0 8.775 2.1 8.775 5.85v1.65c-0.075 2.7-1.425 3.675-6.525 4.35-8.85 1.125-10.2 1.425-12.6 2.4-4.575 1.95-6.9 5.4-6.9 10.5 0 7.125 4.95 11.625 12.9 11.625 4.95 0 8.925-1.725 13.35-5.775 0.45 4.05 2.4 5.775 6.45 5.775 1.35 0 2.175-0.15 4.275-0.675zm-10.95-8.7c0 2.1-0.6 3.375-2.475 5.1-2.55 2.325-5.625 3.525-9.3 3.525-4.875 0-7.725-2.325-7.725-6.3 0-4.125 2.7-6.225 9.45-7.2 6.675-0.9 7.95-1.2 10.05-2.175z"/><path d="m-511.73 102.7v39.3h6.3v-21.675c0-8.025 4.2-13.275 10.65-13.275 4.95 0 8.1 3 8.1 7.725v27.225h6.225v-29.7c0-6.525-4.875-10.725-12.45-10.725-5.85 0-9.6 2.25-13.05 7.725v-6.6z"/><path d="m-438.7 115.9c-0.3-3.825-1.125-6.3-2.625-8.475-2.7-3.675-7.425-5.85-12.9-5.85-10.65 0-17.475 8.4-17.475 21.45 0 12.675 6.75 20.7 17.4 20.7 9.375 0 15.3-5.625 16.05-15.225h-6.3c-1.05 6.3-4.275 9.45-9.6 9.45-6.9 0-11.025-5.625-11.025-14.925 0-9.825 4.05-15.675 10.875-15.675 5.25 0 8.55 3.075 9.3 8.55z"/><path d="m-396.35 124.45c0-6-0.45-9.6-1.575-12.525-2.55-6.45-8.55-10.35-15.9-10.35-10.95 0-18 8.325-18 21.3s6.75 20.85 17.85 20.85c9 0 15.225-5.1 16.8-13.65h-6.3c-1.725 5.175-5.25 7.875-10.275 7.875-3.975 0-7.35-1.8-9.45-5.1-1.5-2.25-2.025-4.5-2.1-8.4zm-28.8-5.1c0.525-7.275 4.95-12 11.25-12 6.375 0 10.8 4.95 10.8 12z"/><path d="m-354.75 87.325h-6.225v20.325c-2.625-3.975-6.825-6.075-12.075-6.075-10.2 0-16.875 8.175-16.875 20.7 0 13.275 6.45 21.45 17.1 21.45 5.4 0 9.15-2.025 12.525-6.9v5.175h5.55zm-17.25 20.1c6.75 0 11.025 5.925 11.025 15.375 0 9.075-4.35 15.075-10.95 15.075-6.9 0-11.475-6.075-11.475-15.225s4.575-15.225 11.4-15.225z"/><path d="m-304.63 118.45h18c6.225 0 9 3 9 9.75l-0.075 4.875c0 3.375 0.6 6.675 1.575 8.925h8.475c-1.9576-5.3434-3.2008-8.534-3.3-12.75-0.075-9-1.5-11.7-7.425-14.25 6.15-3.075 8.625-6.75 8.625-13.05 0-9.45-5.85-14.625-16.65-14.625h-25.2v54.675h6.975zm0-6.15v-18.825h16.875c3.9 0 6.15 0.6 7.875 2.1 1.875 1.575 2.85 4.05 2.85 7.275 0 6.525-3.3 9.45-10.725 9.45z"/><path d="m-224.45 124.45c0-6-0.45-9.6-1.575-12.525-2.55-6.45-8.55-10.35-15.9-10.35-10.95 0-18 8.325-18 21.3s6.75 20.85 17.85 20.85c9 0 15.225-5.1 16.8-13.65h-6.3c-1.725 5.175-5.25 7.875-10.275 7.875-3.975 0-7.35-1.8-9.45-5.1-1.5-2.25-2.025-4.5-2.1-8.4zm-28.8-5.1c0.525-7.275 4.95-12 11.25-12 6.375 0 10.8 4.95 10.8 12z"/><path d="m-186.43 113.65c-0.075-7.725-5.175-12.075-14.25-12.075-9.15 0-15.075 4.725-15.075 12 0 6.15 3.15 9.075 12.45 11.325l5.85 1.425c4.35 1.05 6.075 2.625 6.075 5.4 0 3.75-3.675 6.225-9.15 6.225-3.375 0-6.225-0.975-7.8-2.625-0.975-1.125-1.425-2.25-1.8-5.025h-6.6c0.3 9.075 5.4 13.425 15.675 13.425 9.9 0 16.2-4.875 16.2-12.45 0-5.85-3.3-9.075-11.1-10.95l-6-1.425c-5.1-1.2-7.275-2.85-7.275-5.625 0-3.675 3.225-5.925 8.325-5.925 5.025 0 7.725 2.175 7.875 6.3z"/><path d="m-141.05 124.45c0-6-0.45-9.6-1.575-12.525-2.55-6.45-8.55-10.35-15.9-10.35-10.95 0-18 8.325-18 21.3s6.75 20.85 17.85 20.85c9 0 15.225-5.1 16.8-13.65h-6.3c-1.725 5.175-5.25 7.875-10.275 7.875-3.975 0-7.35-1.8-9.45-5.1-1.5-2.25-2.025-4.5-2.1-8.4zm-28.8-5.1c0.525-7.275 4.95-12 11.25-12 6.375 0 10.8 4.95 10.8 12z"/><path d="m-95.976 138.32c-0.675 0.15-0.975 0.15-1.35 0.15-2.175 0-3.375-1.125-3.375-3.075v-23.1c0-6.975-5.1-10.725-14.775-10.725-5.775 0-10.35 1.65-13.05 4.575-1.8 2.025-2.55 4.275-2.7 8.175h6.3c0.525-4.8 3.375-6.975 9.225-6.975 5.7 0 8.775 2.1 8.775 5.85v1.65c-0.075 2.7-1.425 3.675-6.525 4.35-8.85 1.125-10.2 1.425-12.6 2.4-4.575 1.95-6.9 5.4-6.9 10.5 0 7.125 4.95 11.625 12.9 11.625 4.95 0 8.925-1.725 13.35-5.775 0.45 4.05 2.4 5.775 6.45 5.775 1.35 0 2.175-0.15 4.275-0.675zm-10.95-8.7c0 2.1-0.6 3.375-2.475 5.1-2.55 2.325-5.625 3.525-9.3 3.525-4.875 0-7.725-2.325-7.725-6.3 0-4.125 2.7-6.225 9.45-7.2 6.675-0.9 7.95-1.2 10.05-2.175z"/><path d="m-86.976 102.7v39.3h6.3v-20.4c0.075-9.45 3.975-13.65 12.6-13.425v-6.375c-1.05-0.15-1.65-0.225-2.4-0.225-4.05 0-7.125 2.4-10.725 8.25v-7.125z"/><path d="m-29.902 115.9c-0.3-3.825-1.125-6.3-2.625-8.475-2.7-3.675-7.425-5.85-12.9-5.85-10.65 0-17.475 8.4-17.475 21.45 0 12.675 6.75 20.7 17.4 20.7 9.375 0 15.3-5.625 16.05-15.225h-6.3c-1.05 6.3-4.275 9.45-9.6 9.45-6.9 0-11.025-5.625-11.025-14.925 0-9.825 4.05-15.675 10.875-15.675 5.25 0 8.55 3.075 9.3 8.55z"/><path d="m-20.227 87.325v54.675h6.225v-21.675c0-8.025 4.2-13.275 10.65-13.275 2.1 0 4.05 0.6 5.55 1.725 1.8 1.35 2.55 3.225 2.55 6v27.225h6.225v-29.7c0-6.6-4.725-10.725-12.375-10.725-5.55 0-8.925 1.725-12.6 6.525v-20.775z"/><path d="m56.623 118.82h17.175c4.275 0 7.65-1.275 10.575-3.9 3.3-3 4.725-6.525 4.725-11.55 0-10.275-6.075-16.05-16.875-16.05h-22.575v54.675h6.975zm0-6.15v-19.2h14.55c6.675 0 10.65 3.6 10.65 9.6s-3.975 9.6-10.65 9.6z"/><path d="m100.02 102.7v39.3h6.3v-20.4c0.075-9.45 3.975-13.65 12.6-13.425v-6.375c-1.05-0.15-1.65-0.225-2.4-0.225-4.05 0-7.125 2.4-10.725 8.25v-7.125z"/><path d="m141.77 101.58c-11.1 0-17.7 7.875-17.7 21.075 0 13.275 6.6 21.075 17.775 21.075 11.1 0 17.775-7.875 17.775-20.775 0-13.65-6.45-21.375-17.85-21.375zm0.075 5.775c7.05 0 11.25 5.775 11.25 15.525 0 9.3-4.35 15.075-11.25 15.075-6.975 0-11.25-5.775-11.25-15.3s4.275-15.3 11.25-15.3z"/><path d="m169.87 102.7v45c0 3.9-1.2 5.175-5.1 5.175-0.45 0-0.675 0-1.5-0.075v5.325c0.75 0.15 1.125 0.225 2.1 0.225 7.05 0 10.725-2.775 10.725-8.175v-47.475zm6.225-15.375h-6.225v7.875h6.225z"/><path d="m221.75 124.45c0-6-0.45-9.6-1.575-12.525-2.55-6.45-8.55-10.35-15.9-10.35-10.95 0-18 8.325-18 21.3s6.75 20.85 17.85 20.85c9 0 15.225-5.1 16.8-13.65h-6.3c-1.725 5.175-5.25 7.875-10.275 7.875-3.975 0-7.35-1.8-9.45-5.1-1.5-2.25-2.025-4.5-2.1-8.4zm-28.8-5.1c0.525-7.275 4.95-12 11.25-12 6.375 0 10.8 4.95 10.8 12z"/><path d="m262.3 115.9c-0.3-3.825-1.125-6.3-2.625-8.475-2.7-3.675-7.425-5.85-12.9-5.85-10.65 0-17.475 8.4-17.475 21.45 0 12.675 6.75 20.7 17.4 20.7 9.375 0 15.3-5.625 16.05-15.225h-6.3c-1.05 6.3-4.275 9.45-9.6 9.45-6.9 0-11.025-5.625-11.025-14.925 0-9.825 4.05-15.675 10.875-15.675 5.25 0 8.55 3.075 9.3 8.55z"/><path d="m286.12 102.7h-6.45v-10.8h-6.225v10.8h-5.325v5.1h5.325v29.7c0 4.05 2.7 6.225 7.575 6.225 1.65 0 3-0.15 5.1-0.525v-5.25c-0.9 0.225-1.725 0.3-3 0.3-2.7 0-3.45-0.75-3.45-3.525v-26.925h6.45z"/><path d="m322.77 113.65c-0.075-7.725-5.175-12.075-14.25-12.075-9.15 0-15.075 4.725-15.075 12 0 6.15 3.15 9.075 12.45 11.325l5.85 1.425c4.35 1.05 6.075 2.625 6.075 5.4 0 3.75-3.675 6.225-9.15 6.225-3.375 0-6.225-0.975-7.8-2.625-0.975-1.125-1.425-2.25-1.8-5.025h-6.6c0.3 9.075 5.4 13.425 15.675 13.425 9.9 0 16.2-4.875 16.2-12.45 0-5.85-3.3-9.075-11.1-10.95l-6-1.425c-5.1-1.2-7.275-2.85-7.275-5.625 0-3.675 3.225-5.925 8.325-5.925 5.025 0 7.725 2.175 7.875 6.3z"/><path d="m389.32 125.58 5.625 16.425h7.8l-19.2-54.675h-9l-19.5 54.675h7.425l5.775-16.425zm-1.95-5.85h-17.4l9-24.9z"/><path d="m436.2 102.7v5.7c-3.15-4.725-6.6-6.825-11.55-6.825-9.525 0-16.125 8.85-16.125 21.45 0 6.6 1.575 11.4 4.95 15.375 2.925 3.45 6.675 5.325 10.725 5.325 4.725 0 8.1-2.1 11.4-7.05v2.025c0 10.5-2.925 14.4-10.725 14.4-5.325 0-8.1-2.1-8.7-6.6h-6.375c0.6 7.275 6.375 11.85 14.925 11.85 5.775 0 10.575-1.875 13.125-5.025 3-3.675 4.125-8.55 4.125-17.775v-32.85zm-10.95 4.65c6.6 0 10.35 5.55 10.35 15.525 0 9.525-3.825 15.075-10.35 15.075-6.45 0-10.2-5.625-10.2-15.3 0-9.6 3.75-15.3 10.2-15.3z"/><path d="m488.7 124.45c0-6-0.45-9.6-1.575-12.525-2.55-6.45-8.55-10.35-15.9-10.35-10.95 0-18 8.325-18 21.3s6.75 20.85 17.85 20.85c9 0 15.225-5.1 16.8-13.65h-6.3c-1.725 5.175-5.25 7.875-10.275 7.875-3.975 0-7.35-1.8-9.45-5.1-1.5-2.25-2.025-4.5-2.1-8.4zm-28.8-5.1c0.525-7.275 4.95-12 11.25-12 6.375 0 10.8 4.95 10.8 12z"/><path d="m500.17 102.7v39.3h6.3v-21.675c0-8.025 4.2-13.275 10.65-13.275 4.95 0 8.1 3 8.1 7.725v27.225h6.225v-29.7c0-6.525-4.875-10.725-12.45-10.725-5.85 0-9.6 2.25-13.05 7.725v-6.6z"/><path d="m574.95 115.9c-0.3-3.825-1.125-6.3-2.625-8.475-2.7-3.675-7.425-5.85-12.9-5.85-10.65 0-17.475 8.4-17.475 21.45 0 12.675 6.75 20.7 17.4 20.7 9.375 0 15.3-5.625 16.05-15.225h-6.3c-1.05 6.3-4.275 9.45-9.6 9.45-6.9 0-11.025-5.625-11.025-14.925 0-9.825 4.05-15.675 10.875-15.675 5.25 0 8.55 3.075 9.3 8.55z"/><path d="m608.77 102.7-10.875 30.6-10.05-30.6h-6.675l13.275 39.45-2.4 6.225c-1.05 2.775-2.4 3.825-5.025 3.825-1.05 0-1.95-0.15-3.3-0.45v5.625c1.275 0.675 2.55 0.975 4.2 0.975 2.025 0 4.2-0.675 5.85-1.875 1.95-1.425 3.075-3.075 4.275-6.225l17.475-47.55z"/><path d="m-830 163.32v54.675h5.625v-5.025c3 4.575 6.975 6.75 12.45 6.75 10.35 0 17.1-8.475 17.1-21.525 0-12.75-6.375-20.625-16.8-20.625-5.4 0-9.225 2.025-12.15 6.45v-20.7zm17.175 20.1c6.975 0 11.475 6.075 11.475 15.45 0 8.925-4.65 15-11.475 15-6.675 0-10.95-6-10.95-15.225s4.275-15.225 10.95-15.225z"/><path d="m-760.53 178.7-10.875 30.6-10.05-30.6h-6.675l13.275 39.45-2.4 6.225c-1.05 2.775-2.4 3.825-5.025 3.825-1.05 0-1.95-0.15-3.3-0.45v5.625c1.275 0.675 2.55 0.975 4.2 0.975 2.025 0 4.2-0.675 5.85-1.875 1.95-1.425 3.075-3.075 4.275-6.225l17.475-47.55z"/><path d="m-713.35 218h24.675c5.175 0 9-1.425 11.925-4.575 2.7-2.85 4.2-6.75 4.2-11.025 0-6.6-3-10.575-9.975-13.275 5.025-2.325 7.575-6.3 7.575-11.925 0-4.05-1.5-7.5-4.35-10.05-2.925-2.625-6.6-3.825-11.85-3.825h-22.2zm6.975-31.125v-17.4h13.5c3.9 0 6.075 0.525 7.95 1.95 1.95 1.5 3 3.75 3 6.75s-1.05 5.25-3 6.75c-1.875 1.425-4.05 1.95-7.95 1.95zm0 24.975v-18.825h17.025c6.15 0 9.825 3.525 9.825 9.45 0 5.85-3.675 9.375-9.825 9.375z"/><path d="m-647.85 177.58c-11.1 0-17.7 7.875-17.7 21.075 0 13.275 6.6 21.075 17.775 21.075 11.1 0 17.775-7.875 17.775-20.775 0-13.65-6.45-21.375-17.85-21.375zm0.075 5.775c7.05 0 11.25 5.775 11.25 15.525 0 9.3-4.35 15.075-11.25 15.075-6.975 0-11.25-5.775-11.25-15.3s4.275-15.3 11.25-15.3z"/><path d="m-611.15 163.32h-6.3v54.675h6.3z"/><path d="m-579.85 178.7h-6.45v-10.8h-6.225v10.8h-5.325v5.1h5.325v29.7c0 4.05 2.7 6.225 7.575 6.225 1.65 0 3-0.15 5.1-0.525v-5.25c-0.9 0.225-1.725 0.3-3 0.3-2.7 0-3.45-0.75-3.45-3.525v-26.925h6.45z"/><path d="m-537.28 218h24.675c5.175 0 9-1.425 11.925-4.575 2.7-2.85 4.2-6.75 4.2-11.025 0-6.6-3-10.575-9.975-13.275 5.025-2.325 7.575-6.3 7.575-11.925 0-4.05-1.5-7.5-4.35-10.05-2.925-2.625-6.6-3.825-11.85-3.825h-22.2zm6.975-31.125v-17.4h13.5c3.9 0 6.075 0.525 7.95 1.95 1.95 1.5 3 3.75 3 6.75s-1.05 5.25-3 6.75c-1.875 1.425-4.05 1.95-7.95 1.95zm0 24.975v-18.825h17.025c6.15 0 9.825 3.525 9.825 9.45 0 5.85-3.675 9.375-9.825 9.375z"/><path d="m-452.7 200.45c0-6-0.45-9.6-1.575-12.525-2.55-6.45-8.55-10.35-15.9-10.35-10.95 0-18 8.325-18 21.3s6.75 20.85 17.85 20.85c9 0 15.225-5.1 16.8-13.65h-6.3c-1.725 5.175-5.25 7.875-10.275 7.875-3.975 0-7.35-1.8-9.45-5.1-1.5-2.25-2.025-4.5-2.1-8.4zm-28.8-5.1c0.525-7.275 4.95-12 11.25-12 6.375 0 10.8 4.95 10.8 12z"/><path d="m-442.3 178.7v39.3h6.3v-20.4c0.075-9.45 3.975-13.65 12.6-13.425v-6.375c-1.05-0.15-1.65-0.225-2.4-0.225-4.05 0-7.125 2.4-10.725 8.25v-7.125z"/><path d="m-380.68 214.32c-0.675 0.15-0.975 0.15-1.35 0.15-2.175 0-3.375-1.125-3.375-3.075v-23.1c0-6.975-5.1-10.725-14.775-10.725-5.775 0-10.35 1.65-13.05 4.575-1.8 2.025-2.55 4.275-2.7 8.175h6.3c0.525-4.8 3.375-6.975 9.225-6.975 5.7 0 8.775 2.1 8.775 5.85v1.65c-0.075 2.7-1.425 3.675-6.525 4.35-8.85 1.125-10.2 1.425-12.6 2.4-4.575 1.95-6.9 5.4-6.9 10.5 0 7.125 4.95 11.625 12.9 11.625 4.95 0 8.925-1.725 13.35-5.775 0.45 4.05 2.4 5.775 6.45 5.775 1.35 0 2.175-0.15 4.275-0.675zm-10.95-8.7c0 2.1-0.6 3.375-2.475 5.1-2.55 2.325-5.625 3.525-9.3 3.525-4.875 0-7.725-2.325-7.725-6.3 0-4.125 2.7-6.225 9.45-7.2 6.675-0.9 7.95-1.2 10.05-2.175z"/><path d="m-371.85 178.7v39.3h6.3v-21.675c0-8.025 4.2-13.275 10.65-13.275 4.95 0 8.1 3 8.1 7.725v27.225h6.225v-29.7c0-6.525-4.875-10.725-12.45-10.725-5.85 0-9.6 2.25-13.05 7.725v-6.6z"/><path d="m-294.93 200.45c0-6-0.45-9.6-1.575-12.525-2.55-6.45-8.55-10.35-15.9-10.35-10.95 0-18 8.325-18 21.3s6.75 20.85 17.85 20.85c9 0 15.225-5.1 16.8-13.65h-6.3c-1.725 5.175-5.25 7.875-10.275 7.875-3.975 0-7.35-1.8-9.45-5.1-1.5-2.25-2.025-4.5-2.1-8.4zm-28.8-5.1c0.525-7.275 4.95-12 11.25-12 6.375 0 10.8 4.95 10.8 12z"/><path d="m-279.13 163.32h-6.225v54.675h6.225v-15.3l6.075-6 13.275 21.3h7.725l-16.05-25.725 13.65-13.575h-8.025l-16.65 16.65z"/><path d="m-185.23 214.32c-0.675 0.15-0.975 0.15-1.35 0.15-2.175 0-3.375-1.125-3.375-3.075v-23.1c0-6.975-5.1-10.725-14.775-10.725-5.775 0-10.35 1.65-13.05 4.575-1.8 2.025-2.55 4.275-2.7 8.175h6.3c0.525-4.8 3.375-6.975 9.225-6.975 5.7 0 8.775 2.1 8.775 5.85v1.65c-0.075 2.7-1.425 3.675-6.525 4.35-8.85 1.125-10.2 1.425-12.6 2.4-4.575 1.95-6.9 5.4-6.9 10.5 0 7.125 4.95 11.625 12.9 11.625 4.95 0 8.925-1.725 13.35-5.775 0.45 4.05 2.4 5.775 6.45 5.775 1.35 0 2.175-0.15 4.275-0.675zm-10.95-8.7c0 2.1-0.6 3.375-2.475 5.1-2.55 2.325-5.625 3.525-9.3 3.525-4.875 0-7.725-2.325-7.725-6.3 0-4.125 2.7-6.225 9.45-7.2 6.675-0.9 7.95-1.2 10.05-2.175z"/><path d="m-176.4 178.7v39.3h6.3v-21.675c0-8.025 4.2-13.275 10.65-13.275 4.95 0 8.1 3 8.1 7.725v27.225h6.225v-29.7c0-6.525-4.875-10.725-12.45-10.725-5.85 0-9.6 2.25-13.05 7.725v-6.6z"/><path d="m-100.83 163.32h-6.225v20.325c-2.625-3.975-6.825-6.075-12.075-6.075-10.2 0-16.875 8.175-16.875 20.7 0 13.275 6.45 21.45 17.1 21.45 5.4 0 9.15-2.025 12.525-6.9v5.175h5.55zm-17.25 20.1c6.75 0 11.025 5.925 11.025 15.375 0 9.075-4.35 15.075-10.95 15.075-6.9 0-11.475-6.075-11.475-15.225s4.575-15.225 11.4-15.225z"/><path d="m-24.951 163.32h-6.6v44.7l-28.575-44.7h-7.575v54.675h6.6v-44.325l28.275 44.325h7.875z"/><path d="m19.224 200.45c0-6-0.45-9.6-1.575-12.525-2.55-6.45-8.55-10.35-15.9-10.35-10.95 0-18 8.325-18 21.3s6.75 20.85 17.85 20.85c9 0 15.225-5.1 16.8-13.65h-6.3c-1.725 5.175-5.25 7.875-10.275 7.875-3.975 0-7.35-1.8-9.45-5.1-1.5-2.25-2.025-4.5-2.1-8.4zm-28.8-5.1c0.525-7.275 4.95-12 11.25-12 6.375 0 10.8 4.95 10.8 12z"/><path d="m63.324 218 11.55-39.3h-7.05l-7.8 30.6-7.725-30.6h-7.65l-7.5 30.6-8.025-30.6h-6.9l11.4 39.3h7.05l7.575-30.825 7.95 30.825z"/><path d="m81.174 178.7v39.3h6.3v-24.675c0-5.7 4.125-10.275 9.225-10.275 4.65 0 7.275 2.85 7.275 7.875v27.075h6.3v-24.675c0-5.7 4.125-10.275 9.225-10.275 4.575 0 7.275 2.925 7.275 7.875v27.075h6.3v-29.475c0-7.05-4.05-10.95-11.4-10.95-5.25 0-8.4 1.575-12.075 6-2.325-4.2-5.475-6-10.575-6-5.25 0-8.775 1.95-12.075 6.675v-5.55z"/><path d="m178.52 214.32c-0.675 0.15-0.975 0.15-1.35 0.15-2.175 0-3.375-1.125-3.375-3.075v-23.1c0-6.975-5.1-10.725-14.775-10.725-5.775 0-10.35 1.65-13.05 4.575-1.8 2.025-2.55 4.275-2.7 8.175h6.3c0.525-4.8 3.375-6.975 9.225-6.975 5.7 0 8.775 2.1 8.775 5.85v1.65c-0.075 2.7-1.425 3.675-6.525 4.35-8.85 1.125-10.2 1.425-12.6 2.4-4.575 1.95-6.9 5.4-6.9 10.5 0 7.125 4.95 11.625 12.9 11.625 4.95 0 8.925-1.725 13.35-5.775 0.45 4.05 2.4 5.775 6.45 5.775 1.35 0 2.175-0.15 4.275-0.675zm-10.95-8.7c0 2.1-0.6 3.375-2.475 5.1-2.55 2.325-5.625 3.525-9.3 3.525-4.875 0-7.725-2.325-7.725-6.3 0-4.125 2.7-6.225 9.45-7.2 6.675-0.9 7.95-1.2 10.05-2.175z"/><path d="m185.35 178.7v39.3h6.3v-21.675c0-8.025 4.2-13.275 10.65-13.275 4.95 0 8.1 3 8.1 7.725v27.225h6.225v-29.7c0-6.525-4.875-10.725-12.45-10.725-5.85 0-9.6 2.25-13.05 7.725v-6.6z"/><path d="m253.2 163.32h-7.05v54.675h7.05z"/><path d="m264.75 178.7v39.3h6.3v-21.675c0-8.025 4.2-13.275 10.65-13.275 4.95 0 8.1 3 8.1 7.725v27.225h6.225v-29.7c0-6.525-4.875-10.725-12.45-10.725-5.85 0-9.6 2.25-13.05 7.725v-6.6z"/><path d="m336.52 191.9c-0.3-3.825-1.125-6.3-2.625-8.475-2.7-3.675-7.425-5.85-12.9-5.85-10.65 0-17.475 8.4-17.475 21.45 0 12.675 6.75 20.7 17.4 20.7 9.375 0 15.3-5.625 16.05-15.225h-6.3c-1.05 6.3-4.275 9.45-9.6 9.45-6.9 0-11.025-5.625-11.025-14.925 0-9.825 4.05-15.675 10.875-15.675 5.25 0 8.55 3.075 9.3 8.55z"/><path d="m352.57 210.2h-7.8v7.8h7.8z"/><path d="m-2388.9 30h-32.099v156h32.099z"/><path d="m-2275.1 186h32.099v-156h-32.099v106.14l-61.844-106.14h-32.955v156h32.099v-107.85z"/><path d="m-2157.1 56.749h45.58v-26.749h-124.97v26.749h47.292v129.25h32.099z"/><path d="m-2070.9 118.81h74.683v-26.749h-74.683v-35.309h80.675v-26.749h-112.77v156h116.63v-26.749h-84.527z"/><path d="m-1937.5 124.16h36.807c13.909 0 19.901 5.5638 19.901 18.403v6.4198c-0.214 4.0658-0.214 7.9177-0.214 10.272 0 14.765 0.856 19.259 4.7078 26.749h34.453s-6.7393-8.8858-6.8478-18.617c-0.856-46.008-1.7119-48.148-21.613-56.708 17.547-6.8477 26.321-19.473 26.321-38.519 0-12.412-4.2798-23.753-11.77-31.457-7.0618-7.2757-16.905-10.7-30.173-10.7h-83.671v156h32.099zm0-26.749v-40.658h38.733c9.2016 0 12.84 0.85597 16.905 4.0658 3.8519 3.2099 5.7778 8.5597 5.7778 15.835 0 7.4897-1.9259 13.481-5.7778 16.691-3.6378 2.9959-7.7037 4.0658-16.905 4.0658z"/><path d="m-1794 118.81h68.264v-26.749h-68.264v-35.309h77.465v-26.749h-109.56v156h32.099z"/><path d="m-1631.5 154.54 10.272 31.457h32.955l-53.926-156h-35.523l-55.424 156h32.741l10.486-31.457zm-8.7736-26.749h-40.658l20.329-60.988z"/><path d="m-1455.7 82.856c-1.07-13.481-3.8519-22.041-10.486-30.815-11.984-15.835-31.243-24.609-54.568-24.609-44.082 0-71.473 31.457-71.473 81.959 0 50.288 27.177 81.531 70.617 81.531 38.947 0 64.626-22.469 66.552-58.206h-31.243c-2.1399 19.901-14.551 31.243-34.453 31.243-24.823 0-39.374-20.115-39.374-54.14 0-34.453 15.193-54.996 40.444-54.996 18.617 0 29.103 8.9877 33.383 28.033z"/><path d="m-1407.6 118.81h74.683v-26.749h-74.683v-35.309h80.675v-26.749h-112.77v156h116.63v-26.749h-84.527z"/><path d="m-2388.3 284.45 28.033 121.55h32.099l27.605-121.55v121.55h32.099v-156h-48.362l-27.391 124.12-28.247-124.12h-47.934v156h32.099z"/><path d="m-2218.2 338.81h74.683v-26.749h-74.683v-35.309h80.675v-26.749h-112.77v156h116.63v-26.749h-84.527z"/><path d="m-1999.6 297.51c-0.214-32.313-21.827-50.074-61.202-50.074-37.449 0-59.062 17.547-59.062 47.934 0 24.181 12.198 35.951 43.868 41.942l21.827 4.2798c21.399 4.0658 29.317 10.058 29.317 22.683 0 13.054-11.984 20.971-31.457 20.971-21.827 0-34.025-9.2017-35.095-25.893h-31.243c1.9259 33.383 24.823 51.572 64.626 51.572 40.23 0 63.984-18.617 63.984-50.502 0-24.609-12.412-37.449-41.3-43.012l-24.395-4.7078c-22.897-4.4938-29.531-8.9877-29.531-20.329 0-11.77 10.272-19.259 26.963-19.259 20.329 0 31.671 8.5597 32.741 24.395z"/><path d="m-1867 297.51c-0.214-32.313-21.827-50.074-61.202-50.074-37.449 0-59.062 17.547-59.062 47.934 0 24.181 12.198 35.951 43.868 41.942l21.827 4.2798c21.399 4.0658 29.317 10.058 29.317 22.683 0 13.054-11.984 20.971-31.457 20.971-21.827 0-34.025-9.2017-35.095-25.893h-31.243c1.9259 33.383 24.823 51.572 64.626 51.572 40.23 0 63.984-18.617 63.984-50.502 0-24.609-12.412-37.449-41.3-43.012l-24.395-4.7078c-22.897-4.4938-29.531-8.9877-29.531-20.329 0-11.77 10.272-19.259 26.963-19.259 20.329 0 31.671 8.5597 32.741 24.395z"/><path d="m-1762.2 374.54 10.272 31.457h32.955l-53.926-156h-35.523l-55.424 156h32.741l10.486-31.457zm-8.7737-26.749h-40.658l20.329-60.988z"/><path d="m-1582.1 322.12h-62.486v26.749h35.523c-0.856 8.7737-2.9959 14.123-7.7037 19.687-7.7037 9.4156-19.687 14.979-31.885 14.979-26.107 0-44.51-22.683-44.51-54.782 0-33.597 16.263-53.926 43.654-53.926 11.128 0 20.543 3.2099 27.605 9.4156 4.4938 3.8519 6.8477 7.4897 9.6296 15.621h30.173c-3.8519-32.313-29.959-52.428-67.622-52.428-44.938 0-75.539 33.169-75.539 81.745 0 47.292 30.815 81.745 72.971 81.745 20.971 0 35.095-7.4897 47.078-25.037l3.8518 20.543h19.259z"/><path d="m-1537.8 338.81h74.683v-26.749h-74.683v-35.309h80.675v-26.749h-112.77v156h116.63v-26.749h-84.527z"/><path d="m-2386.1 570.36h40.017c28.675 0 47.078-20.329 47.078-52 0-31.243-17.761-48.362-50.288-48.362h-68.906v156h32.099zm0-26.749v-46.864h29.959c17.119 0 25.037 7.4897 25.037 23.325 0 16.049-7.9177 23.539-25.037 23.539z"/><path d="m-2255.6 564.16h36.807c13.91 0 19.901 5.5638 19.901 18.403v6.4198c-0.214 4.0658-0.214 7.9177-0.214 10.272 0 14.765 0.8559 19.259 4.7078 26.749h34.453s-6.7392-8.8859-6.8477-18.617c-0.856-46.008-1.712-48.148-21.613-56.708 17.547-6.8477 26.321-19.473 26.321-38.519 0-12.412-4.2799-23.753-11.77-31.457-7.0617-7.2757-16.905-10.7-30.173-10.7h-83.671v156h32.099zm0-26.749v-40.658h38.732c9.2017 0 12.84 0.85597 16.905 4.0658 3.8519 3.2099 5.7778 8.5597 5.7778 15.835 0 7.4897-1.9259 13.481-5.7778 16.691-3.6379 2.9959-7.7037 4.0658-16.905 4.0658z"/><path d="m-2078 467.43c-21.827 0-39.802 7.2757-53.07 21.613-13.91 14.979-21.827 36.807-21.827 60.132s7.9177 45.366 21.827 60.132c13.482 14.551 31.029 21.613 53.284 21.613 22.255 0 39.802-7.0617 53.284-21.613 13.482-14.337 21.827-37.021 21.827-59.062 0-24.395-7.9177-46.436-21.827-61.202-13.696-14.765-30.815-21.613-53.498-21.613zm0.214 27.391c26.321 0 43.012 21.399 43.012 55.21 0 32.099-17.333 53.498-43.012 53.498-26.107 0-43.012-21.399-43.012-54.354s16.905-54.354 43.012-54.354z"/><path d="m-1858.5 522.86c-1.07-13.481-3.8519-22.041-10.486-30.815-11.984-15.835-31.243-24.609-54.568-24.609-44.082 0-71.473 31.457-71.473 81.959 0 50.288 27.177 81.531 70.617 81.531 38.947 0 64.626-22.469 66.552-58.206h-31.243c-2.1399 19.901-14.552 31.243-34.453 31.243-24.823 0-39.374-20.115-39.374-54.14 0-34.453 15.193-54.996 40.444-54.996 18.617 0 29.103 8.9877 33.383 28.033z"/><path d="m-1809.9 558.81h74.683v-26.749h-74.683v-35.309h80.675v-26.749h-112.77v156h116.63v-26.749h-84.527z"/><path d="m-1597.4 517.51c-0.2139-32.313-21.827-50.074-61.202-50.074-37.449 0-59.062 17.547-59.062 47.934 0 24.181 12.198 35.951 43.868 41.942l21.827 4.2798c21.399 4.0658 29.317 10.058 29.317 22.683 0 13.054-11.984 20.971-31.457 20.971-21.827 0-34.025-9.2017-35.095-25.893h-31.243c1.926 33.383 24.823 51.572 64.626 51.572 40.23 0 63.984-18.617 63.984-50.502 0-24.609-12.412-37.449-41.3-43.012l-24.395-4.7078c-22.897-4.4938-29.531-8.9877-29.531-20.329 0-11.77 10.272-19.259 26.963-19.259 20.329 0 31.671 8.5597 32.741 24.395z"/><path d="m-1462.8 517.51c-0.2139-32.313-21.827-50.074-61.202-50.074-37.449 0-59.062 17.547-59.062 47.934 0 24.181 12.198 35.951 43.868 41.942l21.827 4.2798c21.399 4.0658 29.317 10.058 29.317 22.683 0 13.054-11.984 20.971-31.457 20.971-21.827 0-34.025-9.2017-35.095-25.893h-31.243c1.926 33.383 24.823 51.572 64.626 51.572 40.23 0 63.984-18.617 63.984-50.502 0-24.609-12.412-37.449-41.3-43.012l-24.395-4.7078c-22.897-4.4938-29.531-8.9877-29.531-20.329 0-11.77 10.272-19.259 26.963-19.259 20.329 0 31.671 8.5597 32.741 24.395z"/><path d="m-1376.4 467.43c-21.827 0-39.802 7.2757-53.07 21.613-13.91 14.979-21.827 36.807-21.827 60.132s7.9177 45.366 21.827 60.132c13.482 14.551 31.029 21.613 53.284 21.613s39.802-7.0617 53.284-21.613c13.482-14.337 21.827-37.021 21.827-59.062 0-24.395-7.9177-46.436-21.827-61.202-13.696-14.765-30.815-21.613-53.498-21.613zm0.214 27.391c26.321 0 43.012 21.399 43.012 55.21 0 32.099-17.333 53.498-43.012 53.498-26.107 0-43.012-21.399-43.012-54.354s16.905-54.354 43.012-54.354z"/><path d="m-1253.1 564.16h36.807c13.91 0 19.901 5.5638 19.901 18.403v6.4198c-0.214 4.0658-0.214 7.9177-0.214 10.272 0 14.765 0.856 19.259 4.7078 26.749h34.453s-6.7392-8.8859-6.8477-18.617c-0.856-46.008-1.7119-48.148-21.613-56.708 17.547-6.8477 26.321-19.473 26.321-38.519 0-12.412-4.2798-23.753-11.77-31.457-7.0618-7.2757-16.905-10.7-30.173-10.7h-83.671v156h32.099zm0-26.749v-40.658h38.733c9.2016 0 12.84 0.85597 16.905 4.0658 3.8519 3.2099 5.7778 8.5597 5.7778 15.835 0 7.4897-1.9259 13.481-5.7778 16.691-3.6378 2.9959-7.7037 4.0658-16.905 4.0658z"/><path d="m-2503-49h3214v762h-3214z" fill="none" stroke="#000" stroke-linecap="square" stroke-width="8" style="paint-order:fill markers stroke"/></g></g></svg>
