<?xml version="1.0" encoding="UTF-8" standalone="no"?>
<svg
   version="1.1"
   id="Layer_1"
   x="0px"
   y="0px"
   viewBox="0 0 1193.1918 960.07472"
   xml:space="preserve"
   width="1193.1918"
   height="960.07471"
   sodipodi:docname="Knight_TV.svg"
   inkscape:version="1.1.2 (0a00cf5339, 2022-02-04)"
   xmlns:inkscape="http://www.inkscape.org/namespaces/inkscape"
   xmlns:sodipodi="http://sodipodi.sourceforge.net/DTD/sodipodi-0.dtd"
   xmlns="http://www.w3.org/2000/svg"
   xmlns:svg="http://www.w3.org/2000/svg"
   xmlns:rdf="http://www.w3.org/1999/02/22-rdf-syntax-ns#"
   xmlns:cc="http://creativecommons.org/ns#"
   xmlns:dc="http://purl.org/dc/elements/1.1/"><sodipodi:namedview
   id="namedview131482"
   pagecolor="#ffffff"
   bordercolor="#666666"
   borderopacity="1.0"
   inkscape:pageshadow="2"
   inkscape:pageopacity="0.0"
   inkscape:pagecheckerboard="0"
   showgrid="false"
   inkscape:zoom="0.70710678"
   inkscape:cx="347.89654"
   inkscape:cy="367.69553"
   inkscape:window-width="1920"
   inkscape:window-height="1043"
   inkscape:window-x="0"
   inkscape:window-y="0"
   inkscape:window-maximized="1"
   inkscape:current-layer="Layer_1"
   inkscape:snap-global="false" /><metadata
   id="metadata7227"><rdf:RDF><cc:Work
       rdf:about=""><dc:format>image/svg+xml</dc:format><dc:type
         rdf:resource="http://purl.org/dc/dcmitype/StillImage" /></cc:Work></rdf:RDF></metadata><defs
   id="defs7225">
	
	
	
	
	
	
	
	
	
	
	
	
	
	
	
	
</defs>
<style
   type="text/css"
   id="style7166">
	.st0{fill:#FFCB05;}
	.st1{fill:#00B6F1;}
	.st2{fill:#ED1C24;}
</style>











<g
   id="layer15"
   transform="translate(491.46655,170.91655)"
   style="display:inline;opacity:1"><g
     id="g654"
     transform="matrix(1.272,0,0,1.2656182,-730.83384,-299.56917)"><path
       id="path647-7"
       style="fill:#000000;fill-opacity:1;fill-rule:nonzero;stroke:none;stroke-width:1.25913"
       d="M 438.56836,-1.5839844 80.875183,-1.1275711 V 841.1029 l 366.433407,3.92835 90.86914,-58.53711 -3.71875,-115.42773 141.40625,171.23632 364.83597,-0.0723 88.2734,-53.12695 -138.23852,-152.55475 -7.07966,11.61882 128.62478,139.42616 -67.6132,39.70898 -146.18681,-171.38133 c 1.38205,1.28797 3.83037,3.08521 5.36451,4.23485 9.30873,7.83285 21.31237,11.6644 33.39453,13.48437 12.51496,3.2327 26.07186,-1.97178 33.85743,-10.04101 11.0983,-9.54991 22.48697,-20.28455 24.78906,-34.97266 4.95508,-22.4812 3.36691,-46.17084 10.64258,-68.64257 3.7552,-14.86977 9.3177,-29.24342 17.459,-42.34571 3.3141,-6.07338 6.5743,-12.17061 9.7773,-18.30078 4.0468,-7.02896 7.7991,-15.1082 10.9024,-21.59375 5.1011,-10.47498 9.9721,-21.06056 14.5,-31.81445 4.3358,-7.35497 11.0037,-13.8128 14.4902,-21.87696 0,0 8.7827,-9.44495 14.123,-17.66796 7.531,-11.16209 10.4458,-24.76699 17.379,-36.76954 v -0.006 c 0.01,-0.0136 0.013,-0.0243 0.021,-0.0371 2.1378,-4.12875 4.5836,-8.05606 7.0996,-11.93165 3.975,-5.91014 7.0791,-10.53977 10.8985,-16.49414 1.57,-2.45709 3.0984,-4.93423 4.5156,-7.4746 8.2711,-11.83346 19.298,-21.26981 26.1113,-33.625 8.3132,-14.48998 16.917,-30.11712 31.4688,-39.85157 14.2404,-8.07612 30.3502,-12.57277 42.041,-23.75781 11.7686,-9.73044 25.0674,-18.31255 31.5293,-32.19141 8.8581,-13.85529 14.9346,-30.03419 12.6816,-46.41406 -2.0862,-12.74371 -7.577,-25.2611 -15.9062,-35.22656 -10.5842,-10.16784 -22.3633,-20.71788 -40.4219,-22.765626 -22.2639,0.225686 -40.5968,9.213206 -53.6094,22.982426 -7.6812,7.37792 -14.8416,15.25208 -20.6152,24.13085 -5.9607,6.71197 -11.8926,13.38531 -17.7949,20.07618 -3.8436,4.69201 -6.9988,8.15247 -10.8985,12.26953 -7.831,8.58484 -15.9221,16.85618 -22.6464,26.19726 -12.0992,16.58322 -22.3105,34.48789 -34.3965,51.25782 v 0.004 c 0,0.003 4e-4,0.008 -0.01,0.0117 -3.6704,5.32734 -7.1143,10.8432 -10.5605,16.36914 -3.783,5.77251 -7.6611,11.73748 -10.9024,16.69727 -3.4718,4.92323 -7.158,9.71035 -11.334,14.16406 -8.1052,10.39435 -12.5311,23.08408 -18.8183,34.875 -7.65761,15.42048 -19.45926,28.43177 -24.44338,44.70508 -5.72507,13.23947 -10.49306,26.94029 -16.99023,39.95898 -8.27678,13.19262 -16.3627,26.47279 -23.66602,40.12305 -1.28828,2.40786 -2.4148,4.77177 -4.39844,4.61914 -2.70494,-0.20803 -4.83818,-6.76785 -6.03906,-10.30664 -3.93981,-11.65064 -10.24236,-23.61971 -10.40625,-33.92188 -0.59414,-13.00501 -4.48398,-25.87206 -3.50781,-39.32617 0.42368,-10.44065 -1.25021,-20.80729 -3.28516,-31.17968 -0.7498,-13.47593 -4.0904,-27.51089 -14.46875,-36.6211 -0.0245,-0.0218 -0.0465,-0.0442 -0.0684,-0.0684 -11.98861,-12.89822 -32.49662,-14.74288 -48.36523,-7.9668 -11.20328,3.18322 -23.2965,4.42106 -31.46289,12.69727 -11.13573,9.33348 -13.84606,24.75223 -11.96289,38.62109 0.64954,14.39936 5.0785,28.1877 8.73633,42.20313 2.86055,14.2239 6.27916,28.25743 10.64257,42.06836 5.17572,17.69272 9.11444,35.75511 17.30469,52.22265 6.70125,16.71086 9.80908,34.37758 15.70508,51.09571 4.46631,15.0757 8.8751,30.14194 14.20117,44.93359 1.21135,5.13564 3.37419,18.35052 6.07813,25.84375 3.32896,9.03585 7.38438,19.62345 12.69726,27.68383 -31.7806,-41.23792 -100.03181,-115.20902 -100.03181,-115.20902 -0.1886,-15.81727 -1.73636,-34.72563 -3.77483,-50.36348 0.32918,-17.95913 1.7222,-35.91644 -1.5625,-53.49414 -1.65778,-21.03117 -0.38524,-42.06307 -3.2832,-62.76563 -0.90822,-16.64684 0.39533,-33.20377 2.30273,-49.58007 0.24265,-6.94098 -2.39459,-15.65386 0.58203,-22.58594 13.3175,-10.21848 30.08701,-12.63462 44.0293,-20.14649 15.63186,-7.04435 29.62858,-17.40527 45.94922,-23.79687 12.40804,-6.07353 25.97573,-10.98821 33.81055,-22.47461 14.18822,-15.977 12.37459,-41.95733 -2.37305,-56.92578 -8.11068,-8.48259 -20.09416,-12.53283 -31.82617,-12.42774 -17.83487,-0.0451 -34.0697,10.45542 -44.00977,24.74415 -5.40296,8.24006 -11.50923,16.58344 -20.9082,21.17578 -9.69652,6.30751 -20.0893,11.42535 -31.14453,14.97851 -8.41483,3.08624 -17.41609,9.87427 -27.67969,7.4375 -11.91495,-6.49004 -24.71623,-12.03079 -38.32422,-11.21289 -18.42558,-0.68843 -36.92515,12.27052 -40.0957,30.50586 -0.86299,12.28951 1.48999,24.71556 1.97266,37.25195 0.0114,0.32455 -0.13812,0.63479 -0.4004,0.82813 -11.01688,8.17322 -25.29192,8.63267 -36.06445,15.93945 -17.92556,8.69605 -34.66119,19.36967 -50.53515,31.23633 -11.4737,8.67283 -22.54337,17.9361 -34.60938,26.01367 -11.57282,8.30584 -23.90192,17.62738 -39.0293,18.93555 -10.5439,1.61507 -21.61047,3.37964 -29.08593,11.16601 -17.82184,15.12579 -22.10023,42.63939 -11.04102,62.89454 7.88585,16.95758 28.58015,25.90598 46.80273,21.68359 12.81502,-1.59227 22.37549,-11.03258 30.01954,-20.94141 8.0928,-8.11036 15.15514,-17.05258 20.1289,-27.23828 5.225,-10.18854 15.23359,-15.98143 25.08985,-22.5957 14.04193,-8.98473 26.15304,-18.86757 39.93554,-26.39453 14.45582,-6.50288 27.58091,-16.68612 42.91407,-21.65821 0.46001,-0.14829 0.96056,0.0554 1.18359,0.48243 7.40357,14.04379 7.20662,30.00452 9.03125,44.96093 1.58122,14.50967 1.06694,29.15768 3.28516,43.36719 0,0 0.74029,10.42852 0.60742,14.14844 0.64502,22.42431 2.21491,45.05127 -0.625,67.49805 -0.50041,13.96245 -1.04116,28.15396 -5.16992,41.89843 -1.10493,2.70776 -1.31073,6.85087 -1.19922,11.27735 0.11142,4.42647 0.50643,9.13514 0.41406,13.12304 -0.11385,12.55371 -4.23356,24.47133 -5.0957,36.65235 -3.20135,17.88535 3.39935,35.50401 7.40429,53.08203 3.04871,22.71847 -0.28865,46.56619 9.62891,67.30664 6.98157,12.43185 21.94971,17.48186 35.8457,18.51367 10.97594,2.16637 22.5573,2.50416 32.67578,-2.38867 12.33765,-4.11073 25.58879,-8.90129 31.85352,-20.55469 9.15383,-18.32816 7.94282,-39.88087 4.7168,-59.78515 -0.82309,-5.44133 -3.19481,-10.50699 -5.44727,-15.70508 -2.23889,-5.16671 -4.35462,-10.48944 -4.52148,-16.44531 -1.64466,-12.44123 -5.8685,-24.86546 -4.3125,-37.94727 1.64224,-21.01809 1.49008,-42.21672 0.61914,-63.3457 L 1033.7656,831.38281 677.66797,828.75 439.08984,541.96484 438.16016,834.18359 91.777527,830.25524 V 10.26696 L 435.10938,9.8105469 435.76367,298.32031 719.61645,8.9691377 1034.6624,9.8301047 899.10895,163.97757 l 7.40053,8.4169 L 1043.2807,12.940904 1135.652,59.704955 904.14799,332.97558 908.14576,346.48297 1150.8516,56.126953 1040.4668,0 713.13281,-1.5839844 571.51395,145.15407 571.29688,61.353516 Z m 10.59961,16.9082034 108.83594,51.916015 2.39787,88.649516 -114.45657,113.74652 z m 762.83793,95.373051 c 4.1944,0.0114 8.162,0.83344 12.7949,2.47656 4.2322,1.50096 15.4749,9.79333 21.5762,15.91406 3.7993,3.81138 8.8352,13.07715 12.3671,22.75 1.698,4.65035 1.8713,5.89045 1.8438,13.44727 -0.029,8.10651 -0.103,8.52052 -2.7988,15.95507 -1.522,4.19811 -4.3535,10.25085 -6.2891,13.44727 -1.9356,3.19641 -4.4589,7.44327 -5.6094,9.44141 -2.2615,3.9277 -8.7598,10.20759 -18.6484,18.01953 -3.3627,2.65642 -7.1451,5.72921 -8.4121,6.83203 -3.8514,3.35217 -14.5706,9.93798 -18.7598,11.52539 -5.0625,1.91839 -19.3528,9.05953 -22.9238,11.45703 -2.9522,1.98205 -12.1928,10.9274 -15.6153,15.11719 -3.4704,4.24869 -11.7354,16.83743 -14.2402,21.6914 -4.108,7.96091 -11.3333,18.07289 -17.6621,24.72266 -5.6185,5.90345 -10.7763,12.67549 -14.1113,18.51758 -1.8897,3.31026 -5.754,9.38563 -8.5879,13.5 -2.8338,4.11436 -6.3131,9.32485 -7.7305,11.58008 -3.134,4.98667 -11.7932,22.84652 -13.0078,26.82812 -0.9757,3.1988 -3.3496,8.73191 -5.2187,12.16406 -1.8734,3.43978 -7.3094,11.12944 -8.6153,12.1836 -1.6238,1.31085 -10.8437,13.57643 -10.8437,14.42773 0,0.47838 -8.3091,12.32932 -9.8457,14.04102 -1.5442,1.72007 -2.7907,4.24907 -6.92,14.08398 -1.9219,4.57755 -5.1759,11.78242 -7.2343,16.00781 -2.0584,4.22547 -5.0729,10.4205 -6.6973,13.76563 -1.6244,3.34516 -3.2288,6.51479 -3.5664,7.04297 -0.3375,0.52818 -3.0905,5.71147 -6.1191,11.52148 -3.0287,5.80998 -6.1273,11.62764 -6.8829,12.92774 -4.6509,8.00294 -8.9972,16.44811 -11.0136,21.39258 -2.1421,5.25292 -3.34309,9.00447 -7.93362,24.89843 -2.94799,10.20711 -4.89165,20.28715 -5.56055,28.8125 -1.06984,13.63585 -1.7667,19.89195 -3.55078,31.68946 -1.52493,10.08395 -1.96564,11.73701 -4.38672,16.54882 -2.79237,5.54966 -5.19388,8.17559 -18.26367,19.94532 -7.03959,6.33952 -6.83081,6.1784 -9.65039,7.32422 -4.73908,1.24996 -9.67618,1.11685 -13.91406,0.16992 -5.19423,-0.78748 -16.68858,-3.979 -19.98633,-5.54883 -5.06121,-2.40938 -10.95213,-6.90154 -16.00976,-12.21484 -3.37991,-3.55091 -5.20986,-6.32812 -8.60352,-13.04883 -2.37082,-4.69537 -4.64071,-9.36083 -5.04883,-10.3711 -2.91466,-7.21687 -4.66823,-13.356 -6.17969,-21.64062 -0.9591,-5.25628 -2.16505,-10.54433 -2.68554,-11.75586 -1.31801,-3.06839 -8.81687,-26.66923 -12.14453,-38.22852 -1.52082,-5.28183 -3.76173,-12.62305 -4.98438,-16.32031 -1.22234,-3.69727 -3.43064,-11.43759 -4.91015,-17.19726 -3.2505,-12.65277 -6.13096,-20.85046 -11.16993,-31.78516 -2.28534,-4.95912 -4.10966,-10.07053 -6.15234,-17.28125 -1.29686,-4.57759 -3.41542,-12.07284 -4.70703,-16.65039 -1.2919,-4.57755 -3.0361,-10.76674 -3.88086,-13.75977 -0.84476,-2.99302 -2.18561,-7.45898 -2.97461,-9.92383 -0.7887,-2.46482 -1.83506,-6.5 -2.32422,-8.96484 -1.40347,-7.06945 -4.91805,-22.85273 -5.56055,-24.9668 -0.32127,-1.05638 -1.20051,-3.9375 -1.96093,-6.40234 -4.3948,-14.23887 -6.52473,-35.90314 -4.36719,-44.4668 1.74562,-6.92838 7.44076,-13.58911 14.8164,-17.33593 0.90141,-0.45801 5.0501,-1.65624 9.2168,-2.66797 9.29415,-2.2569 10.2802,-2.54084 16.44727,-4.69922 4.50113,-1.57547 5.55978,-1.70002 12.18164,-1.44336 9.00505,0.34903 11.92727,1.49767 17.82031,7.00195 9.01112,8.41645 11.1113,13.39437 12.75195,30.26172 0.30437,4.66837 1.69223,9.66377 2.3418,13.54297 0.73597,4.42889 1.04507,10.3524 1.01758,19.48828 -0.0276,10.53162 0.2178,14.39555 1.25391,19.57227 0.71118,3.54817 1.60794,10.46446 1.99218,15.36718 1.09812,14.01536 2.4604,19.83809 6.78125,29.07813 1.07039,2.28877 2.91801,6.89901 4.10547,10.24414 2.49998,7.0428 5.8612,13.52855 8.20508,15.81641 2.36859,2.31199 6.18308,4.03125 8.93945,4.03125 5.95463,0 10.38147,-4.32312 17.42188,-17.00586 4.20214,-7.57007 6.57957,-11.83845 8.45117,-15.0586 1.87161,-3.22017 3.23412,-5.39067 5.4043,-8.7832 6.13354,-9.58845 9.51215,-15.8149 11.52734,-21.25586 0.97863,-2.64091 2.94317,-7.53963 4.37109,-10.88476 5.05765,-11.84757 9.5399,-22.75765 10.375,-25.28516 1.54383,-4.67264 5.76507,-12.1766 12.73631,-22.63477 3.7901,-5.68567 7.8293,-12.5682 8.9824,-15.29687 1.1531,-2.72869 3.2196,-6.98243 4.5899,-9.44727 1.3702,-2.46484 3.4274,-6.66707 4.5683,-9.34179 2.475,-5.80135 7.2251,-13.36547 11.084,-17.64649 5.5943,-6.20607 10.5246,-12.86928 15.3262,-20.70312 2.6978,-4.40148 5.8015,-9.35899 6.8887,-11.01172 1.0871,-1.65272 3.3064,-5.09053 4.9355,-7.63867 2.6201,-4.0982 6.8584,-10.33265 15.2481,-22.45313 1.8424,-2.64494 3.5348,-5.78429 5.0586,-8.01562 1.394,-2.03575 3.9842,-5.9643 5.7578,-8.73047 7.5516,-11.77793 9.7648,-14.99214 12.3906,-18.01953 1.527,-1.76061 3.7681,-4.64176 4.9844,-6.40235 1.2163,-1.7606 4.6052,-5.65977 7.5273,-8.66797 2.9219,-3.00818 6.7935,-7.17075 8.6035,-9.25 1.8101,-2.07922 4.3054,-4.80787 5.545,-6.05859 1.2396,-1.25079 3.5092,-3.93225 5.0488,-5.96094 1.5396,-2.02864 5.6846,-6.71311 9.2109,-10.41211 6.3207,-6.62976 14.0918,-15.98624 14.0918,-16.96875 0,-1.02086 6.3761,-8.19784 14.1055,-15.88281 11.7665,-11.69891 17.1112,-15.09359 29.418,-18.67578 5.5449,-1.61401 9.9637,-2.42013 14.1582,-2.4082 z M 873.90625,167.5918 c 2.85283,-0.041 5.6501,0.28284 8.78516,0.9707 7.70791,1.69111 11.71853,4.08993 16.24414,9.72852 3.86057,4.80964 5.24649,7.6116 6.62109,13.3457 1.60876,6.75767 1.60822,9.01491 -0.0273,15.22851 -1.52634,5.80507 -2.81774,8.05956 -8.04492,14.01368 -3.00755,3.42595 -4.2662,4.98605 -7.3086,6.91211 -3.04242,1.92604 -7.86783,4.21858 -18.01953,9.1289 -3.32659,1.60911 -8.95419,4.18082 -12.50586,5.71289 -3.55141,1.53208 -10.56963,5.31319 -15.59375,8.40235 -11.53991,7.09614 -29.66397,15.63241 -42.20117,19.87109 -12.35859,4.17832 -23.46718,10.23246 -26.68164,14.54883 -3.4761,4.66765 -4.60577,12.43139 -3.25781,22.33789 0.79694,5.85576 0.74455,7.13455 -0.6875,17.05859 -1.98689,13.76995 -2.22161,38.36247 -0.45899,48.1836 0.8121,4.52358 1.18874,11.9046 1.4707,28.80859 0.25822,15.44616 0.68468,24.47354 1.33789,28.17187 1.74998,9.90146 2.35058,23.70114 1.61133,37.13086 -0.57628,10.46765 -0.52355,13.93599 0.36133,21.45118 0.78322,6.6552 1.03854,14.5198 0.98633,30.55273 l 0.70508,27.21094 c 0.93684,6.81416 0.88005,51.00384 -0.0703,56.80469 -0.35534,2.16328 -0.65624,8.24126 -0.65626,13.50586 0,7.89542 0.28055,10.91689 1.67383,17.2539 0.92917,4.22544 2.24371,11.56864 2.92774,16.32227 1.50678,10.46906 3.44632,15.02682 6.91992,22.72851 3.27247,7.2557 4.79283,16.62316 5.25586,32.33203 0.40179,13.62827 -2.91779,27.46302 -7.97461,33.20899 -3.10921,3.53374 -8.33659,6.81815 -13.83008,8.68945 -2.48568,0.84669 -6.14961,2.16125 -8.14062,2.92188 -1.99104,0.76065 -5.11481,1.92064 -6.94532,2.57421 -4.74627,1.69273 -8.82099,1.82838 -17.07031,0.55665 -3.98202,-0.61397 -8.8625,-1.31695 -10.85351,-1.56055 -10.87899,-1.33101 -18.17439,-5.58806 -21.91211,-12.78906 -1.58731,-3.05802 -4.30298,-13.6476 -4.75586,-18.55469 -0.22819,-2.46484 -0.54683,-5.63449 -0.70899,-7.04297 -0.16486,-1.40847 -0.57304,-9.18833 -0.91601,-17.28711 -0.61008,-14.40744 -1.37526,-21.75293 -2.65039,-25.60937 -2.13997,-6.47159 -5.55628,-20.93486 -6.44532,-27.28711 -1.00142,-7.15253 -0.98132,-7.89757 0.42188,-19.15235 0.80301,-6.44016 2.22724,-15.33344 3.16601,-19.76562 1.76348,-8.32783 2.00067,-12.5774 1.49805,-26.94532 -0.19243,-5.49704 -0.0309,-8.72116 0.55469,-10.30078 0.46167,-1.26479 1.73149,-6.88479 2.82031,-12.48632 1.56891,-8.07328 2.0534,-12.57208 2.31445,-21.70704 0.18124,-6.33817 0.78649,-14.99671 1.34766,-19.23828 0.8096,-6.11967 0.95791,-12.06711 0.70508,-28.80859 -0.31027,-20.58547 -1.4156,-46.20992 -2.08008,-48.24805 -0.18151,-0.55977 -0.63372,-6.7818 -1.00195,-13.82422 -1.06519,-20.36888 -1.82712,-29.76762 -3.64063,-44.8164 -1.82693,-15.15956 -2.52738,-17.81792 -7.96093,-30.4043 -2.5049,-5.80238 -6.93403,-8.80443 -11.73829,-7.95703 -5.13404,0.90552 -22.10213,8.93365 -31.65625,14.98047 -2.54999,1.61391 -8.91521,4.99507 -14.14843,7.51562 -5.43498,2.61761 -11.32142,6.00459 -13.72852,7.89844 -2.31776,1.8236 -6.31724,4.62718 -8.88672,6.22656 -2.56923,1.59947 -6.45289,4.23834 -8.625,5.86719 -2.17212,1.62883 -6.16765,4.381 -8.88281,6.11133 -3.9705,2.54452 -8.21197,5.58126 -11.50391,7.71289 -10.56047,6.82888 -16.8232,13.96592 -23.64843,26.93555 -2.79375,5.3089 -5.62383,8.87884 -14.08008,17.76367 -1.29271,1.35811 -4.39654,4.96047 -6.89844,8.0039 -5.80732,7.06399 -8.53958,8.79218 -16.37695,10.36524 -8.48371,1.70275 -12.77564,1.60343 -18.86133,-0.43945 -9.69595,-3.25528 -13.59836,-6.69571 -17.58203,-15.5 -4.23622,-9.36268 -5.13708,-13.31775 -4.6875,-20.58594 0.71038,-11.4865 3.77405,-18.88752 10.75976,-26.01367 4.71743,-4.81245 9.25804,-7.7666 13.26367,-8.625 4.09747,-0.87819 8.73624,-1.73666 15.24024,-2.82227 7.73924,-1.29177 11.61561,-2.45426 17.10937,-5.13281 5.83125,-2.843 15.16974,-8.59937 20.73633,-12.7793 2.53403,-1.90286 7.27116,-5.33177 10.5293,-7.62305 3.2919,-2.26607 6.91302,-4.95718 9.87891,-7.10742 1.44799,-1.03686 4.85104,-3.76476 7.57031,-6.0625 2.71924,-2.29769 6.80374,-5.47598 9.07422,-7.06054 2.26993,-1.58453 6.73714,-4.75419 9.92578,-7.04297 13.13795,-9.42999 19.84652,-13.53422 33.97461,-20.77344 2.89599,-1.48387 7.34716,-3.84395 9.88476,-5.24609 2.5379,-1.40208 6.09377,-3.00831 7.90039,-3.56446 9.84021,-3.02943 14.67886,-4.68687 16.44727,-5.64258 7.80522,-4.21814 9.71808,-5.45405 11.46094,-7.38476 3.09767,-3.43169 3.65551,-6.18189 2.80468,-13.85547 -0.40205,-3.62736 -1.06941,-11.78099 -1.48632,-18.11914 -0.74281,-11.29292 -0.73236,-11.59705 0.71289,-15.28711 1.93248,-4.93375 7.17938,-10.83978 12.2832,-13.82422 3.19744,-1.86972 5.21356,-2.52484 9.54297,-3.11328 12.47181,-1.69516 20.65932,-0.25106 31.49023,5.56445 10.16968,5.46051 12.29341,6.10711 18.68555,5.6543 5.37945,-0.38109 11.95087,-2.12726 16.19727,-4.30078 3.84872,-1.96996 13.92652,-6.13321 17.76757,-7.3418 5.4638,-1.71915 11.76961,-4.93516 23.04102,-11.75 12.06399,-7.29424 16.31221,-11.20271 23.33008,-21.45508 9.88968,-14.44809 16.9594,-20.0505 28.74609,-22.79882 3.34914,-0.78094 6.25236,-1.18954 9.10547,-1.23047 z m -423.91016,400.22851 73.2259,89.91907 4.95379,121.90124 -79.10742,51.67774 z"
       transform="matrix(0.78616352,0,0,0.7901277,126.22672,102.90355)"
       sodipodi:nodetypes="ccccccccccccccccccccccccccccccccccccccccccccscccccccsscccccccccccccccccccccccccccccccccccccccccccccccccccccsccccccccscccccccccccccccccccccccccccccccssscssssssssssssssssssssssscssssssccssscsscccsscsccccsssssscccccsssssssccsssscssssccssssssscssscsscccsssscsssscccsccccsscsscsscsssccsscscsccssccssssssscsccsscscsscssssccsccsccsssssssssssscsssccccc" /><path
       id="path48-0"
       style="font-style:normal;font-variant:normal;font-weight:900;font-stretch:condensed;font-size:82.9933px;line-height:1;font-family:Pragmatica;-inkscape-font-specification:'Pragmatica Heavy Condensed';text-align:center;letter-spacing:0px;word-spacing:0px;text-anchor:middle;display:inline;fill:#000000;fill-opacity:1;stroke:none;stroke-width:7.5441"
       d="m 970.01588,778.45228 c -17.92697,-7.9e-4 -32.4607,18.30408 -32.46149,40.88602 -2.6e-4,22.58287 14.53379,40.88885 32.46149,40.88757 17.92689,-3.5e-4 32.45872,-18.30588 32.45852,-40.88757 -8e-4,-22.58076 -14.53243,-40.88567 -32.45852,-40.88602 z m -87.07683,0.45062 c -3.49079,0.053 -6.98697,0.52207 -10.40898,1.3071 -8.44139,1.93658 -15.31122,8.91374 -17.51518,17.13898 -2.495,9.31151 -0.25472,17.17921 5.86706,22.78871 6.86043,6.28633 16.95238,6.68977 25.29849,9.93215 3.78894,1.47191 5.06998,5.46872 3.93082,9.32413 -1.18956,4.02602 -5.25008,5.12582 -8.95182,4.80558 -6.60988,-0.57183 -8.05756,-6.79216 -7.8079,-11.22537 h -19.54967 c 0.26326,6.41983 0.48845,10.42884 4.16268,15.81026 3.57479,5.23583 11.88366,10.85169 21.08207,11.34266 9.70414,0.51797 13.85095,-0.85701 19.66331,-4.04323 8.37837,-4.59284 11.66157,-13.12233 12.22084,-22.26864 0.4239,-6.93271 -2.51185,-12.1581 -7.71268,-16.93527 -5.23824,-4.81156 -17.17614,-6.88304 -21.00992,-7.92752 -4.57313,-1.24588 -7.8125,-2.78796 -7.8125,-7.00621 0,-4.18126 2.00719,-7.40282 7.44705,-7.40282 6.28953,0 8.47507,4.98292 8.30846,8.7732 h 18.99691 c 0,0 0.0119,-5.11344 -1.46177,-9.72228 -2.02731,-6.34205 -7.89407,-11.81609 -14.37359,-13.49852 -3.39722,-0.88216 -6.88283,-1.24588 -10.37368,-1.19291 z m -334.38359,2.41668 v 16.68527 h 17.38465 v 61.07595 h 19.7539 v -61.07595 h 17.38158 v -16.68527 z m 57.24253,0 v 77.76122 h 51.79466 V 842.16713 H 625.6087 v -14.32724 h 27.57406 v -16.1328 H 625.6087 v -13.70224 h 31.2024 v -16.68527 z m 56.02029,0 v 77.76122 h 47.56597 v -16.91367 h -27.81668 v -60.84755 z m 51.08988,0 v 77.76122 h 51.79467 v -16.91367 h -31.98242 v -14.32724 h 27.57253 v -16.1328 h -27.57253 v -13.70224 h 31.20086 v -16.68527 z m 53.58964,0 20.44946,77.76122 h 21.65789 l 21.4598,-77.76122 h -21.00837 l -11.1537,48.12063 -10.65006,-48.11909 z m 64.85542,0 v 77.76122 h 19.12435 v -77.76122 z m 82.65005,0 v 77.76122 h 19.12741 v -77.76122 z m 92.33433,0 v 77.76122 h 18.4642 v -41.1206 l 19.4728,41.1206 h 19.5083 v -77.76122 h -18.7252 v 41.14219 l -19.6371,-41.14219 z m -36.32172,14.70532 c 7.13268,5.1e-4 12.91437,10.43703 12.91487,23.31186 2e-4,12.87574 -5.78171,23.31443 -12.91487,23.31493 -7.13409,0.002 -12.91812,-10.43753 -12.91796,-23.31493 5.4e-4,-12.87649 5.78438,-23.31375 12.91796,-23.31186 z" /><path
       style="font-style:normal;font-variant:normal;font-weight:900;font-stretch:condensed;font-size:82.9933px;line-height:1;font-family:Pragmatica;-inkscape-font-specification:'Pragmatica Heavy Condensed';text-align:center;letter-spacing:0px;word-spacing:0px;text-anchor:middle;display:inline;fill:#000000;fill-opacity:1;stroke:none;stroke-width:7.53781"
       d="m 206.0302,782.02441 -17.84837,0.002 0.005,77.53437 h 16.54014 l 0.43869,-25.5031 22.9546,25.95366 21.84499,-0.0178 -33.39822,-38.01478 33.77585,-39.68386 -19.74928,-0.0864 -24.62129,27.05924 z"
       id="path170836" /><path
       style="font-style:normal;font-variant:normal;font-weight:900;font-stretch:condensed;font-size:82.9933px;line-height:1;font-family:Pragmatica;-inkscape-font-specification:'Pragmatica Heavy Condensed';text-align:center;letter-spacing:0px;word-spacing:0px;text-anchor:middle;display:inline;fill:#000000;fill-opacity:1;stroke:none;stroke-width:7.53781"
       d="m 274.17166,782.05074 -20.46175,0.0309 v 77.67943 l 20.3558,-0.008 -0.94892,-40.93077 22.51314,40.93849 15.76012,-0.0123 0.0108,-77.66708 h -19.31167 l 0.5758,35.03106 z"
       id="path170834" /><path
       style="font-style:normal;font-variant:normal;font-weight:900;font-stretch:condensed;font-size:82.9933px;line-height:1;font-family:Pragmatica;-inkscape-font-specification:'Pragmatica Heavy Condensed';text-align:center;letter-spacing:0px;word-spacing:0px;text-anchor:middle;display:inline;fill:#000000;fill-opacity:1;stroke:none;stroke-width:7.53781"
       d="m 398.88079,782.15795 0.003,77.51894 19.16273,0.0787 0.25642,-33.52951 19.41763,0.0725 0.30402,33.4369 18.54394,0.0123 0.008,-77.58992 h -19.31321 l 0.62033,29.26713 -19.30861,0.14661 0.1643,-29.41374 z"
       id="path170832" /><path
       style="font-style:normal;font-variant:normal;font-weight:900;font-stretch:condensed;font-size:82.9933px;line-height:1;font-family:Pragmatica;-inkscape-font-specification:'Pragmatica Heavy Condensed';text-align:center;letter-spacing:0px;word-spacing:0px;text-anchor:middle;display:inline;fill:#000000;fill-opacity:1;stroke:none;stroke-width:7.53781"
       d="m 459.8,782.17232 v 16.62818 h 17.41383 v 60.87223 h 19.78614 v -60.87225 h 17.41229 v -16.62817 z"
       id="path170830" /><path
       style="font-style:normal;font-variant:normal;font-weight:900;font-stretch:condensed;font-size:82.9933px;line-height:1;font-family:Pragmatica;-inkscape-font-specification:'Pragmatica Heavy Condensed';text-align:center;letter-spacing:0px;word-spacing:0px;text-anchor:middle;display:inline;fill:#000000;fill-opacity:1;stroke:none;stroke-width:7.53781"
       d="m 314.48914,782.03329 v 78.03437 h 19.29172 v -78.03433 z"
       id="path170828" /><path
       style="font-style:normal;font-variant:normal;font-weight:900;font-stretch:condensed;font-size:82.9933px;line-height:1;font-family:Pragmatica;-inkscape-font-specification:'Pragmatica Heavy Condensed';text-align:center;letter-spacing:0px;word-spacing:0px;text-anchor:middle;display:inline;fill:#000000;fill-opacity:1;stroke:none;stroke-width:7.53781"
       d="m 367.01258,781.81466 c -5.30293,0.13196 -10.3769,1.77221 -15.17203,4.92287 -9.10668,5.98363 -13.33965,17.01593 -14.3137,27.44767 -1.07514,11.51416 -0.10305,21.61337 5.62444,31.96468 3.56388,6.44076 12.28818,12.42213 19.61416,13.32415 8.67743,1.06853 15.87695,-0.14422 22.72812,-6.16053 6.67203,-5.85915 10.75618,-16.80309 10.56714,-29.23473 l -25.28928,-0.25153 0.0369,8.30405 6.97567,0.43518 c 0,0 -0.63103,1.85744 -1.46639,4.46762 -1.2777,3.99242 -5.9279,7.99799 -12.85346,4.79632 -3.98808,-1.84365 -6.10178,-7.67343 -6.83286,-11.67444 -1.1698,-6.40205 -1.32459,-13.4293 0.25028,-19.80412 1.20726,-4.88697 5.83568,-12.19043 11.22432,-11.87197 7.57268,0.44753 8.89797,9.04317 9.18829,13.34574 h 18.0357 c -0.38723,-4.43867 -1.71159,-9.44511 -3.28745,-13.6189 -2.69183,-7.12942 -10.08858,-13.93115 -17.66258,-15.63742 -2.50043,-0.56336 -4.95678,-0.81462 -7.36722,-0.75464 z"
       id="path151589" /></g></g><style
   id="style7166-9"
   type="text/css">
	.st0{fill:#FFCB05;}
	.st1{fill:#00B6F1;}
	.st2{fill:#ED1C24;}
</style><style
   id="style7166-0"
   type="text/css">
	.st0{fill:#FFCB05;}
	.st1{fill:#00B6F1;}
	.st2{fill:#ED1C24;}
</style><style
   type="text/css"
   id="style7166-5">
	.st0{fill:#FFCB05;}
	.st1{fill:#00B6F1;}
	.st2{fill:#ED1C24;}
</style><style
   id="style7166-6"
   type="text/css">
	.st0{fill:#FFCB05;}
	.st1{fill:#00B6F1;}
	.st2{fill:#ED1C24;}
</style><style
   type="text/css"
   id="style7166-5-0">
	.st0{fill:#FFCB05;}
	.st1{fill:#00B6F1;}
	.st2{fill:#ED1C24;}
</style><style
   type="text/css"
   id="style7166-55">
	.st0{fill:#FFCB05;}
	.st1{fill:#00B6F1;}
	.st2{fill:#ED1C24;}
</style><style
   type="text/css"
   id="style2">
	.st0{fill:#FF852D;}
	.st1{fill:#FFFFFF;}
</style><style
   type="text/css"
   id="style173">
	.st0{fill:#FF852D;}
	.st1{fill:#FFFFFF;}
</style><rect
   style="opacity:1;fill:#000000;fill-opacity:1;stroke:#000000;stroke-width:2;stroke-linecap:round;stroke-linejoin:round"
   id="rect172477"
   width="46.548431"
   height="6.0131378"
   x="700.7652"
   y="441.53958" /></svg>
