<?xml version="1.0" encoding="UTF-8" standalone="no"?>
<!-- Created with Inkscape (http://www.inkscape.org/) -->

<svg
   version="1.1"
   id="svg286109"
   width="1658.5862"
   height="338.91156"
   viewBox="0 0 1658.5862 338.91156"
   sodipodi:docname="lispm.svg"
   inkscape:version="1.1.2 (0a00cf5339, 2022-02-04)"
   xmlns:inkscape="http://www.inkscape.org/namespaces/inkscape"
   xmlns:sodipodi="http://sodipodi.sourceforge.net/DTD/sodipodi-0.dtd"
   xmlns="http://www.w3.org/2000/svg"
   xmlns:svg="http://www.w3.org/2000/svg">
  <defs
     id="defs286113" />
  <sodipodi:namedview
     id="namedview286111"
     pagecolor="#ffffff"
     bordercolor="#666666"
     borderopacity="1.0"
     inkscape:pageshadow="2"
     inkscape:pageopacity="0.0"
     inkscape:pagecheckerboard="0"
     showgrid="false"
     inkscape:zoom="0.5"
     inkscape:cx="720"
     inkscape:cy="44"
     inkscape:window-width="1920"
     inkscape:window-height="1043"
     inkscape:window-x="0"
     inkscape:window-y="0"
     inkscape:window-maximized="1"
     inkscape:current-layer="g286115" />
  <g
     inkscape:groupmode="layer"
     inkscape:label="Image"
     id="g286115"
     transform="translate(-8.1484156,-121.73047)">
    <path
       id="path316813-9"
       style="display:none;opacity:1;fill:#000000;fill-opacity:1;stroke:#000000;stroke-width:0;stroke-linecap:butt;stroke-linejoin:miter;stroke-miterlimit:4;stroke-dasharray:none;stroke-opacity:1"
       inkscape:label="Laboratory"
       d="m 1410.1895,406.87305 -5.0411,0.0312 0.082,43.88086 25.2168,0.0547 -0.057,-5.37304 -19.9551,-0.0293 z m 52.8964,1.18164 0.01,42.47656 5.4668,0.0117 v -2.73047 c 1.8908,2.301 4.7156,3.74035 8.793,3.76172 9.2517,0.0485 11.4914,-7.78321 11.582,-15.49414 0.091,-7.71093 -2.8034,-16.68128 -11.3867,-16.61133 -4.0452,0.033 -7.0031,1.9005 -9.0098,4.71094 l -0.014,-16.10352 z m 111.1446,3.92578 v 8.36328 h -3.6367 v 5.54492 h 3.6367 l -0.033,19.45313 c 0.1138,4.95958 4.8323,7.67883 10.7011,7.58984 l -0.01,-4.83398 c -2.1224,0.0832 -4.5516,-1.26248 -4.4317,-3.69141 v -18.51758 h 3.2735 v -5.54492 h -3.2735 v -8.36328 z m -128.4903,6.7832 c -7.7727,-0.005 -10.801,3.88935 -10.75,8.51953 l 4.4043,-0.0117 c 0,-2.66521 3.8509,-5.11272 7.4297,-5.10937 3.7251,0.003 5.6367,3.05527 5.6367,4.50586 l 0.043,3.42969 c 0.031,2.2931 -3.9509,3.31881 -7.9492,3.49023 -8.6225,0.36967 -11.0153,4.8064 -10.8828,9.98242 0.1142,4.46411 4.0772,7.30472 9.3593,7.1875 6.0299,-0.1338 9.959,-4.45703 9.959,-4.45703 l 0.01,1.14258 c 0.4566,3.95 2.8454,3.54931 5.5859,3.62891 l 0.029,-3.22071 c -1.552,-0.27298 -2.3531,-0.34273 -2.3691,-2.02929 l 0.123,-19.68946 c 0.2172,-2.2486 -2.8503,-7.36414 -10.623,-7.36914 z m 60.7832,0.67383 c -8.5833,0.07 -12.3255,8.34716 -12.2968,16.53516 0.029,8.188 2.8499,15.51988 12.1015,15.56836 9.2517,0.0485 11.4915,-7.78126 11.5821,-15.49219 0.091,-7.71093 -2.8035,-16.68128 -11.3868,-16.61133 z m 98.4942,0.0625 c -8.5833,0.07 -12.3256,8.34716 -12.2969,16.53516 0.029,8.188 2.848,15.51988 12.0996,15.56836 9.2517,0.0485 11.4934,-7.78126 11.584,-15.49219 0.091,-7.71093 -2.8034,-16.68128 -11.3867,-16.61133 z m -67.1289,0.51758 c 0,0 -6.3915,-0.0858 -8.6973,3.5664 l 0.025,-2.43554 -5.0234,0.0293 -0.1094,29.48243 5.2265,-0.10352 -0.053,-21.50391 c 0.2654,-4.61107 8.7617,-4.96875 8.7617,-4.96875 z m 16.4179,0.13867 c -7.7727,-0.005 -10.801,3.88935 -10.75,8.51953 l 4.4043,-0.0117 c 0,-2.66521 3.8509,-5.11468 7.4297,-5.11133 3.7251,0.003 5.6367,3.05723 5.6367,4.50782 l 0.043,3.42968 c 0.031,2.2931 -3.9509,3.31882 -7.9492,3.49024 -8.6225,0.36967 -11.0153,4.8064 -10.8828,9.98242 0.1142,4.46411 4.0772,7.30472 9.3594,7.1875 6.0297,-0.1338 9.9589,-4.45898 9.9589,-4.45898 l 0.01,1.14453 c 0.4566,3.95 2.8454,3.5493 5.5859,3.6289 l 0.029,-3.2207 c -1.552,-0.27298 -2.3531,-0.34274 -2.3691,-2.0293 l 0.123,-19.68945 c 0.2172,-2.2486 -2.8503,-7.36414 -10.623,-7.36914 z m 92.3614,1.21484 -5.5137,0.084 12.3633,26.13867 -2.4824,6.45508 c -0.2554,0.514 -0.5664,1.89613 -1.6055,2.12695 l -3.9277,0.0898 0.012,4.2461 4.5117,-0.01 c 2.5692,0.0387 3.8111,-1.32821 4.3926,-2.66015 l 13.541,-36.30469 -5.5645,0.0762 -6.5293,20.21484 z m -8.6602,0.51172 c 0,0 -6.3935,-0.0877 -8.6992,3.56446 l 0.025,-2.4336 -5.0235,0.0293 -0.1093,29.48242 5.2285,-0.10351 -0.055,-21.50391 c 0.2654,-4.61107 8.7617,-4.96875 8.7617,-4.96875 z m -131.4258,0.89453 c 5.269,-0.022 7.5621,7.20234 7.7852,13.21289 0.2231,6.01055 -3.1023,12.4524 -8.168,12.41016 -5.0657,-0.0422 -8.348,-5.00494 -8.5488,-12.34961 -0.2008,-7.34467 3.6626,-13.25147 8.9316,-13.27344 z m -28.9746,0.0312 c 5.269,-0.022 7.5621,7.20234 7.7852,13.21289 0.2231,6.01055 -3.1023,12.4524 -8.168,12.41016 -5.0657,-0.0422 -8.348,-5.00299 -8.5488,-12.34766 -0.2008,-7.34467 3.6626,-13.25342 8.9316,-13.27539 z m 127.4688,0.0312 c 5.269,-0.022 7.562,7.20039 7.7851,13.21094 0.2231,6.01055 -3.1022,12.45435 -8.1679,12.41211 -5.0657,-0.0422 -8.3481,-5.00494 -8.5489,-12.34961 -0.2008,-7.34467 3.6627,-13.25147 8.9317,-13.27344 z m -152.3438,11.47071 0.039,6.66601 c -0.1621,2.86296 -4.7638,5.80813 -8.541,5.86328 -3.7772,0.0551 -6.7279,-0.93603 -6.5762,-4.3125 0.1517,-3.37647 3.4711,-5.84909 8.3457,-5.79492 2.3036,0.0256 6.689,-1.17282 6.7324,-2.42187 z m 108.5664,1.39257 0.041,6.66602 c -0.1621,2.86296 -4.7657,5.80813 -8.5429,5.86328 -3.7772,0.0551 -6.7279,-0.93798 -6.5762,-4.31445 0.1517,-3.37647 3.4711,-5.84909 8.3457,-5.79492 2.3036,0.0256 6.689,-1.17087 6.7324,-2.41993 z" />
    <path
       id="path316829-4"
       style="display:none;opacity:1;fill:#000000;fill-opacity:1;stroke:#000000;stroke-width:0;stroke-linecap:butt;stroke-linejoin:miter;stroke-miterlimit:4;stroke-dasharray:none;stroke-opacity:1"
       inkscape:label="Intelligence"
       d="m 1196.3613,406.86133 v 42.33984 l 6.9571,-0.004 -0.043,-42.33204 z m -87.5669,0.26679 0.095,45.05463 5.2408,-0.0462 -0.1363,-45.04683 z m 100.0923,0.98516 v 42.33984 l 6.9551,-0.006 -0.041,-42.33204 z m 11.7949,0.91211 v 4.69141 h 6.918 v -4.6875 z m -65.9902,1.76139 v 8.36328 h -3.6367 v 5.54492 h 3.6367 l -0.031,19.45313 c 0.1137,4.95958 3.6214,7.59713 9.4903,7.50814 l -0.012,-4.83398 c -2.1224,0.0832 -4.5496,-1.26248 -4.4297,-3.69141 v -18.51758 h 3.2734 v -5.54492 h -3.2734 v -8.36328 z m 91.6504,6.60384 c -8.5833,0.07 -12.3256,8.34716 -12.2969,16.53516 0.029,8.188 2.848,15.52183 12.0996,15.57031 3.806,0.02 6.412,-1.3063 8.1836,-3.39648 l -0.059,5.17383 c 0.3568,4.08744 -4.6637,5.51989 -8.1543,5.61718 -3.4906,0.0973 -6.7688,-1.22768 -6.7832,-4.19335 l -3.7558,0.0723 c 0.1362,4.48738 3.2462,7.75949 11.0156,7.72461 7.7695,-0.0349 11.7152,-4.08354 11.627,-8.54297 l -0.2403,-32.85156 -3.6504,-0.004 v 2.23047 c -1.798,-2.39208 -4.3856,-3.96488 -7.9863,-3.93555 z m -111.2734,0.37696 c -3.7198,0.0553 -7.5038,2.01241 -7.5547,3.59375 l 0.053,-2.56445 -5.5918,0.0215 -0.01,32.95502 5.5899,-0.0215 0.045,-24.38471 c -0.082,-2.42881 3.8456,-6.00297 6.7422,-5.94141 2.585,0.0549 6.0103,1.82708 6.3164,4.9961 l 0.095,25.42572 h 5.0313 l -0.095,-26.34565 c -0.1656,-4.84907 -6.0007,-7.80307 -10.625,-7.73437 z m 140.7578,0.83984 c -9.8364,-0.15728 -13.4627,7.4948 -13.4278,16.48633 0.029,7.33499 2.9176,15.85703 13.918,15.76563 8.0687,-0.0671 9.7183,-4.21978 10.4297,-10.58204 l -3.9961,-0.39453 c -0.3727,3.70601 -1.9743,7.14859 -7.1582,7.32813 -5.3281,0.18454 -9.5333,-4.69815 -9.7344,-11.41602 -0.013,-0.42968 -0.01,-0.84923 0,-1.26367 h 20.9278 v -3.43555 c -0.01,-6.68646 -4.5202,-12.38353 -10.9571,-12.48828 z m 28.957,0.11524 c -3.7198,0.0553 -7.5057,2.01241 -7.5566,3.59375 l 0.053,-2.56446 -5.5918,0.0215 -0.1016,30.24023 5.5899,-0.0215 0.1406,-21.66992 c -0.082,-2.42881 3.8475,-6.00297 6.7441,-5.94141 2.585,0.0549 6.0084,1.82708 6.3145,4.99609 v 22.71094 h 5.0332 v -23.63086 c -0.1656,-4.84907 -6.0007,-7.80307 -10.625,-7.73437 z m 28.7813,0.082 c -9.8379,-0.15835 -13.4646,7.49419 -13.4297,16.48633 0.029,7.33499 2.9175,15.85709 13.9179,15.76562 8.0687,-0.0671 9.7183,-4.21977 10.4297,-10.58203 l -3.9961,-0.39453 c -0.3727,3.70601 -1.9743,7.14857 -7.1582,7.32812 -5.3281,0.18454 -9.5333,-4.69814 -9.7343,-11.41601 -0.2375,-7.92762 3.8533,-13.33416 9.8398,-13.49414 4.2206,-0.11279 5.9255,3.3483 6.9531,6.77929 l 3.752,-0.79101 c -1.2278,-4.9656 -4.1362,-9.57802 -10.5742,-9.68164 z m -151.9707,0.33789 c -9.8364,-0.15728 -13.4627,7.4948 -13.4278,16.48633 0.029,7.33499 2.9176,15.85709 13.918,15.76562 8.0687,-0.0671 9.7183,-4.21977 10.4297,-10.58203 l -3.9961,-0.39453 c -0.3727,3.70601 -1.9743,7.14858 -7.1582,7.32812 -5.3281,0.18454 -9.5333,-4.69814 -9.7344,-11.41601 -0.013,-0.42968 -0.01,-0.84923 0,-1.26367 h 20.9277 v -3.43555 c -0.01,-6.68646 -4.5201,-12.38353 -10.957,-12.48828 z m 180.1796,0.3457 c -9.8364,-0.15728 -13.4626,7.4948 -13.4277,16.48633 0.029,7.33499 2.9176,15.85709 13.918,15.76562 8.0687,-0.0671 9.7183,-4.21977 10.4297,-10.58203 l -3.9961,-0.39453 c -0.3727,3.70601 -1.9743,7.14858 -7.1582,7.32813 -5.3281,0.18454 -9.5333,-4.69815 -9.7344,-11.41602 -0.013,-0.42968 -0.01,-0.84923 0,-1.26367 h 20.9277 v -3.43555 c -0.01,-6.68646 -4.5201,-12.38353 -10.957,-12.48828 z m -141.0918,0.99024 v 30.88671 l 6.9551,-0.004 -0.029,-30.88281 z m 25.7188,0.25195 c 5.269,-0.022 7.5601,7.20234 7.7832,13.21289 0.2231,6.01055 -3.1003,12.4524 -8.166,12.41016 -5.0657,-0.0422 -8.35,-5.00299 -8.5508,-12.34766 -0.2008,-7.34467 3.6646,-13.25342 8.9336,-13.27539 z m 28.7441,1.41992 c 4.6377,-0.0807 7.5567,5.33943 7.8008,8.94531 h -16.6738 c 0.6423,-4.49946 4.1624,-8.86332 8.873,-8.94531 z m -94.2324,0.53516 c 4.6377,-0.0807 7.5567,5.33943 7.8008,8.94531 h -16.6738 c 0.6423,-4.49946 4.1624,-8.86332 8.873,-8.94531 z m 180.1797,0.3457 c 4.6377,-0.0807 7.5567,5.33943 7.8008,8.94531 h -16.6738 c 0.6422,-4.49946 4.1624,-8.86332 8.873,-8.94531 z"
       sodipodi:nodetypes="cccccccccccccccccccccccccccccccccccccsccsccsccccccsccccccsccccssscsccsscccsssccccccsccccssscsccscsccsscsccsscccssscsccsscccsscccccssssssccssccssccs" />
    <path
       id="path320944-8"
       style="display:none;opacity:1;fill:#000000;fill-opacity:1;stroke:#000000;stroke-width:0;stroke-linecap:butt;stroke-linejoin:miter;stroke-miterlimit:4;stroke-dasharray:none;stroke-opacity:1"
       inkscape:label="Artificial"
       d="m 897.1875,404.4707 -5.01758,0.002 -12.90496,46.38287 5.00742,0.19065 4.04207,-15.95234 14.11133,-0.0137 5.17805,15.61484 5.41797,-0.0332 z m 171.9637,2.58525 0.027,43.88785 4.8898,0.0364 -0.062,-43.88004 z m -87.91487,0.19596 c -5.86887,-0.0904 -9.6529,2.61733 -9.76667,7.65316 l 0.15234,4.22852 h -3.63672 v 5.63086 h 3.63672 l 0.28758,26.31112 5.29011,0.0539 -0.28758,-26.31112 h 3.27344 v -5.63086 h -3.27344 l -0.11719,-3.2793 c -0.11991,-2.46627 2.30731,-3.83254 4.42969,-3.74804 z m 49.97977,1.16371 v 4.69141 l 4.8308,-0.07 v -4.6875 z m -74.87826,0.27885 v 4.6914 l 4.6679,0.0346 v -4.6875 z m 32.83602,0.0496 v 4.6914 l 4.90036,0.01 v -4.6875 z m -48.88167,1.06375 v 8.36328 h -3.63672 v 5.54493 h 3.63672 l -0.0332,19.45312 c 0.11377,4.95958 3.91661,7.77847 9.78548,7.68947 l -0.0428,-4.92703 c -2.12238,0.0832 -4.54959,-1.26248 -4.42968,-3.69141 l -0.004,-18.51757 h 3.27344 v -5.54493 h -3.27344 v -8.36328 z m -45.2336,0.75658 6.69922,20.90235 -12.67773,0.082 z m 36.10547,7.64453 c 0,0 -6.39152,-0.0858 -8.69726,3.56641 l 0.0254,-2.43555 -4.32019,-0.0747 -0.10937,31.47114 4.52331,5.1e-4 -0.0527,-23.49263 c 0.26542,-4.61107 8.76172,-4.96875 8.76172,-4.96875 z m 119.69924,0.10157 c -7.7727,-0.005 -10.801,3.88935 -10.75,8.51953 l 4.4043,-0.0117 c 0,-2.66521 3.8509,-5.11273 7.4297,-5.10938 3.7251,0.003 5.6367,3.05527 5.6367,4.50586 l 0.043,3.42969 c 0.031,2.2931 -3.951,3.31882 -7.9493,3.49024 -8.6225,0.36967 -11.0153,4.8064 -10.8828,9.98242 0.1142,4.46411 4.0772,7.30472 9.3594,7.1875 6.0297,-0.1338 9.959,-4.45899 9.959,-4.45899 l 0.01,1.14453 c 0.4566,3.95 2.8455,3.54931 5.586,3.62891 l 0.027,-3.2207 c -1.552,-0.27298 -2.3512,-0.34274 -2.3672,-2.0293 l 0.1211,-19.68945 c 0.2172,-2.2486 -2.8484,-7.36414 -10.6211,-7.36914 z m -37.5,0.16211 c -9.8379,-0.15835 -13.46461,7.49418 -13.42971,16.48632 0.029,7.33499 2.91761,15.8571 13.91801,15.76563 8.0687,-0.0671 9.7183,-4.21977 10.4296,-10.58203 l -3.996,-0.39453 c -0.3727,3.70601 -1.9743,7.14857 -7.1582,7.32812 -5.3281,0.18454 -9.5334,-4.69814 -9.7344,-11.41601 -0.2375,-7.92762 3.8533,-13.33416 9.8398,-13.49414 4.2206,-0.11279 5.9255,3.3483 6.9531,6.77929 l 3.752,-0.79101 c -1.2278,-4.9656 -4.1362,-9.57802 -10.5742,-9.68164 z m 22.6914,1.32422 -4.8386,0.072 v 30.88672 l 4.8679,-0.076 z m -79.71686,0.35075 v 30.88672 l 4.70501,0.0306 -0.0293,-30.88282 z m 32.83602,0.0496 v 30.88672 l 4.93747,0.006 -0.0293,-30.88281 z m 68.68164,13.66018 0.039,6.66602 c -0.1621,2.86296 -4.7638,5.80813 -8.541,5.86328 -3.7772,0.0551 -6.7298,-0.93603 -6.5781,-4.3125 0.1517,-3.37647 3.473,-5.85105 8.3476,-5.79688 2.3036,0.0256 6.6891,-1.17087 6.7325,-2.41992 z"
       sodipodi:nodetypes="ccccccccccccccccccccccccccccccccccccccccccccccccccccccccccccccccccccccccscccccsssccccccssscsccscsccscccccccccccccccccsssc" />
    <path
       id="path316815-7"
       style="display:none;opacity:1;fill:#000000;fill-opacity:1;stroke:#000000;stroke-width:0;stroke-linecap:butt;stroke-linejoin:miter;stroke-miterlimit:4;stroke-dasharray:none;stroke-opacity:1"
       inkscape:label="MIT"
       d="m 758.92188,405.94922 -6.59376,0.01 -11.80273,35.07813 -13.87109,-34.91992 -5.88282,-0.0195 -0.0438,42.82133 5.15039,-0.004 0.0536,-31.53228 12.43499,31.53783 3.57226,0.0156 11.85994,-32.84643 0.0414,32.88419 5.15039,-0.004 z m 15.4493,-0.14823 0.0411,43.07482 6.07305,-0.0631 -0.0781,-43.06505 z m 21.24209,0.052 -0.016,5.11458 10.71131,-0.0206 0.0415,37.98768 4.90562,0.0255 -0.0766,-37.98378 10.34401,-0.009 0.016,-5.11458 z"
       sodipodi:nodetypes="cccccccccccccccccccccccccccc" />
    <path
       id="path305390"
       style="opacity:1;fill:#000000;fill-opacity:1;stroke:#000000;stroke-width:0;stroke-linecap:butt;stroke-linejoin:miter;stroke-miterlimit:4;stroke-dasharray:none;stroke-opacity:1"
       d="m 1299.875,143.81836 c -34.1253,-0.57613 -46.7088,27.26633 -46.5879,59.98437 0.099,26.6885 10.1201,57.69804 48.2774,57.36524 27.9887,-0.24411 36.7001,-19.21411 39.1679,-42.36328 l -15.0254,-1.75391 c -1.2929,13.48436 -4.5641,32.38126 -27.0625,31.83399 -18.4876,-0.44972 -32.6616,-18.08425 -33.3593,-42.52735 -0.8235,-28.84477 14.0401,-50.62849 34.8125,-50.42578 14.2144,0.13871 22.9551,11.10809 26.5195,23.5918 l 12.3301,-1.55469 c -4.2586,-18.06743 -16.7406,-33.77337 -39.0723,-34.15039 z m -152.9492,1.81055 -16.6797,0.0254 -29.8574,94.0664 -35.086,-93.64453 -14.8847,-0.0488 0.09,115.94532 13.0274,-0.0137 -0.061,-85.66796 31.4414,83.64648 9.0352,0.0449 30.0176,-87.16211 0.01,86.66407 13.0274,-0.0137 z m 54.9844,0.10351 -13.0899,0.004 -33.6816,112.97851 15.0703,0.01 8.5527,-35.33399 36.8145,-0.0332 12.8457,35.40235 14.1347,-0.082 z m 149.371,2.00977 0.012,113.86328 13.0254,-0.0137 -0.037,-55.35742 h 53.0977 v 56.31054 l 13.0273,-0.0137 -0.08,-113.8418 -12.9571,-0.008 v 46.54492 h -53.1035 l -0.033,-47.47656 z m 138.9532,0.49023 0.012,113.86524 13.0273,-0.0156 -0.062,-88.95508 51.0098,89.79688 13.0254,-0.0137 -0.078,-113.8418 -12.959,-0.008 0.012,89.37109 -51.0254,-90.19141 z m -37.211,0.10156 0.01,113.03125 14.0996,-0.0137 -0.084,-113.00976 z m 138.4375,1.53907 0.2539,112.72656 71.5176,-0.0176 -0.1035,-13.49609 h -58.6406 l -0.2617,-39.36914 h 51.9101 l 0.2344,-11.28711 h -51.918 l -0.025,-35.77539 h 56.4825 v -12.59961 z m -395.1035,11.3125 17.4766,53.00976 -33.0742,0.20899 z"
       inkscape:label="MACHINE" />
    <path
       id="path292839"
       style="opacity:1;fill:#000000;fill-opacity:1;stroke:#000000;stroke-width:0;stroke-linecap:butt;stroke-linejoin:miter;stroke-miterlimit:4;stroke-dasharray:none;stroke-opacity:1"
       d="m 801.33008,141.82227 c -17.01119,-0.009 -36.35763,9.74959 -36.35156,32.04492 0.0101,36.97148 67.23834,22.96649 67.81836,53.74609 0.20207,10.72335 -14.84906,21.1394 -25.57227,20.92969 -14.76167,-0.28869 -32.0334,-11.24243 -33.20313,-29.31641 l -13.75976,-0.10937 c -0.61139,20.6974 16.17849,42.23582 47.55078,42.07617 17.30775,-0.0881 37.92321,-16.23121 37.98828,-33.53906 0.17958,-47.76925 -68.10563,-25.17809 -67.73047,-55.51172 0.11988,-9.69291 13.74099,-19.38731 23.43164,-19.14649 16.1264,0.40074 24.32083,13.65683 24.24414,24.90625 l 13.6211,-0.0781 C 839.02068,151.944 819.24054,141.83179 801.33008,141.82227 Z m 108.25976,5.42382 -47.49804,0.082 0.16601,112.4375 14.88867,-0.14648 -0.67773,-46.98633 35.24805,0.25977 c 15.29625,-0.50452 26.71652,-18.82232 26.64062,-32.78125 -0.0837,-15.39827 -14.8428,-32.91504 -28.76758,-32.86524 z m -258.4414,1.47852 -13.61133,0.0801 0.22266,110.58593 68.08203,0.13868 -0.15039,-13.54102 -53.87696,-0.0762 z m 74.9414,0.0195 0.01,111.35938 14.87695,-0.0137 -0.0898,-111.33789 z m 182.01368,11.20508 c 10.75572,0.099 17.45702,10.64745 17.41992,19.99609 -0.0437,11.00612 -3.97961,21.40225 -16.20117,21.62891 l -32.3086,0.34961 -0.78906,-41.50195 z"
       inkscape:label="LISP" />
    <path
       id="path286235"
       style="opacity:1;fill:#000000;fill-opacity:1;stroke:#000000;stroke-width:0;stroke-linecap:butt;stroke-linejoin:miter;stroke-miterlimit:4;stroke-dasharray:none;stroke-opacity:1"
       d="m 405.79688,121.73047 -391.89063,4.03906 c -3.169192,-0.10362 -5.6206289,2.16004 -5.2910156,5.45899 l -0.4667969,167.5332 c -0.00812,2.33843 2.2970195,4.51763 5.3203125,4.60351 l 96.44531,-1.1914 2.60156,113.3789 -10.89648,-20.25781 -12.791015,0.0234 28.244145,54.45703 26.50781,-55.43555 -12.24024,0.0625 -9.03711,21.24024 -1.15429,-113.73438 289.76562,-3.92382 c 2.2034,0 4.72177,-2.35448 4.72656,-5.63282 l -2.04492,-76.64062 97.76368,-1.58008 -15.04688,10.11719 -0.0957,14.01562 42.78711,-29 -43.79102,-30.45508 0.33594,13.1543 16.0039,11.72266 -97.38281,-1.33594 -1.49414,-75.70899 z m -5.94727,13.79883 1.45508,66.72851 -84.78125,0.97852 a 12.528955,13.745709 0 0 0 -10.79883,-6.77735 12.528955,13.745709 0 0 0 -12.5293,13.7461 12.528955,13.745709 0 0 0 12.5293,13.74414 12.528955,13.745709 0 0 0 11.08398,-7.40625 l 85.59961,-0.61133 1.15821,71.26953 -186.79297,2.33399 1.2832,-151.89063 z m -194.88672,1.78125 0.83203,152.89257 -84.62695,0.17188 -0.53516,-66.41406 c 4.39613,-2.13354 7.9407,-6.72286 7.94922,-11.59375 8e-4,-7.04559 -5.73311,-12.75766 -12.80664,-12.75781 -7.07353,1.4e-4 -12.80744,5.71222 -12.80664,12.75781 0.0139,4.64959 2.56647,8.9234 6.66211,11.15429 l 0.18164,66.78516 -88.482422,-0.72266 -0.183594,-149.7539 z"
       inkscape:label="Cons cell" />
    <g
       aria-label="Laboratory"
       transform="scale(1.0024881,0.99751812)"
       id="text406931"
       style="font-size:56.7554px;line-height:1.25;font-family:FreeSans;-inkscape-font-specification:'FreeSans, Normal';opacity:0.912038;stroke-width:1.41888"
       inkscape:label="Laboratory">
      <path
         d="m 1407.4453,409.43973 v 36.72075 h 18.8743 v 4.65394 h -23.7501 v -41.37469 z"
         id="path432952"
         style="stroke-width:1.36372" />
      <path
         d="m 1430.9614,429.07607 q 0.305,-9.99345 10.6776,-9.99345 4.9321,0 7.4743,2.17504 2.5424,2.11627 2.5424,6.23121 v 18.10579 q 0,2.41019 2.288,2.41019 0.4576,0 0.9153,-0.11757 v 3.70345 q -1.7796,0.52907 -2.8983,0.52907 -2.0338,0 -3.1015,-1.11692 -1.0169,-1.05813 -1.2712,-3.40953 -4.2711,4.52645 -9.0507,4.52645 -4.0168,0 -6.4066,-2.46897 -2.3389,-2.46898 -2.3389,-6.64271 0,-1.35205 0.2034,-2.46897 0.2543,-1.11692 0.5085,-1.93991 0.305,-0.88177 1.0169,-1.58719 0.7118,-0.7642 1.1694,-1.23448 0.5085,-0.47029 1.6271,-0.88179 1.1695,-0.47027 1.7797,-0.64663 0.6101,-0.23514 2.1355,-0.52906 1.5253,-0.29393 2.2372,-0.4115 0.7118,-0.11756 2.5424,-0.41149 2.4913,-0.35271 3.4575,-1.11692 0.966,-0.7642 0.966,-2.29261 v -1.29327 q 0,-2.23384 -1.5762,-3.40953 -1.5254,-1.1757 -4.3727,-1.1757 -2.9492,0 -4.4745,1.35205 -1.5254,1.29327 -1.7797,4.11495 z m 8.4912,18.75242 q 3.5083,0 5.7456,-2.11626 2.2372,-2.17504 2.2372,-4.64402 v -5.52579 q -1.2712,0.70543 -3.8643,1.1757 -2.5423,0.47028 -4.4236,0.823 -1.8814,0.3527 -3.4067,1.70476 -1.5254,1.29327 -1.5254,3.64467 0,2.3514 1.3729,3.64467 1.3728,1.29327 3.8643,1.29327 z"
         id="path432954"
         style="stroke-width:1.36679" />
      <path
         d="m 1461.2725,409.43973 h 4.3379 v 15.6645 q 2.979,-4.88097 8.4667,-4.88097 5.4354,0 8.5712,4.1999 3.1359,4.1999 3.1359,11.40784 0,7.3782 -3.2405,11.86188 -3.2403,4.42692 -8.6757,4.42692 -5.5922,0 -8.6758,-5.10799 v 3.80261 h -3.9197 z m 11.9683,15.21045 q -3.4494,0 -5.5399,3.1783 -2.0905,3.12155 -2.0905,8.34305 0,5.2215 2.0905,8.3998 2.0905,3.12155 5.5399,3.12155 3.5539,0 5.7491,-3.12155 2.2474,-3.1783 2.2474,-8.22953 0,-5.33501 -2.1952,-8.51332 -2.1428,-3.1783 -5.8013,-3.1783 z"
         id="path432956"
         style="stroke-width:1.36158" />
      <path
         d="m 1501.8022,420.22326 q 5.8052,0 8.9904,4.25666 3.2365,4.1999 3.2365,11.91863 0,7.32145 -3.2879,11.52135 -3.2365,4.1999 -8.8876,4.1999 -5.7539,0 -8.9904,-4.1999 -3.1851,-4.25666 -3.1851,-11.74837 0,-7.49171 3.2365,-11.69161 3.2365,-4.25666 8.8876,-4.25666 z m 0.052,4.37017 q -3.5962,0 -5.6511,3.12154 -2.055,3.0648 -2.055,8.45656 0,5.39176 2.055,8.51331 2.0549,3.06479 5.6511,3.06479 3.5447,0 5.5997,-3.06479 2.1063,-3.12155 2.1063,-8.34304 0,-5.50528 -2.0549,-8.62683 -2.0035,-3.12154 -5.6511,-3.12154 z"
         id="path432958"
         style="stroke-width:1.34993" />
      <path
         d="m 1534.3472,425.21774 q -4.6743,0.11351 -7.0116,2.21346 -2.3371,2.09995 -2.3371,7.94575 v 15.43747 h -4.6743 v -29.73983 h 4.2847 v 5.39177 q 2.0034,-3.34857 3.8397,-4.76746 1.892,-1.47564 4.1179,-1.47564 0.6122,0 1.7807,0.17027 z"
         id="path432960"
         style="stroke-width:1.40496" />
      <path
         d="m 1539.981,429.87168 q 0.3156,-9.64842 11.0472,-9.64842 5.1028,0 7.7331,2.09995 2.6303,2.0432 2.6303,6.01607 v 17.48067 q 0,2.32697 2.3673,2.32697 0.4734,0 0.9469,-0.11351 v 3.57559 q -1.8413,0.5108 -2.9985,0.5108 -2.1043,0 -3.209,-1.07836 -1.0521,-1.02159 -1.3152,-3.29181 -4.4189,4.37017 -9.3638,4.37017 -4.1558,0 -6.6284,-2.38373 -2.4199,-2.38373 -2.4199,-6.41336 0,-1.30537 0.2104,-2.38373 0.2631,-1.07835 0.5261,-1.87293 0.3156,-0.85133 1.0521,-1.53239 0.7365,-0.73782 1.21,-1.19186 0.526,-0.45405 1.6833,-0.85134 1.21,-0.45404 1.8413,-0.62431 0.6312,-0.22702 2.2094,-0.51079 1.5782,-0.28378 2.3147,-0.39729 0.7365,-0.11351 2.6302,-0.39729 2.5778,-0.34053 3.5773,-1.07835 0.9994,-0.73782 0.9994,-2.21346 v -1.24862 q 0,-2.15671 -1.6307,-3.29181 -1.5781,-1.13511 -4.5241,-1.13511 -3.0511,0 -4.6294,1.30537 -1.5781,1.24862 -1.8411,3.97288 z m 8.7851,18.10497 q 3.63,0 5.9445,-2.04319 2.3146,-2.09995 2.3146,-4.48368 v -5.33501 q -1.315,0.68107 -3.998,1.13511 -2.6302,0.45404 -4.5767,0.79458 -1.9463,0.34053 -3.5245,1.6459 -1.5783,1.24862 -1.5783,3.51884 0,2.27021 1.4204,3.51883 1.4203,1.24862 3.998,1.24862 z"
         id="path432962"
         style="stroke-width:1.36603" />
      <path
         d="m 1579.8273,421.07459 v 3.85937 h -4.213 v 20.37519 q 0,1.58915 0.4409,2.1567 0.4899,0.5108 1.8126,0.5108 1.2247,0 1.9595,-0.22702 v 3.97288 q -1.9106,0.39729 -3.3312,0.39729 -2.4004,0 -3.674,-1.24862 -1.2737,-1.19187 -1.2737,-3.46208 v -22.47514 h -3.4781 v -3.85937 h 3.4781 v -8.17278 h 4.0659 v 8.17278 z"
         id="path432964"
         style="stroke-width:1.31821" />
      <path
         d="m 1600.0582,420.22326 q 6.0073,0 9.3035,4.25666 3.3492,4.1999 3.3492,11.91863 0,7.32145 -3.4025,11.52135 -3.3492,4.1999 -9.1971,4.1999 -5.9541,0 -9.3034,-4.1999 -3.296,-4.25666 -3.296,-11.74837 0,-7.49171 3.3492,-11.69161 3.3492,-4.25666 9.1971,-4.25666 z m 0.053,4.37017 q -3.7213,0 -5.8479,3.12154 -2.1265,3.0648 -2.1265,8.45656 0,5.39176 2.1265,8.51331 2.1266,3.06479 5.8479,3.06479 3.6683,0 5.7947,-3.06479 2.1796,-3.12155 2.1796,-8.34304 0,-5.50528 -2.1264,-8.62683 -2.0733,-3.12154 -5.8479,-3.12154 z"
         id="path432966"
         style="stroke-width:1.37324" />
      <path
         d="m 1633.4005,425.21774 q -4.7744,0.11351 -7.1617,2.21346 -2.3872,2.09995 -2.3872,7.94575 v 15.43747 h -4.7744 v -29.73983 h 4.3765 v 5.39177 q 2.0462,-3.34857 3.922,-4.76746 1.9324,-1.47564 4.2061,-1.47564 0.6252,0 1.8187,0.17027 z"
         id="path432968"
         style="stroke-width:1.41992" />
      <path
         d="m 1657.9172,421.07459 h 4.6807 l -12.1178,34.78758 q -2.1325,5.92595 -7.0211,5.92595 -1.6123,0 -2.9125,-0.71331 v -4.11525 q 1.4041,0.32923 2.2883,0.32923 1.3522,0 2.1324,-0.65845 0.78,-0.60357 1.3521,-2.13993 l 1.6642,-4.55421 -9.2054,-28.86161 h 4.6288 l 6.9691,22.38696 z"
         id="path432970"
         style="stroke-width:1.33549" />
    </g>
    <g
       aria-label="Intelligence"
       transform="scale(0.94782333,1.0550489)"
       id="text404573"
       style="font-size:57.8799px;line-height:1.25;font-family:FreeSans;-inkscape-font-specification:'FreeSans, Normal';opacity:0.809481;stroke-width:1.44701"
       inkscape:label="Intelligence">
      <path
         d="m 1175.18,385.75108 v 40.72416 h -5.4407 v -40.72416 z"
         id="path430946"
         style="stroke-width:1.42158" />
      <path
         d="m 1183.5147,397.58846 h 4.4567 v 4.92918 q 2.0258,-3.08074 4.341,-4.42506 2.3731,-1.34432 5.7301,-1.34432 4.3989,0 7.0035,2.18453 2.6046,2.18451 2.6046,5.82538 v 22.18132 h -4.804 v -20.33287 q 0,-2.63263 -1.6785,-4.20101 -1.6786,-1.56837 -4.5725,-1.56837 -3.7044,0 -5.9617,2.74466 -2.2573,2.68864 -2.2573,7.16971 v 16.18788 h -4.8619 z"
         id="path430948"
         style="opacity:1;stroke-width:1.42349" />
      <path
         d="m 1226.1721,397.11506 v 3.69907 h -4.9777 v 19.52889 q 0,1.52313 0.521,2.06712 0.5788,0.48958 2.1415,0.48958 1.447,0 2.3152,-0.21759 v 3.80785 q -2.2573,0.38079 -3.9358,0.38079 -2.8361,0 -4.341,-1.19675 -1.5049,-1.14235 -1.5049,-3.31828 v -21.54161 h -4.1095 v -3.69907 h 4.1095 v -7.83331 h 4.804 v 7.83331 z"
         id="path430950"
         style="stroke-width:1.40281" />
      <path
         d="m 1258.0094,413.49011 h -20.9191 q 0.1083,4.50109 2.276,7.19076 2.2221,2.68967 6.07,2.68967 5.5278,0 7.4247,-5.76358 h 4.5523 q -0.8671,4.72065 -4.0645,7.35543 -3.1976,2.63478 -8.0752,2.63478 -5.9614,0 -9.4299,-4.06195 -3.4684,-4.11685 -3.4684,-11.19783 0,-7.08098 3.5226,-11.30761 3.577,-4.28152 9.4841,-4.28152 12.6274,0 12.6274,16.74185 z m -20.8108,-3.73261 h 15.9875 q 0,-3.73261 -2.222,-6.25761 -2.2219,-2.525 -5.6363,-2.525 -3.4142,0 -5.6362,2.41522 -2.222,2.36032 -2.493,6.36739 z"
         id="path430952"
         style="stroke-width:1.36356" />
      <path
         d="m 1268.6051,385.67384 v 42.19445 h -4.8544 v -42.19445 z"
         id="path430954"
         style="opacity:1;stroke-width:1.44589" />
      <path
         d="m 1280.5725,385.78032 v 42.19445 h -4.8619 v -42.19445 z"
         id="path430956" />
      <path
         d="m 1292.9612,397.5834 v 30.32907 h -4.804 V 397.5834 Z m 0,-11.86538 v 6.07739 h -4.8619 v -6.07739 z"
         id="path430958" />
      <path
         d="m 1313.5957,425.35983 q -5.1113,0 -8.556,-3.81827 -3.4445,-3.86918 -3.4445,-10.23296 0,-6.51652 3.389,-10.53843 3.4446,-4.02191 9.0004,-4.02191 5.4447,0 8.8894,4.63283 l -0.5556,-3.86917 h 4.8335 v 22.29869 q 0,3.81828 -0.4999,6.36379 -0.5,2.59642 -1.8335,4.78556 -1.3335,2.18915 -4.0001,3.25826 -2.6114,1.06911 -6.6671,1.06911 -5.1113,0 -8.167,-2.13822 -3.0557,-2.13824 -3.4447,-5.9056 h 4.7225 q 0.7778,4.48011 7.0559,4.48011 4.6669,0 6.3892,-2.44369 1.7222,-2.39279 1.7222,-7.33109 v -1.37457 q -1.9444,2.54551 -4.0557,3.66554 -2.0557,1.12002 -4.778,1.12002 z m 0.889,-24.69148 q -3.7225,0 -5.8893,2.80007 -2.1667,2.80006 -2.1667,7.58563 0,4.83647 2.1667,7.63654 2.1668,2.74915 5.9449,2.74915 3.6667,0 5.7781,-2.69824 2.111,-2.74916 2.111,-7.53472 0,-4.98921 -2.111,-7.73836 -2.0558,-2.80007 -5.8337,-2.80007 z"
         id="path430960"
         style="opacity:1;stroke-width:1.3296" />
      <path
         d="m 1356.7488,413.66345 h -20.566 q 0.1066,4.54769 2.2378,7.26521 2.1844,2.71752 5.9673,2.71752 5.4345,0 7.2993,-5.82326 h 4.4755 q -0.8525,4.76953 -3.996,7.43159 -3.1435,2.66206 -7.9386,2.66206 -5.8608,0 -9.2707,-4.10401 -3.4099,-4.15947 -3.4099,-11.31377 0,-7.15429 3.4632,-11.42468 3.5164,-4.32585 9.3239,-4.32585 12.4142,0 12.4142,16.91519 z m -20.4594,-3.77125 h 15.7174 q 0,-3.77126 -2.1844,-6.3224 -2.1845,-2.55115 -5.541,-2.55115 -3.3567,0 -5.5412,2.44023 -2.1844,2.38476 -2.4508,6.43332 z"
         id="path430962"
         style="stroke-width:1.35898" />
      <path
         d="m 1363.3503,397.6118 h 4.1996 v 5.06606 q 1.9089,-3.1663 4.0905,-4.54794 2.2362,-1.38166 5.3996,-1.38166 4.1451,0 6.5995,2.24519 2.4543,2.24518 2.4543,5.98716 v 22.79731 h -4.5269 v -20.89753 q 0,-2.70573 -1.5816,-4.31767 -1.5818,-1.61193 -4.3088,-1.61193 -3.4907,0 -5.6177,2.82088 -2.1271,2.76331 -2.1271,7.36882 v 16.63743 h -4.5814 z"
         id="path430964"
         style="stroke-width:1.40087" />
      <path
         d="m 1416.7831,407.1041 h -4.6797 q -0.4457,-2.98205 -2.2284,-4.5544 -1.7828,-1.62657 -4.6797,-1.62657 -3.7884,0 -5.9611,3.03627 -2.117,2.98204 -2.117,8.29551 0,5.04237 2.1727,7.91598 2.1727,2.87361 6.0168,2.87361 5.9611,0 7.1309,-6.8316 h 4.6798 q -0.4457,5.20503 -3.5656,8.13286 -3.1197,2.87361 -8.3565,2.87361 -5.9611,0 -9.4708,-4.01221 -3.4541,-4.06643 -3.4541,-10.95225 0,-7.04848 3.5098,-11.27757 3.5655,-4.22908 9.4707,-4.22908 5.0697,0 8.0781,2.65673 3.0641,2.65674 3.4541,7.69911 z"
         id="path430966"
         style="stroke-width:1.37401" />
      <path
         d="m 1447.9673,413.20008 h -20.8725 q 0.1082,4.42311 2.2712,7.0662 2.217,2.64307 6.0562,2.64307 5.5155,0 7.4081,-5.66374 h 4.5422 q -0.8652,4.63887 -4.0556,7.22802 -3.1903,2.58913 -8.0569,2.58913 -5.9481,0 -9.4088,-3.99159 -3.4607,-4.04552 -3.4607,-11.00384 0,-6.95831 3.5148,-11.11172 3.5687,-4.20735 9.4629,-4.20735 12.5991,0 12.5991,16.45182 z m -20.7643,-3.66794 h 15.9518 q 0,-3.66796 -2.2171,-6.14921 -2.217,-2.48126 -5.6236,-2.48126 -3.4067,0 -5.6237,2.37338 -2.217,2.31943 -2.4874,6.25709 z"
         id="path430968"
         style="stroke-width:1.35018" />
    </g>
    <g
       aria-label="Artificial"
       transform="scale(1.0056645,0.99436736)"
       id="text385785"
       style="font-size:58.4083px;line-height:1.25;font-family:FreeSans;-inkscape-font-specification:'FreeSans, Normal';opacity:1;stroke-width:1.4602"
       inkscape:label="Artificial">
      <path
         d="m 897.07433,437.50411 h -14.72091 l -4.03385,13.55122 h -5.18636 l 13.62077,-45.10886 h 6.2865 l 13.41123,45.10886 h -5.44832 z m -1.36208,-4.82647 -5.86741,-20.5434 -6.28651,20.5434 z"
         id="path427290"
         style="opacity:1;stroke-width:1.42337" />
      <path
         d="m 926.31739,424.71319 q -4.70011,0.11681 -7.05015,2.27792 -2.35005,2.16111 -2.35005,8.17716 v 15.88706 h -4.70011 v -30.60595 h 4.30843 v 5.54879 q 2.01433,-3.44609 3.8608,-4.9063 1.90242,-1.51861 4.14057,-1.51861 0.61549,0 1.79051,0.17522 z"
         id="path427292"
         style="opacity:1;stroke-width:1.42918" />
      <path
         d="m 944.35456,420.44938 v 3.97176 h -4.82483 v 20.96858 q 0,1.63544 0.50492,2.21952 0.56103,0.52567 2.07581,0.52567 1.40255,0 2.2441,-0.23363 v 4.08858 q -2.18801,0.40886 -3.81499,0.40886 -2.74902,0 -4.20769,-1.28498 -1.45868,-1.22658 -1.45868,-3.56291 v -23.12969 h -3.98328 v -3.97176 h 3.98328 v -8.4108 h 4.65653 v 8.4108 z"
         id="path427294"
         style="opacity:1;stroke-width:1.43109" />
      <path
         d="m 956.52459,421.91424 v 29.62879 h -5.68044 v -29.62879 z m 0,-11.59142 v 5.93707 h -5.74887 v -5.93707 z"
         id="path427296"
         style="opacity:1;stroke-width:1.55517" />
      <path
         id="path427566"
         d="m 982.35135,410.64719 -0.0125,5.73669 5.78486,-0.0133 v -5.72335 z m 0,11.67316 v 29.40367 h 6.06414 v -29.40367 z"
         sodipodi:nodetypes="cccccccccc"
         style="opacity:1;stroke-width:1.60079" />
      <path
         d="m 974.22498,408.49806 c -2.18505,0 -3.8996,0.6323 -5.14282,1.89519 -1.20554,1.22342 -1.80946,2.94 -1.80946,5.15005 l 0.08,7.068 h -3.95529 v 4.02528 h 3.95529 l -0.08,25.19594 h 4.69185 l 0.08,-25.19594 h 4.18076 v -4.02528 h -4.18076 l -0.08,-6.65394 c -0.0251,-2.09151 1.09192,-3.1374 3.27697,-3.1374 0.22258,0 0.52688,0.0421 0.90379,0.11944 v -4.44134 z"
         id="path427298"
         style="opacity:1;stroke-width:1.44595"
         sodipodi:nodetypes="scsccccccccccssccs" />
      <path
         d="m 1018.688,430.8066 h -4.5757 q -0.4359,-3.20099 -2.179,-4.88878 -1.7431,-1.746 -4.5757,-1.746 -3.7042,0 -5.8286,3.25919 -2.06994,3.201 -2.06994,8.90457 0,5.41258 2.12444,8.49717 2.1245,3.08459 5.883,3.08459 5.8286,0 6.9725,-7.33318 h 4.5758 q -0.4359,5.58718 -3.4863,8.72997 -3.0505,3.08459 -8.1709,3.08459 -5.8286,0 -9.26036,-4.30678 -3.37731,-4.36499 -3.37731,-11.75636 0,-7.56597 3.43179,-12.10556 3.48628,-4.53957 9.26028,-4.53957 4.9572,0 7.8986,2.85178 2.996,2.85179 3.3774,8.26437 z"
         id="path427300"
         style="opacity:1;stroke-width:1.40763" />
      <path
         d="m 1028.3701,421.43503 v 29.65392 h -4.8479 v -29.65392 z m 0,-11.60125 v 5.9421 h -4.9063 v -5.9421 z"
         id="path427302"
         style="opacity:1;stroke-width:1.43731" />
      <path
         d="m 1035.0799,430.00398 q 0.2981,-9.712 10.4311,-9.712 4.8181,0 7.3017,2.11378 2.4835,2.05666 2.4835,6.05572 v 17.59587 q 0,2.34231 2.2353,2.34231 0.447,0 0.894,-0.11426 v 3.59915 q -1.7384,0.51417 -2.8312,0.51417 -1.9869,0 -3.03,-1.08546 -0.9934,-1.02833 -1.2417,-3.31351 -4.1724,4.39897 -8.8416,4.39897 -3.9241,0 -6.2586,-2.39944 -2.2848,-2.39944 -2.2848,-6.45563 0,-1.31397 0.1986,-2.39943 0.2483,-1.08546 0.4968,-1.88527 0.2979,-0.85694 0.9933,-1.54249 0.6955,-0.74269 1.1425,-1.19973 0.4967,-0.45703 1.5895,-0.85693 1.1424,-0.45704 1.7385,-0.62843 0.5961,-0.22852 2.0862,-0.51417 1.4901,-0.28564 2.1855,-0.3999 0.6954,-0.11426 2.4836,-0.3999 2.4339,-0.34278 3.3777,-1.08546 0.9437,-0.74269 0.9437,-2.22806 v -1.25684 q 0,-2.17092 -1.5398,-3.31351 -1.4902,-1.14259 -4.2717,-1.14259 -2.881,0 -4.3712,1.31398 -1.4901,1.25685 -1.7385,3.99906 z m 8.2952,18.22429 q 3.4273,0 5.6129,-2.05666 2.1855,-2.11379 2.1855,-4.51322 v -5.37017 q -1.2418,0.68555 -3.775,1.14259 -2.4836,0.45703 -4.3214,0.79981 -1.8379,0.34277 -3.328,1.65675 -1.4901,1.25685 -1.4901,3.54203 0,2.28518 1.3411,3.54202 1.3411,1.25685 3.775,1.25685 z"
         id="path427304"
         style="opacity:1;stroke-width:1.33175" />
      <path
         d="m 1068.0045,410.21422 v 42.34747 h -4.9063 v -42.34747 z"
         id="path427306"
         style="opacity:1;stroke-width:1.45621" />
    </g>
    <g
       aria-label="MIT"
       transform="matrix(1.0424999,0,0,0.95923269,-0.99851989,-49.341675)"
       id="text382019"
       style="font-size:61.4564px;line-height:1.25;opacity:1;stroke-width:1.53642"
       inkscape:label="MIT">
      <path
         d="m 691.94622,474.53513 6.76014,-0.0417 12.32705,38.93207 11.3677,-38.78677 5.93816,-0.0837 v 44.80195 h -4.71281 l -0.29539,-35.46552 -10.53087,35.31646 -3.2494,-0.0417 -12.43665,-34.78073 -0.14607,34.97154 -5.02186,-0.0199 z"
         id="path423105"
         sodipodi:nodetypes="cccccccccccccc"
         style="stroke-width:1.46809" />
      <path
         d="m 744.04352,474.59684 h 4.66502 v 44.80195 h -4.66502 z"
         id="path423107"
         style="stroke-width:1.34785" />
      <path
         d="m 764.40034,474.67662 23.85573,-0.062 v 4.23836 l -9.39114,-0.0275 v 40.56359 h -4.82118 v -40.56359 l -9.64341,0.0895 z"
         id="path423109"
         style="stroke-width:1.36684"
         sodipodi:nodetypes="ccccccccc" />
    </g>
  </g>
</svg>
