<?xml version="1.0" encoding="UTF-8"?>
<!-- Created with Inkscape (http://www.inkscape.org/) -->
<svg width="1062.1" height="237.67" version="1.1" viewBox="0 0 1062.1 237.67" xmlns="http://www.w3.org/2000/svg">
 <g transform="translate(-16.555 -22.333)">
  <path d="m17 112v88.889h224v-88.889zm19.556 19.556h82.667v49.778h-82.667zm102.22 0h82.667v49.778h-82.667z"/>
  <path d="m101 105v-82.667h19.556s37.778 63.111 37.778 63.111 37.778-63.111 37.778-63.111h19.556v82.667h-19.556v-44.444l-26.667 44.444h-20.444l-28.444-44.444v44.444z"/>
  <path d="m221.89 22.333h19.556v82.667h-19.556z"/>
  <path d="m16.555 22.333h19.556v64.889h59.556v17.778h-79.111z"/>
  <path d="m77.889 137.78a19.111 17.778 0 0 0-19.111 17.778 19.111 17.778 0 0 0 8 14.446v52.22l-17.778-17.778-14.222 14.222 41.333 41.333 41.333-41.333-14.222-14.222-17.778 17.778v-50.359a19.111 17.778 0 0 0 11.556-16.308 19.111 17.778 0 0 0-19.111-17.778z"/>
  <path d="m264.11 118.22-14.222 14.222 14.222 14.222h-67.859a19.111 19.111 0 0 0-16.14-8.8889 19.111 19.111 0 0 0-19.111 19.111 19.111 19.111 0 0 0 19.111 19.111 19.111 19.111 0 0 0 16.667-9.7778h67.333l-14.222 14.222 14.222 14.222 38.222-38.222z"/>
  <path d="m326.1 108.47h-14.1v68.526h46.906v-11.75h-32.806z"/>
  <path d="m380.64 108.47h-14.1v68.526h14.1z"/>
  <path d="m442.5 129.34c-0.094-14.194-9.588-21.996-26.884-21.996-16.45 0-25.944 7.708-25.944 21.056 0 10.622 5.358 15.792 19.27 18.424l9.588 1.88c9.4 1.786 12.878 4.418 12.878 9.964 0 5.734-5.264 9.212-13.818 9.212-9.588 0-14.946-4.042-15.416-11.374h-13.724c0.846 14.664 10.904 22.654 28.388 22.654 17.672 0 28.106-8.178 28.106-22.184 0-10.81-5.452-16.45-18.142-18.894l-10.716-2.068c-10.058-1.974-12.972-3.948-12.972-8.93 0-5.17 4.512-8.46 11.844-8.46 8.93 0 13.912 3.76 14.382 10.716z"/>
  <path d="m468.09 152.56h17.578c12.596 0 20.68-8.93 20.68-22.842 0-13.724-7.802-21.244-22.09-21.244h-30.268v68.526h14.1zm0-11.75v-20.586h13.16c7.52 0 10.998 3.29 10.998 10.246 0 7.05-3.478 10.34-10.998 10.34z"/>
  <path d="m560.38 123.61 12.314 53.392h14.1l12.126-53.392v53.392h14.1v-68.526h-21.244l-12.032 54.52-12.408-54.52h-21.056v68.526h14.1z"/>
  <path d="m665.23 175.4c-2.256-2.162-3.008-3.666-3.008-6.204v-28.2c0-10.34-7.05-15.604-20.774-15.604s-20.868 5.828-21.714 17.578h12.69c0.658-5.264 2.82-6.956 9.306-6.956 5.076 0 7.614 1.692 7.614 5.076 0 1.692-0.846 3.102-2.256 3.948-1.786 0.94-1.786 0.94-8.272 1.974l-5.264 0.94c-10.058 1.692-14.946 6.862-14.946 15.98s6.11 15.228 15.416 15.228c5.64 0 10.716-2.35 15.416-7.238 0 2.632 0.282 3.572 1.504 5.076h14.288zm-15.886-18.8c0 7.614-3.76 11.938-10.434 11.938-4.418 0-7.144-2.35-7.144-6.11 0-3.948 2.068-5.828 7.52-6.956l4.512-0.846c3.478-0.658 4.042-0.846 5.546-1.598z"/>
  <path d="m714.91 145.23c-0.94-12.408-9.118-19.834-21.902-19.834-15.228 0-23.97 9.964-23.97 27.26 0 16.732 8.742 26.508 23.782 26.508 12.314 0 20.868-7.614 22.09-19.74h-12.596c-1.598 6.58-4.23 9.118-9.494 9.118-6.674 0-10.622-5.922-10.622-15.886 0-4.888 0.94-9.306 2.538-12.314 1.504-2.82 4.418-4.324 8.178-4.324 5.358 0 7.896 2.538 9.4 9.212z"/>
  <path d="m721.72 108.47v68.526h13.16v-30.456c0-5.828 4.23-9.964 10.152-9.964 2.914 0 5.076 1.034 6.58 3.102 1.222 1.692 1.504 3.102 1.504 6.298v31.02h13.16v-34.028c0-6.298-1.692-10.81-5.17-13.724-2.914-2.444-7.144-3.854-11.374-3.854-6.486 0-11.186 2.538-14.852 8.178v-25.098z"/>
  <path d="m789.91 126.24h-13.16v50.76h13.16zm0-17.766h-13.16v11.75h13.16z"/>
  <path d="m800.11 126.24v50.76h13.16v-30.456c0-6.016 4.136-9.964 10.622-9.964 5.64 0 8.46 3.102 8.46 9.118v31.302h13.16v-34.028c0-11.28-6.11-17.578-17.014-17.578-6.862 0-11.468 2.444-15.228 8.178v-7.332z"/>
  <path d="m898.48 155.76c0.094-1.128 0.094-1.598 0.094-2.256 0-5.076-0.752-9.776-1.974-13.348-3.384-9.212-11.562-14.758-21.808-14.758-14.57 0-23.5 10.528-23.5 27.542 0 16.262 8.836 26.226 23.218 26.226 11.374 0 20.586-6.392 23.5-16.45h-12.972c-1.598 4.042-5.264 6.392-10.058 6.392-3.76 0-6.768-1.598-8.648-4.418-1.222-1.88-1.692-4.136-1.88-8.93zm-33.84-8.742c0.846-7.802 4.136-11.562 9.964-11.562 6.016 0 9.588 4.042 10.246 11.562z"/>
  <path d="m949.84 108.47h-14.1v68.526h14.1z"/>
  <path d="m959.47 126.24v50.76h13.16v-30.456c0-6.016 4.136-9.964 10.622-9.964 5.64 0 8.46 3.102 8.46 9.118v31.302h13.16v-34.028c0-11.28-6.11-17.578-17.014-17.578-6.862 0-11.468 2.444-15.228 8.178v-7.332z"/>
  <path d="m1057.7 145.23c-0.94-12.408-9.118-19.834-21.902-19.834-15.228 0-23.97 9.964-23.97 27.26 0 16.732 8.742 26.508 23.782 26.508 12.314 0 20.868-7.614 22.09-19.74h-12.596c-1.598 6.58-4.23 9.118-9.494 9.118-6.674 0-10.622-5.922-10.622-15.886 0-4.888 0.94-9.306 2.538-12.314 1.504-2.82 4.418-4.324 8.178-4.324 5.358 0 7.896 2.538 9.4 9.212z"/>
  <path d="m1078.7 163.28h-14.1v13.724h14.1z"/>
 </g>
</svg>
