<?xml version="1.0" encoding="UTF-8"?>
<svg id="svg3514" width="6.1771in" height="1.7344in" version="1.1" viewBox="0 0 593 166.5" xmlns="http://www.w3.org/2000/svg" xmlns:cc="http://creativecommons.org/ns#" xmlns:dc="http://purl.org/dc/elements/1.1/" xmlns:rdf="http://www.w3.org/1999/02/22-rdf-syntax-ns#">
 <metadata id="metadata3520">
  <rdf:RDF>
   <cc:Work rdf:about="">
    <dc:format>image/svg+xml</dc:format>
    <dc:type rdf:resource="http://purl.org/dc/dcmitype/StillImage"/>
    <dc:title/>
   </cc:Work>
  </rdf:RDF>
 </metadata>
 <g id="g4172" transform="translate(-1844,-1999)">
  <path id="Unnamed #1" d="m1844 1999v100h252v-100zm22 22h93v56h-93zm115 0h93v56h-93z"/>
  <path id="path4083" d="m2279 2099v-93h22s42.5 71 42.5 71 42.5-71 42.5-71h22v93h-22v-50s-30 50-30 50h-23l-32-50v50h-22z"/>
  <path id="path4081" d="m2415 2006h22v93h-22v-93z"/>
  <path id="path4079" d="m2184 2006h22v73h67v20h-89v-93z"/>
  <path id="path4085" d="m1912.5 2028a21.5 20 0 0 0-21.5 20 21.5 20 0 0 0 9 16.252v58.748l-20-20-16 16 46.5 46.5 46.5-46.5-16-16-20 20v-56.654a21.5 20 0 0 0 13-18.346 21.5 20 0 0 0-21.5-20z" style="paint-order:normal"/>
  <path id="path4087" d="m2122 2006-16 16 16 16h-76.342a21.5 21.5 0 0 0-18.158-10 21.5 21.5 0 0 0-21.5 21.5 21.5 21.5 0 0 0 21.5 21.5 21.5 21.5 0 0 0 18.75-11h75.75l-16 16 16 16 43-43z" style="paint-order:normal"/>
 </g>
</svg>
