<?xml version="1.0" encoding="UTF-8" standalone="no"?>
<svg
   id="svg8"
   width="4698.645pt"
   height="525pt"
   version="1.1"
   viewBox="0 0 4698.6451 525"
   xmlns="http://www.w3.org/2000/svg"
   xmlns:svg="http://www.w3.org/2000/svg"
   xmlns:rdf="http://www.w3.org/1999/02/22-rdf-syntax-ns#"
   xmlns:cc="http://creativecommons.org/ns#"
   xmlns:dc="http://purl.org/dc/elements/1.1/">
  <defs
     id="defs112790" />
  <metadata
     id="metadata5">
    <rdf:RDF>
      <cc:Work
         rdf:about="">
        <dc:format>image/svg+xml</dc:format>
        <dc:type
           rdf:resource="http://purl.org/dc/dcmitype/StillImage" />
      </cc:Work>
    </rdf:RDF>
  </metadata>
  <path
     id="path1512"
     d="M 0,525 H 318.75 V 0 H 0 Z"
     style="fill:#9c2b3d;fill-opacity:1;stroke-width:8.36661" />
  <path
     id="path1512-9"
     d="M 2598.7,525 H 4698.645 V 0 H 2598.7 Z"
     style="fill:#9c2b3d;fill-opacity:1;stroke-width:21.4748" />
  <path
     id="path1514"
     d="m 221.4925,15.2977 v 135.9675 c -17.10975,-18.89625 -41.5725,-27.744 -66.4455,-27.744 -67.20675,0 -123.75,55.72275 -123.75,163.5075 0,127.1175 75.675,162.3675 117.9525,162.3075 40.5765,0 64.365,-24.84375 69.99,-30.52725 v 19.48275 h 68.994 V 15.3067 Z m -60,177.975 c 32.5485,0.147 58.41825,35.01 58.27125,61.494 v 67.0605 c 0.14647,22.1775 -25.72275,56.631 -57.21675,56.6895 -33.60375,-0.147 -66.53325,-30.58575 -66.53325,-91.4925 0,-61.8165 32.84175,-93.6 65.47875,-93.75 z"
     fill="#ffffff"
     style="stroke-width:7.5" />
  <path
     id="path1508"
     d="M 371.25,525 H 690 V 0 H 371.25 Z"
     style="fill:#9c2b3d;fill-opacity:1;stroke-width:8.36661" />
  <path
     id="path1494"
     d="m 742.5,0 h 318.75 V 525 H 742.5 Z"
     style="fill:#9c2b3d;fill-opacity:1;stroke-width:8.36661" />
  <path
     id="path1492"
     d="m 893.875,131.9227 c -50.77125,0.09 -121.5825,29.41425 -121.5825,156.6825 0.088,100.3425 80.2725,134.0325 113.175,134.0325 35.5665,0.06 61.96275,-20.625 69.17025,-28.41825 v 31.5525 c 0,23.34975 -23.9355,46.14225 -63.984,46.14225 -34.512,-0.09 -38.08575,-22.20675 -38.08575,-33.16425 h -70.51725 c 0,35.03925 22.58775,86.19 104.325,86.25 73.21275,0 97.35,-27.97875 107.7825,-38.46675 8.76005,-8.84775 21.88505,-33.135 21.88505,-52.58775 v -298.71 H 956.512 l -0.0877,29.3265 c -6.97267,-9.99 -29.85375,-32.637 -62.5485,-32.637 z m 3.51562,62.72475 c 28.06651,0 58.35901,27.8025 58.35901,54.72675 v 60.8205 c 0,32.10975 -28.506,52.881 -58.71076,52.881 -15.234,-7e-5 -61.14225,-10.72275 -61.14225,-84.1425 0,-68.9355 37.35375,-84.285 61.494,-84.285 z"
     fill="#ffffff"
     style="stroke-width:7.5" />
  <path
     id="path1490"
     d="M 1113.75,525 H 1432.5 V 0 h -318.75 z"
     style="fill:#9c2b3d;fill-opacity:1;stroke-width:8.36661" />
  <path
     id="path1476"
     d="M 1803.8,525 H 1485.05 V 0 h 318.75 z"
     style="fill:#9c2b3d;fill-opacity:1;stroke-width:8.36661" />
  <path
     id="path1474"
     d="M 2175,525 H 1856.25 V 0 H 2175 Z"
     style="fill:#9c2b3d;fill-opacity:1;stroke-width:8.36661" />
  <path
     id="path1466"
     d="m 2227.5,525 h 318.75 V 0 H 2227.5 Z"
     style="fill:#9c2b3d;fill-opacity:1;stroke-width:8.36661" />
  <path
     id="path1504"
     d="m 564.38,438.2227 h -67.5 v -302.99 h 67.5 z"
     fill="#ffffff"
     style="stroke-width:10" />
  <path
     id="path1502"
     d="M 496.88,438.2227"
     fill="#ffffff"
     style="stroke-width:10" />
  <path
     id="path1500"
     d="m 564.38,94.0227 h -67.5 v -75 h 67.5 z"
     fill="#ffffff"
     style="stroke-width:10" />
  <path
     id="path1498"
     d="M 496.88,94.0227"
     fill="#ffffff"
     style="stroke-width:10" />
  <path
     id="path1486"
     d="m 1306.9,438.2227 h -67.5 v -302.99 h 67.5 z"
     fill="#ffffff"
     style="stroke-width:10" />
  <path
     id="path1484"
     d="M 1239.4,438.2227"
     fill="#ffffff"
     style="stroke-width:10" />
  <path
     id="path1482"
     d="m 1306.9,94.0227 h -67.5 v -75 h 67.5 z"
     fill="#ffffff"
     style="stroke-width:10" />
  <path
     id="path1480"
     d="M 1239.4,94.0227"
     fill="#ffffff"
     style="stroke-width:10" />
  <path
     id="path1478"
     d="m 1659.6,20.9227 h -61.729 v 109.04 h -32.344 v 50.625 h 32.344 v 190.81 c 0,36.357 18.662,64.951 70.723,64.863 24.375,0 23.408,0.147 44.56,-3.5156 v -62.988 c -13.828,2.373 -18.076,3.3691 -24.844,3.1348 -12.978,-0.381 -28.711,-4.9512 -28.711,-28.037 v -164.18 h 48.896 v -50.713 h -48.896 z"
     fill="#ffffff"
     style="stroke-width:10" />
  <path
     id="path1470"
     d="m 2012.725,127.8727 c -66.0645,0.147 -104.0925,33.369 -104.0325,102.7425 h 57.8318 c 0,-30.732 15.9082,-46.875 46.2014,-46.875 48.3106,-0.06 46.7288,21.4455 46.6411,48.39825 -29.8245,11.60175 -27.0705,11.3085 -72.5978,21.65025 -57.8025,13.359 -93.225,38.115 -93.285,98.025 0.06,58.59375 41.7773,89.85 88.8,89.7975 47.0805,0.06 56.8358,-15.1755 76.35,-28.125 v 23.379 h 73.7985 c -17.4022,-28.03725 -12.8317,-33.51525 -12.9787,-54.57975 0.09,-16.52325 0,-178.065 0,-178.065 0.09,-32.02125 -16.5818,-51.59175 -27.4515,-58.125 -27.1583,-16.2015 -60.6735,-18.135 -79.275,-18.22275 z m 46.641,161.4 v 40.869 c 0,18.6915 -22.7048,54.84375 -67.3245,54.90225 -21.7672,0.09 -33.9255,-16.02525 -33.984,-36.97275 0.06,-21.006 17.8417,-37.119 32.9295,-40.10775 15.6735,-3.1641 51.738,-12.393 68.379,-18.6915 z"
     fill="#ffffff"
     style="stroke-width:7.5" />
  <path
     id="path1462"
     d="m 2420.6,438.2227 h -67.5 v -426.74 h 67.5 z"
     fill="#ffffff"
     style="stroke-width:10" />
  <path
     id="path1397"
     d="M 2420.6,438.2227"
     fill="#ffffff"
     style="stroke-width:10" />
  <path
     id="path121242"
     style="fill:#ffffff;stroke-width:0.583512;paint-order:stroke markers fill"
     d="m 4039.1117,9.5115 v 0.002 133.08174 c -6.464,-4.30941 -12.9284,-8.08311 -19.396,-11.31694 -6.4,-3.19992 -13.2855,-5.84748 -20.7112,-8.50537 l -0.358,-0.12764 -0.3646,-0.10486 c -7.4118,-2.12111 -14.2125,-4.20457 -21.6698,-5.26984 -7.596,-1.08498 -14.4736,-2.15397 -21.5534,-2.15397 -10.226,0 -19.9463,1.07912 -29.6337,3.23211 -9.7038,2.15635 -18.8549,4.84811 -27.4799,8.62161 -8.6405,3.78028 -17.2024,8.05557 -24.7729,13.4618 l -0.01,0.007 -0.014,0.0125 c -8.0344,5.35804 -15.4889,11.74833 -21.9227,18.16637 l -0.1732,0.17208 -0.1653,0.18007 c -6.3615,6.90237 -12.687,14.29191 -18.0045,21.71417 l -0.1174,0.1664 -0.1117,0.16866 c -5.3538,8.05012 -10.1404,16.54632 -13.3684,25.15369 0,0.008 -0.01,0.0116 -0.01,0.0194 -2.478,5.66713 -4.458,11.58588 -6.1577,17.71392 -1.8582,-6.11987 -4.0621,-12.03056 -6.5371,-17.6877 -3.7525,-8.57762 -8.0311,-17.11822 -13.3673,-25.15142 l -0.114,-0.17095 -0.1207,-0.16867 c -5.3667,-7.49054 -11.7509,-14.94986 -18.1846,-21.38366 -6.435,-6.43497 -13.8969,-12.82764 -21.395,-18.19827 l -0.1643,-0.11739 -0.1685,-0.11283 c -8.0012,-5.32092 -16.4998,-10.09815 -25.0284,-13.83904 l -0.1254,-0.0559 -0.1299,-0.0523 c -9.1034,-3.7382 -18.2285,-6.42706 -27.881,-8.57147 -9.6962,-2.15474 -19.4001,-3.2321 -29.0947,-3.2321 v -0.002 c -7.0791,0 -13.9544,1.069 -21.5512,2.15398 -7.4981,1.07121 -14.8759,3.17805 -21.8349,5.31429 l -0.2553,0.0775 -0.2507,0.09 c -7.4491,2.66537 -14.3515,5.31905 -20.7637,8.52474 l -0.01,0.008 c -0.01,0 3e-4,0.008 -0.012,0.008 -6.9957,3.23033 -13.4587,7.00154 -19.3779,11.30669 v -26.40167 h -64.6536 v 399.24415 l 64.6536,-0.008 V 382.94214 c 5.9209,4.30601 12.3844,8.07643 19.3802,11.30675 l 0.016,0.008 c 6.4886,3.2444 13.4394,6.45746 21.0099,8.6205 7.0056,2.69442 14.0116,4.84944 21.55,5.92622 7.5308,1.07592 14.56,1.61726 22.0914,1.61726 10.2207,0 19.8771,-0.53831 29.5517,-2.67933 l 0.079,-0.0179 0.075,-0.0179 c 9.0963,-2.14329 18.1915,-4.82262 27.2826,-8.55554 l 0.1288,-0.0514 0.1264,-0.056 c 8.5275,-3.74163 17.0245,-8.52029 25.0238,-13.84129 l 0.1665,-0.10947 0.1606,-0.11624 c 7.5011,-5.36597 14.9531,-11.21945 21.3951,-18.19825 l 0.018,-0.0195 -0.02,0.0195 c 6.4746,-6.47465 12.9227,-13.99464 18.3202,-22.09029 l 0.015,-0.0179 c 5.4023,-7.56753 9.6773,-16.12788 13.4561,-24.76502 2.4811,-5.67096 4.6897,-11.59601 6.5509,-17.73107 1.6954,6.10533 3.6688,12.00176 6.137,17.64899 l 0.01,0.0117 c 0,0.009 0.01,0.0164 0.01,0.0249 3.2455,8.65465 8.0534,17.19983 13.455,24.76503 v 0.008 l 0.013,0.0147 v 0.008 c 5.3958,8.09214 11.8405,15.60769 18.3133,22.08 6.473,7.01265 14,12.92573 22.0892,18.3191 7.5705,5.40728 16.1222,10.22078 24.7822,13.46861 0.01,0 0.01,-5.4e-4 0.01,0 8.6267,3.77393 17.7766,6.46446 27.4799,8.6205 9.6868,2.15261 19.4077,3.23328 29.6337,3.23328 v -0.008 c 6.9986,0 14.0151,-0.54042 21.5524,-1.61719 7.5436,-1.07778 14.5311,-3.22814 22.081,-5.92405 h 0.022 c 7.567,-2.16342 14.5122,-5.37383 20.9973,-8.61699 6.5184,-3.25911 12.8969,-7.5189 19.3961,-11.85151 v 26.93848 h 51.9154 v 106.19233 l 64.6524,-0.008 V 382.94284 c 5.9203,4.30593 12.3857,8.07635 19.3814,11.30667 l 0.015,0.008 c 6.4886,3.24433 13.4382,6.45738 21.0087,8.62042 7.0056,2.6945 14.0127,4.84844 21.5511,5.92521 7.5309,1.07576 14.56,1.61719 22.0914,1.61719 10.2209,0 19.8783,-0.53831 29.5529,-2.67942 l 0.079,-0.0179 0.075,-0.0179 c 9.0964,-2.1432 18.1903,-4.8226 27.2814,-8.55545 l 0.1288,-0.0514 0.1265,-0.056 c 8.5274,-3.74163 17.0244,-8.52029 25.0238,-13.84137 l 0.1664,-0.10939 0.1607,-0.11623 c 7.501,-5.36598 14.9531,-11.21954 21.395,-18.19826 l 0.018,-0.0195 -0.02,0.0195 c 6.4747,-6.47465 12.9238,-13.99464 18.3213,-22.09029 l 0.015,-0.0179 c 5.4023,-7.56753 9.6761,-16.12679 13.455,-24.76394 0.9449,-2.15985 1.7297,-4.4539 2.5984,-6.68075 v 98.27734 h 52.0043 v -219.9297 h 38.905 v 219.92699 h 52.0032 V 116.14602 h -42.0789 c 0,4.76375 -1.5888,9.13 -3.9707,13.89373 -2.3819,4.76376 -5.9541,8.73452 -10.3208,12.30732 -4.7638,3.57282 -9.9243,6.35066 -15.8791,8.33556 -6.0993,2.28727 -12.2078,3.4467 -18.6587,3.53754 v -38.07415 h -42.0789 c 0,4.76375 -1.5887,9.13 -3.9706,13.89373 -2.3819,4.76376 -5.9542,8.73452 -10.3209,12.30732 -4.7638,3.57282 -9.9244,6.35066 -15.879,8.33556 -6.3517,2.38187 -12.7034,3.57287 -19.452,3.57287 l 0.2155,0.38749 c -5.1796,-4.78188 -10.6557,-9.45654 -16.2986,-13.49827 l -0.164,-0.11739 -0.1687,-0.11282 c -8.0012,-5.32092 -16.4997,-10.09814 -25.0284,-13.83903 l -0.1253,-0.0559 -0.1299,-0.0524 c -9.1034,-3.7382 -18.2285,-6.42706 -27.8809,-8.57148 -9.6962,-2.15472 -19.4003,-3.2321 -29.0947,-3.2321 v -7.8e-4 c -7.0792,0 -13.9556,1.069 -21.5523,2.15399 -7.4982,1.0712 -14.8749,3.17804 -21.8339,5.31428 l -0.2552,0.0775 -0.2508,0.09 c -7.4491,2.66535 -14.3514,5.31905 -20.7637,8.52473 l -0.01,0.008 c -0.01,0 3e-4,0.008 -0.012,0.008 -6.9957,3.23033 -13.4586,7.00154 -19.3778,11.30669 v -26.40166 h -52.9906 V 9.51378 h -51.9086 z m 11.6748,11.66568 v 0.005 h 40.2395 v 95.06571 281.38158 h -40.2395 v -37.07472 l -18.1436,12.09528 c -6.4658,4.31043 -12.6043,8.35448 -18.1423,11.12328 -6.2337,3.11674 -12.5844,6.00574 -18.9983,7.83867 l -0.3637,0.10488 -0.3555,0.12533 c -7.2449,2.58745 -13.4284,4.45181 -19.8166,5.36443 -7.0809,1.01141 -13.4963,1.49977 -19.9022,1.49977 -9.4184,0 -18.2075,-0.97882 -27.1013,-2.95513 -9.2066,-2.04603 -17.6238,-4.54781 -25.3338,-7.92075 l -0.2849,-0.12534 -0.2929,-0.10938 c -7.4234,-2.78367 -15.2856,-7.17067 -22.1015,-12.03949 l -0.1517,-0.10947 -0.1562,-0.1037 c -7.5839,-5.05594 -14.366,-10.43453 -19.9887,-16.52521 l -0.1583,-0.1721 -0.1653,-0.16525 c -6.0073,-6.00722 -12.0043,-13.02608 -16.8604,-20.31119 l -0.1047,-0.15615 -0.1095,-0.15389 c -4.8685,-6.81597 -9.2555,-14.67532 -12.0395,-22.09822 l -0.1094,-0.29402 -0.1242,-0.28724 c -3.3728,-7.70928 -5.8761,-16.12421 -7.9219,-25.33149 -1.9765,-8.89387 -2.9529,-17.68524 -2.9529,-27.10252 0,-8.83436 0.9764,-17.66787 2.9529,-26.56233 2.046,-9.20664 4.5493,-17.62441 7.9219,-25.33376 l 0.1242,-0.2872 0.1094,-0.29176 c 2.7648,-7.37266 7.1463,-15.2539 12.1592,-22.79229 4.8926,-6.82941 10.9431,-13.92244 17.0973,-20.59956 5.9775,-5.96232 12.9397,-11.90769 20.1711,-16.72926 l 0.1561,-0.1037 0.1516,-0.1094 c 6.5166,-4.65467 14.4304,-8.667 22.6773,-12.27427 7.7092,-3.37275 16.1271,-5.87607 25.3348,-7.92186 8.8938,-1.97646 17.6841,-2.95402 27.1013,-2.95402 5.8075,0 12.2822,0.94924 19.9022,2.03773 6.2616,0.89452 12.623,2.79493 20.1083,4.93706 7.2519,2.59557 13.736,5.11154 19.4246,7.95604 6.0014,3.00071 12.05,6.52745 18.1424,10.58869 l 18.1425,12.0942 z m -379.9768,105.66125 c 8.8344,0 17.669,0.97756 26.5636,2.95402 9.1617,2.03599 17.5872,4.52857 25.9821,7.97543 7.7824,3.41377 15.7506,7.88186 23.2528,12.8703 6.8989,4.94154 13.9739,10.99652 19.9386,16.96174 5.9623,5.96173 12.0098,13.03409 16.9503,19.92944 4.8125,7.24546 8.814,15.18164 12.3973,23.3724 3.5364,8.08337 6.5022,16.52801 8.4586,25.3326 1.9765,8.8939 2.9564,17.72969 2.9564,26.56348 0,9.41845 -0.9799,18.20637 -2.9564,27.10025 -1.9566,8.80462 -4.9222,17.2492 -8.4586,25.33263 -3.608,8.24674 -7.6207,16.16282 -12.2754,22.67831 l -0.1094,0.1539 -0.1037,0.15607 c -4.8568,7.28518 -10.8548,14.30397 -16.8614,20.31126 l -0.1642,0.16526 -0.1572,0.17209 c -5.582,6.0469 -12.4221,11.48134 -19.6081,16.62208 -7.501,4.98926 -15.4681,9.45678 -23.2504,12.8715 -8.3757,3.43976 -16.8502,5.94731 -25.523,7.99138 -8.4702,1.8744 -17.2307,2.40353 -27.0307,2.40353 -6.9875,0 -13.3603,-0.48829 -20.4411,-1.49979 -6.3878,-0.91261 -12.4948,-2.75845 -19.0121,-5.2653 l -0.4854,-0.18686 -0.4981,-0.14246 c -6.414,-1.83254 -12.7658,-4.72078 -18.9994,-7.83757 l -0.163,-0.0798 -0.1653,-0.0787 c -6.3498,-2.93055 -12.1425,-6.31609 -17.4233,-10.15676 l -18.5356,-13.47772 V 503.8201 h -41.3142 V 127.91656 h 41.3142 v 37.6479 l 18.5356,-13.47889 c 5.2805,-3.84044 11.0735,-7.22749 17.4233,-10.15789 l 0.1653,-0.0763 0.163,-0.082 c 5.7024,-2.85133 12.2023,-5.37344 19.4758,-7.97542 6.7641,-2.07655 13.6728,-4.00411 20.0593,-4.91655 7.6201,-1.08848 14.0928,-2.03774 19.8998,-2.03774 z m 568.9242,0 c 8.8344,0 17.669,0.97756 26.5634,2.95402 9.1617,2.03599 17.5873,4.52857 25.9823,7.97543 7.7822,3.41377 15.7505,7.88186 23.2528,12.8703 6.8981,4.94154 13.9732,10.99652 19.9385,16.96174 5.9623,5.96173 12.0097,13.03409 16.9503,19.92944 4.8125,7.24546 8.814,15.18164 12.3974,23.3724 3.5363,8.08337 6.5021,16.52801 8.4586,25.3326 1.9764,8.8939 2.9562,17.72969 2.9562,26.56348 0,9.41845 -0.9798,18.20637 -2.9562,27.10025 -1.9567,8.80462 -4.9223,17.2492 -8.4586,25.33263 -3.6081,8.24674 -7.6207,16.16282 -12.2755,22.67831 l -0.1094,0.1539 -0.1037,0.15607 c -4.8567,7.28518 -10.8548,14.30397 -16.8614,20.31126 l -0.1642,0.16526 -0.1584,0.17209 c -5.5819,6.0469 -12.4215,11.48134 -19.608,16.62208 -7.501,4.98926 -15.4693,9.45678 -23.2516,12.8715 -8.3757,3.43976 -16.849,5.94731 -25.5218,7.99138 -8.4703,1.8744 -17.2318,2.40353 -27.0318,2.40353 -6.9876,0 -13.3603,-0.48829 -20.4411,-1.49979 -6.3878,-0.91261 -12.4937,-2.75845 -19.0109,-5.2653 l -0.4856,-0.18686 -0.498,-0.14246 c -6.4139,-1.83254 -12.7664,-4.72078 -18.9995,-7.83757 l -0.163,-0.0798 -0.1652,-0.0787 c -6.3498,-2.93055 -12.1414,-6.31609 -17.4221,-10.15676 l -18.5358,-13.47772 V 503.8201 h -41.3142 V 127.91656 h 41.3142 v 37.6479 l 18.5358,-13.47889 c 5.2804,-3.84044 11.0723,-7.22749 17.4221,-10.15789 l 0.1652,-0.0763 0.163,-0.082 c 5.7025,-2.85133 12.2024,-5.37344 19.4758,-7.97542 6.7641,-2.07655 13.6741,-4.00411 20.0606,-4.91655 7.62,-1.08848 14.0927,-2.03774 19.8998,-2.03774 z m -284.6718,41.25725 v 7.7e-4 c -13.6221,0 -26.0862,3.1289 -37.0667,8.00961 -10.9806,4.88044 -20.8499,11.66875 -29.375,20.19385 -8.3291,8.32904 -15.7054,18.06312 -20.7318,29.37391 l -0.048,0.10485 -0.043,0.10597 c -4.9072,11.65448 -7.3806,24.05945 -7.3806,36.85585 0,13.26788 2.4456,25.75647 7.4729,37.0667 5.027,11.31018 12.4005,21.0454 20.7295,29.37391 8.329,8.32905 18.0664,15.70425 29.3773,20.73063 11.3102,5.02676 23.7982,7.47284 37.0667,7.47284 12.332,0 24.6617,-2.47378 36.3157,-7.38057 11.924,-5.0207 21.7969,-12.4933 30.126,-20.8229 8.5251,-8.52512 15.3128,-18.39338 20.1926,-29.37391 4.8805,-10.98053 8.0086,-23.44521 8.0086,-37.0667 0,-12.72114 -3.1463,-24.98438 -7.9184,-36.31792 -4.8859,-11.6037 -11.7571,-21.59753 -20.2828,-30.1238 -8.5251,-8.5251 -18.3934,-15.31393 -29.3739,-20.19383 l -0.106,-0.0468 -0.1048,-0.0444 c -11.3336,-4.77206 -23.689,-7.91843 -36.8559,-7.91843 z m -284.2581,0.0535 v 0.004 c -13.1669,0 -25.5222,3.14631 -36.8558,7.91844 -11.6037,4.88574 -21.5987,11.75932 -30.1238,20.28502 -8.7223,8.72232 -15.3752,19.07832 -20.1915,29.91297 -5.1737,11.64046 -6.9338,24.10115 -6.9338,36.52761 0,12.91367 1.76,25.42679 6.9338,37.0667 4.8803,10.98052 11.6653,20.84878 20.1915,29.37389 8.3291,8.32906 18.1998,15.80245 30.1238,20.82298 11.6545,4.90702 24.0594,7.38049 36.8558,7.38049 12.7964,0 25.2037,-2.47369 36.8571,-7.38049 l 0.1059,-0.0443 0.105,-0.0491 c 11.1642,-4.9618 21.3872,-12.20489 29.9129,-20.73062 8.5251,-8.52512 15.3127,-18.39339 20.1938,-29.37391 4.8803,-10.98054 8.0084,-23.44408 8.0084,-37.06556 0,-12.72114 -3.1446,-24.98552 -7.9161,-36.31907 l -0.046,-0.10484 -0.046,-0.10485 c -4.8152,-10.83469 -11.4698,-21.19183 -20.1915,-29.91415 -8.7218,-8.72234 -19.0795,-15.37699 -29.9142,-20.19271 l -0.1048,-0.0479 -0.106,-0.0444 c -11.3336,-4.77207 -23.689,-7.91843 -36.8559,-7.91843 z m 568.9241,0 v 0.004 c -13.1668,0 -25.5222,3.14631 -36.8558,7.91844 -11.6037,4.88574 -21.5987,11.75932 -30.1237,20.28502 -8.7224,8.72232 -15.3753,19.07832 -20.1916,29.91297 -5.1736,11.64046 -6.9338,24.10115 -6.9338,36.52761 0,12.91367 1.7601,25.42679 6.9338,37.0667 4.8803,10.98052 11.6653,20.84878 20.1916,29.37389 8.329,8.32906 18.1996,15.80245 30.1237,20.82298 11.6545,4.90702 24.0594,7.38049 36.8558,7.38049 12.7965,0 25.2031,-2.47369 36.8571,-7.38049 l 0.1059,-0.0443 0.1049,-0.0491 c 11.1643,-4.9618 21.3873,-12.20489 29.9129,-20.73062 8.5252,-8.52512 15.3128,-18.39339 20.1939,-29.37391 4.8803,-10.98054 8.0084,-23.44408 8.0084,-37.06556 0,-12.72114 -3.1457,-24.98552 -7.9173,-36.31907 l -0.044,-0.10484 -0.047,-0.10485 c -4.8152,-10.83464 -11.4709,-21.19178 -20.1926,-29.91411 -8.7218,-8.72232 -19.0784,-15.37698 -29.9131,-20.19269 l -0.1048,-0.0478 -0.1059,-0.0445 c -11.3342,-4.77206 -23.689,-7.91845 -36.8558,-7.91845 z m -284.6842,11.61097 v 7.7e-4 l 0.01,0.006 c 11.3079,0 22.0984,2.69645 32.3268,7.00327 9.6822,4.30318 18.3289,10.24979 25.8603,17.78117 7.5179,7.51795 13.4831,16.19318 17.78,26.39821 4.3156,10.24938 7.0022,20.9933 7.0022,31.79001 0,11.83419 -2.701,22.65038 -7.0022,32.3279 -4.3035,9.6828 -10.2486,18.32951 -17.78,25.86032 -7.5367,7.53664 -16.171,14.01105 -26.4017,18.31908 -10.2335,4.30897 -21.0155,6.46656 -31.7877,6.46656 v -0.008 c -11.8348,0 -22.6498,-2.1632 -32.3301,-6.46539 -9.7109,-4.31573 -18.3121,-10.77016 -25.8616,-18.31908 -7.5494,-7.5494 -14.0021,-16.14943 -18.3178,-25.86024 -4.3025,-9.68052 -6.4654,-20.4921 -6.4654,-32.32571 0,-11.28977 2.163,-22.10444 6.4619,-32.31881 v -0.0172 c 4.3157,-9.70729 10.7668,-18.30628 18.3145,-25.85459 7.5314,-7.53139 16.1804,-13.47663 25.8626,-17.78002 9.6776,-4.30113 20.4931,-7.00442 32.3279,-7.00442 z m -284.2456,0.0513 v 7.7e-4 0.002 h 0.026 c 11.2874,0.008 22.0589,2.69321 32.2708,6.9896 l 0.015,0.008 0.016,0.007 c 9.7096,4.31525 18.8452,10.22643 26.4005,17.78116 7.5466,7.54713 13.4553,16.67346 17.7686,26.372 l 0.027,0.065 c 4.306,10.2377 6.9896,20.9668 6.9896,31.75125 0,11.83478 -2.7025,22.65156 -7.0033,32.32798 -4.3034,9.68218 -10.248,18.32888 -17.78,25.86023 -7.5635,7.56349 -16.6728,13.99418 -26.4017,18.31799 h 0.01 l -0.01,0.008 -0.013,0.008 h -0.01 c -10.212,4.2973 -21.0246,6.45854 -32.3109,6.45854 v -0.0117 c -11.2926,0 -22.1105,-2.16342 -32.3278,-6.46539 -10.2302,-4.30733 -18.8645,-10.78244 -26.4017,-18.31908 -7.5308,-7.5308 -13.475,-16.17807 -17.7789,-25.8614 -4.312,-9.7015 -5.9274,-20.4711 -5.9274,-32.32454 -1e-4,-11.32479 1.6104,-22.07629 5.9274,-31.79001 4.3158,-9.7108 10.2242,-18.8475 17.7789,-26.40164 7.5179,-7.51796 16.1965,-13.48303 26.4017,-17.78002 10.2289,-4.30683 21.02,-7.00327 32.3278,-7.00327 z m 568.9242,0 v 7.7e-4 0.002 h 0.027 c 11.2874,0.008 22.0589,2.69321 32.2709,6.9896 l 0.015,0.008 0.014,0.007 c 9.7097,4.31525 18.8464,10.22643 26.4017,17.78116 7.5465,7.54713 13.4547,16.67346 17.7675,26.372 l 0.027,0.065 c 4.3061,10.2377 6.9895,20.9668 6.9895,31.75125 0,11.83478 -2.7023,22.65156 -7.0032,32.32798 -4.3032,9.68218 -10.247,18.32888 -17.7789,25.86023 -7.5635,7.56349 -16.6739,13.99418 -26.4027,18.31799 h 0.011 l -0.011,0.008 -0.011,0.008 h -0.01 c -10.212,4.2973 -21.0258,6.45854 -32.3121,6.45854 v -0.0117 c -11.2926,0 -22.1095,-2.16342 -32.3267,-6.46539 -10.2301,-4.30733 -18.8644,-10.78244 -26.4017,-18.31908 -7.5307,-7.5308 -13.4749,-16.17807 -17.7789,-25.8614 -4.312,-9.7015 -5.9273,-20.4711 -5.9273,-32.32454 -2e-4,-11.32479 1.6103,-22.07629 5.9273,-31.79001 4.3159,-9.7108 10.2243,-18.8475 17.7789,-26.40164 7.5179,-7.51796 16.1966,-13.48303 26.4017,-17.78002 10.2289,-4.30683 21.0189,-7.00327 32.3267,-7.00327 z m 128.5971,11.76027 h 9.7864 v 21.32782 c -0.8686,-2.22699 -1.6535,-4.52089 -2.5984,-6.68076 -2.1595,-4.93601 -4.579,-9.82497 -7.188,-14.64706 z" />
</svg>
