<?xml version="1.0" encoding="UTF-8"?>
<!-- Created with Inkscape (http://www.inkscape.org/) -->
<svg width="1978.7" height="867.12" version="1.1" viewBox="0 0 1978.7 867.13" xml:space="preserve" xmlns="http://www.w3.org/2000/svg"><path d="m886.04 0v228.07c-11.078-7.3853-22.158-13.853-33.242-19.395-10.968-5.4839-22.768-10.021-35.494-14.576l-0.61328-0.21875-0.625-0.17969c-12.702-3.6351-24.357-7.2056-37.137-9.0312-13.018-1.8594-24.803-3.6914-36.936-3.6914-17.525 0-34.183 1.8494-50.785 5.5391-16.63 3.6955-32.313 8.3081-47.094 14.775-14.808 6.4785-29.481 13.807-42.455 23.072l-0.0156 0.0117-0.0254 0.0215c-13.769 9.1824-26.544 20.134-37.57 31.133l-0.29688 0.29492-0.2832 0.30859c-10.902 11.829-21.744 24.491-30.857 37.211l-0.20117 0.28516-0.19141 0.28906c-9.1752 13.796-17.378 28.358-22.91 43.109 0 0.0133-0.0117 0.0199-0.0117 0.0332-4.2466 9.7121-7.6401 19.855-10.553 30.357-3.1845-10.488-6.9612-20.617-11.203-30.312-6.4309-14.7-13.763-29.338-22.908-43.105l-0.19531-0.29297-0.20703-0.28906c-9.1971-12.837-20.138-25.62-31.164-36.646-11.028-11.028-23.816-21.984-36.666-31.188l-0.28125-0.20117-0.28906-0.19336c-13.712-9.1188-28.277-17.306-42.893-23.717l-0.21484-0.0957-0.22266-0.0898c-15.601-6.4064-31.239-11.014-47.781-14.689-16.617-3.6927-33.247-5.5391-49.861-5.5391l-2e-3 -2e-3c-12.132 0-23.915 1.832-36.934 3.6914-12.85 1.8358-25.494 5.4464-37.42 9.1074l-0.4375 0.13281-0.42968 0.1543c-12.766 4.5677-24.595 9.1153-35.584 14.609l-0.0137 0.0137c-0.0133 0 4.4e-4 0.0137-0.0195 0.0137-11.989 5.536-23.065 11.999-33.209 19.377v-45.246h-110.8v684.21l110.8-0.0137v-227.14c10.147 7.3794 21.224 13.841 33.213 19.377l0.0273 0.0137c11.12 5.5601 23.032 11.066 36.006 14.773 12.006 4.6177 24.013 8.3107 36.932 10.156 12.906 1.8437 24.952 2.7715 37.859 2.7715 17.516 0 34.066-0.92256 50.646-4.5918l0.13477-0.0312 0.1289-0.0312c15.589-3.673 31.174-8.2647 46.754-14.662l0.2207-0.0879 0.2168-0.0957c14.614-6.4122 29.176-14.602 42.885-23.721l0.28516-0.1875 0.27539-0.19922c12.855-9.196 25.626-19.228 36.666-31.188l0.0312-0.0332-0.0352 0.0332c11.096-11.096 22.148-23.983 31.398-37.857l0.0273-0.0312c9.2583-12.969 16.583-27.639 23.059-42.441 4.2519-9.7186 8.0375-19.873 11.227-30.387 2.9055 10.463 6.288 20.568 10.518 30.246l0.0137 0.0195c0 0.0147 0.0176 0.0283 0.0176 0.043 5.562 14.832 13.802 29.476 23.059 42.441v0.0117l0.0215 0.0254v0.0137c9.2472 13.868 20.292 26.748 31.385 37.84 11.093 12.018 23.992 22.152 37.855 31.395 12.974 9.2668 27.63 17.516 42.471 23.082 0.0133 0 0.0137-9.3e-4 0.0137 0 14.784 6.4676 30.465 11.078 47.094 14.773 16.601 3.689 33.26 5.541 50.785 5.541v-0.0137c11.994 0 24.017-0.92621 36.934-2.7715 12.928-1.847 24.903-5.5319 37.842-10.152h0.0371c12.968-3.7076 24.872-9.21 35.986-14.768 11.171-5.5853 22.102-12.886 33.24-20.311v46.166h88.969v181.99l110.8-0.0137v-227.14c10.146 7.3794 21.226 13.841 33.215 19.377l0.027 0.0137c11.12 5.5601 23.03 11.066 36.004 14.773 12.006 4.6177 24.015 8.3107 36.934 10.156 12.906 1.8437 24.952 2.7715 37.859 2.7715 17.515 0 34.066-0.92256 50.646-4.5918l0.1348-0.0312 0.1289-0.0312c15.589-3.673 31.174-8.2647 46.754-14.662l0.2207-0.0879 0.2168-0.0957c14.614-6.4122 29.176-14.602 42.885-23.721l0.2851-0.1875 0.2754-0.19922c12.855-9.196 25.626-19.228 36.666-31.188l0.031-0.0332-0.035 0.0332c11.096-11.096 22.148-23.983 31.398-37.857l0.027-0.0312c9.2583-12.969 16.583-27.639 23.059-42.441 6.465-14.777 12.003-30.466 15.697-47.088 3.6887-16.6 5.5429-33.26 5.5429-50.787 0-16.618-1.8511-33.245-5.5429-49.859-2.4974-11.238-6.0398-21.893-9.9395-32.285h115.45v337h122v-337h151v337h122v-506.17h-101s-16 47.17-54 67.17c-38 20-118 20-118 20v-87.17h-101s-16 47.17-54 67.17c-38 20-118 20-118 20h-12.566c-3.9965-4.5052-8.0093-9.0347-12.115-13.141-11.028-11.028-23.816-21.984-36.666-31.188l-0.2813-0.20117-0.289-0.19336c-13.712-9.1188-28.277-17.306-42.893-23.717l-0.2148-0.0957-0.2227-0.0898c-15.601-6.4064-31.239-11.014-47.781-14.689-16.617-3.6927-33.247-5.5391-49.861-5.5391v-2e-3c-12.132 0-23.917 1.832-36.936 3.6914-12.85 1.8358-25.494 5.4464-37.42 9.1074l-0.4375 0.13281-0.4277 0.1543c-12.766 4.5677-24.595 9.1153-35.584 14.609l-0.016 0.0137c-0.013 0 1e-3 0.0137-0.02 0.0137-11.989 5.536-23.065 11.999-33.209 19.377v-45.246h-90.811v-182.91h-88.959zm20.006 19.996h68.961v645.14h-68.961v-63.537l-31.092 20.729c-11.08 7.387-21.601 14.317-31.092 19.062-10.683 5.3413-21.567 10.293-32.559 13.434l-0.62305 0.17969-0.60937 0.21485c-12.416 4.4343-23.013 7.6294-33.961 9.1934-12.135 1.7335-23.129 2.5703-34.107 2.5703-16.141 0-31.203-1.6774-46.445-5.0644-15.778-3.5064-30.203-7.7936-43.416-13.574l-0.48828-0.21485-0.50196-0.1875c-12.722-4.7705-26.196-12.289-37.877-20.633l-0.25976-0.1875-0.26758-0.17773c-12.997-8.6647-24.62-17.882-34.256-28.32l-0.27149-0.29492-0.2832-0.2832c-10.295-10.295-20.574-22.324-28.896-34.809l-0.17969-0.26757-0.1875-0.26368c-8.3434-11.681-15.862-25.15-20.633-37.871l-0.1875-0.50391-0.21289-0.49218c-5.7802-13.212-10.07-27.633-13.576-43.412-3.3872-15.242-5.0605-30.308-5.0605-46.447 0-15.14 1.6733-30.278 5.0605-45.521 3.5063-15.778 7.7962-30.204 13.576-43.416l0.21289-0.49219 0.1875-0.5c4.7381-12.635 12.247-26.142 20.838-39.061 8.3847-11.704 18.754-23.86 29.301-35.303 10.244-10.218 22.175-20.407 34.568-28.67l0.26758-0.17773 0.25976-0.1875c11.168-7.977 24.732-14.853 38.865-21.035 13.212-5.7801 27.638-10.07 43.418-13.576 15.242-3.3872 30.306-5.0625 46.445-5.0625 9.9525 0 21.048 1.6268 34.107 3.4922 10.731 1.533 21.633 4.7898 34.461 8.4609 12.428 4.4482 23.54 8.7602 33.289 13.635 10.285 5.1425 20.651 11.186 31.092 18.146l31.092 20.727zm-651.19 181.07c15.14 0 30.28 1.6753 45.523 5.0625 15.701 3.4892 30.14 7.7609 44.527 13.668 13.337 5.8504 26.993 13.508 39.85 22.057 11.823 8.4686 23.948 18.845 34.17 29.068 10.218 10.217 20.582 22.337 29.049 34.154 8.2475 12.417 15.105 26.018 21.246 40.055 6.0605 13.853 11.143 28.325 14.496 43.414 3.3871 15.242 5.0664 30.384 5.0664 45.523 0 16.141-1.6793 31.203-5.0664 46.445-3.3532 15.089-8.4356 29.561-14.496 43.414-6.1833 14.133-13.06 27.699-21.037 38.865l-0.1875 0.26367-0.17773 0.26757c-8.3234 12.485-18.602 24.514-28.896 34.809l-0.28125 0.2832-0.26954 0.29492c-9.5661 10.363-21.29 19.676-33.605 28.486-12.855 8.5504-26.509 16.207-39.846 22.059-14.354 5.895-28.877 10.192-43.74 13.695-14.516 3.2123-29.529 4.1191-46.324 4.1191-11.975 0-22.896-0.83677-35.031-2.5703-10.947-1.564-21.413-4.7273-32.582-9.0234l-0.83203-0.32031-0.85352-0.24414c-10.992-3.1405-21.878-8.0906-32.561-13.432l-0.27929-0.13672-0.28321-0.13477c-10.882-5.0223-20.809-10.824-29.859-17.406l-31.766-23.098v246.42h-70.803v-644.21h70.803v64.521l31.766-23.1c9.0495-6.5815 18.977-12.386 29.859-17.408l0.28321-0.13086 0.27929-0.14062c9.7727-4.8865 20.912-9.2088 33.377-13.668 11.592-3.5587 23.432-6.8621 34.377-8.4258 13.059-1.8654 24.152-3.4922 34.104-3.4922zm975 0c15.139 0 30.28 1.6753 45.523 5.0625 15.701 3.4892 30.14 7.7609 44.527 13.668 13.337 5.8504 26.993 13.508 39.85 22.057 11.822 8.4686 23.947 18.845 34.17 29.068 10.218 10.217 20.582 22.337 29.049 34.154 8.2475 12.417 15.105 26.018 21.246 40.055 6.0605 13.853 11.143 28.325 14.496 43.414 3.3871 15.242 5.0664 30.384 5.0664 45.523 0 16.141-1.6793 31.203-5.0664 46.445-3.3533 15.089-8.4356 29.561-14.496 43.414-6.1833 14.133-13.06 27.699-21.037 38.865l-0.1875 0.26367-0.1777 0.26757c-8.3234 12.485-18.602 24.514-28.896 34.809l-0.2813 0.2832-0.2715 0.29492c-9.5662 10.363-21.288 19.676-33.604 28.486-12.855 8.5504-26.511 16.207-39.848 22.059-14.354 5.895-28.875 10.192-43.738 13.695-14.516 3.2123-29.531 4.1191-46.326 4.1191-11.975 0-22.896-0.83677-35.031-2.5703-10.947-1.564-21.411-4.7273-32.58-9.0234l-0.8321-0.32031-0.8535-0.24414c-10.992-3.1405-21.88-8.0906-32.562-13.432l-0.2793-0.13672-0.2832-0.13477c-10.882-5.0223-20.807-10.824-29.857-17.406l-31.766-23.098v246.42h-70.803v-644.21h70.803v64.521l31.766-23.1c9.0495-6.5815 18.975-12.386 29.857-17.408l0.2832-0.13086 0.2793-0.14062c9.7727-4.8865 20.912-9.2088 33.377-13.668 11.592-3.5587 23.434-6.8621 34.379-8.4258 13.059-1.8654 24.152-3.4922 34.104-3.4922zm-487.86 70.705-4e-3 2e-3c-23.345 0-44.705 5.3626-63.523 13.727-18.818 8.3639-35.732 19.997-50.342 34.607-14.274 14.274-26.915 30.956-35.529 50.34l-0.082 0.17969-0.0742 0.18164c-8.4097 19.973-12.648 41.232-12.648 63.162 0 22.738 4.1894 44.14 12.805 63.523 8.6151 19.383 21.253 36.067 35.527 50.34 14.274 14.274 30.96 26.915 50.344 35.529 19.383 8.6147 40.786 12.805 63.525 12.805 21.134 0 42.264-4.2389 62.236-12.648 20.435-8.6043 37.355-21.411 51.629-35.686 14.61-14.61 26.242-31.522 34.605-50.34 8.3638-18.818 13.725-40.179 13.725-63.523 0-21.801-5.3917-42.817-13.57-62.24-8.373-19.886-20.15-37.013-34.76-51.625-14.61-14.61-31.522-26.244-50.34-34.607l-0.18164-0.0801-0.17969-0.0762c-19.423-8.1782-40.597-13.57-63.162-13.57zm-487.15 0.0918v6e-3c-22.565 0-43.739 5.3917-63.162 13.57-19.886 8.373-37.015 20.153-51.625 34.764-14.948 14.948-26.35 32.696-34.604 51.264-8.8663 19.949-11.883 41.304-11.883 62.6 0 22.131 3.0165 43.575 11.883 63.523 8.3637 18.818 19.992 35.73 34.604 50.34 14.274 14.274 31.19 27.082 51.625 35.686 19.973 8.4095 41.232 12.648 63.162 12.648s43.193-4.2389 63.164-12.648l0.18164-0.0762 0.17969-0.084c19.133-8.5034 36.653-20.916 51.264-35.527 14.61-14.61 26.242-31.522 34.607-50.34 8.3638-18.818 13.725-40.179 13.725-63.523 0-21.801-5.3888-42.819-13.566-62.242l-0.0801-0.17969-0.0801-0.17968c-8.252-18.568-19.658-36.316-34.605-51.264-14.948-14.948-32.698-26.354-51.266-34.607l-0.17969-0.082-0.18164-0.0762c-19.423-8.1782-40.597-13.57-63.162-13.57zm975 0v6e-3c-22.565 0-43.739 5.3917-63.162 13.57-19.886 8.373-37.015 20.153-51.625 34.764-14.948 14.948-26.35 32.696-34.604 51.264-8.8663 19.949-11.883 41.304-11.883 62.6 0 22.131 3.0165 43.575 11.883 63.523 8.3637 18.818 19.992 35.73 34.604 50.34 14.274 14.274 31.19 27.082 51.625 35.686 19.973 8.4095 41.232 12.648 63.162 12.648 21.93 0 43.192-4.2389 63.164-12.648l0.1817-0.0762 0.1797-0.084c19.133-8.5034 36.653-20.916 51.264-35.527 14.61-14.61 26.242-31.522 34.607-50.34 8.3638-18.818 13.725-40.179 13.725-63.523 0-21.801-5.3907-42.819-13.568-62.242l-0.078-0.17969-0.08-0.17968c-8.252-18.568-19.66-36.316-34.607-51.264-14.948-14.948-32.696-26.354-51.264-34.607l-0.1797-0.082-0.1816-0.0762c-19.424-8.1782-40.598-13.57-63.162-13.57zm-487.88 19.9 0.0156 0.01c19.379 0 37.873 4.6211 55.402 12.002 16.593 7.3746 31.411 17.566 44.318 30.473 12.884 12.884 23.107 27.751 30.471 45.24 7.3959 17.565 12 35.979 12 54.482 0 20.281-4.6288 38.817-12 55.402-7.3751 16.594-17.564 31.412-30.471 44.318-12.916 12.916-27.713 24.012-45.246 31.395-17.538 7.3845-36.016 11.082-54.477 11.082v-0.0137c-20.282 0-38.816-3.7071-55.406-11.08-16.642-7.3964-31.382-18.458-44.32-31.395-12.938-12.938-23.997-27.676-31.393-44.318-7.3735-16.59-11.08-35.118-11.08-55.398 0-19.347 3.7067-37.882 11.074-55.387v-0.0293c7.396-16.636 18.452-31.373 31.387-44.309 12.907-12.907 27.729-23.096 44.322-30.471 16.585-7.3711 35.12-12.004 55.402-12.004zm-487.13 0.0879 2e-3 4e-3h0.0449c19.343 0.0133 37.804 4.616 55.305 11.979l0.0254 0.0137 0.0273 0.0117c16.64 7.3953 32.296 17.526 45.244 30.473 12.933 12.934 23.059 28.574 30.451 45.195l0.0469 0.11133c7.3797 17.545 11.979 35.932 11.979 54.414 0 20.282-4.6313 38.819-12.002 55.402-7.3749 16.593-17.563 31.413-30.471 44.32-12.962 12.962-28.573 23.981-45.246 31.391h0.0156l-0.0156 0.0137-0.0215 0.0117h-0.0117c-17.501 7.3645-36.031 11.07-55.373 11.07v-0.0195c-19.353 0-37.892-3.7095-55.402-11.082-17.532-7.3817-32.329-18.477-45.246-31.393-12.906-12.906-23.093-27.725-30.469-44.32-7.3898-16.626-10.158-35.084-10.158-55.398-1.3e-4 -19.407 2.7596-37.832 10.158-54.479 7.3962-16.642 17.522-32.3 30.469-45.246 12.884-12.884 27.757-23.107 45.246-30.471 17.53-7.3809 36.023-12.002 55.402-12.002zm975 0v4e-3h0.045c19.344 0.0133 37.804 4.616 55.305 11.979l0.025 0.0137 0.025 0.0117c16.64 7.3953 32.299 17.526 45.246 30.473 12.933 12.934 23.058 28.574 30.449 45.195l0.047 0.11133c7.3797 17.545 11.979 35.932 11.979 54.414 0 20.282-4.6313 38.819-12.002 55.402-7.3748 16.593-17.561 31.413-30.469 44.32-12.962 12.962-28.575 23.981-45.248 31.391h0.018l-0.018 0.0137-0.02 0.0117h-0.012c-17.501 7.3645-36.033 11.07-55.375 11.07v-0.0195c-19.353 0-37.89-3.7095-55.4-11.082-17.532-7.3817-32.329-18.477-45.246-31.393-12.906-12.906-23.093-27.725-30.469-44.32-7.3898-16.626-10.158-35.084-10.158-55.398-2e-4 -19.407 2.7596-37.832 10.158-54.479 7.3962-16.642 17.522-32.3 30.469-45.246 12.884-12.884 27.757-23.107 45.246-30.471 17.53-7.3809 36.021-12.002 55.4-12.002z" style="paint-order:stroke markers fill"/></svg>
