<?xml version="1.0" encoding="UTF-8"?>
<!-- Created with Inkscape (http://www.inkscape.org/) -->
<svg width="9308.3" height="1e3" version="1.1" viewBox="0 0 9308.3 1e3" xmlns="http://www.w3.org/2000/svg">
 <rect width="9308.3" height="1e3" fill="#123d5f"/>
 <path d="m0 0v1e3h425v-1e3zm295.32 240.1 88.986 0.0117v563.98h-91.992v-25.977c-7.5 7.578-39.216 40.703-93.318 40.703-56.37 0.08-157.27-46.92-157.27-216.41 0-143.71 75.391-218.01 165-218.01 33.164 0 65.783 11.797 88.596 36.992zm-80 237.3v2e-3c-43.516 0.2-87.307 42.578-87.307 125 0 81.209 43.906 121.79 88.711 121.99 41.992-0.078 76.484-46.016 76.289-75.586v-89.414c0.196-35.312-34.295-81.796-77.693-81.992z" fill="#fff"/>
 <path d="m495 0v1e3h425v-1e3zm167.51 245.07h90v100h-90zm0 154.95h90v403.99h-90z" fill="#fff"/>
 <path d="m990 0v1e3h425v-1e3zm201.83 395.6v4e-3c43.593 0 74.102 30.196 83.398 43.516l0.1172-39.102h79.375v398.28c0 25.937-17.5 58.32-29.18 70.117-13.91 13.984-46.094 51.289-143.71 51.289-108.98-0.08-139.1-68.281-139.1-115h94.023c0 14.61 4.7653 44.099 50.781 44.219 53.398 0 85.31-30.39 85.31-61.523v-42.07c-9.61 10.391-44.805 37.973-92.227 37.893-43.87 0-150.78-44.921-150.9-178.71 0-169.69 94.416-208.79 162.11-208.91zm4.6875 83.633v2e-3c-32.187-1e-5 -81.992 20.465-81.992 112.38 0 97.893 61.212 112.19 81.523 112.19 40.273 0 78.279-27.695 78.279-70.508v-81.096c0-35.899-40.389-72.969-77.81-72.969z" fill="#fff"/>
 <path d="m1485 0v1e3h425v-1e3zm167.53 245.07h90v100h-90zm0 154.95h90v403.99h-90z" fill="#fff"/>
 <path d="m1980.1 0v1e3h425v-1e3zm150.43 247.6h82.307v145.39h65.195v67.617h-65.195v218.91c0 30.781 20.977 36.875 38.281 37.383 9.024 0.3124 14.688-1.0157 33.125-4.1797v83.984c-28.203 4.8835-26.914 4.6875-59.414 4.6875-69.414 0.11733-94.297-38.008-94.297-86.484v-254.41h-43.125v-67.5h43.125z" fill="#fff"/>
 <path d="m2475 0v1e3h425v-1e3zm208.63 390.2c24.802 0.117 69.488 2.6949 105.7 24.297 14.493 8.711 36.722 34.805 36.602 77.5 0 0 0.12 215.39 0 237.42 0.196 28.086-5.8963 35.389 17.307 72.771h-98.398v-31.172c-26.019 17.266-39.027 37.58-101.8 37.5-62.697 0.07-118.32-41.606-118.4-119.73 0.08-79.88 47.311-112.89 124.38-130.7 60.703-13.789 57.031-13.398 96.797-28.867 0.117-35.937 2.2264-64.611-62.188-64.531-40.391 0-61.602 21.524-61.602 62.5h-77.109c-0.08-92.498 50.623-136.79 138.71-136.99zm62.19 215.2c-22.188 8.398-70.276 20.703-91.174 24.922-20.117 3.985-43.824 25.471-43.904 53.479 0.078 27.93 16.288 49.417 45.311 49.297 59.493-0.078 89.768-48.281 89.768-73.203v-54.492z" fill="#fff"/>
 <path d="m2970 0v1e3h425v-1e3zm167.47 235.01h90v568.99h-90z" fill="#fff"/>
 <path d="m425 1e3" fill="#fff"/>
 <path d="m920 1e3" fill="#fff"/>
 <path d="m662.51 804" fill="#fff"/>
 <path d="m662.51 345.07" fill="#fff"/>
 <path d="m1910 1e3" fill="#fff"/>
 <path d="m1652.5 804" fill="#fff"/>
 <path d="m1652.5 345.07" fill="#fff"/>
 <path d="m2475.1 1e3" fill="#fff"/>
 <path d="m3395.1 1e3" fill="#fff"/>
 <path d="m3227.5 804" fill="#fff"/>
 <path d="m4202 822v-606h415.1q123.42 0 158.94 4.8835 90.123 11.987 121.64 58.158 31.965 45.727 31.965 163.82 0 112.32-26.193 157.6-17.758 30.633-49.723 46.615-31.965 15.982-87.459 22.198-39.512 4.4396-147.39 4.4396h-232.19v148.28zm184.69-299.67h230.86q63.042-0.44396 76.804-1.7758 14.207-1.3319 25.306-7.1033 14.207-7.5473 19.534-22.642 5.3274-15.538 5.3274-47.947 0-32.409-6.6593-47.503-6.6593-15.095-23.53-21.754-12.431-4.8835-96.782-6.2154h-230.86z" fill="#fff"/>
 <path d="m7896 216h217v606h-184.69v-453h-7.3524l-199.96 145-85-124z" fill="#fff"/>
 <path d="m6018 822v-606h415.1q123.42 0 158.94 4.8835 90.123 11.987 121.64 58.158 31.965 45.727 31.965 163.82 0 112.32-26.193 157.6-17.758 30.633-49.723 46.615-31.965 15.982-87.459 22.198-39.512 4.4396-147.39 4.4396h-232.19v148.28zm184.69-299.67h230.86q63.042-0.44396 76.804-1.7758 14.207-1.3319 25.306-7.1033 14.207-7.5473 19.534-22.642 5.3274-15.538 5.3274-47.947 0-32.409-6.6593-47.503-6.6593-15.095-23.53-21.754-12.431-4.8835-96.782-6.2154h-230.86z" fill="#fff"/>
 <path d="m8635.5 208.9q173.14 0 244.62 10.655 81.244 11.543 112.76 70.145 15.982 29.301 19.534 65.262 3.5517 35.96 3.5517 163.82 0 100.33-1.3319 128.3-0.8879 27.525-5.7714 54.163-11.987 67.925-69.257 98.114-23.53 12.431-55.938 18.646-31.965 5.7714-91.011 7.9912-71.033 3.1077-156.72 3.1077-173.59 0-245.06-10.655-81.244-11.987-112.76-70.145-15.982-29.745-19.534-65.706-3.5516-36.404-3.5516-171.81 0-92.343 0.8879-119.87 1.3319-27.969 6.2154-54.163 11.987-68.369 69.257-98.114 23.53-12.875 55.494-18.646 32.409-5.7714 91.455-7.9912 69.701-3.1077 157.16-3.1077zm-11.099 157.6q-126.08 0-153.61 16.426-17.758 10.655-24.418 39.512-6.6593 28.857-6.6593 93.675 0 75.029 7.5473 103.89 7.9912 28.413 30.633 38.624 15.982 7.1033 36.404 9.3231 20.866 1.7758 109.21 3.5516 113.21-2.2198 130.52-3.9956 49.723-5.3275 63.486-31.521 13.763-26.637 13.763-117.2 0-71.921-7.9912-100.33-7.5472-28.857-30.189-39.068-16.87-7.5472-38.624-9.3231-21.31-1.7758-130.08-3.5516z" fill="#fff"/>
 <path d="m5056 822v-606h437.3q116.32 0 152.28 1.7758 35.96 1.7758 75.029 9.767 91.011 18.646 118.54 103 10.211 31.965 13.763 68.813 3.5516 36.404 3.5516 110.55 0 81.244-4.4396 122.98-3.9956 41.732-15.538 75.916-27.081 79.912-111.43 98.558-39.512 8.8791-84.352 11.987-44.84 2.6637-146.95 2.6637zm182.02-154.5h257.05q71.033 0 104.33-4.4396 33.741-4.8835 47.503-16.426 15.094-12.875 21.31-40.844 6.2154-27.969 6.2154-84.352 0-56.382-5.3274-84.796-5.3275-28.413-18.646-43.508-15.094-16.426-43.952-20.866-28.413-4.8835-113.21-4.8835h-255.27z" fill="#fff"/>
 <rect x="6985" y="493" width="419" height="163" fill="#fff" style="paint-order:fill markers stroke"/>
</svg>
