<?xml version="1.0" encoding="UTF-8"?>
<!-- Created with Inkscape (http://www.inkscape.org/) -->
<svg width="1316.5" height="150" version="1.1" viewBox="0 0 1316.5 150" xmlns="http://www.w3.org/2000/svg">
 <g transform="translate(37.5)">
  <rect x="-37.5" width="1316.5" height="150" fill="#e16a00"/>
  <path d="m-37.5 0v150h63.75v-150zm44.299 36.016 13.348 2e-3v84.596h-13.799v-3.8965c-1.125 1.1367-5.8828 6.1055-13.998 6.1055-8.4555 0.012-23.59-7.0375-23.59-32.461 0-21.557 11.309-32.701 24.75-32.701 4.9746 0 9.8671 1.7696 13.289 5.5488zm-12 35.594c-6.5274 0.03-13.096 6.3867-13.096 18.75 0 12.181 6.5859 18.269 13.307 18.299 6.2988-0.0117 11.473-6.9024 11.443-11.338v-13.412c0.0294-5.2968-5.1446-12.269-11.654-12.299z" fill="#fff"/>
  <path d="m36.75 0v150h63.75v-150zm25.127 36.76h13.5v15h-13.5zm0 23.242h13.5v60.598h-13.5z" fill="#fff"/>
  <path d="m111 0v150h63.75v-150zm30.275 59.34c6.5389 0 11.115 4.5293 12.51 6.5273l0.0176-5.8652h11.906v59.742c0 3.8906-2.625 8.748-4.377 10.518-2.0865 2.0976-6.9141 7.6934-21.557 7.6934-16.347-0.012-20.865-10.242-20.865-17.25h14.104c0 2.1915 0.7148 6.6148 7.6172 6.6328 8.0097 0 12.797-4.5586 12.797-9.2285v-6.3106c-1.4415 1.5586-6.7207 5.6956-13.834 5.6836-6.5805 0-22.617-6.7382-22.635-26.807 0-25.454 14.162-31.318 24.316-31.336zm0.70313 12.545c-4.828 0-12.299 3.0703-12.299 16.857 0 14.684 9.1817 16.828 12.229 16.828 6.041 0 11.742-4.1542 11.742-10.576v-12.164c0-5.3848-6.0586-10.945-11.672-10.945z" fill="#fff"/>
  <path d="m185.25 0v150h63.75v-150zm25.131 36.76h13.5v15h-13.5zm0 23.242h13.5v60.598h-13.5z" fill="#fff"/>
  <path d="m259.51 0v150h63.75v-150zm22.564 37.141h12.346v21.807h9.7793v10.143h-9.7793v32.836c0 4.6172 3.1466 5.5312 5.7422 5.6074 1.3536 0.0469 2.2032-0.15235 4.9688-0.62695v12.598c-4.2304 0.73252-4.0371 0.70312-8.9121 0.70312-10.412 0.0176-14.145-5.7013-14.145-12.973v-38.162h-6.4688v-10.125h6.4688z" fill="#fff"/>
  <path d="m333.75 0v150h63.75v-150zm31.295 58.529c3.7203 0.01755 10.424 0.40423 15.855 3.6445 2.174 1.3066 5.5082 5.2208 5.4902 11.625 0 0 0.018 32.309 0 35.613 0.0294 4.2129-0.88474 5.3086 2.5957 10.916h-14.76v-4.6758c-3.9028 2.5899-5.8534 5.637-15.27 5.625-9.4045 0.0105-17.748-6.2402-17.76-17.959 0.012-11.982 7.0958-16.934 18.656-19.605 9.1054-2.0683 8.5546-2.0097 14.52-4.3301 0.0176-5.3905 0.33396-9.6917-9.3281-9.6797-6.0586 0-9.2402 3.2286-9.2402 9.375h-11.566c-0.012-13.875 7.5938-20.519 20.807-20.549zm9.3281 32.281c-3.3282 1.2597-10.541 3.1055-13.676 3.7383-3.0176 0.59775-6.5739 3.8203-6.5859 8.0215 0.0117 4.1895 2.4434 7.4125 6.7969 7.3945 8.9239-0.0117 13.465-7.2422 13.465-10.98z" fill="#fff"/>
  <path d="m408 0v150h63.75v-150zm25.119 35.252h13.5v85.348h-13.5z" fill="#fff"/>
  <path d="m26.25 150" fill="#fff"/>
  <path d="m100.5 150" fill="#fff"/>
  <path d="m61.876 120.6" fill="#fff"/>
  <path d="m61.876 51.76" fill="#fff"/>
  <path d="m249 150" fill="#fff"/>
  <path d="m210.38 120.6" fill="#fff"/>
  <path d="m210.38 51.76" fill="#fff"/>
  <path d="m333.76 150" fill="#fff"/>
  <path d="m471.76 150" fill="#fff"/>
  <path d="m446.62 120.6" fill="#fff"/>
  <g stroke-linecap="square" stroke-miterlimit="9" stroke-width="5.1071" style="font-variant-ligatures:no-common-ligatures;paint-order:fill markers stroke" aria-label="P">
   <path d="m594 125v-96h65.758q19.552 0 25.178 0.77363 14.277 1.8989 19.27 9.2132 5.0637 7.2439 5.0637 25.952 0 17.793-4.1494 24.967-2.8132 4.8527-7.8769 7.3846t-13.855 3.5165q-6.2593 0.7033-23.349 0.7033h-36.782v23.49zm29.257-47.472h36.571q9.9868-0.07033 12.167-0.28132 2.2506-0.21099 4.0088-1.1253 2.2505-1.1956 3.0945-3.5868 0.84395-2.4615 0.84395-7.5956t-1.0549-7.5253q-1.0549-2.3912-3.7275-3.4462-1.9692-0.77362-15.332-0.98461h-36.571z"/>
  </g>
  <g stroke-linecap="square" stroke-miterlimit="9" stroke-width="5.1071" style="font-variant-ligatures:no-common-ligatures;paint-order:fill markers stroke" aria-label="P">
   <path d="m876 125v-96h65.758q19.552 0 25.178 0.77363 14.277 1.8989 19.27 9.2132 5.0637 7.2439 5.0637 25.952 0 17.793-4.1494 24.967-2.8132 4.8527-7.8769 7.3846t-13.855 3.5165q-6.2593 0.7033-23.349 0.7033h-36.782v23.49zm29.257-47.472h36.571q9.9868-0.07033 12.167-0.28132 2.2506-0.21099 4.0088-1.1253 2.2505-1.1956 3.0945-3.5868 0.84395-2.4615 0.84395-7.5956t-1.0549-7.5253q-1.0549-2.3912-3.7275-3.4462-1.9692-0.77362-15.332-0.98461h-36.571z"/>
  </g>
  <g stroke-linecap="square" stroke-miterlimit="9" stroke-width="5.1071" style="font-variant-ligatures:no-common-ligatures;paint-order:fill markers stroke" aria-label="9">
   <path d="m1134.4 97.079h27.851q0.07 0.84396 0.1406 1.1253 0.1407 2.6725 0.7736 3.5868 0.633 0.91429 2.6022 1.5473 4.1495 1.2659 19.833 1.2659 18.075 0 23.982-1.1956 5.978-1.2659 7.2439-5.2044 1.055-3.3055 1.1253-15.543-3.1648 3.5868-6.1187 4.9231-4.6417 2.1802-11.745 3.0242t-19.763 0.84396q-27.85 0-36.712-3.7978-6.3296-2.7429-9.0022-9.0022-2.6022-6.3297-2.6022-18.989 0-15.402 4.2901-21.521 4.2198-5.978 14.91-8.0879 10.69-2.1802 36.22-2.1802 22.013 0 33.196 1.4769 11.182 1.4769 16.176 4.9934 5.7671 4.0088 7.455 12.73 1.7582 8.7209 1.7582 33.547 0 18.848-1.6879 26.444-2.8132 13.011-17.16 16.035-14.84 3.0945-48.527 3.0945-15.754 0-23.912-1.1253-8.0879-1.0549-12.659-3.8681-4.5715-2.7428-6.1187-7.5956-1.5473-4.8528-1.5473-16.527zm53.521-47.613q-18.848 0-23.209 1.6176-4.3604 1.6176-4.3604 8.6505 0 4.4308 1.0549 6.4 1.055 1.9692 3.8681 2.6725 3.9385 1.0549 20.536 1.0549 23.842 0 27.64-1.5473 2.3209-0.98461 3.2352-2.8835 0.9846-1.9692 0.9846-5.9077 0-4.1494-1.055-6.0483-0.9846-1.8989-3.6571-2.6725-4.5714-1.3363-25.037-1.3363z"/>
  </g>
  <g stroke-linecap="square" stroke-miterlimit="9" stroke-width="5.1071" style="font-variant-ligatures:no-common-ligatures;paint-order:fill markers stroke" aria-label="D">
   <path d="m726.2 125v-96h69.275q18.426 0 24.123 0.28132 5.6967 0.28132 11.886 1.5473 14.418 2.9538 18.778 16.316 1.6176 5.0637 2.1802 10.901 0.56264 5.767 0.56264 17.512 0 12.87-0.7033 19.481-0.63297 6.611-2.4615 12.026-4.2901 12.659-17.653 15.613-6.2593 1.4066-13.363 1.8989-7.1033 0.42198-23.279 0.42198zm28.835-24.475h40.721q11.253 0 16.527-0.70329 5.345-0.77362 7.5253-2.6022 2.3912-2.0396 3.3758-6.4703t0.98461-13.363q0-8.9319-0.84395-13.433-0.84396-4.5011-2.9538-6.8923-2.3912-2.6022-6.9626-3.3055-4.5011-0.77363-17.934-0.77363h-40.44z"/>
  </g>
  <path d="m1027 74h66v26h-66z"/>
 </g>
</svg>
