<?xml version="1.0" encoding="UTF-8" standalone="no"?>
<!-- Created with Inkscape (http://www.inkscape.org/) -->

<svg
   width="1145.5431pt"
   height="148.72275pt"
   viewBox="0 0 1145.543 148.72274"
   version="1.1"
   id="svg8"
   xml:space="preserve"
   xmlns="http://www.w3.org/2000/svg"
   xmlns:svg="http://www.w3.org/2000/svg"
   xmlns:rdf="http://www.w3.org/1999/02/22-rdf-syntax-ns#"
   xmlns:cc="http://creativecommons.org/ns#"
   xmlns:dc="http://purl.org/dc/elements/1.1/"><defs
     id="defs2" /><metadata
     id="metadata5"><rdf:RDF><cc:Work
         rdf:about=""><dc:format>image/svg+xml</dc:format><dc:type
           rdf:resource="http://purl.org/dc/dcmitype/StillImage" /></cc:Work></rdf:RDF></metadata><g
     id="layer1"
     transform="translate(373.02853,-627.19175)"><g
       id="g45335"><path
         d="m -127.39753,676.40467 c 0,-7.80469 -1.30078,-14.74219 -3.68555,-20.37892 -2.60156,-5.63672 -5.85352,-10.40625 -9.75586,-14.0918 -4.11915,-3.68555 -8.88868,-6.50391 -14.09181,-8.23829 -5.20313,-1.73437 -10.62305,-2.60156 -16.25977,-2.60156 h -201.83801 v 26.88283 h 47.69534 v 84.76762 h -47.69534 v 27.09963 h 129.64461 v -27.09963 h -51.81449 v -22.98048 h 122.9239 c 5.63672,0 11.27345,-0.65039 16.69337,-2.38477 5.41993,-1.73437 10.18946,-4.33594 14.3086,-7.80469 4.11914,-3.46875 7.3711,-7.80469 9.97266,-13.44141 2.60157,-5.41993 3.90235,-11.92384 3.90235,-19.72853 z m -32.51955,-0.65039 c 0,2.16797 -0.43359,4.33594 -1.08398,6.50391 -0.6504,2.16797 -1.73438,3.90235 -3.46876,5.41993 -1.73437,1.73437 -3.90234,3.03515 -6.50391,3.90234 -2.60156,1.08399 -5.85352,1.51758 -9.75586,1.51758 l -114.46882,0.2168 v -35.33791 h 114.68562 c 4.33594,0 7.80469,0.65039 10.40625,1.51758 2.60157,1.08398 4.76954,2.38476 6.28711,4.11914 1.51758,1.73437 2.60157,3.46875 3.03516,5.63672 0.4336,2.16797 0.86719,4.33594 0.86719,6.50391 z"
         style="font-size:216.797px;line-height:1.25;font-family:HellenicWideJF;-inkscape-font-specification:HellenicWideJF;font-variant-ligatures:no-common-ligatures;letter-spacing:13.6125px;fill:#000000;stroke-width:20.6473;stroke-linecap:round;stroke-linejoin:round;stroke-miterlimit:2.3;paint-order:stroke markers fill"
         id="path45319" /><path
         d="m 145.93743,699.38515 c 0,-22.98048 -6.50391,-40.32424 -19.07814,-51.59768 C 114.06827,636.51402 94.122947,630.8773 67.240119,630.8773 H -96.875208 v 26.23244 h 47.261746 v 85.63481 h -47.261746 v 27.09963 H 75.261608 c 9.972662,0 19.51173,-1.30078 28.183612,-3.90235 8.67188,-2.60156 16.04298,-6.72071 22.33009,-12.35743 6.28711,-5.63672 11.27344,-12.79102 14.74219,-21.89649 3.46876,-8.88868 5.41993,-19.72853 5.41993,-32.30276 z m -33.38674,-1.95117 c 0,7.3711 -0.86719,13.87501 -2.16797,19.51173 -1.51758,5.63672 -4.11914,10.40626 -7.58789,14.3086 -3.468755,3.90235 -8.455086,6.72071 -14.525402,8.67188 -6.287113,1.95117 -14.091805,2.81836 -23.630873,2.81836 h -84.334032 v -85.63481 h 84.334032 c 9.105474,0 16.910166,0.86719 23.197279,2.60156 6.070316,1.73438 11.056647,4.11915 14.742196,7.5879 3.46875,3.46875 6.07032,7.58789 7.58789,12.57422 1.51758,5.20313 2.38477,11.05665 2.38477,17.56056 z"
         style="font-size:216.797px;line-height:1.25;font-family:HellenicWideJF;-inkscape-font-specification:HellenicWideJF;font-variant-ligatures:no-common-ligatures;letter-spacing:13.6125px;fill:#000000;stroke-width:20.6473;stroke-linecap:round;stroke-linejoin:round;stroke-miterlimit:2.3;paint-order:stroke markers fill"
         id="path45321" /><path
         d="m 421.22356,676.40467 c 0,-7.80469 -1.30078,-14.74219 -3.68555,-20.37892 -2.60156,-5.63672 -5.85351,-10.40625 -9.75586,-14.0918 -4.11914,-3.68555 -8.88868,-6.50391 -14.09181,-8.23829 -5.20312,-1.73437 -10.62305,-2.60156 -16.25977,-2.60156 h -201.838 v 26.88283 h 47.69534 v 84.76762 h -47.69534 v 27.09963 h 129.6446 v -27.09963 h -51.81448 v -22.98048 h 122.9239 c 5.63672,0 11.27344,-0.65039 16.69336,-2.38477 5.41993,-1.73437 10.18946,-4.33594 14.30861,-7.80469 4.11914,-3.46875 7.37109,-7.80469 9.97266,-13.44141 2.60156,-5.41993 3.90234,-11.92384 3.90234,-19.72853 z m -32.51955,-0.65039 c 0,2.16797 -0.43359,4.33594 -1.08398,6.50391 -0.65039,2.16797 -1.73438,3.90235 -3.46875,5.41993 -1.73438,1.73437 -3.90235,3.03515 -6.50391,3.90234 -2.60157,1.08399 -5.85352,1.51758 -9.75587,1.51758 l -114.46881,0.2168 V 657.97693 H 368.1083 c 4.33594,0 7.80469,0.65039 10.40626,1.51758 2.60156,1.08398 4.76953,2.38476 6.28711,4.11914 1.51758,1.73437 2.60156,3.46875 3.03516,5.63672 0.43359,2.16797 0.86718,4.33594 0.86718,6.50391 z"
         style="font-size:216.797px;line-height:1.25;font-family:HellenicWideJF;-inkscape-font-specification:HellenicWideJF;font-variant-ligatures:no-common-ligatures;letter-spacing:13.6125px;fill:#000000;stroke-width:20.6473;stroke-linecap:round;stroke-linejoin:round;stroke-miterlimit:2.3;paint-order:stroke markers fill"
         id="path45323" /><path
         d="m 772.51453,728.43595 c 0,-7.80469 -2.60157,-14.74219 -7.5879,-20.81251 -5.20313,-6.07032 -12.35743,-11.05665 -21.4629,-15.39259 -9.32227,-4.33594 -20.37892,-7.58789 -33.16994,-9.75586 -12.79102,-2.16797 -26.88283,-3.25196 -42.49221,-3.25196 -17.34376,0 -31.65236,1.51758 -42.92581,4.33594 -11.27344,3.03516 -19.29493,5.85352 -23.63087,8.45509 l -1.30078,-0.2168 c 1.30078,-6.93751 3.25195,-13.22462 5.85352,-18.42775 2.60156,-5.20312 6.50391,-9.75586 11.70703,-13.22461 4.98634,-3.46876 11.49025,-6.28712 19.72853,-8.02149 8.02149,-1.73438 18.21095,-2.81836 30.35158,-2.81836 8.23829,0 16.04298,0.43359 22.98048,1.08398 6.93751,0.86719 12.79103,1.51758 17.77736,2.38477 4.76953,0.86719 8.67188,1.73437 11.49024,2.60156 2.60156,0.86719 4.11914,1.51758 4.11914,1.51758 0,0.4336 -0.43359,0.65039 -1.08399,0.65039 -0.65039,0 -1.51757,0 -2.60156,0.2168 -2.60156,0.43359 -4.55274,1.30078 -6.28711,3.03516 -1.73438,1.73437 -2.60157,3.46875 -2.60157,5.41992 0,3.90235 2.60157,7.1543 7.8047,10.18946 5.20312,3.03516 12.79102,4.33594 22.76368,4.33594 16.69337,0 25.14845,-5.63672 25.14845,-17.12696 0,-4.76954 -2.81836,-9.32227 -8.02149,-13.65821 -5.20312,-4.33594 -12.57422,-8.02149 -21.6797,-11.49024 -9.10547,-3.46875 -19.94532,-6.07032 -32.30275,-8.23829 -12.57422,-1.95117 -25.79884,-3.03516 -39.89065,-3.03516 -16.91016,0 -31.43556,1.95118 -43.79299,5.85352 -12.57423,3.90235 -22.76368,9.32227 -31.00197,16.04298 -8.23829,6.9375 -14.5254,14.95899 -18.42775,24.06447 -4.11914,9.10547 -6.07031,19.07813 -6.07031,29.48439 0,24.49806 9.10547,42.9258 27.75001,55.06644 18.42775,12.14063 45.96097,18.21094 82.38286,18.21094 15.17579,0 28.61721,-0.86718 40.54104,-3.03515 11.92384,-1.95118 22.1133,-4.98634 30.35158,-9.10548 8.23829,-3.90234 14.5254,-8.88868 18.86134,-14.95899 4.33594,-5.85352 6.72071,-12.57423 6.72071,-20.37892 z m -36.2051,-2.60156 c 0,3.46875 -1.08399,6.7207 -2.81836,9.75586 -1.95118,3.03516 -5.20313,5.85352 -9.75587,8.02149 -4.76953,2.38477 -11.05664,4.33594 -18.86134,5.63672 -7.80469,1.30078 -17.77735,1.95118 -29.91798,1.95118 -12.57423,0 -23.41408,-0.6504 -32.51955,-2.16797 -9.10547,-1.51758 -16.91017,-3.46876 -22.98048,-6.07032 -6.07032,-2.60156 -10.62306,-5.41993 -13.65821,-8.88868 -3.03516,-3.25195 -4.55274,-6.7207 -4.55274,-10.62305 0,-6.07032 5.41992,-11.27344 16.47657,-15.60938 10.83985,-4.11915 26.66603,-6.28712 47.47854,-6.28712 11.27345,0 21.46291,0.65039 30.35158,1.95118 8.67188,1.30078 16.25978,3.25195 22.33009,5.41992 6.07032,2.16797 10.62306,4.76954 13.65821,7.80469 3.03516,3.03516 4.76954,6.07032 4.76954,9.10548 z"
         style="font-size:216.797px;line-height:1.25;font-family:HellenicWideJF;-inkscape-font-specification:HellenicWideJF;font-variant-ligatures:no-common-ligatures;letter-spacing:13.6125px;fill:#000000;stroke-width:20.6473;stroke-linecap:round;stroke-linejoin:round;stroke-miterlimit:2.3;paint-order:stroke markers fill"
         id="path45316" /><path
         id="rect41505"
         style="opacity:1;fill:#000000;stroke-width:3.94538;stroke-linecap:square;stroke-miterlimit:2.3;paint-order:stroke markers fill"
         d="m 450.47137,704.96918 h 81 v 26.25 h -81 z" /></g></g></svg>
