<?xml version="1.0" encoding="UTF-8"?>
<!-- Created with Inkscape (http://www.inkscape.org/) -->
<svg width="5344.9" height="1475" version="1.1" viewBox="0 0 5344.9 1475" xmlns="http://www.w3.org/2000/svg">
 <g transform="translate(-17,-18.5)">
  <g transform="matrix(10,0,0,10,-153,-166.5)">
   <path d="m17 18.5v88.5h14v-88.5zm27 0v29.5h14v-29.5zm27 0v29.5h14v-29.5zm27 0v147.5h14v-147.5zm27 0v29.5h14v-29.5zm27 0v29.5h14v-29.5zm-108 59.001v29.499h14v-29.499zm27 0v88.499h14v-88.499zm-54 58.999v29.5h14v-29.5zm27 0v29.5h14v-29.5zm81 0v29.5h14v-29.5zm27 0v29.5h14v-29.5z"/>
   <path d="m206.86 142.46-2.8697 0.85693q-0.52013-2.0128-1.9012-3.2285-1.6501-1.4747-4.4481-1.4747-2.0806 0-3.3719 0.89679-0.89679 0.59786-1.3452 1.5744-0.43046 0.95658-0.43046 2.0527 0 1.694 1.2196 2.6306 1.2196 0.93666 3.3002 1.4947l3.7486 1.0363q3.0491 0.79715 4.6274 2.1922 0.62775 0.59786 1.112 1.3352 0.5022 0.71744 0.84298 1.8135 0.35872 1.0762 0.35872 2.3715 0 1.953-0.77124 3.6071-0.75331 1.6342-2.0088 2.7502-1.3811 1.2156-2.9953 1.6342-1.5963 0.39858-3.3361 0.39858-1.9012 0-3.4975-0.35872-1.5784-0.33879-3.1388-1.5146-1.0582-0.79715-2.2061-2.2719-1.13-1.4747-1.7398-3.8064l2.8339-0.6975q0.23316 0.91671 0.82504 2.0128 0.60982 1.0961 1.668 1.9929 1.13 0.95658 2.4034 1.2954 1.2914 0.33878 2.5648 0.33878 3.4437 0 4.7351-1.5146 1.2914-1.5345 1.2914-3.3082 0-3.5473-4.197-4.6833l-4.179-1.1559q-3.4437-0.95659-5.04-2.81-1.5784-1.8733-1.5784-4.6036 0-3.7665 2.3675-5.7395 2.3854-1.973 6.1878-1.973 2.8338 0 4.7171 0.99645 1.9012 0.99644 2.8877 2.5708 1.0044 1.5544 1.3631 3.2883z"/>
   <path d="m230.19 136-8.4119 16.202v11.798h-3.1746v-11.798l-8.4119-16.202h3.6768l6.69 12.894 6.7618-12.894z"/>
   <path d="m251.34 142.46-2.8697 0.85693q-0.52013-2.0128-1.9012-3.2285-1.6501-1.4747-4.4481-1.4747-2.0806 0-3.3719 0.89679-0.89678 0.59786-1.3452 1.5744-0.43046 0.95658-0.43046 2.0527 0 1.694 1.2196 2.6306 1.2196 0.93666 3.3002 1.4947l3.7486 1.0363q3.0491 0.79715 4.6274 2.1922 0.62775 0.59786 1.112 1.3352 0.5022 0.71744 0.84299 1.8135 0.35871 1.0762 0.35871 2.3715 0 1.953-0.77124 3.6071-0.75331 1.6342-2.0088 2.7502-1.3811 1.2156-2.9953 1.6342-1.5963 0.39858-3.3361 0.39858-1.9012 0-3.4975-0.35872-1.5784-0.33879-3.1388-1.5146-1.0582-0.79715-2.2061-2.2719-1.13-1.4747-1.7398-3.8064l2.8338-0.6975q0.23317 0.91671 0.82505 2.0128 0.60982 1.0961 1.668 1.9929 1.13 0.95658 2.4034 1.2954 1.2914 0.33878 2.5648 0.33878 3.4437 0 4.735-1.5146 1.2914-1.5345 1.2914-3.3082 0-3.5473-4.197-4.6833l-4.179-1.1559q-3.4437-0.95659-5.04-2.81-1.5784-1.8733-1.5784-4.6036 0-3.7665 2.3675-5.7395 2.3855-1.973 6.1878-1.973 2.8339 0 4.7171 0.99645 1.9012 0.99644 2.8877 2.5708 1.0044 1.5544 1.3631 3.2883z"/>
   <path d="m255.5 136h17.398v3.0292h-7.1205v24.971h-3.1567v-24.971h-7.1205z"/>
   <path d="m278.15 136h15.945v3.0292h-12.788v8.8883h10.152v2.8498h-10.152v10.204h13.165v3.0292h-16.322z"/>
   <path d="m305.21 136 7.5689 22.4h0.0717l7.4972-22.4h4.6274v28h-3.1567v-24.453h-0.0717l-8.089 24.453h-2.1164l-8.2684-24.453h-0.0359v24.453h-2.6545v-28z"/>
   <path d="m347.87 142.46-2.8697 0.85693q-0.52013-2.0128-1.9012-3.2285-1.6501-1.4747-4.4481-1.4747-2.0806 0-3.3719 0.89679-0.89679 0.59786-1.3452 1.5744-0.43046 0.95658-0.43046 2.0527 0 1.694 1.2196 2.6306 1.2196 0.93666 3.3002 1.4947l3.7486 1.0363q3.0491 0.79715 4.6274 2.1922 0.62775 0.59786 1.112 1.3352 0.5022 0.71744 0.84298 1.8135 0.35872 1.0762 0.35872 2.3715 0 1.953-0.77124 3.6071-0.75331 1.6342-2.0088 2.7502-1.3811 1.2156-2.9953 1.6342-1.5963 0.39858-3.3361 0.39858-1.9012 0-3.4975-0.35872-1.5784-0.33879-3.1388-1.5146-1.0582-0.79715-2.2061-2.2719-1.13-1.4747-1.7398-3.8064l2.8339-0.6975q0.23316 0.91671 0.82504 2.0128 0.60982 1.0961 1.668 1.9929 1.13 0.95658 2.4034 1.2954 1.2914 0.33878 2.5648 0.33878 3.4437 0 4.735-1.5146 1.2914-1.5345 1.2914-3.3082 0-3.5473-4.197-4.6833l-4.179-1.1559q-3.4437-0.95659-5.04-2.81-1.5784-1.8733-1.5784-4.6036 0-3.7665 2.3675-5.7395 2.3854-1.973 6.1878-1.973 2.8338 0 4.7171 0.99645 1.9012 0.99644 2.8877 2.5708 1.0044 1.5544 1.3631 3.2883z"/>
   <path d="m383.89 144.53-2.9774 0.61779q-0.16142-0.8968-0.48426-1.8534-0.32285-0.95658-0.84298-1.7737-1.7218-2.9096-4.8427-2.9096-3.7486 0-5.6318 3.7267-1.3811 2.6505-1.3811 7.3737 0 1.9929 0.25111 3.8463 0.26903 1.8334 0.91472 3.3879 1.9012 4.4441 5.8471 4.4441 1.3272 0 2.3317-0.51815 1.0044-0.51815 1.8474-1.5744 1.6142-1.9929 2.0985-4.7231l2.8697 0.6975q-0.66363 3.7068-2.8339 6.2377-1.4887 1.7338-2.9953 2.3118-1.4887 0.57793-3.1746 0.57793-2.2599 0-4.3405-0.95658-2.0806-0.95659-3.8203-3.8463-1.1479-1.973-1.7756-4.6036-0.60981-2.6505-0.60981-5.4406 0-3.9858 0.93265-6.4769 0.93267-2.4911 1.9371-3.7665 1.7398-2.252 3.7306-2.9694 1.9909-0.73737 3.8741-0.73737 3.7844 0 6.2058 2.4911 1.112 1.1359 1.8833 2.8299 0.77124 1.674 0.98647 3.6071z"/>
   <path d="m399.46 135.6q4.0356 0 6.7438 2.9295 1.668 1.7936 2.6366 4.7231 0.96854 2.9295 0.96854 6.7559 0 3.8064-0.96854 6.716-0.95059 2.9096-2.6366 4.743-2.7083 2.9295-6.7438 2.9295-1.5066 0-3.3002-0.57793-1.7936-0.57794-3.4616-2.3516-1.7039-1.8932-2.6545-4.8028-0.95059-2.9295-0.95059-6.6562 0-3.7466 0.95059-6.6961 0.96853-2.9495 2.6545-4.7829 1.1838-1.2555 2.4213-1.8932 1.2555-0.63773 2.3317-0.83702 1.0761-0.19929 2.0088-0.19929zm0 3.0093q-2.9235 0-4.8965 2.7701-2.0806 3.0092-2.0806 8.6292 0 5.6 2.0806 8.6092 1.9729 2.7701 4.8965 2.7701 2.9415 0 4.8785-2.7701 2.0985-3.0292 2.0985-8.6092 0-5.6-2.0985-8.6292-1.9371-2.7701-4.8785-2.7701z"/>
   <path d="m421.18 136 11.981 22.818h0.0717q-0.14349-0.93666-0.14349-2.252v-20.567h2.6366v28h-3.085l-12.304-23.476-0.53807-0.93666h-0.0897q0.16143 1.0961 0.16143 2.531v21.882h-2.6545v-28z"/>
   <path d="m462.69 144.53-2.9774 0.61779q-0.16142-0.8968-0.48426-1.8534-0.32285-0.95658-0.84298-1.7737-1.7218-2.9096-4.8427-2.9096-3.7486 0-5.6318 3.7267-1.3811 2.6505-1.3811 7.3737 0 1.9929 0.25111 3.8463 0.26903 1.8334 0.91472 3.3879 1.9012 4.4441 5.8471 4.4441 1.3272 0 2.3317-0.51815 1.0044-0.51815 1.8474-1.5744 1.6142-1.9929 2.0985-4.7231l2.8697 0.6975q-0.66363 3.7068-2.8339 6.2377-1.4887 1.7338-2.9953 2.3118-1.4887 0.57793-3.1746 0.57793-2.2599 0-4.3405-0.95658-2.0806-0.95659-3.8203-3.8463-1.1479-1.973-1.7756-4.6036-0.60981-2.6505-0.60981-5.4406 0-3.9858 0.93266-6.4769 0.93266-2.4911 1.9371-3.7665 1.7398-2.252 3.7306-2.9694 1.9909-0.73737 3.8741-0.73737 3.7845 0 6.2058 2.4911 1.112 1.1359 1.8833 2.8299 0.77124 1.674 0.98647 3.6071z"/>
   <path d="m468.56 136h15.945v3.0292h-12.788v8.8883h10.152v2.8498h-10.152v10.204h13.165v3.0292h-16.322z"/>
   <path d="m490.99 136h8.3401q1.955 0 3.4796 0.35872 1.5245 0.33879 2.8339 1.4349 1.1479 0.95659 1.9191 2.511 0.77123 1.5544 0.77123 3.8662 0 3.926-2.3496 6.2776-0.98647 0.97651-2.1523 1.4947-1.1658 0.49822-2.1523 0.6178-0.98648 0.0996-2.242 0.0996h-5.2911v11.339h-3.1567zm3.1567 13.631h4.9324q1.3272 0 2.4213-0.23915 1.0941-0.25907 1.9909-1.1559 0.66362-0.67757 1.0582-1.7338 0.39458-1.0562 0.39458-2.4114 0-2.4512-1.4528-3.8064-1.399-1.2555-4.1252-1.2555h-5.2193z"/>
   <path d="m511.28 136h17.398v3.0292h-7.1205v24.971h-3.1567v-24.971h-7.1205z"/>
   <path d="m550.65 142.46-2.8697 0.85693q-0.52014-2.0128-1.9012-3.2285-1.6501-1.4747-4.4481-1.4747-2.0806 0-3.3719 0.89679-0.8968 0.59786-1.3452 1.5744-0.43046 0.95658-0.43046 2.0527 0 1.694 1.2196 2.6306 1.2196 0.93666 3.3002 1.4947l3.7486 1.0363q3.0491 0.79715 4.6274 2.1922 0.62775 0.59786 1.112 1.3352 0.50221 0.71744 0.84298 1.8135 0.35872 1.0762 0.35872 2.3715 0 1.953-0.77124 3.6071-0.7533 1.6342-2.0088 2.7502-1.381 1.2156-2.9953 1.6342-1.5963 0.39858-3.336 0.39858-1.9012 0-3.4975-0.35872-1.5784-0.33879-3.1388-1.5146-1.0582-0.79715-2.2061-2.2719-1.13-1.4747-1.7398-3.8064l2.8339-0.6975q0.23316 0.91671 0.82505 2.0128 0.60981 1.0961 1.668 1.9929 1.13 0.95658 2.4034 1.2954 1.2914 0.33878 2.5648 0.33878 3.4437 0 4.735-1.5146 1.2914-1.5345 1.2914-3.3082 0-3.5473-4.197-4.6833l-4.179-1.1559q-3.4437-0.95659-5.04-2.81-1.5784-1.8733-1.5784-4.6036 0-3.7665 2.3675-5.7395 2.3855-1.973 6.1879-1.973 2.8339 0 4.7171 0.99645 1.9012 0.99644 2.8877 2.5708 1.0044 1.5544 1.3631 3.2883z"/>
   <path d="m550.65 142.46-2.8697 0.85693q-0.52014-2.0128-1.9012-3.2285-1.6501-1.4747-4.4481-1.4747-2.0806 0-3.3719 0.89679-0.8968 0.59786-1.3452 1.5744-0.43046 0.95658-0.43046 2.0527 0 1.694 1.2196 2.6306 1.2196 0.93666 3.3002 1.4947l3.7486 1.0363q3.0491 0.79715 4.6274 2.1922 0.62775 0.59786 1.112 1.3352 0.50221 0.71744 0.84298 1.8135 0.35872 1.0762 0.35872 2.3715 0 1.953-0.77124 3.6071-0.7533 1.6342-2.0088 2.7502-1.381 1.2156-2.9953 1.6342-1.5963 0.39858-3.336 0.39858-1.9012 0-3.4975-0.35872-1.5784-0.33879-3.1388-1.5146-1.0582-0.79715-2.2061-2.2719-1.13-1.4747-1.7398-3.8064l2.8339-0.6975q0.23316 0.91671 0.82505 2.0128 0.60981 1.0961 1.668 1.9929 1.13 0.95658 2.4034 1.2954 1.2914 0.33878 2.5648 0.33878 3.4437 0 4.735-1.5146 1.2914-1.5345 1.2914-3.3082 0-3.5473-4.197-4.6833l-4.179-1.1559q-3.4437-0.95659-5.04-2.81-1.5784-1.8733-1.5784-4.6036 0-3.7665 2.3675-5.7395 2.3855-1.973 6.1879-1.973 2.8339 0 4.7171 0.99645 1.9012 0.99644 2.8877 2.5708 1.0044 1.5544 1.3631 3.2883z"/>
  </g>
 </g>
</svg>
