<?xml version="1.0" encoding="UTF-8" standalone="no"?>
<!-- Created with Inkscape (http://www.inkscape.org/) -->

<svg
   version="1.1"
   id="svg931"
   width="1266"
   height="1600"
   viewBox="0 0 1266 1600"
   sodipodi:docname="tenex-exec.svg"
   inkscape:version="1.1.2 (0a00cf5339, 2022-02-04)"
   xmlns:inkscape="http://www.inkscape.org/namespaces/inkscape"
   xmlns:sodipodi="http://sodipodi.sourceforge.net/DTD/sodipodi-0.dtd"
   xmlns="http://www.w3.org/2000/svg"
   xmlns:svg="http://www.w3.org/2000/svg">
  <defs
     id="defs935" />
  <sodipodi:namedview
     id="namedview933"
     pagecolor="#ffffff"
     bordercolor="#666666"
     borderopacity="1.0"
     inkscape:pageshadow="2"
     inkscape:pageopacity="0.0"
     inkscape:pagecheckerboard="0"
     showgrid="false"
     inkscape:zoom="45.254834"
     inkscape:cx="495.42774"
     inkscape:cy="361.92819"
     inkscape:window-width="1920"
     inkscape:window-height="1043"
     inkscape:window-x="0"
     inkscape:window-y="120"
     inkscape:window-maximized="1"
     inkscape:current-layer="g937" />
  <g
     inkscape:groupmode="layer"
     inkscape:label="Image"
     id="g937">
    <path
       style="fill:#ffee21;fill-opacity:1;stroke:#000000;stroke-width:0;stroke-linecap:butt;stroke-linejoin:miter;stroke-miterlimit:4;stroke-dasharray:none;stroke-opacity:1"
       d="m 443.14784,654.22386 65.71541,65.74854 -67.77887,70.02306 -65.86612,-65.97139 z"
       id="path1054-70"
       sodipodi:nodetypes="ccccc" />
    <path
       style="fill:#feee14;fill-opacity:1;stroke:#000000;stroke-width:0;stroke-linecap:butt;stroke-linejoin:miter;stroke-miterlimit:4;stroke-dasharray:none;stroke-opacity:1"
       d="m 517.37924,577.78925 66.14473,66.14013 -72.02974,73.77686 -66.49149,-66.10896 z"
       id="path1054"
       sodipodi:nodetypes="ccccc" />
    <path
       style="fill:#5ed0f5;fill-opacity:1;stroke:#000000;stroke-width:0;stroke-linecap:butt;stroke-linejoin:miter;stroke-miterlimit:4;stroke-dasharray:none;stroke-opacity:1"
       d="m 586.08474,646.77838 70.6218,71.59082 -72.28486,72.95705 -70.71344,-70.73984 z"
       id="path1054-36"
       sodipodi:nodetypes="ccccc" />
    <path
       style="fill:#5ed0f5;fill-opacity:1;stroke:#000000;stroke-width:0;stroke-linecap:butt;stroke-linejoin:miter;stroke-miterlimit:4;stroke-dasharray:none;stroke-opacity:1"
       d="m 729.93435,719.48532 71.71675,70.87101 -71.90576,72.32484 -70.11249,-70.62151 z"
       id="path1054-36-0"
       sodipodi:nodetypes="ccccc" />
    <path
       style="fill:#5ed0f5;fill-opacity:1;stroke:#000000;stroke-width:0;stroke-linecap:butt;stroke-linejoin:miter;stroke-miterlimit:4;stroke-dasharray:none;stroke-opacity:1"
       d="m 369.65902,939.76188 71.20354,69.14532 -67.6369,68.7292 -70.73907,-69.9803 z"
       id="path1054-36-0-6"
       sodipodi:nodetypes="ccccc" />
    <path
       style="fill:#02a9f0;fill-opacity:1;stroke:#000000;stroke-width:0;stroke-linecap:butt;stroke-linejoin:miter;stroke-miterlimit:4;stroke-dasharray:none;stroke-opacity:1"
       d="m 374.06098,799.84572 66.44664,64.36219 -70.79015,71.42824 -65.76402,-65.49056 z"
       id="path1054-36-0-6-0"
       sodipodi:nodetypes="ccccc" />
    <path
       style="fill:#04abf2;fill-opacity:1;stroke:#000000;stroke-width:0;stroke-linecap:butt;stroke-linejoin:miter;stroke-miterlimit:4;stroke-dasharray:none;stroke-opacity:1"
       d="m 875.88011,720.58128 68.64624,68.93682 -68.9909,70.25649 -69.38465,-68.75448 z"
       id="path1054-36-0-6-0-2"
       sodipodi:nodetypes="ccccc" />
    <path
       style="fill:#01b2f8;fill-opacity:1;stroke:#000000;stroke-width:0;stroke-linecap:butt;stroke-linejoin:miter;stroke-miterlimit:4;stroke-dasharray:none;stroke-opacity:1"
       d="m 946.97218,940.13466 69.77792,67.99034 -68.22028,68.3931 -69.71448,-68.2567 z"
       id="path1054-36-0-6-0-2-3"
       sodipodi:nodetypes="ccccc" />
    <path
       style="fill:#03a5f0;fill-opacity:1;stroke:#000000;stroke-width:0;stroke-linecap:butt;stroke-linejoin:miter;stroke-miterlimit:4;stroke-dasharray:none;stroke-opacity:1"
       d="m 586.39425,1158.3128 70.69046,70.6279 -69.31409,71.2102 -71.03163,-70.9014 z"
       id="path1054-36-0-6-0-2-3-7"
       sodipodi:nodetypes="ccccc" />
    <path
       style="fill:#02a4ef;fill-opacity:1;stroke:#000000;stroke-width:0;stroke-linecap:butt;stroke-linejoin:miter;stroke-miterlimit:4;stroke-dasharray:none;stroke-opacity:1"
       d="m 659.50199,941.17368 68.14095,67.63392 -69.31409,71.2102 -68.00644,-68.5004 z"
       id="path1054-36-0-6-0-2-3-7-5"
       sodipodi:nodetypes="ccccc" />
    <path
       style="fill:#5ed0f5;fill-opacity:1;stroke:#000000;stroke-width:0;stroke-linecap:butt;stroke-linejoin:miter;stroke-miterlimit:4;stroke-dasharray:none;stroke-opacity:1"
       d="m 949.96065,1080.3085 69.58195,70.3764 -73.6092,73.7635 -69.99079,-69.9957 z"
       id="path1054-36-0-2"
       sodipodi:nodetypes="ccccc" />
    <path
       style="fill:#5ed0f5;fill-opacity:1;stroke:#000000;stroke-width:0;stroke-linecap:butt;stroke-linejoin:miter;stroke-miterlimit:4;stroke-dasharray:none;stroke-opacity:1"
       d="m 802.91129,1157.6421 69.82452,70.7186 -67.85645,69.4149 -70.19767,-71.1895 z"
       id="path1054-36-0-61"
       sodipodi:nodetypes="ccccc" />
    <path
       style="fill:#56c8f0;fill-opacity:1;stroke:#000000;stroke-width:0;stroke-linecap:butt;stroke-linejoin:miter;stroke-miterlimit:4;stroke-dasharray:none;stroke-opacity:1"
       d="m 516.02872,1087.5805 68.39059,67.7951 -69.67644,71.4791 -68.75533,-68.4803 z"
       id="path1054-36-0-8"
       sodipodi:nodetypes="ccccc" />
    <path
       style="fill:#e1e016;fill-opacity:1;stroke:#000000;stroke-width:0;stroke-linecap:butt;stroke-linejoin:miter;stroke-miterlimit:4;stroke-dasharray:none;stroke-opacity:1"
       d="m 800.78057,646.14122 71.50545,71.67619 -68.58931,70.78392 -72.01956,-71.8897 z"
       id="path1054-3"
       sodipodi:nodetypes="ccccc" />
    <path
       style="fill:#fceb1f;fill-opacity:1;stroke:#000000;stroke-width:0;stroke-linecap:butt;stroke-linejoin:miter;stroke-miterlimit:4;stroke-dasharray:none;stroke-opacity:1"
       d="m 804.06845,792.7683 68.99695,68.77206 -71.59573,72.72023 -68.89945,-68.96055 z"
       id="path1054-6"
       sodipodi:nodetypes="ccccc" />
    <path
       style="fill:#e8e429;fill-opacity:1;stroke:#000000;stroke-width:0;stroke-linecap:butt;stroke-linejoin:miter;stroke-miterlimit:4;stroke-dasharray:none;stroke-opacity:1"
       d="m 301.16256,872.289 66.0836,65.04282 -68.03594,68.87098 -66.19055,-66.01301 z"
       id="path1054-7"
       sodipodi:nodetypes="ccccc" />
    <path
       style="fill:#fded14;fill-opacity:1;stroke:#000000;stroke-width:0;stroke-linecap:butt;stroke-linejoin:miter;stroke-miterlimit:4;stroke-dasharray:none;stroke-opacity:1"
       d="m 442.57388,866.36081 70.23745,69.71857 -70.11349,71.19542 -71.06083,-69.51126 z"
       id="path1054-5"
       sodipodi:nodetypes="ccccc" />
    <path
       style="fill:#feee12;fill-opacity:1;stroke:#000000;stroke-width:0;stroke-linecap:butt;stroke-linejoin:miter;stroke-miterlimit:4;stroke-dasharray:none;stroke-opacity:1"
       d="m 876.34708,1008.5052 69.74915,69.9803 -72.58362,72.8801 -69.21384,-69.2708 z"
       id="path1054-35"
       sodipodi:nodetypes="ccccc" />
    <path
       style="fill:#fef479;fill-opacity:1;stroke:#000000;stroke-width:0;stroke-linecap:butt;stroke-linejoin:miter;stroke-miterlimit:4;stroke-dasharray:none;stroke-opacity:1"
       d="m 1019.8309,1009.7885 71.1403,69.5526 -69.5032,69.535 -70.49269,-70.2039 z"
       id="path1054-35-9"
       sodipodi:nodetypes="ccccc" />
    <path
       style="fill:#e1de05;fill-opacity:1;stroke:#000000;stroke-width:0;stroke-linecap:butt;stroke-linejoin:miter;stroke-miterlimit:4;stroke-dasharray:none;stroke-opacity:1"
       d="m 658.74653,1085.0022 70.31515,71.369 -69.71439,71.7346 -71.5097,-72.0026 z"
       id="path1054-62"
       sodipodi:nodetypes="ccccc" />
    <path
       style="fill:#fee904;fill-opacity:1;stroke:#000000;stroke-width:0;stroke-linecap:butt;stroke-linejoin:miter;stroke-miterlimit:4;stroke-dasharray:none;stroke-opacity:1"
       d="m 514.62487,1231.4878 70.56214,70.5978 -70.18628,73.5809 -71.88428,-72.2932 z"
       id="path1054-9"
       sodipodi:nodetypes="ccccc" />
    <path
       style="fill:#cde8f1;fill-opacity:1;stroke:#000000;stroke-width:0;stroke-linecap:butt;stroke-linejoin:miter;stroke-miterlimit:4;stroke-dasharray:none;stroke-opacity:1"
       d="m 443.51985,1160.8649 68.71546,67.989 -70.7913,72.0685 -68.51582,-68.3172 z"
       id="path1054-9-9"
       sodipodi:nodetypes="ccccc" />
    <path
       style="fill:#e7e40b;fill-opacity:1;stroke:#000000;stroke-width:0;stroke-linecap:butt;stroke-linejoin:miter;stroke-miterlimit:4;stroke-dasharray:none;stroke-opacity:1"
       d="m 732.29114,1229.3945 69.51355,70.3672 -71.4259,73.1796 -70.39205,-71.718 z"
       id="path1054-1"
       sodipodi:nodetypes="ccccc" />
    <path
       style="fill:#fdeb01;fill-opacity:1;stroke:#000000;stroke-width:0;stroke-linecap:butt;stroke-linejoin:miter;stroke-miterlimit:4;stroke-dasharray:none;stroke-opacity:1"
       d="m 875.61469,1230.7564 69.55132,69.7937 -69.29559,69.7286 -68.64401,-70.183 z"
       id="path1054-2"
       sodipodi:nodetypes="ccccc" />
    <path
       id="path8183"
       style="fill:#010000;fill-opacity:1;stroke:#000000;stroke-width:0;stroke-linecap:butt;stroke-linejoin:miter;stroke-miterlimit:4;stroke-dasharray:none;stroke-opacity:1"
       d="m 698.47723,393.41978 -0.027,105.72168 -87.77412,-104.81471 -391.3138,-0.76329 0.80217,32.84796 62.30754,-1.36792 1.81392,127.45267 47.45203,0.99675 -0.91894,-128.83855 62.55298,0.99377 0.80519,127.33891 208.73741,-0.0958 0.28736,-106.76331 85.93327,107.23326 53.25893,-0.41009 -0.6166,-159.28291 z m -260.05075,31.59079 120.47242,0.29035 -0.28735,94.90404 -118.11971,0.58967 -0.27837,-36.62542 99.11255,1.03865 0.41008,-34.28771 -100.59721,0.21553 z" />
    <path
       id="path8707"
       style="fill:#010000;fill-opacity:1;stroke:#000000;stroke-width:0;stroke-linecap:butt;stroke-linejoin:miter;stroke-miterlimit:4;stroke-dasharray:none;stroke-opacity:1"
       d="m 1097.3041,389.10352 -60.5684,0.56872 -36.78105,43.54882 -35.97895,-40.91775 -217.29214,0.7543 0.24543,159.8606 210.6501,-1.60738 45.25201,-53.40859 47.4341,52.09756 57.3147,-2.06235 -77.1151,-82.18572 z m -190.58933,5.06159 65.73175,70.59584 -61.46637,70.56293 0.0989,-15.50804 -119.91866,1.84684 -0.27239,-36.85591 98.14275,-0.49988 -0.73035,-34.03327 -97.03824,0.87702 -0.58368,-25.9036 116.23096,-0.62859 z" />
    <path
       style="fill:#3fb52d;fill-opacity:1;stroke:#000000;stroke-width:0;stroke-linecap:butt;stroke-linejoin:miter;stroke-miterlimit:4;stroke-dasharray:none;stroke-opacity:1"
       d="m 511.70664,722.85703 70.71382,70.42384 -67.85482,68.99556 -70.52039,-70.0395 z m 11.12383,79.24491"
       id="path15153"
       sodipodi:nodetypes="ccccc" />
    <path
       style="fill:#3eb41f;fill-opacity:1;stroke:#000000;stroke-width:0;stroke-linecap:butt;stroke-linejoin:miter;stroke-miterlimit:4;stroke-dasharray:none;stroke-opacity:1"
       d="m 587.89386,1012.9917 67.45226,68.0863 -69.42176,71.3345 -68.22184,-68.3635 z"
       id="path15153-7"
       sodipodi:nodetypes="ccccc" />
    <path
       style="fill:#49c722;fill-opacity:1;stroke:#000000;stroke-width:0;stroke-linecap:butt;stroke-linejoin:miter;stroke-miterlimit:4;stroke-dasharray:none;stroke-opacity:1"
       d="m 805.49416,1302.1926 68.21221,68.8848 -71.58984,73.1029 -68.85413,-69.134 z"
       id="path15153-7-9"
       sodipodi:nodetypes="ccccc" />
    <path
       style="fill:#90c922;fill-opacity:1;stroke:#000000;stroke-width:0;stroke-linecap:butt;stroke-linejoin:miter;stroke-miterlimit:4;stroke-dasharray:none;stroke-opacity:1"
       d="m 730.28605,1011.7968 70.71285,70.3502 -69.38783,70.9059 -70.45421,-70.401 z"
       id="path15153-7-9-2"
       sodipodi:nodetypes="ccccc" />
    <path
       style="fill:#5dc9ef;fill-opacity:1;stroke:#000000;stroke-width:0;stroke-linecap:butt;stroke-linejoin:miter;stroke-miterlimit:4;stroke-dasharray:none;stroke-opacity:1"
       d="m 374.35186,727.84007 66.19191,65.67816 0.0636,68.12648 -65.56174,-65.28493 z"
       id="path98214"
       sodipodi:nodetypes="ccccc" />
    <path
       style="fill:#fdf162;fill-opacity:1;stroke:#000000;stroke-width:0;stroke-linecap:butt;stroke-linejoin:miter;stroke-miterlimit:4;stroke-dasharray:none;stroke-opacity:1"
       d="m 443.51906,796.63163 70.15662,69.6645 0.61279,67.26024 -70.66229,-68.73873 z"
       id="path98214-2"
       sodipodi:nodetypes="ccccc" />
    <path
       style="fill:#fce906;fill-opacity:1;stroke:#000000;stroke-width:0;stroke-linecap:butt;stroke-linejoin:miter;stroke-miterlimit:4;stroke-dasharray:none;stroke-opacity:1"
       d="m 659.39844,795.62286 68.5931,69.3451 -0.55991,67.16473 -68.09943,-67.8857 z"
       id="path98214-2-2"
       sodipodi:nodetypes="ccccc" />
    <path
       style="fill:#e6e51b;fill-opacity:1;stroke:#000000;stroke-width:0;stroke-linecap:butt;stroke-linejoin:miter;stroke-miterlimit:4;stroke-dasharray:none;stroke-opacity:1"
       d="m 947.86011,868.84601 67.80489,67.7145 0.6292,68.28319 -68.10125,-66.25649 z"
       id="path98214-2-2-3"
       sodipodi:nodetypes="ccccc" />
    <path
       style="fill:#53cf4b;fill-opacity:1;stroke:#000000;stroke-width:0;stroke-linecap:butt;stroke-linejoin:miter;stroke-miterlimit:4;stroke-dasharray:none;stroke-opacity:1"
       d="m 1018.3898,939.98234 70.0184,66.79416 1.7001,68.2333 -71.3162,-69.2422 z"
       id="path98214-2-2-3-6"
       sodipodi:nodetypes="ccccc" />
    <path
       style="fill:#5cc964;fill-opacity:1;stroke:#000000;stroke-width:0;stroke-linecap:butt;stroke-linejoin:miter;stroke-miterlimit:4;stroke-dasharray:none;stroke-opacity:1"
       d="m 233.4118,943.55403 65.8023,65.43867 0.11318,70.2377 -65.05218,-63.7734 z"
       id="path98214-2-2-3-6-1"
       sodipodi:nodetypes="ccccc" />
    <path
       style="fill:#fcf8cb;fill-opacity:1;stroke:#000000;stroke-width:0;stroke-linecap:butt;stroke-linejoin:miter;stroke-miterlimit:4;stroke-dasharray:none;stroke-opacity:1"
       d="m 234.22504,1019.065 65.7081,64.8019 -0.46293,75.2953 -65.73468,-64.6923 z"
       id="path98214-2-2-3-6-1-9"
       sodipodi:nodetypes="ccccc" />
    <path
       style="fill:#03a8f5;fill-opacity:1;stroke:#000000;stroke-width:0;stroke-linecap:butt;stroke-linejoin:miter;stroke-miterlimit:4;stroke-dasharray:none;stroke-opacity:1"
       d="m 302.72628,1086.2924 68.39339,67.6493 0.009,76.7967 -69.07362,-69.2616 z"
       id="path98214-2-2-3-6-1-3"
       sodipodi:nodetypes="ccccc" />
    <path
       style="fill:#ffeb01;fill-opacity:1;stroke:#000000;stroke-width:0;stroke-linecap:butt;stroke-linejoin:miter;stroke-miterlimit:4;stroke-dasharray:none;stroke-opacity:1"
       d="m 372.5201,1237.4248 68.39339,67.6493 0.009,76.7967 -69.07362,-69.2616 z"
       id="path98214-2-2-3-6-1-3-1"
       sodipodi:nodetypes="ccccc" />
    <path
       style="fill:#e7e312;fill-opacity:1;stroke:#000000;stroke-width:0;stroke-linecap:butt;stroke-linejoin:miter;stroke-miterlimit:4;stroke-dasharray:none;stroke-opacity:1"
       d="m 444.17639,1307.9985 68.39339,67.6493 0.009,76.7967 -69.07362,-69.2616 z"
       id="path98214-2-2-3-6-1-3-9"
       sodipodi:nodetypes="ccccc" />
    <path
       style="fill:#4cc135;fill-opacity:1;stroke:#000000;stroke-width:0;stroke-linecap:butt;stroke-linejoin:miter;stroke-miterlimit:4;stroke-dasharray:none;stroke-opacity:1"
       d="m 804.27538,1084.8107 68.48559,69.4634 0.17445,69.6342 -68.48777,-68.5382 z"
       id="path98214-2-2-3-6-1-3-9-4"
       sodipodi:nodetypes="ccccc" />
    <path
       style="fill:#f9f4ce;fill-opacity:1;stroke:#000000;stroke-width:0;stroke-linecap:butt;stroke-linejoin:miter;stroke-miterlimit:4;stroke-dasharray:none;stroke-opacity:1"
       d="m 875.12476,1156.7993 68.86868,69.0667 0.91427,71.2161 -68.7827,-69.0471 z"
       id="path98214-2-2-3-6-1-3-9-7"
       sodipodi:nodetypes="ccccc" />
    <path
       style="fill:#58c550;fill-opacity:1;stroke:#000000;stroke-width:0;stroke-linecap:butt;stroke-linejoin:miter;stroke-miterlimit:4;stroke-dasharray:none;stroke-opacity:1"
       d="m 302.43775,1012.637 69.23964,67.231 -0.619,69.5681 -68.32232,-67.1473 z"
       id="path98214-2-2-3-6-2"
       sodipodi:nodetypes="ccccc" />
    <path
       style="fill:#feee10;fill-opacity:1;stroke:#000000;stroke-width:0;stroke-linecap:butt;stroke-linejoin:miter;stroke-miterlimit:4;stroke-dasharray:none;stroke-opacity:1"
       d="m 730.10833,938.27094 70.45307,70.06796 0.34672,69.0791 -70.30312,-68.665 z"
       id="path98214-2-2-8"
       sodipodi:nodetypes="ccccc" />
    <path
       style="fill:#05a9f0;fill-opacity:1;stroke:#000000;stroke-width:0;stroke-linecap:butt;stroke-linejoin:miter;stroke-miterlimit:4;stroke-dasharray:none;stroke-opacity:1"
       d="m 730.57447,866.81613 70.45307,70.06796 0.20543,68.46481 -70.70612,-69.49538 z"
       id="path98214-2-2-8-9"
       sodipodi:nodetypes="ccccc" />
    <path
       style="fill:#53c9ef;fill-opacity:1;stroke:#000000;stroke-width:0;stroke-linecap:butt;stroke-linejoin:miter;stroke-miterlimit:4;stroke-dasharray:none;stroke-opacity:1"
       d="m 659.44816,868.13785 68.23732,67.57581 0.4291,69.83384 -67.87279,-66.6701 z"
       id="path98214-2-2-8-9-7"
       sodipodi:nodetypes="ccccc" />
    <path
       style="fill:#fdf169;fill-opacity:1;stroke:#000000;stroke-width:0;stroke-linecap:butt;stroke-linejoin:miter;stroke-miterlimit:4;stroke-dasharray:none;stroke-opacity:1"
       d="m 945.60324,794.11299 -69.12061,69.12007 0.27662,66.45441 68.65386,-68.42734 z"
       id="path160638"
       sodipodi:nodetypes="ccccc" />
    <path
       style="fill:#fee902;fill-opacity:1;stroke:#000000;stroke-width:0;stroke-linecap:butt;stroke-linejoin:miter;stroke-miterlimit:4;stroke-dasharray:none;stroke-opacity:1"
       d="m 801.77195,1085.9804 -68.66746,70.1226 0.0802,67.0663 68.67642,-69.9787 z"
       id="path160638-0"
       sodipodi:nodetypes="ccccc" />
    <path
       style="fill:#e1e016;fill-opacity:1;stroke:#000000;stroke-width:0;stroke-linecap:butt;stroke-linejoin:miter;stroke-miterlimit:4;stroke-dasharray:none;stroke-opacity:1"
       d="m 656.94813,794.11831 -69.59362,71.30246 0.0802,67.0663 69.48025,-70.45421 z"
       id="path160638-0-0"
       sodipodi:nodetypes="ccccc" />
    <path
       style="fill:#45b626;fill-opacity:1;stroke:#000000;stroke-width:0;stroke-linecap:butt;stroke-linejoin:miter;stroke-miterlimit:4;stroke-dasharray:none;stroke-opacity:1"
       d="m 657.14834,868.02459 -68.66746,70.1226 -0.23849,69.82201 68.74186,-70.08255 z"
       id="path160638-0-6"
       sodipodi:nodetypes="ccccc" />
    <path
       style="fill:#fced0d;fill-opacity:1;stroke:#000000;stroke-width:0;stroke-linecap:butt;stroke-linejoin:miter;stroke-miterlimit:4;stroke-dasharray:none;stroke-opacity:1"
       d="m 656.72188,723.672 -69.95973,71.10749 -0.30524,67.5119 70.17535,-72.65593 z"
       id="path160638-0-3"
       sodipodi:nodetypes="ccccc" />
    <path
       style="fill:#54caf0;fill-opacity:1;stroke:#000000;stroke-width:0;stroke-linecap:butt;stroke-linejoin:miter;stroke-miterlimit:4;stroke-dasharray:none;stroke-opacity:1"
       d="m 584.14741,795.3455 -67.44896,70.9831 0.3374,65.96526 67.09017,-69.21879 z"
       id="path160638-0-2"
       sodipodi:nodetypes="ccccc" />
    <path
       style="fill:#fde90b;fill-opacity:1;stroke:#000000;stroke-width:0;stroke-linecap:butt;stroke-linejoin:miter;stroke-miterlimit:4;stroke-dasharray:none;stroke-opacity:1"
       d="m 584.46141,868.28228 -67.64136,68.83389 0.43442,67.75543 67.3657,-67.70533 z"
       id="path160638-0-06"
       sodipodi:nodetypes="ccccc" />
    <path
       style="fill:#089bed;fill-opacity:1;stroke:#000000;stroke-width:0;stroke-linecap:butt;stroke-linejoin:miter;stroke-miterlimit:4;stroke-dasharray:none;stroke-opacity:1"
       d="m 584.65122,941.17352 -67.22657,67.71618 -1.36069,69.4727 68.58825,-67.1637 z"
       id="path160638-0-1"
       sodipodi:nodetypes="ccccc" />
    <path
       style="fill:#fdea01;fill-opacity:1;stroke:#000000;stroke-width:0;stroke-linecap:butt;stroke-linejoin:miter;stroke-miterlimit:4;stroke-dasharray:none;stroke-opacity:1"
       d="m 514.74977,1011.6139 -70.17773,72.2206 0.1047,70.2872 69.99249,-70.6515 z"
       id="path160638-0-5"
       sodipodi:nodetypes="ccccc" />
    <path
       style="fill:#4cc7f1;fill-opacity:1;stroke:#000000;stroke-width:0;stroke-linecap:butt;stroke-linejoin:miter;stroke-miterlimit:4;stroke-dasharray:none;stroke-opacity:1"
       d="m 514.26596,939.27635 -69.57226,71.15325 -0.17254,67.4534 70.06697,-70.0134 z"
       id="path160638-0-54"
       sodipodi:nodetypes="ccccc" />
    <path
       style="fill:#fcf5c7;fill-opacity:1;stroke:#000000;stroke-width:0;stroke-linecap:butt;stroke-linejoin:miter;stroke-miterlimit:4;stroke-dasharray:none;stroke-opacity:1"
       d="m 441.80387,1012.6486 -68.0652,68.7787 0.17493,68.9084 68.1904,-68.3297 z"
       id="path160638-0-7"
       sodipodi:nodetypes="ccccc" />
    <path
       style="fill:#dee018;fill-opacity:1;stroke:#000000;stroke-width:0;stroke-linecap:butt;stroke-linejoin:miter;stroke-miterlimit:4;stroke-dasharray:none;stroke-opacity:1"
       d="m 441.97634,1086.46 -67.99215,68.4306 0.11057,71.7619 67.68525,-69.2537 z"
       id="path160638-0-65"
       sodipodi:nodetypes="ccccc" />
    <path
       style="fill:#d2e8f3;fill-opacity:1;stroke:#000000;stroke-width:0;stroke-linecap:butt;stroke-linejoin:miter;stroke-miterlimit:4;stroke-dasharray:none;stroke-opacity:1"
       d="m 730.37128,1158.7172 -70.05182,72.0467 -0.4781,67.4481 71.05833,-71.8517 z"
       id="path160638-3"
       sodipodi:nodetypes="ccccc" />
    <path
       style="fill:#3bbc23;fill-opacity:1;stroke:#000000;stroke-width:0;stroke-linecap:butt;stroke-linejoin:miter;stroke-miterlimit:4;stroke-dasharray:none;stroke-opacity:1"
       d="m 656.90381,1233.7322 -67.94755,70.405 -0.39826,66.0278 68.49948,-69.7375 z"
       id="path160638-6"
       sodipodi:nodetypes="ccccc" />
    <path
       style="fill:#8dce1c;fill-opacity:1;stroke:#000000;stroke-width:0;stroke-linecap:butt;stroke-linejoin:miter;stroke-miterlimit:4;stroke-dasharray:none;stroke-opacity:1"
       d="m 585.85179,1306.8122 -69.15916,71.1695 -0.24438,66.7392 69.17355,-71.9937 z"
       id="path160638-1"
       sodipodi:nodetypes="ccccc" />
    <path
       style="fill:#cae7f5;fill-opacity:1;stroke:#000000;stroke-width:0;stroke-linecap:butt;stroke-linejoin:miter;stroke-miterlimit:4;stroke-dasharray:none;stroke-opacity:1"
       d="m 945.51525,866.19774 -68.86342,68.86959 0.94173,69.69837 67.4159,-68.57281 z"
       id="path160638-8"
       sodipodi:nodetypes="ccccc" />
    <path
       style="fill:#83c830;fill-opacity:1;stroke:#000000;stroke-width:0;stroke-linecap:butt;stroke-linejoin:miter;stroke-miterlimit:4;stroke-dasharray:none;stroke-opacity:1"
       d="m 873.54157,867.20725 -69.79617,70.5697 -0.0484,66.08615 70.29318,-70.8361 z"
       id="path160638-4"
       sodipodi:nodetypes="ccccc" />
    <path
       style="fill:#06b8f8;fill-opacity:1;stroke:#000000;stroke-width:0;stroke-linecap:butt;stroke-linejoin:miter;stroke-miterlimit:4;stroke-dasharray:none;stroke-opacity:1"
       d="m 874.43046,936.91029 -70.33034,71.84491 0.51107,69.4931 70.0329,-70.8224 z"
       id="path160638-5"
       sodipodi:nodetypes="ccccc" />
    <path
       d="m 223.02537,318.22505 a 0.33266651,0.33094776 1.1327586 0 0 -0.32857,0.33487 l 0.016,1.32358 a 0.33266651,0.33094776 1.1327586 0 0 0.33668,0.32689 l 9.97826,-0.11831 a 0.33266651,0.33094776 1.1327586 0 0 0.32853,-0.33482 l -0.016,-1.32358 a 0.33266651,0.33094776 1.1327586 0 0 -0.33663,-0.32694 z m 22.28477,-0.26418 a 0.33266651,0.33094776 1.1327586 0 0 -0.32861,0.33484 l 0.016,1.32356 a 0.33266651,0.33094776 1.1327586 0 0 0.33667,0.32694 l 35.25645,-0.41799 a 0.33266651,0.33094776 1.1327586 0 0 0.32858,-0.33481 l -0.0161,-1.32359 a 0.33266651,0.33094776 1.1327586 0 0 -0.33663,-0.32694 z m 47.56296,-0.56391 a 0.33266651,0.33094776 1.1327586 0 0 -0.3286,0.33484 l 0.016,1.32358 a 0.33266651,0.33094776 1.1327586 0 0 0.33666,0.32695 l 82.8194,-0.98189 a 0.33266651,0.33094776 1.1327586 0 0 0.32856,-0.33481 l -0.0158,-1.32357 a 0.33266651,0.33094776 1.1327586 0 0 -0.33667,-0.32695 z m -69.79732,4.96425 a 0.33266651,0.33094776 1.1327586 0 0 -0.3286,0.33481 l 0.016,1.32361 a 0.33266651,0.33094776 1.1327586 0 0 0.33663,0.32694 l 9.97829,-0.1183 a 0.33266651,0.33094776 1.1327586 0 0 0.32856,-0.33485 l -0.016,-1.32355 a 0.33266651,0.33094776 1.1327586 0 0 -0.33664,-0.32696 z m 22.28475,-0.26418 a 0.33266651,0.33094776 1.1327586 0 0 -0.32857,0.33479 l 0.0161,1.32361 a 0.33266651,0.33094776 1.1327586 0 0 0.33664,0.32697 l 35.25643,-0.41802 a 0.33266651,0.33094776 1.1327586 0 0 0.32857,-0.33483 l -0.016,-1.3236 a 0.33266651,0.33094776 1.1327586 0 0 -0.33664,-0.32692 z m 47.56294,-0.56391 a 0.33266651,0.33094776 1.1327586 0 0 -0.32856,0.33482 l 0.0161,1.32355 a 0.33266651,0.33094776 1.1327586 0 0 0.33664,0.32703 l 82.81941,-0.9819 a 0.33266651,0.33094776 1.1327586 0 0 0.32857,-0.33487 l -0.016,-1.32353 a 0.33266651,0.33094776 1.1327586 0 0 -0.33663,-0.32696 z m -69.7973,4.96422 a 0.33266651,0.33094776 1.1327586 0 0 -0.32858,0.33484 l 0.016,1.32361 a 0.33266651,0.33094776 1.1327586 0 0 0.33664,0.32695 l 9.97826,-0.11832 a 0.33266651,0.33094776 1.1327586 0 0 0.32857,-0.33483 l -0.016,-1.32359 a 0.33266651,0.33094776 1.1327586 0 0 -0.33661,-0.32695 z m 22.28474,-0.26419 a 0.33266651,0.33094776 1.1327586 0 0 -0.32856,0.33485 l 0.016,1.32357 a 0.33266651,0.33094776 1.1327586 0 0 0.33661,0.32693 l 35.25647,-0.41795 a 0.33266651,0.33094776 1.1327586 0 0 0.32853,-0.33484 l -0.0161,-1.32355 a 0.33266651,0.33094776 1.1327586 0 0 -0.33662,-0.32698 z m 47.56297,-0.5639 a 0.33266651,0.33094776 1.1327586 0 0 -0.32859,0.33485 l 0.0159,1.32358 a 0.33266651,0.33094776 1.1327586 0 0 0.33666,0.32694 l 82.81939,-0.98188 a 0.33266651,0.33094776 1.1327586 0 0 0.32857,-0.33483 l -0.016,-1.32356 a 0.33266651,0.33094776 1.1327586 0 0 -0.33664,-0.32698 z m -69.79732,4.96425 a 0.33266651,0.33094776 1.1327586 0 0 -0.32858,0.33483 l 0.016,1.32357 a 0.33266651,0.33094776 1.1327586 0 0 0.33662,0.32695 l 9.97827,-0.11831 a 0.33266651,0.33094776 1.1327586 0 0 0.32859,-0.33481 l -0.016,-1.32358 a 0.33266651,0.33094776 1.1327586 0 0 -0.33664,-0.32694 z m 47.56298,-0.5639 a 0.33266651,0.33094776 1.1327586 0 0 -0.3286,0.33484 l 0.016,1.32359 a 0.33266651,0.33094776 1.1327586 0 0 0.33665,0.32693 l 9.97822,-0.11831 a 0.33266651,0.33094776 1.1327586 0 0 0.3286,-0.33487 l -0.016,-1.32355 a 0.33266651,0.33094776 1.1327586 0 0 -0.33663,-0.32691 z m 47.56295,-0.56385 a 0.33266651,0.33094776 1.1327586 0 0 -0.32856,0.33483 l 0.016,1.32353 a 0.33266651,0.33094776 1.1327586 0 0 0.33663,0.32695 l 9.97823,-0.11816 a 0.33266651,0.33094776 1.1327586 0 0 0.32862,-0.33487 l -0.0158,-1.32354 a 0.33266651,0.33094776 1.1327586 0 0 -0.33664,-0.32696 z m 47.56296,-0.56391 a 0.33266651,0.33094776 1.1327586 0 0 -0.32858,0.33484 l 0.0161,1.32354 a 0.33266651,0.33094776 1.1327586 0 0 0.33667,0.32698 l 9.97824,-0.11831 a 0.33266651,0.33094776 1.1327586 0 0 0.32855,-0.33485 l -0.016,-1.32353 a 0.33266651,0.33094776 1.1327586 0 0 -0.33666,-0.32699 z m -142.63847,5.82782 a 0.33266651,0.33094776 1.1327586 0 0 -0.32858,0.33485 l 0.016,1.32353 a 0.33266651,0.33094776 1.1327586 0 0 0.33667,0.32695 l 9.97825,-0.1183 a 0.33266651,0.33094776 1.1327586 0 0 0.32856,-0.33485 l -0.0158,-1.32357 a 0.33266651,0.33094776 1.1327586 0 0 -0.3366,-0.32696 z m 47.56297,-0.5639 a 0.33266651,0.33094776 1.1327586 0 0 -0.3286,0.33483 l 0.0161,1.32357 a 0.33266651,0.33094776 1.1327586 0 0 0.33667,0.32696 l 9.97826,-0.11831 a 0.33266651,0.33094776 1.1327586 0 0 0.32856,-0.33483 l -0.016,-1.32355 a 0.33266651,0.33094776 1.1327586 0 0 -0.33664,-0.32693 z m 47.56294,-0.56387 a 0.33266651,0.33094776 1.1327586 0 0 -0.32856,0.33484 l 0.016,1.32354 a 0.33266651,0.33094776 1.1327586 0 0 0.33664,0.32694 l 9.97822,-0.11816 a 0.33266651,0.33094776 1.1327586 0 0 0.32862,-0.33484 l -0.0159,-1.32357 a 0.33266651,0.33094776 1.1327586 0 0 -0.33664,-0.32695 z m 47.56297,-0.56389 a 0.33266651,0.33094776 1.1327586 0 0 -0.32858,0.33482 l 0.016,1.32357 a 0.33266651,0.33094776 1.1327586 0 0 0.3366,0.32693 l 9.97826,-0.11831 a 0.33266651,0.33094776 1.1327586 0 0 0.32858,-0.3348 l -0.016,-1.3236 a 0.33266651,0.33094776 1.1327586 0 0 -0.33664,-0.32694 z m -142.63849,5.82783 a 0.33266651,0.33094776 1.1327586 0 0 -0.32858,0.33481 l 0.016,1.32357 a 0.33266651,0.33094776 1.1327586 0 0 0.33664,0.32693 l 9.97822,-0.11832 a 0.33266651,0.33094776 1.1327586 0 0 0.32858,-0.33483 l -0.016,-1.32358 a 0.33266651,0.33094776 1.1327586 0 0 -0.33658,-0.32694 z m 22.28471,-0.26424 a 0.33266651,0.33094776 1.1327586 0 0 -0.32851,0.33487 l 0.016,1.32354 a 0.33266651,0.33094776 1.1327586 0 0 0.33659,0.32695 l 13.96957,-0.16563 a 0.33266651,0.33094776 1.1327586 0 0 0.32854,-0.33482 l -0.0158,-1.32355 a 0.33266651,0.33094776 1.1327586 0 0 -0.33659,-0.32698 z m 25.27826,-0.29968 a 0.33266651,0.33094776 1.1327586 0 0 -0.3286,0.33485 l 0.0161,1.32357 a 0.33266651,0.33094776 1.1327586 0 0 0.33666,0.32694 l 9.97825,-0.11831 a 0.33266651,0.33094776 1.1327586 0 0 0.32856,-0.33481 l -0.016,-1.32357 a 0.33266651,0.33094776 1.1327586 0 0 -0.33664,-0.32695 z m 22.28474,-0.26421 a 0.33266651,0.33094776 1.1327586 0 0 -0.32857,0.33486 l 0.016,1.32354 a 0.33266651,0.33094776 1.1327586 0 0 0.33667,0.32696 l 13.96955,-0.16563 a 0.33266651,0.33094776 1.1327586 0 0 0.32853,-0.33483 l -0.016,-1.32355 a 0.33266651,0.33094776 1.1327586 0 0 -0.33664,-0.32695 z m 25.27822,-0.29967 a 0.33266651,0.33094776 1.1327586 0 0 -0.32858,0.33483 l 0.016,1.32355 a 0.33266651,0.33094776 1.1327586 0 0 0.33666,0.32697 l 9.97823,-0.11831 a 0.33266651,0.33094776 1.1327586 0 0 0.32853,-0.33484 l -0.016,-1.32354 a 0.33266651,0.33094776 1.1327586 0 0 -0.33661,-0.32697 z m 22.28476,-0.26418 a 0.33266651,0.33094776 1.1327586 0 0 -0.3286,0.33481 l 0.016,1.32358 a 0.33266651,0.33094776 1.1327586 0 0 0.33667,0.32696 l 13.96951,-0.16564 a 0.33266651,0.33094776 1.1327586 0 0 0.32858,-0.33487 l -0.016,-1.32354 a 0.33266651,0.33094776 1.1327586 0 0 -0.33662,-0.32694 z m 25.27817,-0.29971 a 0.33266651,0.33094776 1.1327586 0 0 -0.32854,0.33483 l 0.016,1.32355 a 0.33266651,0.33094776 1.1327586 0 0 0.33663,0.32695 l 9.9783,-0.11832 a 0.33266651,0.33094776 1.1327586 0 0 0.32852,-0.33484 l -0.0161,-1.32355 a 0.33266651,0.33094776 1.1327586 0 0 -0.33662,-0.32694 z m -142.63848,5.82785 a 0.33266651,0.33094776 1.1327586 0 0 -0.32859,0.3348 l 0.016,1.32351 a 0.33266651,0.33094776 1.1327586 0 0 0.33667,0.32701 l 9.97825,-0.11831 a 0.33266651,0.33094776 1.1327586 0 0 0.32856,-0.33487 l -0.0159,-1.32353 a 0.33266651,0.33094776 1.1327586 0 0 -0.33663,-0.32696 z m 22.28477,-0.26422 a 0.33266651,0.33094776 1.1327586 0 0 -0.32857,0.33482 l 0.016,1.32359 a 0.33266651,0.33094776 1.1327586 0 0 0.33662,0.32694 l 13.96955,-0.16561 a 0.33266651,0.33094776 1.1327586 0 0 0.32856,-0.33486 l -0.016,-1.32356 a 0.33266651,0.33094776 1.1327586 0 0 -0.33662,-0.32695 z m 25.27819,-0.29972 a 0.33266651,0.33094776 1.1327586 0 0 -0.32857,0.33483 l 0.016,1.32361 a 0.33266651,0.33094776 1.1327586 0 0 0.33662,0.32693 l 9.97825,-0.11832 a 0.33266651,0.33094776 1.1327586 0 0 0.32857,-0.33482 l -0.016,-1.32357 a 0.33266651,0.33094776 1.1327586 0 0 -0.33665,-0.32693 z m 22.28479,-0.26416 a 0.33266651,0.33094776 1.1327586 0 0 -0.32861,0.33482 l 0.016,1.32356 a 0.33266651,0.33094776 1.1327586 0 0 0.33665,0.32694 l 13.96954,-0.16562 a 0.33266651,0.33094776 1.1327586 0 0 0.32861,-0.33484 l -0.0161,-1.32357 a 0.33266651,0.33094776 1.1327586 0 0 -0.33665,-0.3269 z m 25.27818,-0.29972 a 0.33266651,0.33094776 1.1327586 0 0 -0.32859,0.33483 l 0.016,1.32357 a 0.33266651,0.33094776 1.1327586 0 0 0.33661,0.32696 l 9.97826,-0.11831 a 0.33266651,0.33094776 1.1327586 0 0 0.32854,-0.33484 l -0.016,-1.32358 a 0.33266651,0.33094776 1.1327586 0 0 -0.33665,-0.32689 z m 22.28478,-0.26416 a 0.33266651,0.33094776 1.1327586 0 0 -0.3286,0.33481 l 0.016,1.32353 a 0.33266651,0.33094776 1.1327586 0 0 0.33669,0.32699 l 13.96951,-0.16563 a 0.33266651,0.33094776 1.1327586 0 0 0.32858,-0.33488 l -0.016,-1.32352 a 0.33266651,0.33094776 1.1327586 0 0 -0.33664,-0.32695 z m 25.27815,-0.29971 a 0.33266651,0.33094776 1.1327586 0 0 -0.3285,0.33483 l 0.016,1.32353 a 0.33266651,0.33094776 1.1327586 0 0 0.33663,0.32697 l 9.97827,-0.11831 a 0.33266651,0.33094776 1.1327586 0 0 0.32858,-0.33486 l -0.016,-1.32352 a 0.33266651,0.33094776 1.1327586 0 0 -0.33661,-0.32695 z m -142.63843,5.82781 a 0.33266651,0.33094776 1.1327586 0 0 -0.32863,0.33483 l 0.016,1.32354 a 0.33266651,0.33094776 1.1327586 0 0 0.33668,0.32696 l 9.97821,-0.11831 a 0.33266651,0.33094776 1.1327586 0 0 0.32856,-0.33487 l -0.016,-1.32352 a 0.33266651,0.33094776 1.1327586 0 0 -0.33662,-0.32701 z m 22.28472,-0.26422 a 0.33266651,0.33094776 1.1327586 0 0 -0.32853,0.33484 l 0.016,1.32356 a 0.33266651,0.33094776 1.1327586 0 0 0.33663,0.32696 l 13.96958,-0.16559 a 0.33266651,0.33094776 1.1327586 0 0 0.32853,-0.33488 l -0.016,-1.32355 a 0.33266651,0.33094776 1.1327586 0 0 -0.33662,-0.32695 z m 25.27823,-0.29968 a 0.33266651,0.33094776 1.1327586 0 0 -0.32858,0.33484 l 0.016,1.32356 a 0.33266651,0.33094776 1.1327586 0 0 0.33664,0.32696 l 9.97827,-0.11831 a 0.33266651,0.33094776 1.1327586 0 0 0.32855,-0.33486 l -0.016,-1.32352 a 0.33266651,0.33094776 1.1327586 0 0 -0.33664,-0.32696 z m 22.28473,-0.26418 a 0.33266651,0.33094776 1.1327586 0 0 -0.32857,0.33481 l 0.016,1.32356 a 0.33266651,0.33094776 1.1327586 0 0 0.33661,0.32697 l 13.96953,-0.16564 a 0.33266651,0.33094776 1.1327586 0 0 0.3286,-0.33483 l -0.016,-1.32357 a 0.33266651,0.33094776 1.1327586 0 0 -0.33666,-0.32693 z m 25.27826,-0.29974 a 0.33266651,0.33094776 1.1327586 0 0 -0.32863,0.33488 l 0.016,1.32355 a 0.33266651,0.33094776 1.1327586 0 0 0.33664,0.32697 l 9.97826,-0.11831 a 0.33266651,0.33094776 1.1327586 0 0 0.32857,-0.33485 l -0.0158,-1.32358 a 0.33266651,0.33094776 1.1327586 0 0 -0.33677,-0.32696 z m 22.28474,-0.26418 a 0.33266651,0.33094776 1.1327586 0 0 -0.32865,0.33485 l 0.0161,1.32354 a 0.33266651,0.33094776 1.1327586 0 0 0.33669,0.32696 l 13.96954,-0.1656 a 0.33266651,0.33094776 1.1327586 0 0 0.32856,-0.33485 l -0.0161,-1.32357 a 0.33266651,0.33094776 1.1327586 0 0 -0.33658,-0.32693 z m 25.27819,-0.29967 a 0.33266651,0.33094776 1.1327586 0 0 -0.32856,0.33481 l 0.016,1.32357 a 0.33266651,0.33094776 1.1327586 0 0 0.33664,0.32695 l 9.97822,-0.11832 a 0.33266651,0.33094776 1.1327586 0 0 0.32863,-0.33485 l -0.016,-1.32355 a 0.33266651,0.33094776 1.1327586 0 0 -0.33662,-0.32695 z m -142.63847,5.82782 a 0.33266651,0.33094776 1.1327586 0 0 -0.32862,0.33482 l 0.016,1.32357 a 0.33266651,0.33094776 1.1327586 0 0 0.33664,0.32691 l 9.97826,-0.1183 a 0.33266651,0.33094776 1.1327586 0 0 0.32852,-0.33483 l -0.0158,-1.3236 a 0.33266651,0.33094776 1.1327586 0 0 -0.33664,-0.32692 z m 22.28472,-0.2642 a 0.33266651,0.33094776 1.1327586 0 0 -0.32857,0.33482 l 0.016,1.32357 a 0.33266651,0.33094776 1.1327586 0 0 0.33664,0.32693 l 13.96954,-0.16561 a 0.33266651,0.33094776 1.1327586 0 0 0.32854,-0.33479 l -0.016,-1.32361 a 0.33266651,0.33094776 1.1327586 0 0 -0.33662,-0.32695 z m 25.27821,-0.2997 a 0.33266651,0.33094776 1.1327586 0 0 -0.32853,0.33483 l 0.016,1.32357 a 0.33266651,0.33094776 1.1327586 0 0 0.33667,0.32693 l 9.97822,-0.11832 a 0.33266651,0.33094776 1.1327586 0 0 0.32861,-0.3348 l -0.0161,-1.32358 a 0.33266651,0.33094776 1.1327586 0 0 -0.33661,-0.32695 z m 22.28475,-0.2642 a 0.33266651,0.33094776 1.1327586 0 0 -0.32856,0.33482 l 0.016,1.32358 a 0.33266651,0.33094776 1.1327586 0 0 0.33666,0.32693 l 13.96952,-0.16561 a 0.33266651,0.33094776 1.1327586 0 0 0.32858,-0.33482 l -0.0161,-1.32358 a 0.33266651,0.33094776 1.1327586 0 0 -0.33668,-0.32693 z m 25.27823,-0.2997 a 0.33266651,0.33094776 1.1327586 0 0 -0.32859,0.33485 l 0.0159,1.32358 a 0.33266651,0.33094776 1.1327586 0 0 0.33664,0.32693 l 9.97828,-0.11831 a 0.33266651,0.33094776 1.1327586 0 0 0.32856,-0.33483 l -0.0161,-1.32358 a 0.33266651,0.33094776 1.1327586 0 0 -0.33665,-0.32691 z m 22.28477,-0.26423 a 0.33266651,0.33094776 1.1327586 0 0 -0.32861,0.33485 l 0.016,1.32358 a 0.33266651,0.33094776 1.1327586 0 0 0.33668,0.32696 l 13.96949,-0.16564 a 0.33266651,0.33094776 1.1327586 0 0 0.3286,-0.33483 l -0.016,-1.32355 a 0.33266651,0.33094776 1.1327586 0 0 -0.33663,-0.32697 z m 25.27819,-0.29964 a 0.33266651,0.33094776 1.1327586 0 0 -0.32857,0.33485 l 0.016,1.32352 a 0.33266651,0.33094776 1.1327586 0 0 0.33662,0.32696 l 9.97825,-0.11832 a 0.33266651,0.33094776 1.1327586 0 0 0.32863,-0.33482 l -0.016,-1.32357 a 0.33266651,0.33094776 1.1327586 0 0 -0.33666,-0.32696 z m -142.63853,5.82782 a 0.33266651,0.33094776 1.1327586 0 0 -0.32857,0.33484 l 0.016,1.32355 a 0.33266651,0.33094776 1.1327586 0 0 0.33662,0.32694 l 9.97828,-0.11832 a 0.33266651,0.33094776 1.1327586 0 0 0.32854,-0.33484 l -0.016,-1.32358 a 0.33266651,0.33094776 1.1327586 0 0 -0.33661,-0.32693 z m 47.56303,-0.56389 a 0.33266651,0.33094776 1.1327586 0 0 -0.32859,0.33481 l 0.016,1.32358 a 0.33266651,0.33094776 1.1327586 0 0 0.33665,0.32694 l 9.97824,-0.11831 a 0.33266651,0.33094776 1.1327586 0 0 0.3286,-0.33484 l -0.0161,-1.32355 a 0.33266651,0.33094776 1.1327586 0 0 -0.33663,-0.32698 z m 47.5629,-0.56388 a 0.33266651,0.33094776 1.1327586 0 0 -0.32853,0.33477 l 0.0158,1.32362 a 0.33266651,0.33094776 1.1327586 0 0 0.33667,0.32694 l 9.97826,-0.11831 a 0.33266651,0.33094776 1.1327586 0 0 0.32857,-0.33485 l -0.0161,-1.32358 a 0.33266651,0.33094776 1.1327586 0 0 -0.33661,-0.3269 z m 22.2848,-0.2642 a 0.33266651,0.33094776 1.1327586 0 0 -0.3286,0.3348 l 0.016,1.3236 a 0.33266651,0.33094776 1.1327586 0 0 0.33667,0.32693 l 13.96952,-0.16562 a 0.33266651,0.33094776 1.1327586 0 0 0.32856,-0.33482 l -0.0159,-1.32357 a 0.33266651,0.33094776 1.1327586 0 0 -0.33664,-0.32694 z m 25.27816,-0.29969 a 0.33266651,0.33094776 1.1327586 0 0 -0.3285,0.33482 l 0.0161,1.32356 a 0.33266651,0.33094776 1.1327586 0 0 0.33662,0.32694 l 9.97826,-0.11816 a 0.33266651,0.33094776 1.1327586 0 0 0.32854,-0.33483 l -0.0159,-1.32358 a 0.33266651,0.33094776 1.1327586 0 0 -0.33668,-0.32695 z m -142.63846,5.82782 a 0.33266651,0.33094776 1.1327586 0 0 -0.32856,0.33482 l 0.0158,1.32354 a 0.33266651,0.33094776 1.1327586 0 0 0.33665,0.32696 l 9.97828,-0.11815 a 0.33266651,0.33094776 1.1327586 0 0 0.32854,-0.33485 l -0.016,-1.32354 a 0.33266651,0.33094776 1.1327586 0 0 -0.33664,-0.32697 z m 47.56299,-0.56391 a 0.33266651,0.33094776 1.1327586 0 0 -0.32859,0.33483 l 0.016,1.32355 a 0.33266651,0.33094776 1.1327586 0 0 0.33666,0.32696 l 9.97825,-0.11832 a 0.33266651,0.33094776 1.1327586 0 0 0.32859,-0.33483 l -0.016,-1.32357 a 0.33266651,0.33094776 1.1327586 0 0 -0.33664,-0.32693 z m 47.56294,-0.56392 a 0.33266651,0.33094776 1.1327586 0 0 -0.32859,0.33486 l 0.016,1.32354 a 0.33266651,0.33094776 1.1327586 0 0 0.33665,0.32699 l 9.97823,-0.11832 a 0.33266651,0.33094776 1.1327586 0 0 0.32861,-0.33482 l -0.016,-1.32355 a 0.33266651,0.33094776 1.1327586 0 0 -0.33665,-0.32695 z m 22.28474,-0.26416 a 0.33266651,0.33094776 1.1327586 0 0 -0.32858,0.33482 l 0.0159,1.32355 a 0.33266651,0.33094776 1.1327586 0 0 0.3367,0.32697 l 13.96951,-0.1656 a 0.33266651,0.33094776 1.1327586 0 0 0.32861,-0.33487 l -0.016,-1.32351 a 0.33266651,0.33094776 1.1327586 0 0 -0.33665,-0.32695 z m 25.27822,-0.29969 a 0.33266651,0.33094776 1.1327586 0 0 -0.32859,0.33484 l 0.016,1.32354 a 0.33266651,0.33094776 1.1327586 0 0 0.33658,0.32697 l 9.97824,-0.11816 a 0.33266651,0.33094776 1.1327586 0 0 0.32857,-0.33488 l -0.0159,-1.32351 a 0.33266651,0.33094776 1.1327586 0 0 -0.33662,-0.32696 z m -142.63849,5.82779 a 0.33266651,0.33094776 1.1327586 0 0 -0.32858,0.33487 l 0.016,1.32354 a 0.33266651,0.33094776 1.1327586 0 0 0.33665,0.32695 l 152.66714,-1.80996 a 0.33266651,0.33094776 1.1327586 0 0 0.32855,-0.33484 l -0.016,-1.32355 a 0.33266651,0.33094776 1.1327586 0 0 -0.3366,-0.32695 z m 0.0503,4.13616 a 0.33266651,0.33094776 1.1327586 0 0 -0.32857,0.33485 l 0.016,1.32354 a 0.33266651,0.33094776 1.1327586 0 0 0.33665,0.32696 l 152.66715,-1.80994 a 0.33266651,0.33094776 1.1327586 0 0 0.32855,-0.33484 l -0.0159,-1.32355 a 0.33266651,0.33094776 1.1327586 0 0 -0.33657,-0.32697 z m 0.0504,4.13615 a 0.33266651,0.33094776 1.1327586 0 0 -0.32857,0.33485 l 0.016,1.32355 a 0.33266651,0.33094776 1.1327586 0 0 0.33664,0.32695 l 152.66717,-1.80997 a 0.33266651,0.33094776 1.1327586 0 0 0.32853,-0.33483 l -0.0159,-1.32359 a 0.33266651,0.33094776 1.1327586 0 0 -0.33666,-0.3269 z"
       color="#000000"
       id="path235759"
       style="fill:#00aaf1;fill-opacity:1;stroke-width:0.331772;stroke-miterlimit:9" />
    <path
       id="path250707"
       style="fill:#00aaf1;fill-opacity:1;stroke:#000000;stroke-width:0;stroke-linecap:butt;stroke-linejoin:miter;stroke-miterlimit:4;stroke-dasharray:none;stroke-opacity:1"
       d="m 418.86597,329.32512 -19.72852,0.19455 0.22749,33.9345 21.20719,0.066 c 3.84871,0.0287 7.13415,-5.27655 7.11197,-9.33596 -0.0277,-5.06527 -6.0793,-8.09674 -6.0793,-8.09674 0,0 5.2027,-3.21554 5.23519,-7.56695 0.0281,-3.77664 -2.77624,-9.14453 -7.97402,-9.19526 z m -11.88021,6.07629 10.45841,0.0749 c 1.15632,-0.0606 2.54381,2.04242 2.49936,3.75055 -0.0392,1.50549 -1.34771,3.76943 -2.86153,3.82537 h -10.09026 z m 0.007,12.91289 10.05733,0.0719 c 1.73131,0.10819 3.49507,2.98691 3.53204,5.03764 0.0337,1.86701 -1.24372,4.74861 -3.04713,4.6994 l -10.32074,0.021 z"
       sodipodi:nodetypes="ccccscsccccscccccsccc" />
    <path
       id="path250707-6"
       style="fill:#00aaf1;fill-opacity:1;stroke:#000000;stroke-width:0;stroke-linecap:butt;stroke-linejoin:miter;stroke-miterlimit:4;stroke-dasharray:none;stroke-opacity:1"
       d="m 524.05695,328.63355 -19.72852,0.19456 0.22748,33.9345 21.20719,0.066 c 3.84871,0.0288 6.98931,-5.27834 7.11197,-9.33597 0.14748,-4.87859 -6.07929,-8.09673 -6.07929,-8.09673 0,0 5.2027,-3.21555 5.23518,-7.56695 0.0281,-3.77665 -2.77623,-9.14454 -7.97401,-9.19526 z m -11.88021,6.0763 10.45841,0.0749 c 1.15632,-0.0605 2.54381,2.04241 2.49936,3.75055 -0.0392,1.50549 -1.34772,3.76943 -2.86154,3.82537 h -10.09025 z m 0.007,12.91289 10.05733,0.0719 c 1.73132,0.10819 3.49507,2.98691 3.53204,5.03763 0.0337,1.86701 -1.24371,4.74862 -3.04712,4.6994 l -10.32075,0.021 z"
       sodipodi:nodetypes="ccccscsccccscccccsccc" />
    <path
       id="path256803"
       style="fill:#00aaf1;fill-opacity:1;stroke:#000000;stroke-width:0;stroke-linecap:butt;stroke-linejoin:miter;stroke-miterlimit:4;stroke-dasharray:none;stroke-opacity:1"
       d="m 443.33597,335.73572 c -8.29774,-0.0249 -13.2884,6.04315 -13.23615,13.00866 0.0523,6.96551 5.48896,14.33192 13.49783,14.46028 8.00886,0.12842 13.77132,-5.78914 13.83357,-13.08039 0.0622,-7.29126 -5.79749,-14.36372 -14.09525,-14.38855 z m 0.33472,6.1216 c 4.42521,0.0351 7.25068,3.63654 7.25238,7.94269 8.2e-4,4.30614 -3.06319,7.28788 -7.19311,7.15254 -4.12992,-0.13533 -7.41836,-4.2411 -7.4253,-7.95428 -0.007,-3.71319 2.94081,-7.17597 7.36603,-7.14095 z"
       sodipodi:nodetypes="zzzzzzzzzz" />
    <path
       id="path256803-5"
       style="fill:#00aaf1;fill-opacity:1;stroke:#000000;stroke-width:0;stroke-linecap:butt;stroke-linejoin:miter;stroke-miterlimit:4;stroke-dasharray:none;stroke-opacity:1"
       d="m 1065.2907,331.98931 c -7.9646,-0.0248 -12.7896,6.04348 -12.7062,13.00867 0.097,8.07193 5.2703,14.5862 12.9577,14.46041 6.6715,-0.10913 10.7741,-4.66101 12.3131,-10.17224 l -6.2085,-1.09082 c -1.0144,2.64375 -2.8773,4.64459 -5.8471,4.54321 -3.9642,-0.13533 -7.1478,-2.83758 -7.13,-7.67161 0,-3.71317 2.8225,-7.45839 7.0701,-7.42338 2.7414,0.0226 4.8431,1.53209 5.9894,3.75654 l 6.0225,-0.58368 c -1.985,-4.94978 -6.5835,-8.80876 -12.461,-8.8271 z"
       sodipodi:nodetypes="sssccscsccs" />
    <path
       id="path256803-3"
       style="fill:#00aaf1;fill-opacity:1;stroke:#000000;stroke-width:0;stroke-linecap:butt;stroke-linejoin:miter;stroke-miterlimit:4;stroke-dasharray:none;stroke-opacity:1"
       d="m 549.10554,334.8557 c -7.83252,0.0661 -13.48417,6.20697 -13.40678,13.13139 0.0774,6.92443 6.13342,14.41428 13.89119,14.45388 5.47744,0.0278 9.68495,-3.13016 12.10292,-7.45372 l -6.66369,-1.59734 c -1.40062,1.65892 -3.46082,2.68308 -5.79194,2.65202 -2.97716,-0.0396 -5.24023,-2.48087 -6.27685,-5.15138 h 11.34442 l 0.0299,-0.11372 c 0,0 6.13866,0.13947 8.60559,0.19157 0.0601,-0.51976 0.0903,-1.05426 0.0899,-1.60138 -0.007,-7.99841 -6.09209,-14.57754 -13.92461,-14.51129 z m 0.29333,5.49561 c 3.42821,0.0383 6.422,2.63625 7.2826,5.90269 h -14.16109 c 0.68166,-3.03686 3.27394,-5.94295 6.87849,-5.90269 z"
       sodipodi:nodetypes="sssccscccccssccs" />
    <path
       id="path256803-3-7"
       style="fill:#00aaf1;fill-opacity:1;stroke:#000000;stroke-width:0;stroke-linecap:butt;stroke-linejoin:miter;stroke-miterlimit:4;stroke-dasharray:none;stroke-opacity:1"
       d="m 652.96197,334.40256 c -7.83253,0.0661 -13.48418,6.20699 -13.40679,13.1314 0.0773,6.92442 6.13342,14.41428 13.89119,14.45389 5.47743,0.0278 9.68495,-3.13017 12.10292,-7.45373 l -6.66368,-1.59734 c -1.40063,1.65892 -3.46084,2.68307 -5.79195,2.65203 -2.97716,-0.0396 -5.24024,-2.48087 -6.27685,-5.1514 h 11.34441 l 0.0299,-0.1137 c 0,0 6.13867,0.13945 8.60559,0.19157 0.0601,-0.51977 0.0903,-1.05428 0.0898,-1.6014 -0.007,-7.9984 -6.09208,-14.57754 -13.9246,-14.51128 z m 0.29333,5.49562 c 3.42821,0.0383 6.42199,2.63625 7.28258,5.90269 h -14.16107 c 0.68165,-3.03687 3.27394,-5.94295 6.87849,-5.90269 z"
       sodipodi:nodetypes="sssccscccccssccs" />
    <path
       id="path256803-3-4"
       style="fill:#00aaf1;fill-opacity:1;stroke:#000000;stroke-width:0;stroke-linecap:butt;stroke-linejoin:miter;stroke-miterlimit:4;stroke-dasharray:none;stroke-opacity:1"
       d="m 849.62063,333.05936 c -7.83252,0.0662 -13.48417,6.20697 -13.40678,13.13139 0.0773,6.92442 6.13341,14.41428 13.89118,14.45387 5.47744,0.028 9.68495,-3.13016 12.10293,-7.45371 l -6.6637,-1.59734 c -1.40062,1.65892 -3.46082,2.68307 -5.79194,2.65202 -2.97716,-0.0396 -5.24023,-2.48087 -6.27684,-5.15139 h 11.34441 l 0.0299,-0.11371 c 0,0 6.13867,0.13947 8.60559,0.19157 0.0601,-0.51977 0.0903,-1.05428 0.0898,-1.60139 -0.007,-7.9984 -6.09207,-14.57754 -13.92459,-14.51128 z m 0.29333,5.49561 c 3.42821,0.0383 6.422,2.63625 7.28258,5.90269 h -14.16107 c 0.68165,-3.03686 3.27394,-5.94295 6.87849,-5.90269 z"
       sodipodi:nodetypes="sssccscccccssccs" />
    <path
       style="fill:#00aaf1;fill-opacity:1;stroke:#000000;stroke-width:0;stroke-linecap:butt;stroke-linejoin:miter;stroke-miterlimit:4;stroke-dasharray:none;stroke-opacity:1"
       d="m 461.49773,329.48376 0.14207,33.39169 6.12362,0.0208 -0.094,-33.33327 z"
       id="path261829"
       sodipodi:nodetypes="ccccc" />
    <path
       id="path261829-2"
       style="fill:#00aaf1;fill-opacity:1;stroke:#000000;stroke-width:0;stroke-linecap:butt;stroke-linejoin:miter;stroke-miterlimit:4;stroke-dasharray:none;stroke-opacity:1"
       d="m 669.02251,328.22411 0.1436,33.39271 6.1212,0.021 -0.021,-7.68368 3.83619,-3.53089 6.90359,10.9362 7.40231,-0.17659 -10.20141,-14.73549 8.34484,-8.84387 -7.51907,0.0137 -8.79041,8.26076 -0.0479,-17.57638 z"
       sodipodi:nodetypes="ccccccccccccc" />
    <path
       id="path261829-5"
       style="fill:#00aaf1;fill-opacity:1;stroke:#000000;stroke-width:0;stroke-linecap:butt;stroke-linejoin:miter;stroke-miterlimit:4;stroke-dasharray:none;stroke-opacity:1"
       d="m 780.87939,326.27766 0.01,11.19176 c -1.54358,-1.39689 -4.59587,-3.65847 -8.22845,-3.69367 -5.26075,-0.051 -11.19547,5.19209 -11.12891,14.11918 0.0665,8.92709 6.20964,13.53658 11.56892,13.53847 2.91461,8.2e-4 5.78527,-1.92229 7.8034,-3.67871 l 0.003,2.52631 6.21099,0.0479 -0.066,-33.97043 z m -6.82761,13.2601 c 2.42935,-0.0273 4.80721,2.58399 6.46688,4.35183 l -0.003,6.79614 c -1.7647,1.82906 -4.35352,4.26613 -6.4454,4.30319 -3.13269,0.0555 -5.95628,-3.63763 -6.12719,-7.57592 -0.17091,-3.93829 2.34503,-7.83302 6.10923,-7.87524 z"
       sodipodi:nodetypes="ccssscccccsccsss" />
    <path
       id="path261829-4"
       style="fill:#00aaf1;fill-opacity:1;stroke:#000000;stroke-width:0;stroke-linecap:butt;stroke-linejoin:miter;stroke-miterlimit:4;stroke-dasharray:none;stroke-opacity:1"
       d="m 826.67937,326.59088 0.13717,21.37527 -15.57025,-21.03866 -6.14783,-0.12429 0.0746,33.71966 6.43427,0.0509 -0.1223,-20.67138 15.94229,20.90455 5.46153,0.007 0.0579,-34.17378 z"
       sodipodi:nodetypes="ccccccccccc" />
    <path
       style="fill:#00aaf1;fill-opacity:1;stroke:#000000;stroke-width:0;stroke-linecap:butt;stroke-linejoin:miter;stroke-miterlimit:4;stroke-dasharray:none;stroke-opacity:1"
       d="m 1014.8504,326.1892 0.1425,33.39169 6.1235,0.0208 -0.093,-33.33327 z"
       id="path261829-44"
       sodipodi:nodetypes="ccccc" />
    <path
       id="path261829-3"
       style="fill:#00aaf1;fill-opacity:1;stroke:#000000;stroke-width:0;stroke-linecap:butt;stroke-linejoin:miter;stroke-miterlimit:4;stroke-dasharray:none;stroke-opacity:1"
       d="m 475.95729,329.97541 0.0329,7.8453 h -3.93314 v 4.71439 h 3.95409 l 0.18722,15.35762 c 0.0468,3.01001 2.39573,5.00297 5.78151,4.98581 l 4.81376,-0.0188 -0.0192,-4.84262 -2.80057,8.2e-4 c -1.39789,-0.0906 -1.77625,-0.94948 -1.87842,-2.19209 l 0.0668,-13.29183 h 3.73257 v -4.71438 h -3.74755 l -0.021,-7.76449 z"
       sodipodi:nodetypes="ccccccccccccccccc" />
    <path
       style="fill:#00aaf1;fill-opacity:1;stroke:#000000;stroke-width:0;stroke-linecap:butt;stroke-linejoin:miter;stroke-miterlimit:4;stroke-dasharray:none;stroke-opacity:1"
       d="m 1087.5159,352.2576 c -1.7106,-0.0287 -3.6173,1.38051 -3.5825,3.35098 0.035,1.97048 1.6908,3.63912 3.6461,3.64231 1.9554,0.003 3.6573,-1.63354 3.6664,-3.59344 0.015,-1.95988 -2.0193,-3.37119 -3.73,-3.39985 z"
       id="path268085"
       sodipodi:nodetypes="zzzzz" />
    <path
       style="fill:#00aaf1;fill-opacity:1;stroke:#000000;stroke-width:0;stroke-linecap:butt;stroke-linejoin:miter;stroke-miterlimit:4;stroke-dasharray:none;stroke-opacity:1"
       d="m 567.92836,336.70767 -0.19208,25.41603 6.18861,-0.087 -0.0866,-14.60401 c 0.28698,-3.38639 4.76788,-7.30773 8.23479,-7.00435 l -0.0153,-3.71024 c -3.41563,0.0311 -7.06002,1.63091 -8.47626,4.03503 l 0.11786,-3.95608 z"
       id="path269001"
       sodipodi:nodetypes="ccccccccc" />
    <path
       id="path302898"
       style="fill:#00aaf1;fill-opacity:1;stroke:#000000;stroke-width:0;stroke-linecap:butt;stroke-linejoin:miter;stroke-miterlimit:4;stroke-dasharray:none;stroke-opacity:1"
       d="m 595.50693,335.04128 c -8.3502,0.0708 -10.59803,6.52002 -10.73081,8.47989 l 5.48963,0.01 c 0.0137,-0.84682 0.29141,-3.97609 5.1525,-4.03166 4.86108,-0.0557 5.03207,2.79685 5.03207,3.39426 l -0.0533,3.05668 c 0,0 -2.19325,0.43436 -6.48854,0.45723 -5.48015,0.0291 -10.52613,2.6249 -10.4165,8.52777 0.10957,5.90286 7.11267,7.87764 10.49133,7.83334 3.37866,-0.0443 6.7899,-2.35966 6.7899,-2.35966 l -0.0154,1.61935 5.80872,8.2e-4 0.0987,-19.40826 c 0.0944,-3.181 -2.80866,-7.64966 -11.15885,-7.57892 z m 5.1082,14.98871 c 0,0 0.32476,3.64257 -0.58069,4.91492 -1.03493,1.45431 -2.76396,2.14372 -5.18004,2.18357 -2.41607,0.0398 -4.41587,-0.57409 -4.49603,-3.00945 -0.0801,-2.43537 2.74653,-3.52852 4.66665,-3.63257 2.95857,0.0547 5.59011,-0.45647 5.59011,-0.45647 z"
       sodipodi:nodetypes="cccsccsssccccscsssccs" />
    <path
       id="path302898-0"
       style="fill:#00aaf1;fill-opacity:1;stroke:#000000;stroke-width:0;stroke-linecap:butt;stroke-linejoin:miter;stroke-miterlimit:4;stroke-dasharray:none;stroke-opacity:1"
       d="m 719.39478,333.66523 c -8.35019,0.0708 -10.59802,6.52003 -10.7308,8.47989 l 5.48962,0.01 c 0.0137,-0.84682 0.33074,-4.07637 5.19184,-4.13194 4.86108,-0.0557 4.99273,2.89714 4.99273,3.49455 l -0.0533,3.05669 c 0,0 -2.19323,0.43435 -6.48852,0.45722 -5.48016,0.0291 -10.52614,2.62489 -10.41651,8.52776 0.10957,5.90288 7.11267,7.87765 10.49134,7.83335 3.37867,-0.0443 6.78989,-2.35966 6.78989,-2.35966 l -0.0154,1.61935 5.80871,8.3e-4 0.0988,-19.40824 c 0.0944,-3.18102 -2.80866,-7.64967 -11.15885,-7.57894 z m 5.10821,14.98872 c 0,0 0.32476,3.64256 -0.5807,4.91492 -1.03493,1.45431 -2.76396,2.14373 -5.18003,2.18357 -2.41608,0.0399 -4.41588,-0.5741 -4.49603,-3.00946 -0.0801,-2.43536 2.74652,-3.5285 4.66664,-3.63256 2.95858,0.0547 5.59012,-0.45647 5.59012,-0.45647 z"
       sodipodi:nodetypes="cccsccsssccccscsssccs" />
    <path
       id="path302898-7"
       style="fill:#00aaf1;fill-opacity:1;stroke:#000000;stroke-width:0;stroke-linecap:butt;stroke-linejoin:miter;stroke-miterlimit:4;stroke-dasharray:none;stroke-opacity:1"
       d="m 958.20429,332.80427 c -8.35013,0.0708 -10.598,6.52002 -10.73078,8.47988 l 5.48965,0.01 c 0.014,-0.84682 0.3781,-3.94615 5.23925,-4.00172 4.86107,-0.0557 4.9453,2.76692 4.9453,3.36431 l -0.0535,3.0567 c 0,0 -2.19325,0.43435 -6.48859,0.45721 -5.4801,0.0291 -10.5261,2.6249 -10.41653,8.52778 0.10958,5.90287 7.11272,7.87765 10.49139,7.83334 3.37867,-0.0443 6.78984,-2.35966 6.78984,-2.35966 l -0.0156,1.61935 5.80867,8.2e-4 0.0981,-19.40825 c 0.0951,-3.18101 -2.8085,-7.64966 -11.15872,-7.57892 z m 5.10819,14.98871 c 0,0 0.32478,3.64257 -0.5807,4.91492 -1.03488,1.45431 -2.76391,2.14372 -5.18001,2.18357 -2.41609,0.0398 -4.41585,-0.57409 -4.49598,-3.00945 -0.0798,-2.43538 2.74647,-3.52852 4.6666,-3.63257 2.95863,0.0547 5.59009,-0.45647 5.59009,-0.45647 z"
       sodipodi:nodetypes="cccsccsssccccscsssccs" />
    <path
       style="fill:#00aaf1;fill-opacity:1;stroke:#000000;stroke-width:0;stroke-linecap:butt;stroke-linejoin:miter;stroke-miterlimit:4;stroke-dasharray:none;stroke-opacity:1"
       d="m 864.05583,335.97346 7.23306,24.43311 6.09313,-0.0521 5.08086,-13.44066 4.85932,13.42927 6.12569,0.0616 7.32961,-24.38476 -6.65983,-0.0698 -4.24941,13.62568 -4.74275,-13.78516 -6.09944,-0.054 -4.1805,13.35143 -4.66009,-13.10973 z"
       id="path307061"
       sodipodi:nodetypes="cccccccccccccc" />
    <path
       id="rect307744"
       style="opacity:1;fill:#00aaf1;fill-opacity:1;stroke:#000800;stroke-width:0;stroke-linecap:round;stroke-linejoin:round;stroke-miterlimit:4;stroke-dasharray:none"
       d="m 620.35836,339.54187 -0.0178,-2.72984 -6.37265,0.0479 v 25.18822 l 6.53428,0.20055 0.0981,-14.89575 c 0.17704,-3.20327 2.8937,-5.98115 5.87791,-6.16126 2.298,-0.13869 4.12624,2.01426 4.06801,3.62445 l 0.14789,17.00153 h 6.18106 l -0.0688,-18.67789 c 0.1015,-3.68629 -2.10851,-6.45108 -5.77149,-7.20449 -4.18497,-0.86078 -7.50391,1.08414 -10.6764,3.60668 z"
       sodipodi:nodetypes="ccccccsccccsc" />
    <path
       id="rect307744-8"
       style="opacity:1;fill:#00aaf1;fill-opacity:1;stroke:#000800;stroke-width:0;stroke-linecap:round;stroke-linejoin:round;stroke-miterlimit:4;stroke-dasharray:none"
       d="m 742.08175,339.06487 -0.0179,-2.72985 -6.37264,0.0479 v 25.18823 l 6.53429,0.20054 0.0981,-14.89574 c 0.17705,-3.20328 2.89371,-5.98116 5.8779,-6.16125 2.29801,-0.1387 4.12626,2.01425 4.06803,3.62443 l 0.14789,17.00153 h 6.18106 l -0.0688,-18.67789 c 0.1015,-3.68629 -2.10851,-6.45108 -5.7715,-7.20448 -4.18496,-0.86079 -7.5039,1.08413 -10.67639,3.60667 z"
       sodipodi:nodetypes="ccccccsccccsc" />
    <path
       id="rect307744-6"
       style="opacity:1;fill:#00aaf1;fill-opacity:1;stroke:#000800;stroke-width:0;stroke-linecap:round;stroke-linejoin:round;stroke-miterlimit:4;stroke-dasharray:none"
       d="m 981.12028,337.12087 -0.0181,-2.72984 -6.37259,0.0479 v 25.18822 l 6.53424,0.20055 0.0981,-14.89575 c 0.17704,-3.20328 2.89381,-5.98114 5.87794,-6.16125 2.29788,-0.1387 4.1262,2.01425 4.06796,3.62443 l 0.14717,17.00155 h 6.18108 l -0.0691,-18.67791 c 0.10118,-3.68629 -2.10851,-6.45107 -5.77157,-7.20448 -4.18494,-0.86079 -7.5038,1.08413 -10.67632,3.60667 z"
       sodipodi:nodetypes="ccccccsccccsc" />
    <path
       id="rect307744-88"
       style="opacity:1;fill:#00aaf1;fill-opacity:1;stroke:#000800;stroke-width:0;stroke-linecap:round;stroke-linejoin:round;stroke-miterlimit:4;stroke-dasharray:none"
       d="m 1033.2901,336.92416 -0.018,-2.72984 -6.3726,0.0479 v 25.18822 l 6.5341,0.20055 0.098,-14.89574 c 0.1772,-3.20328 2.8937,-5.98116 5.8778,-6.16127 2.2982,-0.13869 4.1264,2.01426 4.0683,3.62445 l 0.147,17.00153 h 6.181 l -0.069,-18.67789 c 0.1016,-3.68629 -2.1086,-6.45109 -5.7716,-7.2045 -4.1849,-0.86078 -7.5038,1.08414 -10.6763,3.60669 z"
       sodipodi:nodetypes="ccccccsccccsc" />
    <path
       id="rect307744-4"
       style="opacity:1;fill:#00aaf1;fill-opacity:1;stroke:#000800;stroke-width:0;stroke-linecap:round;stroke-linejoin:round;stroke-miterlimit:4;stroke-dasharray:none"
       d="m 925.62669,338.03409 c -1.84069,-2.07701 -3.11128,-3.02466 -5.66158,-3.77111 -4.18495,-0.86079 -6.73641,0.94625 -9.9089,3.46878 l -0.0178,-2.72984 -6.37264,0.0449 v 25.18821 l 6.53427,0.20056 0.0989,-14.89443 c 0.17703,-3.20328 2.89155,-5.98001 5.87575,-6.16013 1.8148,-0.10957 3.70921,1.74534 3.81549,3.36336 l 0.0369,17.52651 6.53443,-0.0527 0.11051,-15.10789 c 0.17704,-3.20328 2.21614,-5.79008 5.20564,-5.8177 2.26279,-0.0209 3.15183,2.07643 3.09359,3.68661 l 0.14958,16.99868 h 6.18103 l -0.0691,-18.67788 c 0.0551,-4.84884 -3.97366,-7.27657 -7.5364,-7.27357 -4.06627,0.003 -6.00785,2.45789 -8.06983,4.00753 z"
       sodipodi:nodetypes="ccccccccsccccsccccsc" />
  </g>
</svg>
