<?xml version="1.0" encoding="UTF-8" standalone="no"?>
<!-- Created with Inkscape (http://www.inkscape.org/) -->

<svg
   version="1.1"
   id="svg55"
   width="492.73294"
   height="140.44453"
   viewBox="0 0 492.73294 140.44453"
   sodipodi:docname="Zork-78.svg"
   inkscape:version="1.1.2 (0a00cf5339, 2022-02-04)"
   xmlns:inkscape="http://www.inkscape.org/namespaces/inkscape"
   xmlns:sodipodi="http://sodipodi.sourceforge.net/DTD/sodipodi-0.dtd"
   xmlns="http://www.w3.org/2000/svg"
   xmlns:svg="http://www.w3.org/2000/svg">
  <defs
     id="defs59" />
  <sodipodi:namedview
     id="namedview57"
     pagecolor="#ffffff"
     bordercolor="#666666"
     borderopacity="1.0"
     inkscape:pageshadow="2"
     inkscape:pageopacity="0.0"
     inkscape:pagecheckerboard="0"
     showgrid="false"
     inkscape:zoom="1.1345663"
     inkscape:cx="109.73356"
     inkscape:cy="115.46262"
     inkscape:window-width="1920"
     inkscape:window-height="1043"
     inkscape:window-x="0"
     inkscape:window-y="120"
     inkscape:window-maximized="1"
     inkscape:current-layer="g61"
     fit-margin-top="0"
     fit-margin-left="0"
     fit-margin-right="0"
     fit-margin-bottom="0" />
  <g
     inkscape:groupmode="layer"
     inkscape:label="Image"
     id="g61"
     transform="translate(-17.621957,-16.041603)">
    <path
       style="fill:none;fill-opacity:1;stroke:#000000;stroke-width:2.5;stroke-linecap:square;stroke-linejoin:miter;stroke-miterlimit:5.6;stroke-dasharray:none;stroke-opacity:1"
       d="m 19.046417,17.553179 c 37.395508,-0.08614 74.791015,-0.172291 112.186523,-0.258436 -0.42468,4.970131 0.0233,10.088383 -1.86181,14.810621 -2.47408,8.644464 -5.61135,15.477779 -10.94709,22.44635 -5.18333,6.254415 -10.41383,12.46937 -16.6632,17.721467 -12.313802,8.970516 -19.260112,12.909265 -29.630677,19.674413 -2.655077,1.695238 -4.879129,3.762569 -6.512999,6.454783 -3.035788,3.493643 -4.745934,8.292453 -5.707179,12.306393 -1.218562,4.98934 -2.273073,13.08031 -2.201836,19.91237 10.069907,-0.0838 21.329704,-0.1886 30.331822,-0.20373 -0.03048,-6.85741 -0.06095,-13.71481 -0.09143,-20.57222 6.709114,-4.22899 13.880539,-7.63494 20.707179,-11.648069 5.01303,-2.876495 9.92729,-6.001089 13.85189,-10.303643 2.39979,-1.965849 3.69139,-4.753838 5.15791,-7.412062 -0.34971,4.642382 -0.63583,10.098806 -0.98554,14.741188 0.8889,-1.614304 1.17591,-2.141257 1.98511,-3.396612 -0.18067,15.168058 -0.24111,32.120638 -0.42178,47.288698 -35.94087,-0.1203 -71.881739,-0.24059 -107.822609,-0.36089 -0.06277,-5.42392 -0.311884,-10.86128 0.882235,-16.19453 2.231163,-11.04227 5.94432,-21.06185 11.450101,-29.95901 2.596255,-3.951141 5.431509,-7.502394 9.180632,-10.434239 5.095865,-4.461063 10.752104,-7.616772 16.856233,-11.680508 7.942995,-5.068995 16.912427,-11.655712 22.678675,-16.865764 5.315872,-5.173292 10.583578,-10.743502 12.451633,-18.04362 0.447605,-2.985955 0.225206,-6.085243 0.412071,-9.115303 -11.445024,0.02167 -22.890047,0.04335 -34.335071,0.06502 0.0349,6.880588 0.06979,13.761175 0.104687,20.641763 -8.428483,1.651658 -10.928056,3.275375 -15.76518,5.922977 -8.032643,4.945166 -14.06166,10.287651 -17.648562,14.749549 -1.505716,2.072852 -5.123128,7.890286 -6.187595,10.194661 l 0.695658,-13.052061 c -0.700243,1.358564 -1.146979,2.002237 -2.303909,4.12947 0.06973,-16.975181 0.08438,-34.583845 0.154108,-51.559026 z"
       id="path402"
       sodipodi:nodetypes="ccccccccccccccccccccccccccccccccc" />
    <path
       style="fill:none;stroke:#000000;stroke-width:1.5;stroke-linecap:round;stroke-linejoin:miter;stroke-miterlimit:4;stroke-dasharray:none;stroke-opacity:1"
       d="m 471.75491,154.90346 c -0.0278,-2.52716 -0.0615,-5.26248 -0.0893,-7.78964 0.88486,-0.16451 2.29776,-0.11203 2.29776,-0.11203 1.0917,-0.0181 1.59233,0.37375 1.90171,1.30101 0.075,1.66716 -0.78101,2.32342 -2.03702,2.73086 0,0 -1.49727,0.32145 -2.09267,0.28602"
       id="path3168"
       sodipodi:nodetypes="cccccc" />
    <path
       style="fill:none;stroke:#000000;stroke-width:1.5;stroke-linecap:butt;stroke-linejoin:miter;stroke-miterlimit:4;stroke-dasharray:none;stroke-opacity:1"
       d="m 478.51416,155.13306 c 0.0317,-2.51848 0.0633,-5.03697 0.095,-7.55545 0.80844,0.29486 1.45139,0.43584 2.25564,1.05425 0.89769,0.81898 1.64344,1.60313 1.95595,2.79438 0.11392,1.16717 0.006,1.40017 -0.3627,2.22086 -0.61324,0.91117 -1.18334,1.11012 -2.1803,1.35579 -0.61049,0.10231 -1.19751,0.13578 -1.76359,0.13018 z"
       id="path3170"
       sodipodi:nodetypes="scccccss" />
    <path
       style="fill:none;stroke:#000000;stroke-width:1.5;stroke-linecap:round;stroke-linejoin:miter;stroke-miterlimit:4;stroke-dasharray:none;stroke-opacity:1"
       d="m 486.99009,148.27713 c -0.43338,1.60232 -0.63442,2.14202 -0.84156,3.30437 -0.25479,1.41833 -0.27978,1.33724 -0.42078,3.06865 l 4.55195,-0.009"
       id="path3172"
       sodipodi:nodetypes="cccc" />
    <path
       style="fill:none;stroke:#000000;stroke-width:1.5;stroke-linecap:round;stroke-linejoin:miter;stroke-miterlimit:4;stroke-dasharray:none;stroke-opacity:1"
       d="m 496.38004,148.36732 c 0.32762,-0.49124 0.73887,-0.51572 1.17216,-0.57302 1.19581,-0.0718 1.81923,-0.0651 3.02508,-0.07 -0.13529,1.322 -0.18879,2.56561 -0.62465,3.9397 -0.33848,1.42307 -0.77922,2.4554 -1.27822,3.66996"
       id="path3174"
       sodipodi:nodetypes="ccccc" />
    <path
       style="fill:none;stroke:#000000;stroke-width:1.5;stroke-linecap:butt;stroke-linejoin:miter;stroke-miterlimit:4;stroke-dasharray:none;stroke-opacity:1"
       d="m 507.51365,147.37265 c -1.07884,-0.0234 -2.4384,0.92772 -2.76954,1.7797 -0.11039,0.60308 0.35468,1.21832 0.78416,1.48628 0.89899,0.34918 1.98772,0.63742 2.60123,0.87731 0.5241,0.30446 1.29945,0.73837 1.46114,1.54875 0.083,0.67579 -0.23131,1.50509 -0.93324,1.95548 -0.73154,0.43792 -1.62221,0.73498 -2.5193,0.71499 -0.99095,-0.0332 -1.6769,-0.20966 -2.29678,-0.67756 -0.46962,-0.37465 -0.64075,-0.98289 -0.57833,-1.71005 0.51562,-1.26233 1.59586,-1.79965 2.60017,-2.06011 0.71874,-0.23461 1.58183,-0.44681 2.26787,-0.73286 0.62548,-0.30302 1.30739,-0.7837 1.32382,-1.53657 -0.15475,-0.9161 -1.24475,-1.64357 -1.9412,-1.64536 z"
       id="path3176"
       sodipodi:nodetypes="ccccccccccccc" />
    <path
       id="path3259"
       style="fill:none;fill-opacity:1;stroke:#000000;stroke-width:2.5;stroke-linecap:butt;stroke-linejoin:miter;stroke-miterlimit:4;stroke-dasharray:none;stroke-opacity:1"
       d="m 159.60547,17.730469 c -3.57027,-0.05915 -7.47363,0.28908 -10.58413,2.678513 -2.48441,1.932107 -4.25563,4.713812 -5.27131,7.808972 -2.1756,5.536681 -2.80165,11.563034 -2.46978,17.479483 0.25386,26.058332 0.33933,52.1261 0.69841,78.178533 0.37208,3.42643 0.47345,7.18705 2.31133,10.14542 1.72769,1.93938 3.19117,3.61737 5.84982,4.67782 2.84353,1.1614 6.51597,1.21072 9.70028,1.17391 2.62389,-0.17192 2.44377,-0.80909 5.82275,-0.8019 4.52749,0.01 7.74598,0.0879 11.9296,0.0282 20.00221,0.0901 39.258,0.56479 59.25771,0.46622 4.4103,-0.41153 5.63271,-4.40839 7.67614,-8.44477 1.76339,-4.03233 2.90126,-8.17882 2.99533,-13.24265 -0.24396,-25.787819 -0.71132,-51.63879 -1.16048,-77.701957 -0.62749,-7.683947 -0.27715,-11.175692 -3.90152,-16.543229 -4.49538,-4.560513 -8.73474,-5.60743 -12.18649,-5.8229 l -70.66766,-0.07971 z m 40.02067,9.552611 c 2.68114,-0.05014 5.14356,-0.42747 7.25116,1.079523 1.76054,1.601341 2.63938,4.325566 2.49127,7.547804 -1.23896,32.644231 -1.01745,61.188425 -1.40567,91.847683 -0.004,2.78584 -1.86935,3.97364 -4.08884,3.92683 -6.01583,0.36957 -11.93665,0.44611 -17.68865,0.33299 -2.97822,-0.002 -5.94919,-1.35236 -6.1655,-6.08555 -0.3774,-32.166873 0.56679,-64.57374 0.97601,-93.142972 0.62109,-4.723392 3.56134,-4.965466 7.70725,-5.115354 z"
       sodipodi:nodetypes="scccccccsccccccccscccccccccc" />
    <path
       id="path4047"
       style="fill:none;fill-opacity:1;stroke:#000000;stroke-width:2.5;stroke-linecap:butt;stroke-linejoin:miter;stroke-miterlimit:4;stroke-dasharray:none;stroke-opacity:1"
       d="m 316.19062,18.214581 c -18.00043,0.0018 -35.64527,-0.144058 -53.6457,-0.142258 l 1.48565,122.112497 c 13.69466,-0.0397 27.63024,-0.12747 41.3249,-0.16717 0.0469,-17.86393 0.0937,-35.72787 0.14062,-53.591802 2.3138,-0.04297 4.62761,-0.08594 6.94141,-0.128906 2.04818,18.843008 3.71447,35.474738 5.3782,53.508058 14.20313,-0.0345 29.17258,0.0831 43.37571,0.0486 -0.015,-5.26432 -0.0299,-10.52865 -0.0449,-15.79297 -4.63235,0.11519 -9.94755,0.12316 -13.55993,-3.18642 -5.32915,-5.12237 -9.26849,-13.15769 -9.2195,-19.70536 -0.11165,-4.791255 -0.39808,-9.405645 -0.39144,-14.157072 0.33981,-1.960128 1.5826,-2.994425 3.96211,-3.654966 3.75598,-1.27258 7.07376,-2.789494 9.81045,-6.05305 3.62042,-4.55252 7.45064,-9.479324 8.20422,-15.401374 0.36093,-4.39557 0.15512,-8.3041 -0.95878,-12.325307 -1.68276,-6.513022 -4.43266,-12.715665 -8.20438,-18.290956 -1.92118,-3.023372 -4.83806,-5.337674 -7.53377,-7.669348 -4.20943,-3.343698 -4.15995,-4.291468 -11.22534,-6.003813 -7.26313,-0.766757 -9.83754,0.365917 -15.83953,0.601637 z m -4.1125,10.066669 c 2.73524,0.227936 2.95969,5.37595 3.03335,8.302088 0.0742,7.853659 0.15677,14.549384 -0.003,22.219487 -0.41873,4.38703 -1.13583,7.826096 -4.60973,8.332457 -1.41387,0.03256 -2.43233,0.04092 -5.0794,-0.01887 0.0391,-12.604885 0.046,-26.193172 0.085,-38.798057 2.99881,-0.01315 5.45589,-0.05702 6.57421,-0.03711 z"
       sodipodi:nodetypes="scccccccccccccccccccsccccccsc" />
    <path
       style="fill:none;fill-opacity:1;stroke:#000000;stroke-width:2.5;stroke-linecap:butt;stroke-linejoin:miter;stroke-miterlimit:4;stroke-dasharray:none;stroke-opacity:1"
       d="m 370.04867,18.398439 c 15.70243,-0.04385 31.40485,-0.08771 47.10728,-0.131562 0.1016,16.084209 0.20321,32.168419 0.30481,48.252628 3.68696,-1.052308 9.69691,-3.613067 13.41031,-7.00246 7.98953,-7.227505 12.83286,-14.163071 15.73408,-23.46513 1.25276,-5.879661 0.61186,-11.874831 0.599,-17.831692 15.90371,-0.0177 31.80741,-0.03541 47.71112,-0.05311 -0.14683,5.057939 0.27469,9.256649 -0.36492,14.282492 -4.14187,10.392329 -11.35272,18.486108 -19.0619,25.704402 -12.43784,9.644147 -21.19632,15.913583 -37.28554,20.618071 11.97175,5.22345 22.69687,12.183657 33.07861,20.023855 5.54062,5.306937 11.91794,9.809687 16.84391,15.708787 3.41206,4.77393 6.65709,10.29035 6.09869,16.38342 l -0.17815,11.55008 -51.00523,-1.24155 c 1.87184,-18.19723 -4.87363,-26.96613 -16.49291,-39.16194 -2.7254,-2.464943 -5.67592,-4.627978 -8.80544,-6.550944 -0.0445,15.240344 -0.46536,30.186384 -0.50989,45.426734 -15.62873,-0.124 -30.88111,0.0463 -46.50984,-0.0777 -0.22466,-40.81147 -0.44933,-81.622934 -0.67399,-122.434401 z"
       id="path9065"
       sodipodi:nodetypes="ccccccccccccccccccccc" />
  </g>
</svg>
