<?xml version="1.0" standalone="no"?>
<!DOCTYPE svg PUBLIC "-//W3C//DTD SVG 20010904//EN"
 "http://www.w3.org/TR/2001/REC-SVG-20010904/DTD/svg10.dtd">
<svg version="1.0" xmlns="http://www.w3.org/2000/svg"
 width="468pt" height="525pt" viewBox="0 0 468 525"
 preserveAspectRatio="xMidYMid meet">
<metadata>
Created by potrace 1.9, written by Peter Selinger 2001-2010
</metadata>
<g transform="translate(0,525) scale(0.126486,-0.126486)"
fill="#000000" stroke="none">
<path d="M288 3790 c-26 -3 -50 -9 -54 -12 -12 -13 -5 -2850 7 -2865 9 -11
178 -13 933 -13 594 0 953 4 1011 11 106 12 322 74 434 123 44 19 117 58 161
86 74 45 104 67 205 150 71 58 165 163 234 260 74 105 171 283 171 315 0 9 9
37 19 63 65 161 91 473 56 678 -35 204 -119 417 -219 552 -25 34 -46 65 -46
70 0 4 -20 28 -45 54 -25 27 -45 52 -45 57 0 9 -88 89 -180 163 -146 118 -322
209 -500 258 -211 58 -145 55 -1160 55 -514 0 -956 -2 -982 -5z m1310 -392
c31 -17 69 -42 84 -54 15 -12 60 -41 100 -63 65 -37 200 -129 471 -322 48 -34
87 -66 87 -71 0 -4 5 -8 11 -8 5 0 42 -21 82 -46 105 -67 268 -178 382 -259
55 -39 146 -104 203 -144 56 -39 102 -75 102 -79 0 -7 -68 -57 -220 -162 -47
-33 -98 -69 -115 -80 -16 -12 -79 -56 -140 -99 -60 -42 -138 -94 -172 -114
-33 -21 -101 -68 -150 -105 -48 -37 -124 -92 -168 -122 -44 -30 -88 -59 -97
-65 -9 -5 -66 -44 -125 -86 -59 -42 -135 -91 -168 -108 -32 -18 -75 -45 -95
-60 -19 -16 -59 -40 -88 -55 -29 -15 -57 -24 -62 -21 -11 7 -14 2054 -4 2118
4 20 11 37 15 37 5 0 35 -14 67 -32z"/>
<path d="M263 633 l-32 -4 -3 -222 c-2 -122 -1 -225 2 -229 10 -14 137 -19
205 -8 129 21 204 104 205 226 0 177 -141 266 -377 237z m170 -64 c107 -29
164 -171 104 -260 -12 -18 -38 -44 -57 -57 -29 -19 -45 -22 -100 -20 l-65 3 0
163 c0 134 3 164 15 172 8 5 26 10 40 10 14 0 42 -5 63 -11z"/>
<path d="M2250 629 c-70 -11 -97 -25 -151 -79 l-50 -50 -10 28 c-14 37 -48 72
-86 88 -44 19 -226 19 -242 1 -6 -8 -8 -16 -5 -19 7 -8 5 -351 -2 -400 l-7
-38 63 0 62 0 -6 27 c-10 39 -10 40 -8 205 2 118 5 150 18 162 8 9 29 16 45
16 21 0 41 -10 61 -30 25 -26 29 -36 24 -63 -3 -18 -21 -46 -42 -66 -48 -45
-33 -60 32 -32 27 12 56 29 66 38 17 15 18 13 18 -33 0 -62 37 -141 86 -183
73 -65 195 -76 291 -27 52 26 126 99 138 135 14 46 27 7 24 -73 l-4 -81 30 -3
c17 -1 35 1 41 5 8 6 13 79 15 238 l4 230 -40 0 -40 0 -5 -105 c-5 -101 -5
-104 -17 -65 -36 116 -172 194 -303 174z m117 -78 c37 -23 78 -90 87 -143 9
-53 -9 -111 -47 -151 -18 -19 -49 -39 -69 -45 -44 -12 -124 1 -151 26 -27 23
-67 111 -67 146 0 49 22 107 54 138 16 17 39 34 50 38 12 5 41 9 66 9 28 1 57
-6 77 -18z"/>
<path d="M773 618 c-4 -7 -17 -43 -30 -79 -12 -37 -37 -98 -55 -135 -19 -38
-42 -91 -52 -118 -11 -27 -25 -61 -32 -75 -11 -22 -11 -28 0 -40 29 -28 60 -6
79 56 11 32 26 68 33 81 14 21 21 23 97 20 l81 -3 20 -50 c10 -27 22 -63 25
-80 6 -25 12 -31 40 -33 19 -2 38 1 43 6 9 9 -13 78 -57 177 -14 32 -73 197
-82 230 -10 35 -35 55 -69 55 -18 0 -36 -6 -41 -12z m67 -144 c11 -25 20 -54
20 -65 0 -16 -7 -19 -49 -19 -28 0 -52 4 -56 9 -3 5 6 35 20 65 14 31 30 56
36 56 5 0 19 -21 29 -46z"/>
<path d="M980 615 c-6 -8 -10 -22 -8 -32 3 -15 12 -17 45 -15 23 2 51 -2 63
-8 20 -11 21 -17 19 -203 l-1 -192 37 0 37 0 1 193 c2 159 5 194 17 202 8 6
35 9 60 7 41 -2 45 0 48 22 2 13 -2 28 -10 32 -7 5 -77 9 -154 9 -112 0 -144
-3 -154 -15z"/>
<path d="M1412 614 c-12 -8 -22 -21 -22 -29 0 -8 -9 -31 -19 -52 -32 -62 -60
-128 -91 -213 -16 -44 -37 -94 -46 -111 -19 -37 -9 -52 32 -47 25 3 30 8 35
40 3 21 14 56 24 78 l18 40 87 0 87 0 21 -58 c11 -31 22 -66 24 -77 2 -15 14
-21 46 -26 64 -8 69 0 42 68 -13 32 -31 69 -40 83 -22 34 -65 140 -91 225 -12
39 -26 76 -31 83 -14 17 -49 15 -76 -4z m63 -146 c8 -28 15 -57 15 -64 0 -6
-9 -14 -21 -17 -11 -3 -36 -3 -55 0 -39 6 -39 13 2 88 14 25 30 45 34 45 5 0
16 -23 25 -52z"/>
<path d="M2726 611 c-4 -5 -2 -20 3 -33 11 -29 3 -341 -9 -380 -7 -23 -5 -30
11 -39 12 -6 31 -8 42 -5 21 5 22 9 19 134 -2 70 0 144 5 162 l9 34 116 -144
c146 -182 185 -218 205 -187 4 7 11 100 14 207 4 107 10 207 14 222 6 24 4 28
-20 34 -31 8 -62 -7 -57 -28 9 -31 1 -263 -9 -273 -7 -7 -22 4 -49 33 -22 23
-78 94 -125 157 -84 113 -86 115 -125 115 -21 0 -41 -4 -44 -9z"/>
<path d="M3206 607 c-26 -19 -17 -53 14 -50 14 1 42 0 63 -3 l38 -6 -2 -196
-2 -197 41 0 42 0 3 188 c2 175 4 190 22 204 14 10 33 12 62 8 34 -5 44 -3 52
13 22 40 1 47 -161 50 -118 2 -157 0 -172 -11z"/>
</g>
</svg>
