<?xml version="1.0" encoding="UTF-8" standalone="no"?>
<!-- Created with Inkscape (http://www.inkscape.org/) -->
<svg xmlns:dc="http://purl.org/dc/elements/1.1/" xmlns:cc="http://creativecommons.org/ns#" xmlns:rdf="http://www.w3.org/1999/02/22-rdf-syntax-ns#" xmlns:svg="http://www.w3.org/2000/svg" xmlns="http://www.w3.org/2000/svg" xmlns:sodipodi="http://sodipodi.sourceforge.net/DTD/sodipodi-0.dtd" xmlns:inkscape="http://www.inkscape.org/namespaces/inkscape" width="450" height="450" id="svg2393" sodipodi:version="0.32" inkscape:version="0.46" sodipodi:docname="QZ small.svg" inkscape:output_extension="org.inkscape.output.svg.inkscape" version="1.0">
  <metadata id="metadata11">
    <rdf:RDF>
      <cc:Work rdf:about="">
        <dc:format>image/svg+xml</dc:format>
        <dc:type rdf:resource="http://purl.org/dc/dcmitype/StillImage"/>
      </cc:Work>
    </rdf:RDF>
  </metadata>
  <defs id="defs3">
    <inkscape:perspective sodipodi:type="inkscape:persp3d" inkscape:vp_x="0 : 540 : 1" inkscape:vp_y="0 : 1000 : 0" inkscape:vp_z="1920 : 540 : 1" inkscape:persp3d-origin="960 : 360 : 1" id="perspective13"/>
  </defs>
  <sodipodi:namedview inkscape:zoom="0.6" inkscape:cx="517.25126" inkscape:cy="264.61844" inkscape:window-width="1024" inkscape:window-height="701" inkscape:window-x="0" inkscape:window-y="0" inkscape:current-layer="layer1" id="namedview5" showgrid="false"/>
  <g id="layer1" inkscape:groupmode="layer">
    <g id="g2383" transform="matrix(1.0997577,0,0,1.0997577,-843.28964,-10.500936)">
      <g transform="translate(0,-268.70058)" id="g2470">
        <rect y="347.49527" x="841.49896" height="269.66467" width="256.76028" id="rect2386" style="fill:#ffffff"/>
        <path id="path2474" d="M 966.7675,674.33951 C 960.94066,674.05797 952.81839,673.44527 948.71802,672.97795 C 940.73991,672.06868 920.95125,667.33046 910.65716,663.86462 C 901.88982,660.91279 877.45491,648.78972 869.45726,643.4238 C 848.96467,629.67451 827.86835,606.9067 811.64156,581.02718 C 801.29905,564.5323 791.65898,539.45454 787.90003,519.26565 C 783.38152,494.99736 783.8356,462.11722 789.02438,437.84985 C 792.89427,419.75077 801.65902,397.24428 811.18114,380.95475 C 819.51992,366.68965 837.89351,344.28806 849.55119,334.17295 C 889.96053,299.11068 944.68977,283.72004 995.41124,293.15505 C 1018.734,297.49346 1032.0995,301.79985 1049.9521,310.72831 C 1068.7269,320.118 1078.5855,327.21166 1094.5716,342.83396 C 1112.1646,360.0265 1123.213,375.17069 1133.5467,396.25757 C 1146.3435,422.37056 1151.1883,439.43294 1153.6014,466.88597 C 1157.0404,506.01031 1152.2076,535.59962 1136.939,568.90476 C 1129.1941,585.79869 1125.3971,591.80172 1109.6979,611.97329 C 1106.4573,616.13706 1106.3358,616.4734 1107.4679,618.1456 C 1108.1265,619.11831 1120.0018,631.55707 1133.8575,645.78728 C 1147.7132,660.01749 1158.9295,672.02432 1158.7827,672.46912 C 1158.6346,672.91747 1154.3473,673.54359 1149.1613,673.87419 C 1137.3371,674.62801 980.99324,675.02687 966.7675,674.33951 z M 1092.5876,615.19214 C 1095.2566,614.85648 1097.3318,614.1751 1097.5692,613.55651 C 1098.0119,612.4029 1067.7948,580.00313 1057.0233,570.0819 C 1046.8909,560.74925 1051.883,561.49388 999.28882,561.47012 C 961.51879,561.45306 953.46982,561.26183 952.2255,560.35192 C 950.57013,559.14152 950.18387,559.78888 965.61924,537.90675 C 974.37732,525.49072 1001.9692,485.62637 1013.0683,469.3532 C 1018.4636,461.44284 1026.0561,450.48868 1029.9407,445.01062 C 1048.9158,418.25172 1093.1139,352.06444 1093.1139,350.4079 C 1093.1139,349.26514 1092.2143,348.90915 1088.2902,348.49901 C 1081.928,347.83403 852.94819,347.97989 847.88531,348.65215 C 844.97808,349.03818 843.90037,349.53819 843.69822,350.59489 C 843.37333,352.29325 888.85135,398.41979 892.12262,399.70974 C 893.38961,400.20938 912.37241,400.75586 941.64529,401.13541 C 985.69269,401.70653 989.13206,401.8485 989.37337,403.10541 C 989.52169,403.8783 985.12139,410.78636 979.1259,419.19299 C 952.80379,456.10039 940.76542,473.40385 920.55738,503.37731 C 908.95823,520.5816 907.36737,522.85422 886.77213,551.64005 C 867.56293,578.48867 866.50358,580.00404 855.59079,596.24432 C 849.83724,604.8068 845.1297,612.29352 845.1297,612.88147 C 845.1297,613.46942 845.63446,614.23288 846.25136,614.57804 C 847.67224,615.37306 1086.4166,615.96822 1092.5876,615.19214 z" style="fill:#b20000"/>
      </g>
    </g>
  </g>
</svg>