<?xml version="1.0" encoding="UTF-8" standalone="no"?>
<!-- Created with Inkscape (http://www.inkscape.org/) -->
<svg xmlns:dc="http://purl.org/dc/elements/1.1/" xmlns:cc="http://creativecommons.org/ns#" xmlns:rdf="http://www.w3.org/1999/02/22-rdf-syntax-ns#" xmlns:svg="http://www.w3.org/2000/svg" xmlns="http://www.w3.org/2000/svg" xmlns:sodipodi="http://sodipodi.sourceforge.net/DTD/sodipodi-0.dtd" xmlns:inkscape="http://www.inkscape.org/namespaces/inkscape" width="1920" height="600" id="svg2393" sodipodi:version="0.32" inkscape:version="0.46" sodipodi:docname="QZ.svg" inkscape:output_extension="org.inkscape.output.svg.inkscape" version="1.0">
  <metadata id="metadata11">
    <rdf:RDF>
      <cc:Work rdf:about="">
        <dc:format>image/svg+xml</dc:format>
        <dc:type rdf:resource="http://purl.org/dc/dcmitype/StillImage"/>
      </cc:Work>
    </rdf:RDF>
  </metadata>
  <defs id="defs3">
    <inkscape:perspective sodipodi:type="inkscape:persp3d" inkscape:vp_x="0 : 540 : 1" inkscape:vp_y="0 : 1000 : 0" inkscape:vp_z="1920 : 540 : 1" inkscape:persp3d-origin="960 : 360 : 1" id="perspective13"/>
  </defs>
  <sodipodi:namedview inkscape:zoom="0.42426407" inkscape:cx="861.84574" inkscape:cy="117.95177" inkscape:window-width="1024" inkscape:window-height="701" inkscape:window-x="0" inkscape:window-y="0" inkscape:current-layer="layer1" id="namedview5" showgrid="false"/>
  <g id="layer1" inkscape:groupmode="layer">
    <g id="g2470" transform="translate(0,-268.70058)">
      <rect style="fill:#ffffff" id="rect2386" width="1918.6165" height="598.68378" x="0.58925557" y="269.42758"/>
      <path style="fill:#b20000" d="M 966.7675,674.33951 C 960.94066,674.05797 952.81839,673.44527 948.71802,672.97795 C 940.73991,672.06868 920.95125,667.33046 910.65716,663.86462 C 901.88982,660.91279 877.45491,648.78972 869.45726,643.4238 C 848.96467,629.67451 827.86835,606.9067 811.64156,581.02718 C 801.29905,564.5323 791.65898,539.45454 787.90003,519.26565 C 783.38152,494.99736 783.8356,462.11722 789.02438,437.84985 C 792.89427,419.75077 801.65902,397.24428 811.18114,380.95475 C 819.51992,366.68965 837.89351,344.28806 849.55119,334.17295 C 889.96053,299.11068 944.68977,283.72004 995.41124,293.15505 C 1018.734,297.49346 1032.0995,301.79985 1049.9521,310.72831 C 1068.7269,320.118 1078.5855,327.21166 1094.5716,342.83396 C 1112.1646,360.0265 1123.213,375.17069 1133.5467,396.25757 C 1146.3435,422.37056 1151.1883,439.43294 1153.6014,466.88597 C 1157.0404,506.01031 1152.2076,535.59962 1136.939,568.90476 C 1129.1941,585.79869 1125.3971,591.80172 1109.6979,611.97329 C 1106.4573,616.13706 1106.3358,616.4734 1107.4679,618.1456 C 1108.1265,619.11831 1120.0018,631.55707 1133.8575,645.78728 C 1147.7132,660.01749 1158.9295,672.02432 1158.7827,672.46912 C 1158.6346,672.91747 1154.3473,673.54359 1149.1613,673.87419 C 1137.3371,674.62801 980.99324,675.02687 966.7675,674.33951 z M 1092.5876,615.19214 C 1095.2566,614.85648 1097.3318,614.1751 1097.5692,613.55651 C 1098.0119,612.4029 1067.7948,580.00313 1057.0233,570.0819 C 1046.8909,560.74925 1051.883,561.49388 999.28882,561.47012 C 961.51879,561.45306 953.46982,561.26183 952.2255,560.35192 C 950.57013,559.14152 950.18387,559.78888 965.61924,537.90675 C 974.37732,525.49072 1001.9692,485.62637 1013.0683,469.3532 C 1018.4636,461.44284 1026.0561,450.48868 1029.9407,445.01062 C 1048.9158,418.25172 1093.1139,352.06444 1093.1139,350.4079 C 1093.1139,349.26514 1092.2143,348.90915 1088.2902,348.49901 C 1081.928,347.83403 852.94819,347.97989 847.88531,348.65215 C 844.97808,349.03818 843.90037,349.53819 843.69822,350.59489 C 843.37333,352.29325 888.85135,398.41979 892.12262,399.70974 C 893.38961,400.20938 912.37241,400.75586 941.64529,401.13541 C 985.69269,401.70653 989.13206,401.8485 989.37337,403.10541 C 989.52169,403.8783 985.12139,410.78636 979.1259,419.19299 C 952.80379,456.10039 940.76542,473.40385 920.55738,503.37731 C 908.95823,520.5816 907.36737,522.85422 886.77213,551.64005 C 867.56293,578.48867 866.50358,580.00404 855.59079,596.24432 C 849.83724,604.8068 845.1297,612.29352 845.1297,612.88147 C 845.1297,613.46942 845.63446,614.23288 846.25136,614.57804 C 847.67224,615.37306 1086.4166,615.96822 1092.5876,615.19214 z" id="path2474"/>
      <path style="fill:#000000" d="M 123.15051,850.20784 C 120.34499,849.88042 116.99014,849.27349 115.69529,848.85909 C 110.08714,847.06432 100.10666,841.23147 91.37676,834.64673 C 77.740028,824.36088 75.083179,823.16593 65.863028,823.17154 C 58.945053,823.17577 57.914466,823.39227 51.561824,826.17592 C 47.796532,827.82582 44.09584,829.05634 43.338061,828.91041 C 42.580283,828.76447 41.623718,827.68806 41.212361,826.51837 C 40.174475,823.56716 41.998338,821.75978 48.493395,819.30318 C 70.947206,810.81055 76.511125,808.26801 76.10171,806.68704 C 75.989936,806.25542 72.716529,805.12175 68.827471,804.16777 C 47.210361,798.86514 32.195532,784.94997 25.39652,763.91762 C 23.478727,757.98504 23.23538,756.03183 23.196657,746.26052 C 23.160458,737.12592 23.451837,734.22499 24.925175,729.05165 C 30.842635,708.27362 44.663414,694.4693 65.634281,688.391 C 70.764466,686.90405 73.517284,686.63009 82.735368,686.6891 C 92.889534,686.75411 94.275421,686.94672 101.02571,689.23104 C 120.5678,695.84417 132.94853,708.44999 139.69501,728.60342 C 147.00654,750.4448 140.98338,774.64476 124.558,789.42113 C 115.51816,797.55342 105.33319,803.08297 85.074549,810.85719 C 72.643452,815.62761 69.596636,817.89422 76.754871,817.04643 C 84.10395,816.17604 92.380884,817.68955 104.03119,822.03414 C 120.53231,828.18767 126.75989,829.89377 132.96001,829.95944 C 141.48591,830.04975 144.66596,828.85272 149.59848,823.69641 C 153.57102,819.54364 153.93032,819.34041 154.92413,820.68406 C 156.33146,822.58681 155.70653,826.45888 152.87456,833.38332 C 148.96777,842.93573 144.02559,847.32878 134.41626,849.79065 C 131.76425,850.47008 129.29225,850.97584 128.92294,850.91457 C 128.55361,850.85329 125.95602,850.53526 123.15051,850.20784 z M 95.565731,796.95729 C 103.93802,792.63834 109.32638,784.70833 111.67173,773.25423 C 117.7008,743.80981 113.41888,714.87325 101.22892,702.68329 C 95.418682,696.87306 90.021386,694.63429 81.599302,694.54102 C 75.494608,694.47343 74.365729,694.70823 69.659774,697.02443 C 61.046008,701.26401 55.926276,708.64166 52.861095,721.23174 C 51.111509,728.41807 50.424963,751.29914 51.693657,760.1399 C 54.511106,779.773 63.146478,793.87254 74.650505,797.62306 C 81.300407,799.79106 90.649366,799.49346 95.565731,796.95729 z M 1214.3593,810.21846 C 1205.7638,807.4669 1202.336,807.30285 1199.5316,809.50881 C 1195.3946,812.76295 1195.1327,811.85139 1195.1327,794.20182 C 1195.1327,782.92693 1195.4021,777.96935 1196.0365,777.57734 C 1197.329,776.77846 1198.8056,779.14924 1199.4033,782.98344 C 1199.6862,784.79835 1201.0734,788.5787 1202.4859,791.38422 C 1204.4809,795.34657 1206.1351,797.30863 1209.8973,800.17433 C 1215.2106,804.22165 1218.6842,805.49888 1224.3962,805.50552 C 1229.5623,805.51154 1233.9295,803.12092 1236.6823,798.78022 C 1239.7361,793.96501 1240.2199,790.66563 1238.6649,785.26025 C 1236.9146,779.17567 1231.3231,773.8246 1216.858,764.39093 C 1210.664,760.35144 1204.2516,755.67902 1202.6084,754.00775 C 1192.3439,743.56878 1192.2855,724.83969 1202.4912,716.47686 C 1210.195,710.16416 1218.4252,708.56035 1228.9188,711.32692 C 1243.0332,715.04805 1242.0171,714.94027 1244.1441,712.94205 C 1247.7865,709.52019 1248.1981,710.70706 1248.7843,726.32369 C 1249.2318,738.24177 1249.1329,740.85929 1248.2002,741.79206 C 1247.5826,742.40957 1246.7464,742.71023 1246.3418,742.46018 C 1245.9372,742.21013 1244.2544,738.74429 1242.6022,734.7583 C 1237.6267,722.75444 1230.8478,717.2032 1221.5412,717.51148 C 1217.0536,717.66015 1211.9066,720.23557 1210.067,723.25291 C 1208.1809,726.34641 1207.9594,732.13178 1209.5786,736.00711 C 1210.7956,738.91986 1218.2815,745.47028 1226.9154,751.17754 C 1234.8633,756.43132 1243.735,763.29337 1247.1036,766.79286 C 1248.7116,768.46322 1250.9604,772.11931 1252.1011,774.91753 C 1253.9251,779.392 1254.1272,780.76188 1253.7789,786.28328 C 1253.1421,796.37605 1248.6848,804.56521 1241.9611,807.99537 C 1231.8892,813.13366 1225.1591,813.67571 1214.3593,810.21846 z M 857.29348,811.29073 C 856.43024,811.06026 852.88062,810.01843 849.40539,808.97555 C 841.28595,806.539 839.38769,806.56981 836.96977,809.17745 C 833.39361,813.03412 832.96592,811.37058 832.96592,793.60507 C 832.96592,778.39302 833.03608,777.65092 834.47337,777.65092 C 835.66424,777.65092 836.19325,778.58628 836.99245,782.10495 C 840.16021,796.05326 849.78592,805.0103 861.60966,805.01221 C 864.81179,805.01272 867.61661,804.53619 869.14461,803.73204 C 874.19949,801.07165 878.07212,794.74293 878.08522,789.12099 C 878.10304,781.50632 871.17588,773.71265 856.84028,765.21857 C 844.06109,757.64669 837.22269,751.81913 834.42087,746.11323 C 832.43479,742.06854 832.18124,740.70763 832.18171,734.09674 C 832.18242,725.31116 833.67778,721.22108 838.73995,716.15896 C 843.75559,711.14328 847.582,709.54272 855.51804,709.14071 C 861.34308,708.84564 863.36791,709.10298 868.97385,710.85079 C 876.36841,713.15632 880.27973,713.46436 880.92158,711.79176 C 881.51251,710.25177 883.58263,709.57677 884.74815,710.54404 C 886.21636,711.76256 886.31838,739.8663 884.85896,741.0775 C 883.43046,742.26307 882.72551,741.26195 880.49624,734.8815 C 875.88429,721.68148 868.55149,715.2625 858.08413,715.2625 C 853.38914,715.2625 847.75566,718.8311 845.44753,723.26732 C 844.05175,725.94989 844.03174,731.04335 845.40405,734.32773 C 846.95458,738.03854 854.23409,744.3136 863.38683,749.82906 C 879.38267,759.46821 886.19595,765.44079 889.99459,773.15374 C 891.52039,776.25185 891.82292,778.0998 891.82292,784.32138 C 891.82292,790.73103 891.5357,792.38193 889.77517,796.09278 C 885.32432,805.4743 876.79634,810.83164 865.42728,811.38835 C 861.81691,811.56514 858.15672,811.52121 857.29348,811.29073 z M 895.68213,810.28385 C 894.54706,809.15155 895.64603,807.86418 897.74762,807.86418 C 901.18338,807.86418 904.54121,805.877 906.05776,802.94614 C 907.25601,800.6305 907.32311,796.96321 906.82612,760.94592 C 906.44669,733.45161 905.9931,720.62183 905.33029,718.64384 C 904.1413,715.09521 901.281,712.92225 897.05209,712.35504 C 895.02427,712.08305 893.78482,711.50945 893.78482,710.84299 C 893.78482,709.96249 897.38734,709.76918 913.7962,709.76918 C 931.06092,709.76918 933.80758,709.93075 933.80758,710.94632 C 933.80758,711.70701 933.04409,712.12389 931.64949,712.12468 C 928.58273,712.12641 924.19113,714.52745 923.03965,716.83202 C 921.92914,719.05446 921.7251,763.97408 922.71421,788.45846 L 923.27767,802.40505 L 925.70054,804.82787 C 927.49505,806.62241 929.07344,807.35779 931.78729,807.66367 C 934.56503,807.97676 935.39389,808.37473 935.21395,809.30892 C 935.00614,810.38817 932.55738,810.54551 915.49324,810.57601 C 904.77742,810.59517 895.86239,810.4637 895.68213,810.28385 z M 963.41147,810.35711 C 960.77311,809.86216 961.92168,807.86418 964.8446,807.86418 C 966.37669,807.86418 968.62236,807.35112 969.83497,806.72405 C 974.04921,804.54478 974.2516,802.9301 973.92161,774.1195 C 973.75594,759.6603 973.4028,741.12034 973.13685,732.9196 L 972.6532,718.00916 L 968.7294,717.61678 C 966.57131,717.40097 961.56328,717.40097 957.60056,717.61678 C 951.91003,717.92668 949.93047,718.35633 948.18344,719.66071 C 945.28948,721.82138 943.30537,725.297 942.59697,729.44694 C 942.28244,731.28907 941.54751,732.95549 940.96373,733.15009 C 940.09578,733.43941 939.95766,731.4881 940.20596,722.4447 C 940.37555,716.26923 940.86987,711.02532 941.32534,710.56987 C 941.87326,710.02195 954.85806,709.82107 980.88353,709.95789 L 1019.6261,710.16156 L 1020.1607,712.16098 C 1020.4547,713.26067 1020.9525,718.46951 1021.2669,723.73619 C 1021.772,732.19998 1021.6937,733.31198 1020.5924,733.31198 C 1019.7605,733.31198 1019.3407,732.59478 1019.3292,731.15389 C 1019.2854,725.67104 1013.9452,718.92006 1008.9253,718.00155 C 1007.5352,717.74721 1002.3367,717.64487 997.37314,717.77413 L 988.3484,718.00916 L 988.55793,740.37482 C 988.9332,780.42314 989.61838,800.21731 990.72214,802.89627 C 991.91655,805.79521 994.17155,807.2139 998.55028,807.8212 C 1000.5451,808.09785 1001.6893,808.66538 1001.6893,809.37805 C 1001.6893,810.31682 998.68149,810.50859 983.22666,810.55519 C 973.07218,810.58579 964.15535,810.49666 963.41147,810.35711 z M 1029.086,810.10531 C 1028.3209,808.86743 1029.6199,807.86418 1031.9879,807.86418 C 1035.2537,807.86418 1038.8904,805.80937 1039.7839,803.45932 C 1040.6157,801.27145 1040.6565,768.95283 1039.8659,738.3772 C 1039.2478,714.46708 1039.0645,713.98002 1030.1369,712.53024 C 1028.3387,712.23823 1027.194,711.61794 1027.194,710.93556 C 1027.194,709.98593 1032.5372,709.8199 1062.8903,709.82637 C 1095.7582,709.83338 1098.6419,709.94023 1099.2845,711.17491 C 1100.4531,713.42015 1101.275,731.97776 1100.1899,731.61605 C 1099.6839,731.44738 1098.6598,729.50764 1097.9144,727.30553 C 1094.5575,717.38965 1091.9841,716.14489 1074.6384,716.04691 C 1067.751,716.00801 1060.6086,715.99217 1058.7664,716.01172 L 1055.417,716.04726 L 1055.6274,734.68531 L 1055.8378,753.32336 L 1070.2697,753.53768 C 1082.1348,753.71388 1085.0261,753.53941 1086.5259,752.55673 C 1088.9936,750.93981 1090.0883,748.6843 1090.6662,744.02608 C 1090.9334,741.87272 1091.537,739.98303 1092.0077,739.82679 C 1092.9223,739.5232 1094.3295,772.78752 1093.4614,774.192 C 1092.5994,775.58685 1091.7245,774.1325 1091.1814,770.40154 C 1089.9111,761.6765 1087.6898,760.67827 1070.1628,760.95623 L 1056.6225,761.17096 L 1056.6225,781.05631 L 1056.6225,800.94166 L 1058.4752,802.44102 C 1060.1389,803.78753 1061.699,803.93943 1073.778,803.93107 C 1095.4642,803.91605 1101.0842,801.40188 1106.5755,789.25864 C 1108.0829,785.92505 1109.3266,784.57737 1110.1426,785.3933 C 1110.387,785.63767 1109.3294,789.64589 1107.7926,794.30044 C 1106.2558,798.95497 1104.7537,804.10485 1104.4548,805.7446 C 1103.4699,811.14806 1105.5351,810.87779 1065.6328,810.82485 C 1045.7603,810.79848 1029.3143,810.47468 1029.086,810.10531 z M 1130.2681,810.02227 C 1129.5519,808.86143 1130.9168,807.86418 1133.2219,807.86418 C 1136.5228,807.86418 1139.7183,806.013 1140.9021,803.41502 C 1141.7052,801.65226 1141.7947,793.06458 1141.3422,761.17532 C 1141.0299,739.16041 1140.4772,720.35363 1140.114,719.38249 C 1139.4793,717.68554 1139.0851,717.61678 1129.9918,717.61678 C 1123.7758,717.61678 1119.6512,717.98399 1117.9681,718.68722 C 1114.5267,720.12512 1111.3351,724.0773 1110.7337,727.64558 C 1109.9371,732.37181 1109.5496,733.31198 1108.3983,733.31198 C 1107.4992,733.31198 1107.3886,731.42478 1107.7661,722.52153 C 1108.0177,716.58678 1108.4954,711.4321 1108.8276,711.0667 C 1109.4845,710.3441 1186.4802,710.27224 1187.2015,710.99354 C 1187.7842,711.57634 1189.5449,732.73934 1189.0777,733.54628 C 1188.4329,734.65994 1186.5003,732.39097 1186.5003,730.52032 C 1186.5003,726.03033 1182.7203,720.72847 1178.1475,718.80456 C 1176.1404,717.9601 1162.0323,717.1202 1156.7582,717.53119 C 1155.8253,717.60389 1155.7402,723.32075 1156.1933,755.48145 C 1156.4866,776.30702 1156.9441,795.42876 1157.2098,797.97421 C 1157.8562,804.16479 1160.2637,806.94516 1165.6389,807.70898 C 1167.7611,808.01055 1169.6445,808.69855 1169.8243,809.23787 C 1170.004,809.7772 1169.8569,810.22005 1169.4971,810.22198 C 1169.1375,810.22391 1160.2455,810.3122 1149.7372,810.41817 C 1139.2289,810.52414 1130.4678,810.34598 1130.2681,810.02227 z M 595.26853,808.47776 C 594.05029,806.5991 588.24257,793.2401 571.63175,754.10812 C 555.47268,716.04042 554.36877,714.04612 548.2913,711.94205 C 542.27226,709.85821 545.18143,709.3768 563.79324,709.3768 C 575.53819,709.3768 582.24951,709.66178 582.27479,710.16156 C 582.29662,710.59318 580.68829,711.25289 578.70073,711.62758 C 574.38084,712.44195 572.35036,714.86202 573.18771,718.19834 C 573.69008,720.19988 577.15423,728.46598 593.16992,765.87952 C 596.62301,773.94611 599.65863,780.0052 600.24692,780.0052 C 600.87769,780.0052 604.5822,771.18144 609.80152,757.24716 C 621.17994,726.86962 623.04262,721.37899 623.04262,718.21639 C 623.04262,714.9856 620.56901,712.36586 617.16363,711.99012 C 615.68344,711.82679 614.71983,711.22366 614.55562,710.35775 C 614.31537,709.09087 615.39452,708.98442 628.4784,708.98442 C 639.93474,708.98442 642.66162,709.19024 642.66162,710.05494 C 642.66162,710.64373 641.06641,711.73469 639.1167,712.47929 C 632.60072,714.96776 632.51497,715.14998 613.61928,766.66428 C 598.05163,809.10549 597.97134,809.31571 597.12921,809.83617 C 596.7445,810.07394 595.90719,809.46265 595.26853,808.47776 z M 651.65409,809.38149 C 650.89518,808.15354 651.58764,807.75125 655.7701,806.99028 C 658.24193,806.54054 660.14008,805.61512 661.29967,804.2944 L 663.06538,802.28334 L 663.00291,771.13289 C 662.96855,754.00015 662.69684,734.73851 662.39912,728.32927 L 661.85781,716.67608 L 659.31017,714.39978 C 657.56951,712.84449 655.92688,712.12346 654.12435,712.12346 C 652.67335,712.12346 651.04654,711.59375 650.50922,710.94632 C 649.9719,710.2989 649.84038,709.74225 650.21695,709.70934 C 655.46304,709.25075 721.4145,709.75262 721.86233,710.25453 C 722.64984,711.13712 724.44988,730.04254 723.84033,731.02882 C 723.0096,732.37295 722.0413,730.98366 720.77652,726.63299 C 719.23197,721.31992 715.56451,717.44758 710.84487,716.14652 C 708.56735,715.51867 702.49671,715.27527 692.88626,715.42647 L 678.3682,715.65488 L 678.11982,726.24914 C 677.98321,732.07599 678.10548,740.46311 678.39152,744.88719 L 678.91162,752.93098 L 693.17954,752.93098 C 704.80168,752.93098 707.76978,752.70524 709.18554,751.7136 C 711.65762,749.98208 712.77576,747.62431 713.26023,743.12148 C 713.55901,740.34447 714.02643,739.19768 714.85954,739.19768 C 715.86548,739.19768 716.0623,741.74576 716.2128,756.7173 C 716.34887,770.2514 716.17034,774.1644 715.42804,773.91815 C 714.89956,773.74282 714.26898,772.21555 714.02676,770.5242 C 713.37547,765.97642 711.35204,762.72448 708.2609,761.25764 C 705.97781,760.17424 703.30284,759.9917 692.33494,760.17087 L 679.15296,760.3862 L 679.15296,780.12031 C 679.15296,798.42553 679.26121,799.97394 680.64792,801.50502 C 682.06201,803.06634 682.90823,803.15562 696.29163,803.15562 C 717.65671,803.15562 722.59078,801.11507 728.44116,789.85976 C 729.88656,787.07902 731.48313,784.66588 731.98909,784.49723 C 733.25628,784.07483 733.14173,786.7118 731.74799,790.04748 C 731.10943,791.57579 729.53887,796.44229 728.25788,800.86192 C 726.97689,805.28157 725.46878,809.18941 724.90654,809.54603 C 723.31964,810.55257 652.27924,810.393 651.65409,809.38149 z M 733.33492,809.48793 C 732.74511,808.5336 733.4317,808.18572 737.2252,807.51681 C 741.68238,806.73089 743.69468,805.17807 744.64691,801.78971 C 745.48163,798.81956 745.0938,730.57652 744.19164,721.6777 C 743.60826,715.92333 740.97953,713.02594 735.65568,712.26933 C 733.06371,711.90097 731.73188,711.3357 731.73188,710.60399 C 731.73188,709.67911 735.74724,709.45735 756.05944,709.26042 C 771.46791,709.11104 781.96942,709.33887 784.70318,709.88186 C 793.97488,711.72343 800.44013,716.61909 804.24527,724.67962 C 806.97475,730.46153 807.11679,739.68583 804.56216,745.25386 C 801.93745,750.97448 796.40121,756.37349 790.54289,758.92565 C 787.76268,760.13685 785.48794,761.52473 785.48794,762.00982 C 785.48794,763.00531 807.93004,793.32423 813.44604,799.7808 C 817.32699,804.32344 820.4202,806.31324 824.72594,807.03683 C 826.42275,807.322 827.4726,807.94326 827.4726,808.66225 C 827.4726,809.63277 825.50026,809.85172 815.59777,809.98043 C 807.33464,810.08784 803.37505,809.84915 802.57915,809.19567 C 801.1709,808.0394 789.50379,792.72663 777.64762,776.47378 C 772.76733,769.7837 768.3855,764.04129 767.91022,763.71287 C 767.43495,763.38445 765.63351,763.20788 763.90704,763.32049 L 760.768,763.52524 L 760.85383,781.98884 C 760.96066,804.97151 761.39236,806.21955 769.69446,807.54711 C 771.66339,807.86195 772.93178,808.48669 772.93178,809.14162 C 772.93178,810.02545 769.42363,810.21846 753.3591,810.21846 C 742.12571,810.21846 733.59404,809.9072 733.33492,809.48793 z M 775.78266,755.17887 C 783.75515,752.19598 788.1445,746.71755 789.1042,738.55203 C 790.19061,729.30819 784.07409,719.06824 776.07082,716.73232 C 771.5689,715.41834 763.66923,715.42276 761.27704,716.7406 L 759.43181,717.75713 L 759.71107,736.71739 C 759.86466,747.14553 760.30154,756.16292 760.6819,756.75605 C 761.62283,758.2233 769.97806,757.35065 775.78266,755.17887 z M 1275.1782,809.05353 C 1275.1782,808.57211 1277.3347,807.73278 1279.9705,807.18838 C 1285.636,806.01819 1288.0295,803.96443 1289.322,799.16442 C 1290.2744,795.62739 1289.8346,748.88186 1288.546,716.68874 C 1287.9953,702.92942 1287.745,700.947 1286.2546,698.53541 C 1285.3243,697.03012 1283.4521,695.40698 1282.0379,694.87952 C 1280.6389,694.35775 1278.6799,693.60842 1277.6844,693.21433 C 1272.9369,691.33487 1277.8748,690.93494 1305.8272,690.93494 C 1333.5488,690.93494 1335.2081,691.01838 1343.8381,692.84625 C 1354.0016,694.99894 1363.5792,699.28612 1368.8374,704.03653 C 1382.6241,716.49199 1389.0179,729.34793 1390.2591,747.10896 C 1391.4419,764.03268 1385.3054,783.19735 1375.3723,793.60154 C 1371.5251,797.63118 1363.1436,802.88228 1357.1322,805.02908 C 1344.0721,809.69309 1344.1505,809.6854 1308.3343,809.81183 C 1284.3964,809.89632 1275.1782,809.68551 1275.1782,809.05353 z M 1334.9104,802.02796 C 1355.396,797.68569 1369.3138,779.82446 1370.6555,756.1548 C 1371.7198,737.38 1367.4623,723.94818 1356.5676,711.71006 C 1351.371,705.87263 1342.6946,700.60783 1335.898,699.1679 C 1329.5449,697.8219 1316.4498,697.7664 1310.8848,699.06186 L 1306.961,699.97528 L 1307.2746,742.7369 C 1307.4472,766.25579 1307.8003,789.01967 1308.0594,793.32328 L 1308.5305,801.14805 L 1311.6695,802.09153 C 1315.9945,803.39143 1328.6411,803.35685 1334.9104,802.02796 z M 320.31746,808.68845 C 309.77801,807.01756 297.15833,797.84143 293.06097,788.86947 C 288.61608,779.13654 288.52862,778.24261 288.0095,737.23578 C 287.58467,703.6759 287.3718,698.8871 286.20948,696.74099 C 284.47608,693.54042 281.88239,691.92291 277.23406,691.1436 C 274.69192,690.71742 273.43205,690.12215 273.43205,689.34724 C 273.43205,688.34969 276.28858,688.21561 293.94212,688.38447 C 305.22266,688.49238 315.72863,688.58066 317.28873,688.58066 C 321.69651,688.58066 321.01941,690.70867 316.39766,691.38114 C 314.34747,691.67944 311.67109,692.43082 310.45013,693.05087 C 306.08802,695.26612 305.99904,696.13052 306.00551,736.22963 C 306.00898,757.69212 306.34796,775.01624 306.82155,777.93493 C 307.8788,784.45051 310.49571,789.48039 314.97788,793.6119 C 321.03449,799.19469 324.48564,800.33606 335.42809,800.37525 C 344.53415,800.40785 345.03355,800.32069 350.54713,797.73659 C 360.56358,793.04211 365.65062,785.58054 367.16946,773.35533 C 368.1462,765.49344 368.22601,706.21461 367.26654,701.24813 C 366.09908,695.20506 363.33523,692.92521 355.24328,691.33038 C 354.03792,691.09281 353.08519,690.3857 353.08519,689.72865 C 353.08519,688.71042 355.59096,688.58055 371.72323,688.76265 C 387.60413,688.94192 390.36128,689.14574 390.36128,690.14048 C 390.36128,690.92346 389.1983,691.48018 386.82986,691.83097 C 381.65542,692.59735 379.23945,693.73689 377.64998,696.16085 C 376.35187,698.14045 376.19698,701.54637 375.76575,737.59196 C 375.46172,763.00578 374.97394,778.25093 374.38359,780.78996 C 371.51715,793.11844 362.04745,803.35516 349.97943,807.17079 C 344.21514,808.99333 327.60216,809.84333 320.31746,808.68845 z M 499.33359,808.47204 C 498.57572,807.24577 499.99578,806.29466 502.58451,806.29466 C 506.45515,806.29466 509.10372,803.6274 509.98748,798.83944 C 510.88157,793.99546 510.16697,722.27167 509.18554,718.35043 C 508.2302,714.5334 505.24333,711.92996 501.2004,711.39037 C 496.79345,710.80219 496.48315,708.57351 500.81625,708.63128 C 502.43482,708.65286 511.38108,708.74115 520.69684,708.82747 C 533.84125,708.94927 537.56222,709.20412 537.31152,709.96537 C 537.13384,710.50489 536.13327,711.05429 535.08803,711.18625 C 530.6469,711.74694 528.02162,713.10954 526.73056,715.52406 C 525.52369,717.7811 525.42164,721.64605 525.61851,757.63954 C 525.73849,779.57398 526.17117,798.56519 526.5875,800.17069 C 527.53628,803.82938 530.34874,806.06699 534.84635,806.74144 C 536.92731,807.0535 538.23574,807.62888 538.05987,808.15457 C 537.71622,809.18178 499.96351,809.49126 499.33359,808.47204 z M 393.8927,807.48108 C 393.8927,806.72 395.01727,806.13338 397.12122,805.79695 C 398.89691,805.51301 401.28062,804.47998 402.41835,803.50134 L 404.48696,801.722 L 404.48696,761.66124 L 404.48696,721.60048 L 400.56316,717.58516 C 396.19085,713.11087 393.33482,711.3387 390.49634,711.3387 C 388.54961,711.3387 386.24864,709.42642 387.38033,708.74906 C 387.725,708.54275 394.0092,708.42303 401.34522,708.483 L 414.68344,708.59204 L 424.49564,720.41408 C 429.89235,726.91619 442.24516,742.01301 451.94631,753.96256 C 461.64747,765.91211 470.055,775.68902 470.6297,775.68902 C 471.48841,775.68902 471.59061,770.96944 471.20323,749.20337 C 470.94398,734.63626 470.55253,721.24172 470.33333,719.43772 C 469.77454,714.83854 467.62805,712.4614 462.95169,711.26289 C 460.79354,710.70977 459.02778,709.84417 459.02778,709.33934 C 459.02778,708.66144 463.05419,708.48605 474.427,708.66854 C 482.89657,708.80445 489.99478,709.08419 490.20079,709.2902 C 491.07919,710.1686 489.36163,711.3387 487.19386,711.3387 C 484.16976,711.3387 480.53529,713.23042 479.26271,715.46681 C 478.47523,716.85073 478.32144,726.83871 478.53937,762.44565 C 478.74865,796.64179 478.58999,807.80665 477.8886,808.24014 C 476.33792,809.19851 473.09316,805.60074 449.2391,776.47378 C 443.76014,769.7837 433.42866,757.16982 426.28026,748.44292 C 419.13187,739.71602 412.98145,732.76231 412.61268,732.99022 C 411.84826,733.46266 411.84611,767.80742 412.60923,788.0279 C 413.19381,803.51766 413.42796,804.06562 420.20061,805.79333 C 422.29048,806.32647 424.14185,807.18708 424.31476,807.7058 C 424.55241,808.41874 420.87809,808.64894 409.26092,808.64894 C 396.1777,808.64894 393.8927,808.4753 393.8927,807.48108 z M 198.09509,807.04401 C 191.1892,806.74877 174.31559,806.45939 160.59817,806.40094 C 139.19168,806.30972 135.59324,806.12744 135.20458,805.11461 C 134.67013,803.72187 142.77431,790.43057 173.00396,743.12148 C 199.66082,701.40378 201.96062,697.60375 201.24863,696.45173 C 200.55734,695.33321 159.31599,695.35967 156.3577,696.48054 C 151.36211,698.37332 148.20862,703.21193 146.66158,711.35801 C 145.62195,716.83225 144.80043,718.39457 143.59749,717.18516 C 143.13187,716.71704 143.27318,712.05972 143.97728,704.66824 C 145.26267,691.17469 145.65061,688.98264 146.93994,687.92792 C 148.03895,687.02889 225.99142,688.38793 226.97792,689.32333 C 227.32523,689.65264 224.78105,694.2994 221.32419,699.64944 C 217.86733,704.99949 211.88913,714.32079 208.03931,720.36344 C 204.18949,726.40609 194.06712,742.29748 185.54515,755.67764 C 177.02317,769.0578 169.2419,781.2412 168.25343,782.75186 C 163.37873,790.20178 160.03423,796.27464 160.03423,797.67612 C 160.03423,799.17209 160.65939,799.23796 176.318,799.39168 C 205.7465,799.6806 210.00996,799.46624 213.94754,797.49971 C 219.99918,794.47738 225.81119,786.36147 227.22316,778.9616 C 227.66985,776.62057 229.36196,774.91153 230.30218,775.85175 C 230.92478,776.47435 225.30282,805.58059 224.33464,806.74718 C 223.32174,807.96765 220.45765,808.00005 198.09509,807.04401 z M 1380.336,807.10967 C 1380.336,806.69468 1381.8121,805.95767 1383.6164,805.47184 C 1387.2053,804.50546 1390.6148,801.34151 1392.905,796.85226 C 1396.4803,789.84424 1423.2525,721.24167 1425.9064,712.28787 C 1426.5697,710.05006 1427.2948,708.99731 1428.0686,709.14883 C 1429.3411,709.39801 1434.8767,721.20622 1442.891,740.7672 C 1458.8152,779.63443 1467.3999,798.29435 1470.8118,801.4568 C 1471.8991,802.46474 1473.9853,803.70074 1475.4477,804.20346 C 1481.2243,806.18938 1478.4284,806.68709 1460.3122,806.89787 C 1446.145,807.0627 1442.2624,806.89588 1442.5166,806.13328 C 1442.6955,805.5968 1444.0429,804.91221 1445.5109,804.61197 C 1448.7391,803.95173 1450.9644,801.41658 1450.9644,798.39906 C 1450.9644,796.14458 1446.9153,784.20487 1444.1943,778.43568 L 1442.7138,775.29664 L 1429.1839,775.08193 C 1421.7426,774.96384 1413.9769,775.14842 1411.9268,775.49212 L 1408.1995,776.11701 L 1404.5161,786.30109 C 1400.285,797.99945 1399.7664,802.57745 1402.5055,804.04904 C 1403.4766,804.57079 1405.3043,805.2103 1406.5668,805.47015 C 1407.8294,805.73001 1409.0065,806.37497 1409.1827,806.9034 C 1409.4276,807.63829 1406.0742,807.86418 1394.9194,807.86418 C 1386.1101,807.86418 1380.336,807.56545 1380.336,807.10967 z M 1436.3253,768.89506 C 1439.1052,768.43578 1439.3098,768.22898 1438.9187,766.27351 C 1438.086,762.11023 1425.6929,734.09674 1424.6837,734.09674 C 1424.1233,734.09674 1422.7025,736.48045 1421.5263,739.39387 C 1417.6161,749.08045 1411.6601,767.32135 1412.0639,768.37362 C 1412.3665,769.16212 1414.9621,769.40887 1422.8846,769.4023 C 1428.6171,769.39755 1434.6654,769.16929 1436.3253,768.89506 z M 1486.4309,806.23031 C 1486.6302,805.63228 1488.215,804.86181 1489.9526,804.51818 C 1495.1027,803.49972 1496.769,801.01872 1497.3608,793.48792 C 1497.9234,786.33019 1497.3604,734.93737 1496.5857,722.71772 L 1496.0881,714.87012 L 1487.055,714.65066 C 1478.513,714.44312 1477.7877,714.54978 1473.7141,716.61256 C 1470.0753,718.45514 1469.1016,719.43335 1467.4444,722.91112 C 1466.3653,725.17558 1465.2176,727.02958 1464.8939,727.03111 C 1463.8727,727.03595 1464.2054,710.18303 1465.247,709.14137 C 1465.9373,708.45114 1473.01,708.17692 1491.7327,708.11449 C 1505.7819,708.06764 1522.2206,707.78607 1528.2633,707.48876 C 1535.795,707.11821 1539.5599,707.21699 1540.2356,707.80289 C 1541.1037,708.55561 1542.7041,720.36912 1542.7611,726.44533 C 1542.7942,729.97933 1541.4104,728.90334 1540.0927,724.37055 C 1538.6291,719.33612 1535.0325,715.7762 1530.0393,714.41964 C 1526.4072,713.43289 1511.35,714.06238 1510.6227,715.23138 C 1510.3977,715.59275 1510.4396,722.01585 1510.7156,729.50495 C 1510.9917,736.99404 1511.272,754.24545 1511.3384,767.84142 C 1511.4049,781.43739 1511.753,794.0809 1512.1121,795.93812 C 1512.9407,800.22427 1515.5594,803.0172 1519.8174,804.15603 C 1521.6571,804.64808 1523.1623,805.33057 1523.1623,805.67266 C 1523.1623,806.01476 1515.967,806.29466 1507.1728,806.29466 C 1498.3787,806.29466 1490.0325,806.52483 1488.6259,806.80616 C 1486.6444,807.20246 1486.1501,807.07278 1486.4309,806.23031 z M 1531.4255,805.54744 C 1530.8939,804.6873 1531.4189,804.41263 1535.1683,803.58897 C 1541.2943,802.24324 1545.6862,793.39412 1560.6998,752.14622 C 1565.0201,740.27673 1570.3559,725.79791 1572.5572,719.97106 C 1574.7585,714.14422 1576.7416,708.87268 1576.964,708.25653 C 1577.9693,705.47192 1579.8386,709.40097 1597.846,752.14622 C 1609.8745,780.69913 1615.7599,794.02783 1617.3898,796.40645 C 1619.5563,799.56825 1623.5167,802.37086 1625.8183,802.37086 C 1626.8214,802.37086 1627.5354,802.8603 1627.5354,803.548 C 1627.5354,804.5281 1625.9795,804.72514 1618.2404,804.72514 C 1613.1281,804.72514 1605.1341,804.95833 1600.4759,805.24335 C 1593.5305,805.6683 1592.0704,805.5701 1592.3612,804.69756 C 1592.5562,804.11237 1593.7101,803.36766 1594.9254,803.04265 C 1598.3227,802.13406 1600.8536,799.33484 1600.8536,796.48582 C 1600.8536,793.58124 1598.1446,785.35046 1594.6894,777.75733 L 1592.2382,772.37041 L 1579.8697,772.93433 C 1573.0671,773.24448 1565.4304,773.72631 1562.8992,774.00506 L 1558.2971,774.51188 L 1556.3648,779.61282 C 1548.9699,799.13394 1548.8872,802.71701 1555.805,803.87441 C 1561.7982,804.87713 1557.8348,805.68052 1545.2106,806.02194 C 1536.3217,806.26234 1531.7705,806.10568 1531.4255,805.54744 z M 1584.9622,767.33291 C 1588.1346,766.95186 1589.0822,766.52915 1589.0822,765.49506 C 1589.0822,762.58681 1575.6173,733.31198 1574.2796,733.31198 C 1573.125,733.31198 1562.6511,760.19489 1561.8269,765.27344 L 1561.4102,767.84142 L 1571.1262,767.8346 C 1576.47,767.83085 1582.6962,767.60509 1584.9622,767.33291 z M 1687.5758,803.95059 C 1687.3019,803.50726 1687.5415,803.01079 1688.1084,802.84732 C 1688.6753,802.68385 1690.6072,802.15227 1692.4016,801.66603 C 1696.7062,800.49951 1699.6574,797.02081 1702.8643,789.33281 C 1706.1384,781.48388 1732.0694,712.81916 1740.7042,689.13357 C 1742.3201,684.70113 1743.4237,686.48703 1752.7286,708.59204 C 1759.9932,725.85039 1777.9109,769.01122 1782.683,780.74769 C 1787.0668,791.52897 1787.8656,793.06254 1790.8966,796.51466 C 1793.6194,799.61569 1796.9073,801.5861 1799.3588,801.5861 C 1800.2732,801.5861 1800.9674,802.09966 1800.9674,802.77606 C 1800.9674,803.81482 1798.3249,803.93946 1780.1705,803.75701 C 1767.1357,803.62601 1759.3008,803.2551 1759.1782,802.76324 C 1759.0707,802.33162 1760.5412,801.77052 1762.4459,801.51634 C 1766.6329,800.95761 1769.577,798.00443 1769.577,794.36318 C 1769.577,791.65 1765.0469,777.9093 1761.6741,770.39189 L 1759.4735,765.48714 L 1739.8329,765.48714 C 1720.6612,765.48714 1720.1711,765.52662 1719.3071,767.14113 C 1717.6441,770.24846 1710.9398,790.19978 1710.4207,793.58636 C 1709.9588,796.59882 1710.143,797.20607 1712.1175,799.18059 C 1713.4986,800.56172 1715.5879,801.60765 1717.6673,801.95896 C 1719.6501,802.29395 1720.88,802.88938 1720.7009,803.42757 C 1720.3017,804.62763 1688.3065,805.1328 1687.5758,803.95059 z M 1754.9947,758.73272 C 1755.6775,758.47074 1756.2361,757.8229 1756.2361,757.29309 C 1756.2361,756.76329 1753.1115,749.12023 1749.2926,740.30853 C 1739.0515,716.67817 1738.1975,715.25466 1736.7392,719.38249 C 1736.3961,720.35363 1733.1633,729.38714 1729.5553,739.45695 C 1724.1413,754.5674 1723.1911,757.88968 1724.1166,758.47537 C 1725.3569,759.26026 1753.0192,759.49081 1754.9947,758.73272 z M 1809.8888,802.98856 C 1809.444,802.26883 1810.3902,801.90223 1814.4089,801.23724 C 1818.077,800.63026 1821.0234,797.86529 1822.088,794.03099 C 1823.8464,787.69806 1821.8062,698.83332 1819.8069,694.67356 C 1818.4188,691.78539 1815.6533,690.10021 1811.2738,689.47374 C 1809.274,689.18769 1807.7254,688.60487 1807.8325,688.17858 C 1807.9541,687.69422 1817.4792,687.32133 1833.2285,687.18439 C 1853.9655,687.00408 1859.2718,687.18093 1863.1819,688.18264 C 1872.855,690.66078 1881.5216,697.47948 1885.394,705.65862 C 1890.8834,717.25332 1887.3264,731.72948 1877.0891,739.45679 C 1875.1468,740.92287 1873.4703,742.34719 1873.3635,742.62194 C 1873.2567,742.89669 1875.143,744.15285 1877.5554,745.41342 C 1887.5813,750.65245 1892.8907,758.96282 1893.3886,770.1957 C 1893.7292,777.88101 1892.1879,783.44553 1888.0541,789.45367 C 1883.9666,795.39464 1875.5557,800.68169 1867.672,802.26566 C 1862.6289,803.27891 1810.4716,803.93143 1809.8888,802.98856 z M 1862.1178,794.09764 C 1873.9903,787.62185 1878.1781,771.69603 1871.4749,758.5127 C 1867.085,749.87882 1860.266,746.34597 1847.8848,746.29092 C 1842.7193,746.26796 1840.7481,746.55857 1839.828,747.47869 C 1838.7538,748.55293 1838.6809,751.46948 1839.2114,772.16448 L 1839.813,795.63211 L 1841.7749,796.22015 C 1842.8539,796.54357 1846.9151,796.72054 1850.7996,796.61343 C 1856.9325,796.44431 1858.4228,796.11305 1862.1178,794.09764 z M 1856.8464,738.37033 C 1861.631,736.74004 1866.2888,732.61716 1868.5212,728.03631 C 1870.0087,724.98394 1870.3547,722.97475 1870.3834,717.2244 C 1870.4142,711.03568 1870.1466,709.60756 1868.2204,705.68521 C 1865.8702,700.89922 1863.1277,698.16146 1857.9539,695.43667 C 1855.2477,694.01146 1853.3861,693.73098 1846.4834,693.70847 L 1838.2435,693.6816 L 1838.3394,715.5921 C 1838.4279,735.80564 1838.5459,737.58344 1839.8627,738.54633 C 1841.8523,740.00118 1852.3803,739.89208 1856.8464,738.37033 z" id="path2472"/>
    </g>
  </g>
</svg>